/* XPM */
static char *result[] = {
/* columns rows colors chars-per-pixel */
"64 64 203 2 ",
"   c #080605",
".  c #161A16",
"X  c #1C1D1B",
"o  c #250C1D",
"O  c #231811",
"+  c #1E201D",
"@  c #222A1D",
"#  c #38261C",
"$  c #281B23",
"%  c #3D1D31",
"&  c #232422",
"*  c #262A26",
"=  c #2C2228",
"-  c #2B2B2B",
";  c #34292A",
":  c #293524",
">  c #35382A",
",  c #3C2936",
"<  c #353635",
"1  c #383835",
"2  c #3B3A3B",
"3  c #440E35",
"4  c #491237",
"5  c #471937",
"6  c #4B1439",
"7  c #52173E",
"8  c #52193D",
"9  c #5C1A3B",
"0  c #5F2F2C",
"q  c #453223",
"w  c #493123",
"e  c #423329",
"r  c #593B2C",
"t  c #482738",
"y  c #512839",
"u  c #433C39",
"i  c #533837",
"p  c #672E37",
"a  c #762A35",
"s  c #2E4026",
"d  c #33462C",
"f  c #344B29",
"g  c #39562C",
"h  c #3E5C31",
"j  c #3E6130",
"k  c #44443A",
"l  c #584E3D",
"z  c #445733",
"x  c #405E32",
"c  c #644737",
"v  c #456535",
"b  c #487336",
"n  c #551741",
"m  c #581A44",
"M  c #5C1A46",
"N  c #5F144A",
"B  c #5E1B49",
"V  c #641B4D",
"C  c #691E4D",
"Z  c #6B1D52",
"A  c #741E59",
"S  c #5C264A",
"D  c #483E44",
"F  c #543844",
"G  c #64244D",
"H  c #652A4C",
"J  c #682E4F",
"K  c #643847",
"L  c #67324E",
"P  c #68324E",
"I  c #693E4F",
"U  c #6A2051",
"Y  c #682852",
"T  c #712256",
"R  c #76215B",
"E  c #742959",
"W  c #683753",
"Q  c #72385F",
"!  c #7A3865",
"~  c #464545",
"^  c #484647",
"/  c #474847",
"(  c #4C4548",
")  c #594743",
"_  c #5E5946",
"`  c #65454C",
"'  c #6A424F",
"]  c #6D5449",
"[  c #6C4850",
"{  c #754658",
"}  c #6D5451",
"|  c #6D5A50",
" . c #597841",
".. c #676B4A",
"X. c #6B7F4D",
"o. c #6F6251",
"O. c #6F6D51",
"+. c #736B54",
"@. c #717652",
"#. c #83483E",
"$. c #891F40",
"%. c #952241",
"&. c #9D2343",
"*. c #90234F",
"=. c #952555",
"-. c #913051",
";. c #A82648",
":. c #A22754",
">. c #B92B57",
",. c #A93453",
"<. c #882569",
"1. c #8D296D",
"2. c #9A2869",
"3. c #883968",
"4. c #91336F",
"5. c #952873",
"6. c #9A2976",
"7. c #9E2B7A",
"8. c #8D3D74",
"9. c #963772",
"0. c #A32A73",
"q. c #A22C7C",
"w. c #A5377D",
"e. c #C32D54",
"r. c #CB2E57",
"t. c #C42D5B",
"y. c #CB2F5A",
"u. c #CB3065",
"i. c #8B5D45",
"p. c #97644B",
"a. c #A77153",
"s. c #B3795A",
"d. c #8A4569",
"f. c #9B4675",
"g. c #A3467F",
"h. c #9D6966",
"j. c #A9706C",
"k. c #BB7D75",
"l. c #BF7B79",
"z. c #558B3E",
"x. c #5F9E44",
"c. c #668949",
"v. c #6C9C4C",
"b. c #788856",
"n. c #769A54",
"m. c #789855",
"M. c #62A346",
"N. c #67AD49",
"B. c #70A54F",
"V. c #69B24B",
"C. c #70B04E",
"Z. c #70BF4E",
"A. c #77A254",
"S. c #73AB52",
"D. c #78AE55",
"F. c #77B853",
"G. c #7ABD55",
"H. c #73C450",
"J. c #7BC356",
"K. c #76CA52",
"L. c #7CCC56",
"P. c #7DD556",
"I. c #7ED957",
"U. c #C38563",
"Y. c #DA926C",
"T. c #CC8D77",
"R. c #EC9E75",
"E. c #E69E78",
"W. c #ECA077",
"Q. c #F0A177",
"!. c #A72D80",
"~. c #AD2E85",
"^. c #B02F87",
"/. c #B22F88",
"(. c #AE3085",
"). c #B3308A",
"_. c #BA338F",
"`. c #BC3391",
"'. c #C5348C",
"]. c #C33495",
"[. c #C83698",
"{. c #CB369C",
"}. c #CF39A2",
"|. c #D435A2",
" X c #D239A3",
".X c #D93AA7",
"XX c #DC3DAB",
"oX c #E23DAE",
"OX c #E53EB2",
"+X c #E93FB3",
"@X c #B04189",
"#X c #DC42B2",
"$X c #EC40B7",
"%X c #F243BE",
"&X c #EF45C3",
"*X c #FD45C6",
"=X c #FA46C8",
"-X c #CFA184",
";X c #DDAA89",
":X c #EEBA96",
">X c #F8B692",
",X c #FABA96",
"<X c #FBC39E",
/* pixels */
"I.I.I.I.I.I.I.I.I.I.I.I.I.I.I.I.I.I.I.I.I.I.I.I.I.I.I.I.I.I.I.I.I.I.I.I.I.I.I.I.I.I.I.I.I.I.I.I.I.I.I.I.I.I.I.I.I.I.I.I.I.I.I.I.",
"I.I.I.I.I.I.I.I.I.I.I.I.I.I.I.I.I.I.I.I.I.I.I.I.I.I.I.I.I.I.I.I.I.I.I.I.I.I.I.I.I.I.I.I.I.I.I.I.I.I.I.I.I.I.I.I.I.I.I.I.I.I.I.I.",
"I.I.I.I.I.I.I.I.I.I.I.I.I.I.I.I.I.I.I.I.I.I.I.I.I.I.I.I.I.I.I.I.I.I.I.I.I.I.I.I.I.I.I.I.I.I.I.I.I.I.I.I.I.I.I.I.I.I.I.I.I.I.I.I.",
"I.I.I.I.I.I.I.I.I.I.I.I.I.I.I.I.I.I.I.I.I.I.I.I.I.I.I.I.I.I.I.I.I.I.I.I.I.I.I.I.I.I.I.I.I.I.I.I.I.I.I.I.I.I.I.I.I.I.I.I.I.I.I.I.",
"I.I.I.I.I.I.I.I.I.I.I.I.I.I.I.I.I.I.I.I.I.I.I.I.I.I.I.I.I.I.I.I.I.I.I.I.I.I.I.I.I.I.I.I.I.I.I.I.I.I.I.I.I.I.I.I.I.I.I.I.I.I.I.I.",
"I.I.I.I.I.I.I.I.I.I.I.I.I.I.I.I.I.I.I.I.I.I.I.I.I.I.I.I.I.I.I.I.I.I.I.I.I.I.I.I.I.I.I.I.I.I.I.I.I.I.I.I.I.I.I.I.I.I.I.I.I.I.I.I.",
"I.I.I.I.I.I.I.I.I.I.I.I.I.I.I.I.I.I.I.I.I.I.I.I.I.I.I.I.I.I.I.I.I.I.I.I.I.I.I.I.I.I.I.I.I.I.I.I.I.I.I.I.I.I.I.I.I.I.I.I.I.I.I.I.",
"I.I.I.I.I.I.I.I.I.I.I.I.I.I.I.I.I.I.I.I.I.I.I.I.I.I.I.I.I.I.I.I.I.I.I.I.I.I.I.I.I.I.I.I.I.I.I.I.I.I.I.I.I.I.I.I.I.I.I.I.I.I.I.I.",
"I.I.I.I.I.I.I.I.I.I.I.I.I.I.I.I.I.I.I.I.I.I.I.I.I.I.I.I.I.I.I.I.I.I.I.I.I.I.I.I.I.I.I.I.I.I.I.I.I.I.I.I.I.I.I.I.I.I.I.I.I.I.I.I.",
"I.I.I.I.I.I.I.I.I.I.I.I.I.I.I.I.I.I.I.I.I.I.I.I.I.I.I.I.I.I.I.I.I.I.I.I.I.I.I.I.I.I.I.I.I.I.I.I.I.I.I.I.I.I.I.I.I.I.I.I.I.I.I.I.",
"I.I.I.I.I.I.I.I.I.I.I.I.I.I.I.I.I.I.I.I.I.I.I.I.I.I.I.I.I.I.I.I.I.I.I.I.I.I.I.I.I.I.I.I.I.I.I.I.I.I.I.I.I.I.I.I.I.I.I.I.I.I.I.I.",
"I.I.I.I.I.I.I.I.I.I.I.I.I.I.I.I.I.I.I.I.I.I.I.I.I.I.I.I.I.I.I.I.I.I.I.I.I.I.I.I.I.I.I.I.I.I.I.I.I.I.I.I.I.I.I.I.I.I.I.I.I.I.I.I.",
"I.I.I.I.I.I.I.I.I.I.I.I.I.I.I.I.I.I.I.I.I.I.I.I.I.I.I.I.I.I.I.I.I.I.I.I.I.I.I.I.I.I.I.I.I.I.I.I.I.I.I.I.I.I.I.I.I.I.I.I.I.I.I.I.",
"I.I.I.I.I.I.I.I.I.I.I.I.I.I.I.I.I.I.I.I.I.I.I.I.I.I.I.I.I.I.P.I.I.I.I.I.I.I.I.I.I.I.I.I.I.I.I.I.I.I.I.I.I.I.I.I.I.I.I.I.I.I.I.I.",
"I.I.I.I.I.I.I.I.I.I.I.I.I.I.I.I.I.I.I.I.I.I.I.I.I.I.I.I.I.I.P.I.I.I.I.I.I.I.I.I.I.I.I.I.I.I.I.I.I.I.I.I.I.I.I.I.I.I.I.I.I.I.I.I.",
"I.I.I.I.I.I.I.I.I.I.I.I.I.I.I.I.I.I.I.I.I.I.I.I.I.I.I.I.I.J.n.n.n.n.J.P.I.I.I.I.I.I.I.I.I.I.I.I.I.I.I.I.I.I.I.I.I.I.I.I.I.I.I.I.",
"I.I.I.I.I.I.I.I.I.I.I.I.I.I.I.I.I.I.I.I.I.I.I.I.I.I.I.P.P.D.I L W J n.P.P.P.P.I.I.I.I.I.I.I.I.I.I.I.I.I.I.I.I.I.I.I.I.I.I.I.I.I.",
"I.I.I.I.I.I.I.I.I.I.I.I.I.I.I.I.I.I.I.I.I.I.I.I.I.I.I.L.G.m.E T T Z b.F.G.H.H.L.I.I.I.I.I.I.I.I.I.I.I.I.I.I.I.I.I.I.I.I.I.I.I.I.",
"I.I.I.I.I.I.I.I.I.I.I.I.I.I.I.I.I.I.I.I.I.I.I.I.I.I.I.@.' 3.#XoXXXOXf.I ) d h V.P.P.I.I.I.I.I.I.I.I.I.I.I.I.I.I.I.I.I.I.I.I.I.I.",
"I.I.I.I.I.I.I.I.I.I.I.I.I.I.I.I.I.I.I.I.I.I.I.I.I.I.I.o.V 1.&X*X=X=X!.V m & > M.P.P.I.I.I.I.I.I.I.I.I.I.I.I.I.I.I.I.I.I.I.I.I.I.",
"I.I.I.I.I.I.I.I.I.I.I.I.I.I.I.I.I.I.I.I.I.I.I.I.L.b.O.f.`.]. X|. X X].`.7.t F S.P.P.I.I.I.I.I.I.I.I.I.I.I.I.I.I.I.I.I.I.I.I.I.I.",
"I.I.I.I.I.I.I.I.I.I.I.I.I.I.I.I.I.I.I.I.I.I.I.I.F.` M ].=X+X/././.~.OX=X.XM K S.P.I.I.I.I.I.I.I.I.I.I.I.I.I.I.I.I.I.I.I.I.I.I.I.",
"I.I.I.I.I.I.I.I.I.I.I.I.I.I.I.I.I.I.I.I.G.A.A.A.m.d.1.].$X.X/././.~. XOX X1.4.b.A.A.n.D.I.I.I.I.I.I.I.I.I.I.I.I.I.I.I.I.I.I.I.I.",
"I.I.I.I.I.I.I.I.I.I.I.I.I.I.I.I.I.I.I.P.@.J J J Q  X&X}.).^././././././.].&X#X3.J J J | L.I.I.I.I.I.I.I.I.I.I.I.I.I.I.I.I.I.I.I.",
"I.I.I.I.I.I.I.I.I.I.I.I.I.I.I.I.I.P.G.G.+.T U Z R .X&X{././././././././.].%XoX<.U T T { G.J.P.I.I.I.I.I.I.I.I.I.I.I.I.I.I.I.I.I.",
"I.I.I.I.I.I.I.I.I.I.I.I.I.I.I.I.P.J.o.' @XXX}.q.q.`.]._././././././././._.].`.!.7.]..X@X{ } F.P.I.I.I.I.I.I.I.I.I.I.I.I.I.I.I.I.",
"I.I.I.I.I.I.I.I.I.I.I.I.I.I.I.I.I.G.I Z `.=X$X).).^.^.^./././././././././.~././.^.oX=X.XZ P D.P.I.I.I.I.I.I.I.I.I.I.I.I.I.I.I.I.",
"I.I.I.I.I.I.I.I.I.I.I.I.I.I.I.I.P.G.I C q.}.].^./././.<.A A A A A A A A <./././.~.].}.).Z P D.P.I.I.I.I.I.I.I.I.I.I.I.I.I.I.I.I.",
"I.I.I.I.I.I.I.I.I.I.I.I.I.I.I.I.P.G.I Z 5.).).^./.)./.A 6 6 4 4 6 4 6 4 V /././.^./.).q.C P D.I.I.I.I.I.I.I.I.I.I.I.I.I.I.I.I.I.",
"I.I.I.I.I.I.I.I.I.I.I.I.I.I.I.I.I.J.o.[ 3.6.q.^.^.6.5.C 6 6 7 n n n 6 4 N 5.6.~.).q.6.4.[ | G.I.I.I.I.I.I.I.I.I.I.I.I.I.I.I.I.I.",
"I.I.I.I.I.I.I.I.I.I.I.I.I.I.I.I.I.P.L.L.O.V R ^.!.V 4 6 6 7 V V V V n 4 6 6 n 7.).<.V [ L.L.I.I.I.I.I.I.I.I.I.I.I.I.I.I.I.I.I.I.",
"I.I.I.I.I.I.I.I.I.I.I.I.I.I.I.I.I.I.I.P.O.M R !.q.V 4 6 6 n V V V V n n 6 6 n 5.!.<.M [ P.I.I.I.I.I.I.I.I.I.I.I.I.I.I.I.I.I.I.I.",
"I.I.I.I.I.I.I.I.I.I.I.I.I.I.I.I.I.I.I.P. .$ % B B n 4 M M V V V V V V B M 6 6 B N 5 $ g L.I.P.I.I.I.I.I.I.I.I.I.I.I.I.I.I.I.I.I.",
"I.I.I.I.I.I.I.I.I.I.I.I.I.I.I.I.I.P.I.I.j . $ 6 4 3 3 N C V V V N V V E B 3 3 4 6 $ . d P.I.P.I.I.I.I.I.I.I.I.I.I.I.I.I.I.I.I.I.",
"I.I.I.I.I.I.I.I.I.I.I.I.I.I.I.I.P.K.b j d - ; , t h.k.i o y l.l.l.@X] O t k.j.F , , - > h v H.P.I.I.I.I.I.I.I.I.I.I.I.I.I.I.I.I.",
"I.I.I.I.I.I.I.I.I.I.I.I.I.I.I.I.P.Z.s X - 2 < 1 ~ -X<Xc   e :X,X,X<Xc   ; <X;X] < < < < & : N.P.I.I.I.I.I.I.I.I.I.I.I.I.I.I.I.I.",
"I.I.I.I.I.I.I.I.I.I.I.I.I.I.I.I.P.H.: X - < < 1 k T.<Xc   > :X,X<X<Xc   > >XE._ < 2 < - . : N.P.I.I.I.I.I.I.I.I.I.I.I.I.I.I.I.I.",
"I.I.I.I.I.I.I.I.I.I.I.I.I.I.I.I.P.Z.s X - < 1 < u U.W.r   # :X,X,X<Xc   # R.Y.) < < < < X : N.P.I.I.I.I.I.I.I.I.I.I.I.I.I.I.I.I.",
"I.I.I.I.I.I.I.I.I.I.I.I.I.I.I.I.P.H.g : > < < 1 u s.Y.c O c :X>X,X<Xc O w Y.U.( < < < > : d V.I.P.I.I.I.I.I.I.I.I.I.I.I.I.I.I.I.",
"I.I.I.I.I.I.I.I.I.I.I.I.I.I.I.I.P.P.N.M.j + = < 1 c c p.a.U.E.R.E.W.U.s.a.c c 1 < * + d M.N.L.P.I.I.I.I.I.I.I.I.I.I.I.I.I.I.I.I.",
"I.I.I.I.I.I.I.I.I.I.I.I.I.I.I.I.P.P.P.P.j . & < < ; q a.Q.Q.Q.Q.R.R.Q.Q.U.w w > 1 = X f P.P.I.I.I.I.I.I.I.I.I.I.I.I.I.I.I.I.I.I.",
"I.I.I.I.I.I.I.I.I.I.I.I.I.I.I.I.I.P.I.P.V.x. .2 t a a #.p.#.i.i.i.i.i.i.#.a a y t v z.x.P.P.P.I.I.I.I.I.I.I.I.I.I.I.I.I.I.I.I.I.",
"I.I.I.I.I.I.I.I.I.I.I.I.I.I.I.I.I.I.I.I.L.P.v.t 8 $.&.a w w w w w w w w 0 %.%.9 8 c.L.P.I.I.I.I.I.I.I.I.I.I.I.I.I.I.I.I.I.I.I.I.",
"I.I.I.I.I.I.I.I.I.I.I.I.I.I.I.I.I.I.I.I.G.B.X.G V %.;.a 0 0 0 0 0 0 0 0 p ;.&.C V ..B.C.P.I.I.I.I.I.I.I.I.I.I.I.I.I.I.I.I.I.I.I.",
"I.I.I.I.I.I.I.I.I.I.I.I.I.I.I.I.I.I.I.P...5 B 5.5.t.r.;.%.%.%.%.%.%.%.%.;.r.e.0.6.U 5 ) P.I.P.I.I.I.I.I.I.I.I.I.I.I.I.I.I.I.I.I.",
"I.I.I.I.I.I.I.I.I.I.I.I.I.I.I.I.I.P.J.J...6 Z 7.0.t.r.;.&.%.;.&.;.&.&.&.;.r.y.0.7.A n ` J.J.P.I.I.I.I.I.I.I.I.I.I.I.I.I.I.I.I.I.",
"I.I.I.I.I.I.I.I.I.I.I.I.I.I.I.I.P.J.| [ 9._.`.].'.u.r.e.e.e.e.e.>.e.e.e.e.r.y.'.].`.).w.' } F.P.I.I.I.I.I.I.I.I.I.I.I.I.I.I.I.I.",
"I.I.I.I.I.I.I.I.I.I.I.I.I.I.I.I.P.J.' V 7.{.].{.[.u.r.r.r.r.r.r.r.r.r.r.r.r.y.'.{.{.{.).C P D.P.I.I.I.I.I.I.I.I.I.I.I.I.I.I.I.I.",
"I.I.I.I.I.I.I.I.I.I.I.I.I.I.I.I.P.J.I V (.$XXX{.[.2.*.>.y.y.y.r.r.r.r.r.>.=.=.`.{..X+X{.U L D.P.I.I.I.I.I.I.I.I.I.I.I.I.I.I.I.I.",
"I.I.I.I.I.I.I.I.I.I.I.I.I.I.I.I.P.J.I V `.*X$X{.].R M :.y.y.r.y.r.r.r.r.>.B A ).{.+X=XXXU L D.P.I.I.I.I.I.I.I.I.I.I.I.I.I.I.I.I.",
"I.I.I.I.I.I.I.I.I.I.I.I.I.I.I.I.P.J.O.} g. X{.).!.E S -.,.,.,.,.,.,.,.,.-.S Y !.~.]. X@X} o.Z.I.I.I.I.I.I.I.I.I.I.I.I.I.I.I.I.I.",
"I.I.I.I.I.I.I.I.I.I.I.I.I.I.I.I.I.I.L.L.+.Z U Z U F ~ ( ( ( ( ( ( ( ( ( ( ^ D Y Z Z Z [ L.L.P.I.I.I.I.I.I.I.I.I.I.I.I.I.I.I.I.I.",
"I.I.I.I.I.I.I.I.I.I.I.I.I.I.I.I.I.I.I.P.@.G H M B ( ~ ~ / / / / ^ ^ ^ ^ / ( ^ S V G H } P.I.I.I.I.I.I.I.I.I.I.I.I.I.I.I.I.I.I.I.",
"I.I.I.I.I.I.I.I.I.I.I.I.I.I.I.I.I.I.I.I.J.F.c.; = D / ~ / ~ 2 2 u 2 ~ ^ ( ^ ~ = $  .D.G.I.I.I.I.I.I.I.I.I.I.I.I.I.I.I.I.I.I.I.I.",
"I.I.I.I.I.I.I.I.I.I.I.I.I.I.I.I.I.I.I.I.P.I.M.* + 2 / ~ / D 2 < 2 < D ~ ^ ^ ~ = X z.P.P.I.I.I.I.I.I.I.I.I.I.I.I.I.I.I.I.I.I.I.I.",
"I.I.I.I.I.I.I.I.I.I.I.I.I.I.I.I.I.I.I.I.P.I.M.@ $ Q f.8.8.! - - - * W 8.8.8.! = . z.P.P.I.I.I.I.I.I.I.I.I.I.I.I.I.I.I.I.I.I.I.I.",
"I.I.I.I.I.I.I.I.I.I.I.I.I.I.I.I.I.I.I.I.P.P.x.@ $ ~.|.|. X!.+ + X . 1. X X X`.% . z.K.P.I.I.I.I.I.I.I.I.I.I.I.I.I.I.I.I.I.I.I.I.",
"I.I.I.I.I.I.I.I.I.I.I.I.I.I.I.I.I.I.I.I.P.I.N.v z 3.!.q.q.3.x h h j { 7.7.!.4.l g M.P.I.I.I.I.I.I.I.I.I.I.I.I.I.I.I.I.I.I.I.I.I.",
"I.I.I.I.I.I.I.I.I.I.I.I.I.I.I.I.I.I.I.I.I.I.P.K.C.) 7 6 7 ) Z.H.H.K._ n 8 n F v.K.P.I.I.I.I.I.I.I.I.I.I.I.I.I.I.I.I.I.I.I.I.I.I.",
"I.I.I.I.I.I.I.I.I.I.I.I.I.I.I.I.I.I.I.I.I.I.P.P.Z.F 5 6 6 ) L.P.I.I._ 5 5 5 y A.I.I.I.I.I.I.I.I.I.I.I.I.I.I.I.I.I.I.I.I.I.I.I.I.",
"I.I.I.I.I.I.I.I.I.I.I.I.I.I.I.I.I.I.I.I.I.I.I.I.I.P.P.P.P.P.I.I.I.I.P.P.L.P.P.I.I.I.I.I.I.I.I.I.I.I.I.I.I.I.I.I.I.I.I.I.I.I.I.I.",
"I.I.I.I.I.I.I.I.I.I.I.I.I.I.I.I.I.I.I.I.I.I.I.I.I.I.I.I.I.I.I.I.I.I.I.I.I.I.I.I.I.I.I.I.I.I.I.I.I.I.I.I.I.I.I.I.I.I.I.I.I.I.I.I.",
"I.I.I.I.I.I.I.I.I.I.I.I.I.I.I.I.I.I.I.I.I.I.I.I.I.I.I.I.I.I.I.I.I.I.I.I.I.I.I.I.I.I.I.I.I.I.I.I.I.I.I.I.I.I.I.I.I.I.I.I.I.I.I.I.",
"I.I.I.I.I.I.I.I.I.I.I.I.I.I.I.I.I.I.I.I.I.I.I.I.I.I.I.I.I.I.I.I.I.I.I.I.I.I.I.I.I.I.I.I.I.I.I.I.I.I.I.I.I.I.I.I.I.I.I.I.I.I.I.I."
};
