/* XPM */
static char *result[] = {
/* columns rows colors chars-per-pixel */
"64 64 196 2 ",
"   c #090604",
".  c #13090E",
"X  c #111510",
"o  c #171918",
"O  c #1B1B1B",
"+  c #2F1F17",
"@  c #33191E",
"#  c #1E211D",
"$  c #21241F",
"%  c #33241B",
"&  c #3A271D",
"*  c #2B1A26",
"=  c #3B1B21",
"-  c #1E2020",
";  c #222222",
":  c #272B25",
">  c #2C2C2C",
",  c #273123",
"<  c #293424",
"1  c #2E392A",
"2  c #37322A",
"3  c #392431",
"4  c #353635",
"5  c #383837",
"6  c #3C3439",
"7  c #3C3A3A",
"8  c #4D1421",
"9  c #451A26",
"0  c #5B1629",
"q  c #581F2E",
"w  c #481637",
"e  c #411E35",
"r  c #4C153A",
"t  c #4D1B3B",
"y  c #50183B",
"u  c #5B183A",
"i  c #64182E",
"p  c #701A2F",
"a  c #791D3C",
"s  c #452F21",
"d  c #522C28",
"f  c #4C3629",
"g  c #543929",
"h  c #5A3E2C",
"j  c #412937",
"k  c #4F253C",
"l  c #522E3D",
"z  c #443237",
"x  c #41303B",
"c  c #41393F",
"v  c #58393B",
"b  c #6D2F33",
"n  c #2F4227",
"m  c #33442B",
"M  c #354C2B",
"N  c #384D2F",
"B  c #3A562E",
"V  c #3F403E",
"C  c #46482D",
"Z  c #59452E",
"A  c #574B2D",
"S  c #54562E",
"D  c #50493E",
"F  c #674836",
"G  c #744C3A",
"H  c #7C553D",
"J  c #416630",
"K  c #4A7538",
"L  c #4D7A39",
"P  c #55783F",
"I  c #72653C",
"U  c #64743B",
"Y  c #561941",
"T  c #591844",
"R  c #5F1A48",
"E  c #611A43",
"W  c #651C4D",
"Q  c #681C4F",
"!  c #6A1E51",
"~  c #4D2C42",
"^  c #5B2649",
"/  c #4D3B47",
"(  c #543449",
")  c #57384D",
"_  c #65294E",
"`  c #67304E",
"'  c #69354F",
"]  c #6A2452",
"[  c #712458",
"{  c #7B215D",
"}  c #6C3451",
"|  c #7C395E",
" . c #7E2161",
".. c #793063",
"X. c #3F4140",
"o. c #444243",
"O. c #4B4547",
"+. c #494647",
"@. c #474948",
"#. c #484948",
"$. c #574341",
"%. c #554A4A",
"&. c #53514E",
"*. c #6A474A",
"=. c #6B444F",
"-. c #675848",
";. c #6D4551",
":. c #744457",
">. c #6D5550",
",. c #6F6751",
"<. c #6F7050",
"1. c #717552",
"2. c #88203A",
"3. c #95213D",
"4. c #8E2144",
"5. c #9B2448",
"6. c #A82858",
"7. c #832464",
"8. c #872A67",
"9. c #872668",
"0. c #8C256B",
"q. c #932771",
"w. c #952873",
"e. c #992876",
"r. c #9E2B7A",
"t. c #A22C7D",
"y. c #865D42",
"u. c #956C55",
"i. c #9C725B",
"p. c #B77E5C",
"a. c #864265",
"s. c #BC7762",
"d. c #B47E76",
"f. c #50843B",
"g. c #67803F",
"h. c #5A9441",
"j. c #5E9A43",
"k. c #688947",
"l. c #649F46",
"z. c #6E9D47",
"x. c #6E9A4A",
"c. c #738552",
"v. c #748C52",
"b. c #759254",
"n. c #769B54",
"m. c #61A145",
"M. c #6DA146",
"N. c #65A948",
"B. c #70A94C",
"V. c #6BB34C",
"C. c #72B04A",
"Z. c #74BE4F",
"A. c #77A454",
"S. c #72AC50",
"D. c #78AD55",
"F. c #77B554",
"G. c #7ABD55",
"H. c #74C04F",
"J. c #7BC456",
"K. c #76C952",
"L. c #7ACC54",
"P. c #7DD556",
"I. c #7ED957",
"U. c #BD825E",
"Y. c #C0815F",
"T. c #C28767",
"R. c #D18F6A",
"E. c #D7906A",
"W. c #DD956D",
"Q. c #C19075",
"!. c #E59A72",
"~. c #F7A579",
"^. c #A62C80",
"/. c #AC2E85",
"(. c #AB2F88",
"). c #B12F88",
"_. c #A53983",
"`. c #B3308A",
"'. c #BC3291",
"]. c #C53596",
"[. c #CB369B",
"{. c #CD3EA2",
"}. c #D238A2",
"|. c #D939A7",
" X c #DB3BA9",
".X c #E83FB2",
"XX c #E941B9",
"oX c #F141BB",
"OX c #F344C2",
"+X c #FC45C5",
"@X c #FF47CA",
"#X c #FF4AD4",
"$X c #E29E8D",
"%X c #CAA084",
"&X c #F8B48D",
"*X c #FECBA3",
/* pixels */
"I.I.I.I.I.I.I.I.I.I.I.I.I.I.I.I.I.I.I.I.I.I.I.I.I.I.I.I.I.I.I.I.I.I.I.I.I.I.I.I.I.I.I.I.I.I.I.I.I.I.I.I.I.I.I.I.I.I.I.I.I.I.I.I.",
"I.I.I.I.I.I.I.I.I.I.I.I.I.I.I.I.I.I.I.I.I.I.I.I.I.I.I.I.I.I.I.I.I.I.I.I.I.I.I.I.I.I.I.I.I.I.I.I.I.I.I.I.I.I.I.I.I.I.I.I.I.I.I.I.",
"I.I.I.I.I.I.I.I.I.I.I.I.I.I.I.I.I.I.I.I.I.I.I.I.I.I.I.I.I.I.I.I.I.I.I.I.I.I.I.I.I.I.I.I.I.I.I.I.I.I.I.I.I.I.I.I.I.I.I.I.I.I.I.I.",
"I.I.I.I.I.I.I.I.I.I.I.I.I.I.I.I.I.I.I.I.I.I.I.I.I.I.I.I.I.I.I.I.I.I.I.I.I.I.I.I.I.I.I.I.I.I.I.I.I.I.I.I.I.I.I.I.I.I.I.I.I.I.I.I.",
"I.I.I.I.I.I.I.I.I.I.I.I.I.I.I.I.I.I.I.I.I.I.I.I.I.I.I.I.I.I.I.I.I.I.I.I.I.I.I.I.I.I.I.I.I.I.I.I.I.I.I.I.I.I.I.I.I.I.I.I.I.I.I.I.",
"I.I.I.I.I.I.I.I.I.I.I.I.I.I.I.I.I.I.I.I.I.I.I.I.I.I.I.I.I.I.I.I.I.I.I.I.I.I.I.I.I.I.I.I.I.I.I.I.I.I.I.I.I.I.I.I.I.I.I.I.I.I.I.I.",
"I.I.I.I.I.I.I.I.I.I.I.I.I.I.I.I.I.I.I.I.I.I.I.I.I.I.I.I.I.I.I.I.I.I.I.I.I.I.I.I.I.I.I.I.I.I.I.I.I.I.I.I.I.I.I.I.I.I.I.I.I.I.I.I.",
"I.I.I.I.I.I.I.I.I.I.I.I.I.I.I.I.I.I.I.I.I.I.I.I.I.I.I.I.I.I.I.I.I.I.I.I.I.I.I.I.I.I.I.I.I.I.I.I.I.I.I.I.I.I.I.I.I.I.I.I.I.I.I.I.",
"I.I.I.I.I.I.I.I.I.I.I.I.I.I.I.I.I.I.I.I.I.I.I.I.I.I.I.I.I.I.I.I.I.I.I.I.I.I.I.I.I.I.I.I.I.I.I.I.I.I.I.I.I.I.I.I.I.I.I.I.I.I.I.I.",
"I.I.I.I.I.I.I.I.I.I.I.I.I.I.I.I.I.I.I.I.I.I.I.I.I.I.I.I.I.I.I.I.I.I.I.I.I.I.I.I.I.I.I.I.I.I.I.I.I.I.I.I.I.I.I.I.I.I.I.I.I.I.I.I.",
"I.I.I.I.I.I.I.I.I.I.I.I.I.I.I.I.I.I.I.I.I.I.I.I.I.I.I.I.I.I.I.I.I.I.I.I.I.I.I.I.I.I.I.I.I.I.I.I.I.I.I.I.I.I.I.I.I.I.I.I.I.I.I.I.",
"I.I.I.I.I.I.I.I.I.I.I.I.I.I.I.I.I.I.I.I.I.I.I.I.I.I.I.I.I.I.I.I.I.I.I.I.I.I.I.I.I.I.I.I.I.I.I.I.I.I.I.I.I.I.I.I.I.I.I.I.I.I.I.I.",
"I.I.I.I.I.I.I.I.I.I.I.I.I.I.I.I.I.I.I.I.I.I.I.I.I.I.I.I.I.I.I.I.I.I.I.I.I.I.I.I.I.I.I.I.I.I.I.I.I.I.I.I.I.I.I.I.I.I.I.I.I.I.I.I.",
"I.I.I.I.I.I.I.I.I.I.I.I.I.I.I.I.I.I.I.I.I.I.I.I.I.I.I.I.I.I.I.I.I.I.I.I.I.I.I.I.I.I.I.I.I.I.I.I.I.I.I.I.I.I.I.I.I.I.I.I.I.I.I.I.",
"I.I.I.I.I.I.I.I.I.I.I.I.I.I.I.I.I.I.I.I.I.I.I.I.I.I.I.I.I.I.I.I.I.I.I.I.I.I.I.I.I.I.I.I.I.I.I.I.I.I.I.I.I.I.I.I.I.I.I.I.I.I.I.I.",
"I.I.I.I.I.I.I.I.I.I.I.I.I.I.I.I.I.I.I.I.I.I.I.I.I.I.I.I.I.I.I.I.I.I.I.I.I.I.I.I.I.I.I.I.I.I.I.I.I.I.I.I.I.I.I.I.I.I.I.I.I.I.I.I.",
"I.I.I.I.I.I.I.I.I.I.I.I.I.I.I.I.I.I.I.I.I.I.I.I.I.P.I.I.P.I.I.P.I.I.I.I.I.I.I.I.I.I.I.I.I.I.I.I.I.I.I.I.I.I.I.I.I.I.I.I.I.I.I.I.",
"I.I.I.I.I.I.I.I.I.I.I.I.I.I.I.I.I.I.I.I.I.I.I.I.L.D.A.A.A.A.A.F.P.I.I.I.I.I.I.I.I.I.I.I.I.I.I.I.I.I.I.I.I.I.I.I.I.I.I.I.I.I.I.I.",
"I.I.I.I.I.I.I.I.I.I.I.I.I.I.I.I.I.I.I.I.P.P.I.P.A.=.` ` ` ` ` >.G.P.P.I.I.I.I.I.I.I.I.I.I.I.I.I.I.I.I.I.I.I.I.I.I.I.I.I.I.I.I.I.",
"I.I.I.I.I.I.I.I.I.I.I.I.I.I.I.I.I.I.P.P.P.P.P.P.n.} Q ] ! ! ! >.G.P.P.P.P.I.I.I.I.I.I.I.I.I.I.I.I.I.I.I.I.I.I.I.I.I.I.I.I.I.I.I.",
"I.I.I.I.I.I.I.I.I.I.I.I.I.I.I.I.P.V.J N N N $.;.a.{. X X X].t.q.;.;.=.=.c.P.I.P.I.I.I.I.I.I.I.I.I.I.I.I.I.I.I.I.I.I.I.I.I.I.I.I.",
"I.I.I.I.I.I.I.I.I.I.I.I.I.I.I.I.P.N.> : ; ; 3 W 9.XX+X+X+X X/.t.! W W Q <.P.P.P.I.I.I.I.I.I.I.I.I.I.I.I.I.I.I.I.I.I.I.I.I.I.I.I.",
"I.I.I.I.I.I.I.I.I.I.I.I.I.I.I.I.I.Z.L K z e [ (.`.}. X|.|.[.)./.0.0.9.9.a.v.b.L.P.I.I.I.I.I.I.I.I.I.I.I.I.I.I.I.I.I.I.I.I.I.I.I.",
"I.I.I.I.I.I.I.I.I.I.I.I.I.I.I.I.I.P.I.P.;.! (.#XXX`././././.).).`.`.`.`.q.W ;.G.P.P.P.I.I.I.I.I.I.I.I.I.I.I.I.I.I.I.I.I.I.I.I.I.",
"I.I.I.I.I.I.I.I.I.I.I.I.I.I.I.I.I.I.P.P.=.W r.XX X`.).`.).).).).`.).).).q.[ :.b.A.n.A.G.I.I.I.I.I.I.I.I.I.I.I.I.I.I.I.I.I.I.I.I.",
"I.I.I.I.I.I.I.I.I.I.I.I.I.I.I.I.I.I.P.P.;.W 8.'.`.).).).`.).).).).`.).).t.q.0.' ' ' ` c.P.P.I.I.I.I.I.I.I.I.I.I.I.I.I.I.I.I.I.I.",
"I.I.I.I.I.I.I.I.I.I.I.I.I.I.I.I.I.I.I.P.;._ 9.)././.).).).).`.).).).).).t.e.0.] ] W W 1.P.P.I.I.I.I.I.I.I.I.I.I.I.I.I.I.I.I.I.I.",
"I.I.I.I.I.I.I.I.I.I.I.I.I.I.I.I.I.I.I.P.F.D.<.W W W W t.).).).).).).t.r.r.e.e.0.0.q.0.| ' ,.L.P.I.I.I.I.I.I.I.I.I.I.I.I.I.I.I.I.",
"I.I.I.I.I.I.I.I.I.I.I.I.I.I.I.I.I.I.I.I.P.L.k.r r w r e.).).).).).).t.e.e.e.e.e.e.e.e. .W ;.J.I.I.I.I.I.I.I.I.I.I.I.I.I.I.I.I.I.",
"I.I.I.I.I.I.I.I.I.I.I.I.I.I.I.I.I.P.I.P.n.v.-.Y y r r { 7.q.^.^.t.t.e.e.e.e.e.q.e.e.w.7.W :.J.I.I.I.I.I.I.I.I.I.I.I.I.I.I.I.I.I.",
"I.I.I.I.I.I.I.I.I.I.I.I.I.I.I.I.I.I.P.P.;.W W W W r r w r Q r.e.e.e.e.e.e.e.e.e.e.e.e.7.W ;.J.I.I.I.I.I.I.I.I.I.I.I.I.I.I.I.I.I.",
"I.I.I.I.I.I.I.I.I.I.I.I.I.I.I.I.P.L.A.x.) W R W T r r r r W 0.0.0.0.0.0.0.0.0.0.0.0.0.| >.,.L.I.I.I.I.I.I.I.I.I.I.I.I.I.I.I.I.I.",
"I.I.I.I.I.I.I.I.I.I.I.I.I.I.I.I.P.B.v l t y y y r t w r r T ! ! ! ! Q Q Q Q Q W W Q Q <.J.J.P.I.I.I.I.I.I.I.I.I.I.I.I.I.I.I.I.I.",
"I.I.I.I.I.I.I.I.I.I.I.I.I.I.I.I.P.B.( k k k t q r y y w w Y ] Q W Q W W W W W W W R W 1.P.P.I.I.I.I.I.I.I.I.I.I.I.I.I.I.I.I.I.I.",
"I.I.I.I.I.I.I.I.I.I.I.I.I.I.I.I.I.L.S.S.B.B.g.F *.s.s.= . *.$Xd.) / / %./ x x x 6 3 * P P.I.I.I.I.I.I.I.I.I.I.I.I.I.I.I.I.I.I.I.",
"I.I.I.I.I.I.I.I.I.I.I.I.I.I.I.I.I.I.I.I.I.I.g.Z y.W.!.%   F *X%X&.#.#.#.V 4 4 4 4 # o K P.I.I.I.I.I.I.I.I.I.I.I.I.I.I.I.I.I.I.I.",
"I.I.I.I.I.I.I.I.I.I.I.I.I.I.I.I.I.I.I.P.I.L.g.A H E.!.%   F &XQ.&.@.o.X.7 4 5 4 4 ; O L P.I.I.I.I.I.I.I.I.I.I.I.I.I.I.I.I.I.I.I.",
"I.I.I.I.I.I.I.I.I.I.I.I.I.I.I.I.I.I.I.I.I.L.g.A G W.!.+   h ~.T.&.@.7 4 4 4 5 5 5 - O L P.I.I.I.I.I.I.I.I.I.I.I.I.I.I.I.I.I.I.I.",
"I.I.I.I.I.I.I.I.I.I.I.I.I.I.I.I.I.I.I.I.I.P.C.S I U.Y.g & G T.i.O.o.7 4 4 4 4 > 1 m M h.P.I.I.I.I.I.I.I.I.I.I.I.I.I.I.I.I.I.I.I.",
"I.I.I.I.I.I.I.I.I.I.I.I.I.I.I.I.I.I.I.I.I.I.L.L.g.A h p.R.u.7 7 5 4 4 5 4 4 4 ; , j.H.K.P.I.I.I.I.I.I.I.I.I.I.I.I.I.I.I.I.I.I.I.",
"I.I.I.I.I.I.I.I.I.I.I.I.I.I.I.I.I.I.I.I.I.I.P.P.M.S A Y.W.u.> 6 4 4 4 4 4 5 2 , n N.I.P.I.I.I.I.I.I.I.I.I.I.I.I.I.I.I.I.I.I.I.I.",
"I.I.I.I.I.I.I.I.I.I.I.I.I.I.I.I.I.I.I.I.I.I.I.I.L.C.C.I G f ; ; ; ; ; ; ; $ m j.N.K.I.I.I.I.I.I.I.I.I.I.I.I.I.I.I.I.I.I.I.I.I.I.",
"I.I.I.I.I.I.I.I.I.I.I.I.I.I.I.I.I.I.I.I.I.I.I.I.I.I.I.S s % o O o o o o O O M Z.I.P.I.I.I.I.I.I.I.I.I.I.I.I.I.I.I.I.I.I.I.I.I.I.",
"I.I.I.I.I.I.I.I.I.I.I.I.I.I.I.I.I.I.I.I.I.I.I.P.Z.k.U b b p d q q q 9 = @ @ C Z.P.P.I.I.I.I.I.I.I.I.I.I.I.I.I.I.I.I.I.I.I.I.I.I.",
"I.I.I.I.I.I.I.I.I.I.I.I.I.I.I.I.I.I.I.I.I.I.P.P.z.d 8 2.3.3.3.5.3.3.p 0 0 8 Z Z.P.P.I.I.I.I.I.I.I.I.I.I.I.I.I.I.I.I.I.I.I.I.I.I.",
"I.I.I.I.I.I.I.I.I.I.I.I.I.I.I.I.I.I.I.I.I.I.I.P.z.d 8 a 4.6.6.6.6.6.a i 0 8 Z Z.P.I.I.I.I.I.I.I.I.I.I.I.I.I.I.I.I.I.I.I.I.I.I.I.",
"I.I.I.I.I.I.I.I.I.I.I.I.I.I.I.I.I.I.I.I.I.I.P.P.x.d 8 E ! r.OX.X].].{ W u 8 h Z.P.I.I.I.I.I.I.I.I.I.I.I.I.I.I.I.I.I.I.I.I.I.I.I.",
"I.I.I.I.I.I.I.I.I.I.I.I.I.I.I.I.I.I.I.I.I.I.P.P.x.d 8 E W ^.@X.X[.].7.E u 8 Z F.P.I.I.I.I.I.I.I.I.I.I.I.I.I.I.I.I.I.I.I.I.I.I.I.",
"I.I.I.I.I.I.I.I.I.I.I.I.I.I.I.I.I.I.I.I.I.I.P.P.m.d 8 E W ^.@X.X[.[. .R u 8 Z Z.I.I.I.I.I.I.I.I.I.I.I.I.I.I.I.I.I.I.I.I.I.I.I.I.",
"I.I.I.I.I.I.I.I.I.I.I.I.I.I.I.I.I.I.I.I.I.I.P.P.M.d 8 E W ^.@XoX}.[. .W u 8 Z Z.I.I.I.I.I.I.I.I.I.I.I.I.I.I.I.I.I.I.I.I.I.I.I.I.",
"I.I.I.I.I.I.I.I.I.I.I.I.I.I.I.I.I.I.I.I.I.I.I.P.l.2 @ ~ ( ..(.^.9.7.^ ~ j @ N Z.P.I.I.I.I.I.I.I.I.I.I.I.I.I.I.I.I.I.I.I.I.I.I.I.",
"I.I.I.I.I.I.I.I.I.I.I.I.I.I.I.I.I.I.I.I.I.I.I.P.m., O D #.( W R r Y 6 6 : + M H.P.I.I.I.I.I.I.I.I.I.I.I.I.I.I.I.I.I.I.I.I.I.I.I.",
"I.I.I.I.I.I.I.I.I.I.I.I.I.I.I.I.I.I.I.I.I.I.P.P.l.< # V +.( W ^ w Y 4 4 > O M H.P.I.I.I.I.I.I.I.I.I.I.I.I.I.I.I.I.I.I.I.I.I.I.I.",
"I.I.I.I.I.I.I.I.I.I.I.I.I.I.I.I.I.I.I.I.I.I.I.P.m.< # 7 @.+.#.o.6 4 6 5 > # M H.P.I.I.I.I.I.I.I.I.I.I.I.I.I.I.I.I.I.I.I.I.I.I.I.",
"I.I.I.I.I.I.I.I.I.I.I.I.I.I.I.I.I.I.I.I.I.I.I.P.m.m , o.+.+.O./ c 7 6 5 4 , B H.P.I.I.I.I.I.I.I.I.I.I.I.I.I.I.I.I.I.I.I.I.I.I.I.",
"I.I.I.I.I.I.I.I.I.I.I.I.I.I.I.I.I.I.I.I.I.I.I.P.K.j.h.m : ` _._._._.3 - B j.N.L.P.I.I.I.I.I.I.I.I.I.I.I.I.I.I.I.I.I.I.I.I.I.I.I.",
"I.I.I.I.I.I.I.I.I.I.I.I.I.I.I.I.I.I.I.I.I.I.I.I.P.P.P.1 - ] |.}.{.[.e X J P.P.P.I.I.I.I.I.I.I.I.I.I.I.I.I.I.I.I.I.I.I.I.I.I.I.I.",
"I.I.I.I.I.I.I.I.I.I.I.I.I.I.I.I.I.I.I.I.I.I.I.I.P.P.P.h.f.-.9.9.7. .P f.m.I.I.I.I.I.I.I.I.I.I.I.I.I.I.I.I.I.I.I.I.I.I.I.I.I.I.I.",
"I.I.I.I.I.I.I.I.I.I.I.I.I.I.I.I.I.I.I.I.I.I.I.I.I.I.I.P.L.k.r r r k B.K.P.I.I.I.I.I.I.I.I.I.I.I.I.I.I.I.I.I.I.I.I.I.I.I.I.I.I.I.",
"I.I.I.I.I.I.I.I.I.I.I.I.I.I.I.I.I.I.I.I.I.I.I.I.I.I.I.P.P.x.v D %.%.F.P.I.I.I.I.I.I.I.I.I.I.I.I.I.I.I.I.I.I.I.I.I.I.I.I.I.I.I.I.",
"I.I.I.I.I.I.I.I.I.I.I.I.I.I.I.I.I.I.I.I.I.I.I.I.I.I.I.I.I.I.I.I.I.I.I.I.I.I.I.I.I.I.I.I.I.I.I.I.I.I.I.I.I.I.I.I.I.I.I.I.I.I.I.I.",
"I.I.I.I.I.I.I.I.I.I.I.I.I.I.I.I.I.I.I.I.I.I.I.I.I.I.I.I.I.I.I.I.I.I.I.I.I.I.I.I.I.I.I.I.I.I.I.I.I.I.I.I.I.I.I.I.I.I.I.I.I.I.I.I.",
"I.I.I.I.I.I.I.I.I.I.I.I.I.I.I.I.I.I.I.I.I.I.I.I.I.I.I.I.I.I.I.I.I.I.I.I.I.I.I.I.I.I.I.I.I.I.I.I.I.I.I.I.I.I.I.I.I.I.I.I.I.I.I.I.",
"I.I.I.I.I.I.I.I.I.I.I.I.I.I.I.I.I.I.I.I.I.I.I.I.I.I.I.I.I.I.I.I.I.I.I.I.I.I.I.I.I.I.I.I.I.I.I.I.I.I.I.I.I.I.I.I.I.I.I.I.I.I.I.I."
};
