/* XPM */
static char *result[] = {
/* columns rows colors chars-per-pixel */
"64 64 196 2 ",
"   c #0A0605",
".  c #0B0807",
"X  c #1D130E",
"o  c #101610",
"O  c #1B1B1B",
"+  c #240C1B",
"@  c #2C1D16",
"#  c #231C1D",
"$  c #291A1E",
"%  c #1F201E",
"&  c #20221F",
"*  c #36241A",
"=  c #321C22",
"-  c #3A1B2B",
";  c #3E1A33",
":  c #222322",
">  c #262B24",
",  c #2A2A29",
"<  c #332629",
"1  c #283623",
"2  c #293225",
"3  c #2E332C",
"4  c #3A2C34",
"5  c #2E3234",
"6  c #363636",
"7  c #363837",
"8  c #3C343A",
"9  c #3A3A3A",
"0  c #43141F",
"q  c #451722",
"w  c #4D1421",
"e  c #551825",
"r  c #421F37",
"t  c #471038",
"y  c #4B153A",
"u  c #551933",
"i  c #591837",
"p  c #51163E",
"a  c #53183F",
"s  c #66182C",
"d  c #711A33",
"f  c #482826",
"g  c #512926",
"h  c #4B3324",
"j  c #553429",
"k  c #4F263C",
"l  c #41313C",
"z  c #413E3F",
"x  c #6C3B3F",
"c  c #2E4A24",
"v  c #34422E",
"b  c #384D2E",
"n  c #36512C",
"m  c #3A522D",
"M  c #394E30",
"N  c #3D5731",
"B  c #4E4228",
"V  c #5E402E",
"C  c #54512E",
"Z  c #494438",
"A  c #544C30",
"S  c #5A4B30",
"D  c #674836",
"F  c #7A583D",
"G  c #416233",
"H  c #476E36",
"J  c #4B7738",
"K  c #551642",
"L  c #551841",
"P  c #5C1946",
"I  c #5F164A",
"U  c #5F1949",
"Y  c #611A44",
"T  c #661A46",
"R  c #651C4D",
"E  c #731E4B",
"W  c #731E55",
"Q  c #741F59",
"!  c #4D2941",
"~  c #5B2046",
"^  c #572845",
"/  c #4B3945",
"(  c #56334B",
")  c #59374D",
"_  c #65284D",
"`  c #68324E",
"'  c #693E4F",
"]  c #6F2357",
"[  c #752059",
"{  c #7B225E",
"}  c #772B5D",
"|  c #7F2361",
" . c #783764",
".. c #454545",
"X. c #4A4548",
"o. c #474848",
"O. c #4B4949",
"+. c #554D49",
"@. c #5D5844",
"#. c #6A424F",
"$. c #725847",
"%. c #6E4156",
"&. c #6C4C50",
"*. c #6D5250",
"=. c #785359",
"-. c #67724A",
";. c #766757",
":. c #717652",
">. c #727B52",
",. c #871F3C",
"<. c #88223B",
"1. c #92213E",
"2. c #992344",
"3. c #9A2346",
"4. c #852566",
"5. c #8B266B",
"6. c #863366",
"7. c #833E6D",
"8. c #912770",
"9. c #962874",
"0. c #982876",
"q. c #9C2A79",
"w. c #A42C74",
"e. c #A32C7D",
"r. c #A5367F",
"t. c #885E46",
"y. c #975754",
"u. c #98674C",
"i. c #824461",
"p. c #985C68",
"a. c #836960",
"s. c #AE7C62",
"d. c #BD7479",
"f. c #52843C",
"g. c #568B3E",
"h. c #568940",
"j. c #5B9442",
"k. c #5D9843",
"l. c #6B8A41",
"z. c #668549",
"x. c #6B9443",
"c. c #699B47",
"v. c #729245",
"b. c #738652",
"n. c #748C52",
"m. c #759753",
"M. c #6DA24D",
"N. c #67AC49",
"B. c #72AA4A",
"V. c #6EBA4D",
"C. c #75B54D",
"Z. c #73BD4F",
"A. c #75AB52",
"S. c #78AC55",
"D. c #77B753",
"F. c #72C24F",
"G. c #73C350",
"H. c #79C453",
"J. c #77CC53",
"K. c #7BCB55",
"L. c #7DD556",
"P. c #7ED957",
"I. c #B68166",
"U. c #D38E69",
"Y. c #D39069",
"T. c #DC936D",
"R. c #C0947B",
"E. c #E59B73",
"W. c #F1A379",
"Q. c #A62E81",
"!. c #AB2F84",
"~. c #B02F87",
"^. c #B82F81",
"/. c #B12F88",
"(. c #A83082",
"). c #B3308A",
"_. c #B83189",
"`. c #BE3392",
"'. c #C53497",
"]. c #C63598",
"[. c #CD369D",
"{. c #D53898",
"}. c #D237A1",
"|. c #D93BA7",
" X c #DC3EB2",
".X c #E03DAE",
"XX c #E83FB4",
"oX c #ED40B6",
"OX c #EE43BF",
"+X c #EA44C1",
"@X c #F746C7",
"#X c #FE45C7",
"$X c #FE46C9",
"%X c #C19880",
"&X c #FCBF98",
"*X c #FBC5A0",
/* pixels */
"P.P.P.P.P.P.P.P.P.P.P.P.P.P.P.P.P.P.P.P.P.P.P.P.P.P.P.P.P.P.P.P.P.P.P.P.P.P.P.P.P.P.P.P.P.P.P.P.P.P.P.P.P.P.P.P.P.P.P.P.P.P.P.P.",
"P.P.P.P.P.P.P.P.P.P.P.P.P.P.P.P.P.P.P.P.P.P.P.P.P.P.P.P.P.P.P.P.P.P.P.P.P.P.P.P.P.P.P.P.P.P.P.P.P.P.P.P.P.P.P.P.P.P.P.P.P.P.P.P.",
"P.P.P.P.P.P.P.P.P.P.P.P.P.P.P.P.P.P.P.P.P.P.P.P.P.P.P.P.P.P.P.P.P.P.P.P.P.P.P.P.P.P.P.P.P.P.P.P.P.P.P.P.P.P.P.P.P.P.P.P.P.P.P.P.",
"P.P.P.P.P.P.P.P.P.P.P.P.P.P.P.P.P.P.P.P.P.P.P.P.P.P.P.P.P.P.P.P.P.P.P.P.P.P.P.P.P.P.P.P.P.P.P.P.P.P.P.P.P.P.P.P.P.P.P.P.P.P.P.P.",
"P.P.P.P.P.P.P.P.P.P.P.P.P.P.P.P.P.P.P.P.P.P.P.P.P.P.P.P.P.P.P.P.P.P.P.P.P.P.P.P.P.P.P.P.P.P.P.P.P.P.P.P.P.P.P.P.P.P.P.P.P.P.P.P.",
"P.P.P.P.P.P.P.P.P.P.P.P.P.P.P.P.P.P.P.P.P.P.P.P.P.P.P.P.P.P.P.P.P.P.P.P.P.P.P.P.P.P.P.P.P.P.P.P.P.P.P.P.P.P.P.P.P.P.P.P.P.P.P.P.",
"P.P.P.P.P.P.P.P.P.P.P.P.P.P.P.P.P.P.P.P.P.P.P.P.P.P.P.P.P.P.P.P.P.P.P.P.P.P.P.P.P.P.P.P.P.P.P.P.P.P.P.P.P.P.P.P.P.P.P.P.P.P.P.P.",
"P.P.P.P.P.P.P.P.P.P.P.P.P.P.P.P.P.P.P.P.P.P.P.P.P.P.P.P.P.P.P.P.P.P.P.P.P.P.P.P.P.P.P.P.P.P.P.P.P.P.P.P.P.P.P.P.P.P.P.P.P.P.P.P.",
"P.P.P.P.P.P.P.P.P.P.P.P.P.P.P.P.P.P.P.P.P.P.P.P.P.P.P.P.P.P.P.P.P.P.P.P.P.P.P.P.P.P.P.P.P.P.P.P.P.P.P.P.P.P.P.P.P.P.P.P.P.P.P.P.",
"P.P.P.P.P.P.P.P.P.P.P.P.P.P.P.P.P.P.P.P.P.P.P.P.P.P.P.P.P.P.P.P.P.P.P.P.P.P.P.P.P.P.P.P.P.P.P.P.P.P.P.P.P.P.P.P.P.P.P.P.P.P.P.P.",
"P.P.P.P.P.P.P.P.P.P.P.P.P.P.P.P.P.P.P.P.P.P.P.P.P.P.P.P.P.P.P.P.P.P.P.P.P.P.P.P.P.P.P.P.P.P.P.P.P.P.P.P.P.P.P.P.P.P.P.P.P.P.P.P.",
"P.P.P.P.P.P.P.P.P.P.P.P.P.P.P.P.P.P.P.P.P.P.P.P.P.P.P.P.P.P.P.P.P.P.P.P.P.P.P.P.P.P.P.P.P.P.P.P.P.P.P.P.P.P.P.P.P.P.P.P.P.P.P.P.",
"P.P.P.P.P.P.P.P.P.P.P.P.P.P.P.P.P.P.P.P.P.P.P.P.P.P.P.P.P.P.P.P.P.P.P.P.P.P.P.P.P.P.P.P.P.P.P.P.P.P.P.P.P.P.P.P.P.P.P.P.P.P.P.P.",
"P.P.P.P.P.P.P.P.P.P.P.P.P.P.P.P.P.P.P.P.P.P.P.P.P.P.P.P.P.P.P.P.P.P.P.P.P.P.P.P.P.P.P.P.P.P.P.P.P.P.P.P.P.P.P.P.P.P.P.P.P.P.P.P.",
"P.P.P.P.P.P.P.P.P.P.P.P.P.P.P.P.P.P.P.P.P.P.P.P.P.P.P.P.P.P.P.P.P.P.P.P.P.P.P.P.P.P.P.P.P.P.P.P.P.P.P.P.P.P.P.P.P.P.P.P.P.P.P.P.",
"P.P.P.P.P.P.P.P.P.P.P.P.P.P.P.P.P.P.P.P.P.P.P.P.P.P.P.P.P.P.P.P.P.P.P.P.P.P.P.P.P.P.P.P.P.P.P.P.P.P.P.P.P.P.P.P.P.P.P.P.P.P.P.P.",
"P.P.P.P.P.P.P.P.P.P.P.P.P.P.P.P.P.P.P.P.P.P.P.P.P.P.P.P.P.P.P.P.P.P.L.P.L.L.L.P.P.P.P.P.P.P.P.P.P.P.P.P.P.P.P.P.P.P.P.P.P.P.P.P.",
"P.P.P.P.P.P.P.P.P.P.P.P.P.P.P.P.P.P.P.P.P.P.P.P.P.P.P.P.P.P.P.P.K.H.K.K.K.K.K.K.P.P.P.P.P.P.P.P.P.P.P.P.P.P.P.P.P.P.P.P.P.P.P.P.",
"P.P.P.P.P.P.P.P.P.P.P.P.P.P.P.P.P.P.P.P.P.P.P.P.P.P.P.P.P.P.P.K.:.%.&.&.&.&.*.A.P.P.P.P.P.P.P.P.P.P.P.P.P.P.P.P.P.P.P.P.P.P.P.P.",
"P.P.P.P.P.P.P.P.P.P.P.P.P.P.P.P.P.P.P.P.P.P.P.P.P.P.P.P.P.L.L.D.*.R R R R R ` m.L.L.L.P.L.L.P.P.P.P.P.P.P.P.P.P.P.P.P.P.P.P.P.P.",
"P.P.P.P.P.P.P.P.P.P.P.P.P.P.P.P.P.P.P.P.P.P.P.P.P.P.P.S.b.b.b.>.i.5.0.(.!.!.r.a.b.z.h.h.h.j.Z.P.P.P.P.P.P.P.P.P.P.P.P.P.P.P.P.P.",
"P.P.P.P.P.P.P.P.P.P.P.P.P.P.P.P.P.P.P.P.P.P.P.P.P.P.P.:.R R R R q.).|.#X$X$XOX5.I r : : : 2 k.L.P.P.P.P.P.P.P.P.P.P.P.P.P.P.P.P.",
"P.P.P.P.P.P.P.P.P.P.P.P.P.P.P.P.P.P.P.P.P.P.P.P.L.D.S.;.[ [ Q { q.~.}.oXXXXX XQ.5.^ < < b N N.P.P.P.P.P.P.P.P.P.P.P.P.P.P.P.P.P.",
"P.P.P.P.P.P.P.P.P.P.P.P.P.P.P.P.P.P.P.P.P.L.L.P.H.;.` 6.!.!.!.~.).).).).`.)./. X+XQ.U ' Z.F.J.P.P.P.P.P.P.P.P.P.P.P.P.P.P.P.P.P.",
"P.P.P.P.P.P.P.P.P.P.P.P.P.P.P.P.P.P.P.P.L.H.H.H.S.*.R 5./.~.~./.).~.~.).).).). X@X!.R ' K.P.P.P.P.P.P.P.P.P.P.P.P.P.P.P.P.P.P.P.",
"P.P.P.P.P.P.P.P.P.P.P.P.P.P.P.P.P.P.P.P.m.*.*.*.*.6.5.e././././.~.).~.).~.~./.`.[.9.R ' L.P.P.P.P.P.P.P.P.P.P.P.P.P.P.P.P.P.P.P.",
"P.P.P.P.P.P.P.P.P.P.P.P.P.P.P.P.P.P.P.P.b.R R R R 5.q.e././././.).).~.~./.!./.!.~.4.R #.K.P.P.P.P.P.P.P.P.P.P.P.P.P.P.P.P.P.P.P.",
"P.P.P.P.P.P.P.P.P.P.P.P.P.P.P.P.P.K.n.:.=.{ 4.{ 4.8.0.q.e.Q.~.~.~.~.~.).Q.4.| 4.4.=.>.b.P.P.P.P.P.P.P.P.P.P.P.P.P.P.P.P.P.P.P.P.",
"P.P.P.P.P.P.P.P.P.P.P.P.P.P.P.P.P.K.&.R 4.0.0.0.0.0.9.0.0.q.~././././._.e.p t y y -.L.P.P.P.P.P.P.P.P.P.P.P.P.P.P.P.P.P.P.P.P.P.",
"P.P.P.P.P.P.P.P.P.P.P.P.P.P.P.P.L.K.&.R { 0.0.0.0.0.0.0.0.q.!.!.!.!.Q.q.5.p y p p -.D.D.P.P.P.P.P.P.P.P.P.P.P.P.P.P.P.P.P.P.P.P.",
"P.P.P.P.P.P.P.P.P.P.P.P.P.P.P.P.L.K.%.R { 0.0.0.0.0.0.0.0.0.0.0.q.q.Q p y y y U R _ ` *.K.P.P.P.P.P.P.P.P.P.P.P.P.P.P.P.P.P.P.P.",
"P.P.P.P.P.P.P.P.P.P.P.P.P.P.P.P.L.K.*.`  .0.0.0.9.9.9.9.9.9.9.9.9.0.W y y y y U R R R ' D.H.P.P.P.P.P.P.P.P.P.P.P.P.P.P.P.P.P.P.",
"P.P.P.P.P.P.P.P.P.P.P.P.P.P.P.P.P.K.A.m.;.Q Q Q Q Q [ [ Q Q [ Q Q Q R y y t y a p a a k @.@.A.L.P.P.P.P.P.P.P.P.P.P.P.P.P.P.P.P.",
"P.P.P.P.P.P.P.P.P.P.P.P.P.P.P.P.P.P.P.L.b.R R R R R R R R R R R Y R K y t t t y y y y y y k x.P.P.P.P.P.P.P.P.P.P.P.P.P.P.P.P.P.",
"P.P.P.P.P.P.P.P.P.P.P.P.P.P.P.P.P.P.P.L.z.; r ! ! ! ! ^ ( ( ( ) p.d.` + - y.y.x j F -.l.-.z.D.P.P.P.P.P.P.P.P.P.P.P.P.P.P.P.P.P.",
"P.P.P.P.P.P.P.P.P.P.P.P.P.P.P.P.P.P.P.L.f.O % 6 6 6 6 z o.o.O.+.%X*X$.  @ T.T.t.V v.J.L.P.L.P.P.P.P.P.P.P.P.P.P.P.P.P.P.P.P.P.P.",
"P.P.P.P.P.P.P.P.P.P.P.P.P.P.P.P.P.P.P.P.f.O % 6 6 6 6 9 ....o.O.R.&X$.. @ T.T.t.V x.L.P.P.P.P.P.P.P.P.P.P.P.P.P.P.P.P.P.P.P.P.P.",
"P.P.P.P.P.P.P.P.P.P.P.P.P.P.P.P.P.P.P.P.f.O & 6 6 6 6 9 6 9 o.+.I.W.D . @ T.T.F h l.J.P.P.P.P.P.P.P.P.P.P.P.P.P.P.P.P.P.P.P.P.P.",
"P.P.P.P.P.P.P.P.P.P.P.P.P.P.P.P.P.P.P.L.h.2 2 6 6 6 6 9 6 9 X.O.s.E.D X * U.U.F B x.L.L.P.P.P.P.P.P.P.P.P.P.P.P.P.P.P.P.P.P.P.P.",
"P.P.P.P.P.P.P.P.P.P.P.P.P.P.P.P.P.P.P.P.V.k.f.1 : 5 6 6 6 9 9 z +.$.t.u.u.F F l.x.Z.L.P.P.P.P.P.P.P.P.P.P.P.P.P.P.P.P.P.P.P.P.P.",
"P.P.P.P.P.P.P.P.P.P.P.P.P.P.P.P.P.P.P.P.L.L.N.1 % 3 9 8 9 6 6 6 8 5 u.W.Y.j B c.L.L.P.P.P.P.P.P.P.P.P.P.P.P.P.P.P.P.P.P.P.P.P.P.",
"P.P.P.P.P.P.P.P.P.P.P.P.P.P.P.P.P.P.P.P.L.L.G.f.J v > > , , , : > , D u.t.l.x.F.L.L.P.P.P.P.P.P.P.P.P.P.P.P.P.P.P.P.P.P.P.P.P.P.",
"P.P.P.P.P.P.P.P.P.P.P.P.P.P.P.P.P.P.P.P.P.P.L.J.Z.n O O O O O O O O < h C H.L.P.P.P.P.P.P.P.P.P.P.P.P.P.P.P.P.P.P.P.P.P.P.P.P.P.",
"P.P.P.P.P.P.P.P.P.P.P.P.P.P.P.P.P.P.P.P.P.P.L.L.Z.b $ @ $ $ = = = = f j S B.C.K.P.P.P.P.P.P.P.P.P.P.P.P.P.P.P.P.P.P.P.P.P.P.P.P.",
"P.P.P.P.P.P.P.P.P.P.P.P.P.P.P.P.P.P.P.P.P.P.P.L.H.S w e s s 1.1.1.1.1.2.<.e g x.L.P.P.P.P.P.P.P.P.P.P.P.P.P.P.P.P.P.P.P.P.P.P.P.",
"P.P.P.P.P.P.P.P.P.P.P.P.P.P.P.P.P.P.P.P.P.P.P.L.H.S w e s d 3.3.3.3.3.2.,.w g x.L.L.P.P.P.P.P.P.P.P.P.P.P.P.P.P.P.P.P.P.P.P.P.P.",
"P.P.P.P.P.P.P.P.P.P.P.P.P.P.P.P.P.P.P.P.P.P.P.L.Z.S w u Y W ^._.{..Xw.E T w g x.L.L.P.P.P.P.P.P.P.P.P.P.P.P.P.P.P.P.P.P.P.P.P.P.",
"P.P.P.P.P.P.P.P.P.P.P.P.P.P.P.P.P.P.P.P.P.P.P.L.H.S 0 i R { ].[.XX$X!.R Y w g v.L.L.P.P.P.P.P.P.P.P.P.P.P.P.P.P.P.P.P.P.P.P.P.P.",
"P.P.P.P.P.P.P.P.P.P.P.P.P.P.P.P.P.P.P.P.P.P.P.L.F.S 0 i U { '.[.XX$X~.R U w g x.L.P.P.P.P.P.P.P.P.P.P.P.P.P.P.P.P.P.P.P.P.P.P.P.",
"P.P.P.P.P.P.P.P.P.P.P.P.P.P.P.P.P.P.P.P.P.P.P.L.F.S 0 i R { ].[.XX$X~.R P w g x.L.P.P.P.P.P.P.P.P.P.P.P.P.P.P.P.P.P.P.P.P.P.P.P.",
"P.P.P.P.P.P.P.P.P.P.P.P.P.P.P.P.P.P.P.P.P.P.P.L.H.A 0 u ~ ] ~./.|. Xq._ ~ q f x.L.P.P.P.P.P.P.P.P.P.P.P.P.P.P.P.P.P.P.P.P.P.P.P.",
"P.P.P.P.P.P.P.P.P.P.P.P.P.P.P.P.P.P.P.P.P.P.P.L.G.m # < 8 l L L R W ( X.z & 2 k.L.P.P.P.P.P.P.P.P.P.P.P.P.P.P.P.P.P.P.P.P.P.P.P.",
"P.P.P.P.P.P.P.P.P.P.P.P.P.P.P.P.P.P.P.P.P.P.P.L.G.n O , 9 8 y y I R ( O.z % 2 k.L.L.P.P.P.P.P.P.P.P.P.P.P.P.P.P.P.P.P.P.P.P.P.P.",
"P.P.P.P.P.P.P.P.P.P.P.P.P.P.P.P.P.P.P.P.P.P.P.L.G.m O , 9 9 l 8 / / X.o.z % 2 k.L.P.P.P.P.P.P.P.P.P.P.P.P.P.P.P.P.P.P.P.P.P.P.P.",
"P.P.P.P.P.P.P.P.P.P.P.P.P.P.P.P.P.P.P.P.P.P.P.P.G.n % 3 9 9 6 7 ..o.o.O...: 1 k.L.P.P.P.P.P.P.P.P.P.P.P.P.P.P.P.P.P.P.P.P.P.P.P.",
"P.P.P.P.P.P.P.P.P.P.P.P.P.P.P.P.P.P.P.P.P.P.P.P.J.g.H M , 4  . .7.7.) 6 v H J N.L.P.P.P.P.P.P.P.P.P.P.P.P.P.P.P.P.P.P.P.P.P.P.P.",
"P.P.P.P.P.P.P.P.P.P.P.P.P.P.P.P.P.P.P.P.P.P.P.P.L.L.L.H o - ].[.[.}.} O 1 G.L.L.P.P.P.P.P.P.P.P.P.P.P.P.P.P.P.P.P.P.P.P.P.P.P.P.",
"P.P.P.P.P.P.P.P.P.P.P.P.P.P.P.P.P.P.P.P.P.P.P.P.L.L.L.g.c Z r.(.Q.~.%.b G L.L.L.P.P.P.P.P.P.P.P.P.P.P.P.P.P.P.P.P.P.P.P.P.P.P.P.",
"P.P.P.P.P.P.P.P.P.P.P.P.P.P.P.P.P.P.P.P.P.P.P.P.P.P.P.J.G.M.^ L K P -.Z.G.L.P.P.P.P.P.P.P.P.P.P.P.P.P.P.P.P.P.P.P.P.P.P.P.P.P.P.",
"P.P.P.P.P.P.P.P.P.P.P.P.P.P.P.P.P.P.P.P.P.P.P.P.P.P.P.P.P.D.k y t t z.L.P.P.P.P.P.P.P.P.P.P.P.P.P.P.P.P.P.P.P.P.P.P.P.P.P.P.P.P.",
"P.P.P.P.P.P.P.P.P.P.P.P.P.P.P.P.P.P.P.P.P.P.P.P.P.P.P.P.P.P.H.H.H.G.L.P.P.P.P.P.P.P.P.P.P.P.P.P.P.P.P.P.P.P.P.P.P.P.P.P.P.P.P.P.",
"P.P.P.P.P.P.P.P.P.P.P.P.P.P.P.P.P.P.P.P.P.P.P.P.P.P.P.P.P.P.P.P.P.P.L.P.P.P.P.P.P.P.P.P.P.P.P.P.P.P.P.P.P.P.P.P.P.P.P.P.P.P.P.P.",
"P.P.P.P.P.P.P.P.P.P.P.P.P.P.P.P.P.P.P.P.P.P.P.P.P.P.P.P.P.P.P.P.P.P.P.P.P.P.P.P.P.P.P.P.P.P.P.P.P.P.P.P.P.P.P.P.P.P.P.P.P.P.P.P.",
"P.P.P.P.P.P.P.P.P.P.P.P.P.P.P.P.P.P.P.P.P.P.P.P.P.P.P.P.P.P.P.P.P.P.P.P.P.P.P.P.P.P.P.P.P.P.P.P.P.P.P.P.P.P.P.P.P.P.P.P.P.P.P.P."
};
