/* XPM */
static char *result[] = {
/* columns rows colors chars-per-pixel */
"64 64 182 2 ",
"   c #151A16",
".  c #171A18",
"X  c #1A1B1A",
"o  c #222A1D",
"O  c #261B21",
"+  c #2B1C22",
"@  c #37192D",
"#  c #3E1F33",
"$  c #1F2120",
"%  c #242524",
"&  c #292026",
"*  c #262C23",
"=  c #2C2228",
"-  c #2B2B2B",
";  c #32232D",
":  c #312B29",
">  c #273222",
",  c #323F2C",
"<  c #302F30",
"1  c #3D2A37",
"2  c #353535",
"3  c #393137",
"4  c #3A3A3A",
"5  c #471737",
"6  c #4B1439",
"7  c #461C39",
"8  c #4C1B3C",
"9  c #50163D",
"0  c #521A3F",
"q  c #462139",
"w  c #51313D",
"e  c #2E4026",
"r  c #38462D",
"t  c #344B2B",
"y  c #3A5A2B",
"u  c #3B5331",
"i  c #3B612E",
"p  c #494B39",
"a  c #55453F",
"s  c #445633",
"d  c #405E32",
"f  c #50503D",
"g  c #40642F",
"h  c #4A6F38",
"j  c #4A7338",
"k  c #591744",
"l  c #521E41",
"z  c #5B1946",
"x  c #5E1A4A",
"c  c #641C4D",
"v  c #681E4F",
"b  c #6B1D52",
"n  c #711F56",
"m  c #741F59",
"M  c #5C264A",
"N  c #483D44",
"B  c #543746",
"V  c #64244D",
"C  c #662A4D",
"Z  c #67324E",
"A  c #68334E",
"S  c #693C4F",
"D  c #6C2254",
"F  c #682852",
"G  c #732559",
"H  c #683653",
"J  c #753B5C",
"K  c #7E2261",
"L  c #7A3865",
"P  c #464545",
"I  c #484547",
"U  c #474847",
"Y  c #4D4548",
"T  c #574541",
"R  c #5B4343",
"E  c #5F5D45",
"W  c #6A424F",
"Q  c #6A4A4F",
"!  c #6C534F",
"~  c #6C4651",
"^  c #6C4950",
"/  c #744657",
"(  c #744757",
")  c #6D5351",
"_  c #6E5C50",
"`  c #775E58",
"'  c #586F41",
"]  c #587841",
"[  c #646A49",
"{  c #637249",
"}  c #6E6151",
"|  c #6F6B51",
" . c #726853",
".. c #6F7151",
"X. c #717352",
"o. c #717A52",
"O. c #90234F",
"+. c #8C2F51",
"@. c #952555",
"#. c #973151",
"$. c #AF2B4D",
"%. c #A92A55",
"&. c #B62A55",
"*. c #A93453",
"=. c #842466",
"-. c #872569",
";. c #8B256C",
":. c #8D2A6D",
">. c #90276F",
",. c #972968",
"<. c #8B366A",
"1. c #942871",
"2. c #992876",
"3. c #9D2A79",
"4. c #8C3D73",
"5. c #983574",
"6. c #A12C7C",
"7. c #AA347C",
"8. c #CC2E57",
"9. c #CD2E5A",
"0. c #CE3066",
"q. c #864665",
"w. c #955270",
"e. c #A3467E",
"r. c #846162",
"t. c #54893D",
"y. c #588C41",
"u. c #5A9541",
"i. c #67934A",
"p. c #748B53",
"a. c #779A55",
"s. c #61A245",
"d. c #65A947",
"f. c #67AD49",
"g. c #69B24A",
"h. c #70B04E",
"j. c #71BE4F",
"k. c #77A454",
"l. c #78A754",
"z. c #77AB54",
"x. c #78AE55",
"c. c #79B255",
"v. c #74BD51",
"b. c #7ABD55",
"n. c #74C651",
"m. c #7BC356",
"M. c #76CA52",
"N. c #7BCC55",
"B. c #7DD556",
"V. c #7ED957",
"C. c #A62D80",
"Z. c #AD2E85",
"A. c #B02F87",
"S. c #B12F88",
"D. c #AE3186",
"F. c #B33089",
"G. c #BA338E",
"H. c #B5388E",
"J. c #BC3391",
"K. c #CC358E",
"L. c #C23495",
"P. c #C73A97",
"I. c #C63699",
"U. c #CA369C",
"Y. c #CF389F",
"T. c #D0359F",
"R. c #CE3BA1",
"E. c #D435A2",
"W. c #D936A5",
"Q. c #D33BA4",
"!. c #DA3BA7",
"~. c #DB3CAB",
"^. c #E63EB2",
"/. c #E93FB4",
"(. c #AC4183",
"). c #EA40B6",
"_. c #E842BA",
"`. c #F142BC",
"'. c #EF44C1",
"]. c #F946C7",
"[. c #FD46C6",
"{. c #FE48CC",
/* pixels */
"V.V.V.V.V.V.V.V.V.V.V.V.V.V.V.V.V.V.V.V.V.V.V.V.V.V.V.V.V.V.V.V.V.V.V.V.V.V.V.V.V.V.V.V.V.V.V.V.V.V.V.V.V.V.V.V.V.V.V.V.V.V.V.V.",
"V.V.V.V.V.V.V.V.V.V.V.V.V.V.V.V.V.V.V.V.V.V.V.V.V.V.V.V.V.V.V.V.V.V.V.V.V.V.V.V.V.V.V.V.V.V.V.V.V.V.V.V.V.V.V.V.V.V.V.V.V.V.V.V.",
"V.V.V.V.V.V.V.V.V.V.V.V.V.V.V.V.V.V.V.V.V.V.V.V.V.V.V.V.V.V.V.V.V.V.V.V.V.V.V.V.V.V.V.V.V.V.V.V.V.V.V.V.V.V.V.V.V.V.V.V.V.V.V.V.",
"V.V.V.V.V.V.V.V.V.V.V.V.V.V.V.V.V.V.V.V.V.V.V.V.V.V.V.V.V.V.V.V.V.V.V.V.V.V.V.V.V.V.V.V.V.V.V.V.V.V.V.V.V.V.V.V.V.V.V.V.V.V.V.V.",
"V.V.V.V.V.V.V.V.V.V.V.V.V.V.V.V.V.V.V.V.V.V.V.V.V.V.V.V.V.V.V.V.V.V.V.V.V.V.V.V.V.V.V.V.V.V.V.V.V.V.V.V.V.V.V.V.V.V.V.V.V.V.V.V.",
"V.V.V.V.V.V.V.V.V.V.V.V.V.V.V.V.V.V.V.V.V.V.V.V.V.V.V.V.V.V.V.V.V.V.V.V.V.V.V.V.V.V.V.V.V.V.V.V.V.V.V.V.V.V.V.V.V.V.V.V.V.V.V.V.",
"V.V.V.V.V.V.V.V.V.V.V.V.V.V.V.V.V.V.V.V.V.V.V.V.V.V.V.V.V.V.V.V.V.V.V.V.V.V.V.V.V.V.V.V.V.V.V.V.V.V.V.V.V.V.V.V.V.V.V.V.V.V.V.V.",
"V.V.V.V.V.V.V.V.V.V.V.V.V.V.V.V.V.V.V.V.V.V.B.B.V.V.V.V.V.V.V.V.V.V.V.V.V.V.V.V.V.V.V.V.V.V.V.V.V.V.V.V.V.V.V.V.V.V.V.V.V.V.V.V.",
"V.V.V.V.V.V.V.V.V.V.V.V.V.V.V.V.V.V.V.V.V.V.V.V.V.V.V.V.V.V.V.V.V.V.V.V.V.V.V.V.V.V.V.V.V.V.V.V.V.V.V.V.V.V.V.V.V.V.V.V.V.V.V.V.",
"V.V.V.V.V.V.V.V.V.V.V.V.V.V.V.V.V.V.V.V.V.V.V.V.V.V.V.V.V.V.V.V.V.V.V.V.V.V.V.V.V.V.V.V.V.V.V.V.V.V.V.V.V.V.V.V.V.V.V.V.V.V.V.V.",
"V.V.V.V.V.V.V.V.V.V.V.V.V.V.V.V.V.V.V.V.V.V.V.V.V.V.V.V.V.V.V.V.V.V.V.V.V.V.V.V.V.V.V.V.V.V.V.V.V.V.V.V.V.V.V.V.V.V.V.V.V.V.V.V.",
"V.V.V.V.V.V.V.V.V.V.V.V.V.V.V.V.V.V.V.V.V.V.V.V.V.V.V.V.V.V.V.V.V.V.V.V.V.V.V.V.V.V.V.V.V.V.V.V.V.V.V.V.V.V.V.V.V.V.V.V.V.V.V.V.",
"V.V.V.V.V.V.V.V.V.V.V.V.V.V.V.V.V.V.V.V.V.V.V.V.V.V.V.V.V.V.V.V.V.V.V.V.V.V.V.V.V.V.V.V.V.V.V.V.V.V.V.V.V.V.V.V.V.V.V.V.V.V.V.V.",
"V.V.V.V.V.V.V.V.V.V.V.V.V.V.V.V.V.V.V.V.V.V.V.V.V.V.V.V.V.V.V.V.V.V.V.V.V.V.V.V.V.V.V.V.V.V.V.V.V.V.V.V.V.V.V.V.V.V.V.V.V.V.V.V.",
"V.V.V.V.V.V.V.V.V.V.V.V.V.V.V.V.V.V.V.V.V.V.V.V.V.V.V.V.V.V.V.V.V.V.V.V.V.V.V.V.V.V.V.V.V.V.V.V.V.V.V.V.V.V.V.V.V.V.V.V.V.V.V.V.",
"V.V.V.V.V.V.V.V.V.V.V.V.V.V.V.V.V.V.V.V.V.V.V.V.V.V.V.V.V.V.V.V.V.V.V.V.V.V.V.V.V.V.V.V.V.V.V.V.V.V.V.V.V.V.V.V.V.V.V.V.V.V.V.V.",
"V.V.V.V.V.V.V.V.V.V.V.V.V.V.V.V.V.V.V.V.V.V.V.V.V.V.V.V.V.V.V.V.V.V.B.V.V.V.V.V.V.V.V.V.V.V.V.V.V.V.V.V.V.V.V.V.V.V.V.V.V.V.V.V.",
"V.V.V.V.V.V.V.V.V.V.V.V.V.V.V.V.V.V.V.V.V.V.V.V.V.V.V.V.V.N.b.b.b.b.N.V.V.V.V.V.V.V.V.V.V.V.V.V.V.V.V.V.V.V.V.V.V.V.V.V.V.V.V.V.",
"V.V.V.V.V.V.V.V.V.V.V.V.V.V.V.V.V.V.V.V.V.V.V.V.V.V.V.V.V.x.W ~ ~ S a.B.V.V.V.V.V.V.V.V.V.V.V.V.V.V.V.V.V.V.V.V.V.V.V.V.V.V.V.V.",
"V.V.V.V.V.V.V.V.V.V.V.V.V.V.V.V.V.V.V.V.V.V.V.V.V.V.V.V.V.k.F c c v p.B.V.V.V.V.V.V.V.V.V.V.V.V.V.V.V.V.V.V.V.V.V.V.V.V.V.V.V.V.",
"V.V.V.V.V.V.V.V.V.V.V.V.V.V.V.V.V.V.V.V.V.V.V.V.M.y.j { ..r.H.G.G.J.w...p.V.B.V.V.V.V.V.V.V.V.V.V.V.V.V.V.V.V.V.V.V.V.V.V.V.V.V.",
"V.V.V.V.V.V.V.V.V.V.V.V.V.V.V.V.V.V.V.V.V.V.V.V.v.t % q k -.].[.[.{.3.z W V.V.V.V.V.V.V.V.V.V.V.V.V.V.V.V.V.V.V.V.V.V.V.V.V.V.V.",
"V.V.V.V.V.V.V.V.V.V.V.V.V.V.V.V.V.V.V.V.V.V.V.V.v.p ; D ;.C././.).).F.:.q.l.l.m.V.V.V.V.V.V.V.V.V.V.V.V.V.V.V.V.V.V.V.V.V.V.V.V.",
"V.V.V.V.V.V.V.V.V.V.V.V.V.V.V.V.V.V.V.V.V.B.B.B.b.^ V J.'.^.S.S.F.D.~.'.Q.C ~ k.B.B.V.B.V.V.V.V.V.V.V.V.V.V.V.V.V.V.V.V.V.V.V.V.",
"V.V.V.V.V.V.V.V.V.V.V.V.V.V.V.V.V.V.V.V.M.b.b.b.l.( D J.'.^.S.S.S.D.!.`.Q.D J a.b.b.b.m.V.V.V.V.V.V.V.V.V.V.V.V.V.V.V.V.V.V.V.V.",
"V.V.V.V.V.V.V.V.V.V.V.V.V.V.V.V.V.V.V.B.p.Q W Q / P.~.Y.J.J.S.S.F.A.G.L.U.~.Y.q.Q ^ W | B.V.V.V.V.V.V.V.V.V.V.V.V.V.V.V.V.V.V.V.",
"V.V.V.V.V.V.V.V.V.V.V.V.V.V.V.V.V.V.V.B...V c v n ~.{.R.S.S.S.S.A.S.A.Z.L.{._.=.c c c ^ B.B.V.V.V.V.V.V.V.V.V.V.V.V.V.V.V.V.V.V.",
"V.V.V.V.V.V.V.V.V.V.V.V.V.V.V.V.V.m.o.} e.L.F.1.2.L.R.J.S.S.S.S.S.S.S.S.G.Y.I.3.:.D.L.(.} X.b.V.V.V.V.V.V.V.V.V.V.V.V.V.V.V.V.V.",
"V.V.V.V.V.V.V.V.V.V.V.V.V.V.V.V.V.b.W v G.]./.S.F.S.S.S.F.S.S.S.S.Z.S.S.S.S.S.F.Z.~.].Q.b Z x.V.V.V.V.V.V.V.V.V.V.V.V.V.V.V.V.V.",
"V.V.V.V.V.V.V.V.V.V.V.V.V.V.V.V.V.b.W v F./.!.F.F.S.S.Z.Z.Z.Z.Z.Z.Z.Z.Z.Z.D.S.F.S.Q./.U.v Z x.V.V.V.V.V.V.V.V.V.V.V.V.V.V.V.V.V.",
"V.V.V.V.V.V.V.V.V.V.V.V.V.V.V.V.V.b.~ v >.S.F.F.S.S.S.C.1.2.2.2.1.2.2.2.6.F.S.S.S.D.F.3.v Z c.V.V.V.V.V.V.V.V.V.V.V.V.V.V.V.V.V.",
"V.V.V.V.V.V.V.V.V.V.V.V.V.V.V.V.B.b.^ A <.Z.Z.S.S.Z.S.3.1.2.2.2.2.2.2.2.3.Z.Z.D.D.D.D.3.Z ~ b.V.V.V.V.V.V.V.V.V.V.V.V.V.V.V.V.V.",
"V.V.V.V.V.V.V.V.V.V.V.V.V.V.V.V.V.N.x.k.` m K 3.2.6.2.2.2.2.2.2.2.2.1.2.2.3.3.3.3.-.n J l.l.N.V.V.V.V.V.V.V.V.V.V.V.V.V.V.V.V.V.",
"V.V.V.V.V.V.V.V.V.V.V.V.V.V.V.V.B.V.V.B.| c m 2.2.2.2.2.2.2.2.2.2.2.2.2.2.2.2.2.3.K c ~ V.V.B.V.V.V.V.V.V.V.V.V.V.V.V.V.V.V.V.V.",
"V.V.V.V.V.V.V.V.V.V.V.V.V.V.V.V.B.V.V.B.' @ 7 b n >.2.2.2.2.2.2.2.2.2.2.2.2.1.m n l @ p B.V.V.V.V.V.V.V.V.V.V.V.V.V.V.V.V.V.V.V.",
"V.V.V.V.V.V.V.V.V.V.V.V.V.V.V.V.V.V.V.V.h X + 6 9 -.3.2.2.2.2.2.2.3.2.2.2.2.>.k 6 + . t B.B.V.V.V.V.V.V.V.V.V.V.V.V.V.V.V.V.V.V.",
"V.V.V.V.V.V.V.V.V.V.V.V.V.V.V.V.B.N.g.f.g $ = 7 6 m ;.;.;.;.;.;.;.;.;.;.;.-.K l q = $ r d.g.M.V.V.V.V.V.V.V.V.V.V.V.V.V.V.V.V.V.",
"V.V.V.V.V.V.V.V.V.V.V.V.V.V.V.V.B.n.e X - 2 2 2 3 7 6 k c c c c c c c c x 6 5 1 2 4 4 < X > f.V.V.V.V.V.V.V.V.V.V.V.V.V.V.V.V.V.",
"V.V.V.V.V.V.V.V.V.V.V.V.V.V.V.V.V.j.e X - 2 2 2 2 q 6 z c c c c c c c c z 6 7 3 2 2 2 < X > f.B.B.V.V.V.V.V.V.V.V.V.V.V.V.V.V.V.",
"V.V.V.V.V.V.V.V.V.V.V.V.V.V.V.V.N.n.e X - 4 2 2 2 3 1 q 9 6 9 9 9 9 6 l 8 3 3 3 2 2 2 < $ > f.B.V.V.V.V.V.V.V.V.V.V.V.V.V.V.V.V.",
"V.V.V.V.V.V.V.V.V.V.V.V.V.V.V.V.B.n.e   - 4 2 2 2 2 2 q 6 6 6 6 6 9 6 6 7 2 2 2 2 2 4 2 X * f.B.V.V.V.V.V.V.V.V.V.V.V.V.V.V.V.V.",
"V.V.V.V.V.V.V.V.V.V.V.V.V.V.V.V.V.M.u.t.u % - 2 4 2 2 3 1 q 1 1 1 # 1 # 1 2 4 2 2 < % , t.u.n.B.V.V.V.V.V.V.V.V.V.V.V.V.V.V.V.V.",
"V.V.V.V.V.V.V.V.V.V.V.V.V.V.V.V.B.B.B.N.h . $ 4 2 2 2 2 2 2 2 2 2 2 3 2 2 2 4 2 2 - . t B.N.B.V.V.V.V.V.V.V.V.V.V.V.V.V.V.V.V.V.",
"V.V.V.V.V.V.V.V.V.V.V.V.V.V.V.V.B.V.B.V.h O % < - 2 - 2 < < 2 - < < < < < < < < 2 + O r M.V.V.V.V.V.V.V.V.V.V.V.V.V.V.V.V.V.V.V.",
"V.V.V.V.V.V.V.V.V.V.V.V.V.V.V.V.V.V.B.B.{ 6 @ X . X   X . . . X X X . . . X X X   @ 5 T V.V.V.V.V.V.V.V.V.V.V.V.V.V.V.V.V.V.V.V.",
"V.V.V.V.V.V.V.V.V.V.V.V.V.V.V.V.V.B.N.m.[ k 6 + + + + + + + + + + + + + + + + + O 5 k R b.m.B.V.V.V.V.V.V.V.V.V.V.V.V.V.V.V.V.V.",
"V.V.V.V.V.V.V.V.V.V.V.V.V.V.V.V.V.m._ ~ 5.G.G.S.D.&.$.$.$.$.$.$.$.$.$.$.$.$.$.7.D.S.G.7.~ ) c.V.V.V.V.V.V.V.V.V.V.V.V.V.V.V.V.V.",
"V.V.V.V.V.V.V.V.V.V.V.V.V.V.V.V.V.b.W c 3.U.U.U.U.0.8.8.8.8.8.8.8.8.8.8.8.8.9.K.R.I.U.S.v Z x.V.V.V.V.V.V.V.V.V.V.V.V.V.V.V.V.V.",
"V.V.V.V.V.V.V.V.V.V.V.V.V.V.V.V.B.b.W v Z.^.~.U.I.,.O.&.8.9.8.8.8.8.8.8.&.@.@.G.I.!.).I.v Z c.B.V.V.V.V.V.V.V.V.V.V.V.V.V.V.V.V.",
"V.V.V.V.V.V.V.V.V.V.V.V.V.V.V.V.B.m.W v J.[.`.U.L.m z %.8.8.8.8.8.8.8.9.&.x n G.U.).].~.v Z x.B.V.V.V.V.V.V.V.V.V.V.V.V.V.V.V.V.",
"V.V.V.V.V.V.V.V.V.V.V.V.V.V.V.V.B.m.| ! e.Q.U.S.Z.G M +.*.*.*.*.*.*.*.*.#.M F C.D.L.R.H.) } b.B.V.V.V.V.V.V.V.V.V.V.V.V.V.V.V.V.",
"V.V.V.V.V.V.V.V.V.V.V.V.V.V.V.V.V.B.B.N. .b D b F B I T Y Y Y Y Y Y Y Y Y I N F b b D ( N.N.B.V.V.V.V.V.V.V.V.V.V.V.V.V.V.V.V.V.",
"V.V.V.V.V.V.V.V.V.V.V.V.V.V.V.V.V.V.V.B.o.V V c x N U U I U I U I Y U U U U I M c V C ! B.V.V.V.V.V.V.V.V.V.V.V.V.V.V.V.V.V.V.V.",
"V.V.V.V.V.V.V.V.V.V.V.V.V.V.V.V.V.V.V.V.m.c.i.: & N Y U I P 4 4 4 4 N I U U N = + ] z.b.V.V.V.V.V.V.V.V.V.V.V.V.V.V.V.V.V.V.V.V.",
"V.V.V.V.V.V.V.V.V.V.V.V.V.V.V.V.V.V.V.V.B.B.s.o $ 4 U U I P 2 2 4 4 P P U P P % X t.B.B.V.V.V.V.V.V.V.V.V.V.V.V.V.V.V.V.V.V.V.V.",
"V.V.V.V.V.V.V.V.V.V.V.V.V.V.V.V.V.V.V.V.B.V.s.o % L 4.4.4.L - - - % H 4.4.4.<.: X t.N.B.V.V.V.V.V.V.V.V.V.V.V.V.V.V.V.V.V.V.V.V.",
"V.V.V.V.V.V.V.V.V.V.V.V.V.V.V.V.V.V.V.V.B.V.s.o O D.W.T.E.6.O X X   :.T.T.E.L.#   t.M.B.V.V.V.V.V.V.V.V.V.V.V.V.V.V.V.V.V.V.V.V.",
"V.V.V.V.V.V.V.V.V.V.V.V.V.V.V.V.V.V.V.V.V.V.g.i s <.6.6.6.<.d d y i L 6.6.6.5.f y s.B.B.V.V.V.V.V.V.V.V.V.V.V.V.V.V.V.V.V.V.V.V.",
"V.V.V.V.V.V.V.V.V.V.V.V.V.V.V.V.V.V.V.V.V.B.B.n.h.R 0 9 0 R j.n.M.M.E l 0 0 w i.n.N.V.V.V.V.V.V.V.V.V.V.V.V.V.V.V.V.V.V.V.V.V.V.",
"V.V.V.V.V.V.V.V.V.V.V.V.V.V.V.V.V.V.V.V.V.V.V.B.b.a 6 6 7 T N.B.V.V.E 8 5 6 w l.V.V.V.V.V.V.V.V.V.V.V.V.V.V.V.V.V.V.V.V.V.V.V.V.",
"V.V.V.V.V.V.V.V.V.V.V.V.V.V.V.V.V.V.V.V.V.V.V.V.B.B.B.B.B.B.V.V.V.V.B.B.B.B.B.B.V.V.V.V.V.V.V.V.V.V.V.V.V.V.V.V.V.V.V.V.V.V.V.V.",
"V.V.V.V.V.V.V.V.V.V.V.V.V.V.V.V.V.V.V.V.V.V.V.V.B.V.V.V.V.V.V.V.V.V.V.V.V.V.V.B.V.V.V.V.V.V.V.V.V.V.V.V.V.V.V.V.V.V.V.V.V.V.V.V.",
"V.V.V.V.V.V.V.V.V.V.V.V.V.V.V.V.V.V.V.V.V.V.V.V.V.V.V.V.V.V.V.V.V.V.V.V.V.V.V.V.V.V.V.V.V.V.V.V.V.V.V.V.V.V.V.V.V.V.V.V.V.V.V.V.",
"V.V.V.V.V.V.V.V.V.V.V.V.V.V.V.V.V.V.V.V.V.V.V.V.V.V.V.V.V.V.V.V.V.V.V.V.V.V.V.V.V.V.V.V.V.V.V.V.V.V.V.V.V.V.V.V.V.V.V.V.V.V.V.V."
};
