/* XPM */
static char *result[] = {
/* columns rows colors chars-per-pixel */
"64 64 135 2 ",
"   c #372B1D",
".  c #3A331F",
"X  c #35391E",
"o  c #3B3721",
"O  c #492E1B",
"+  c #384021",
"@  c #3A4422",
"#  c #3B592E",
"$  c #57541B",
"%  c #4D4121",
"&  c #4F4624",
"*  c #574823",
"=  c #515921",
"-  c #685826",
";  c #6E5825",
":  c #596021",
">  c #5A6423",
",  c #406232",
"<  c #456B34",
"1  c #487136",
"2  c #497337",
"3  c #497437",
"4  c #4C7938",
"5  c #4D7C3A",
"6  c #577E39",
"7  c #6F7E27",
"8  c #6A7B28",
"9  c #934C1B",
"0  c #A3571C",
"q  c #A6571C",
"w  c #AC571B",
"e  c #AB5C1D",
"r  c #B25D1C",
"t  c #9E6C1B",
"y  c #92781B",
"u  c #C9631B",
"i  c #DF6C1B",
"p  c #E6701B",
"a  c #F0781B",
"s  c #50813B",
"d  c #51833C",
"f  c #52863D",
"g  c #58873A",
"h  c #5A863B",
"j  c #548A3E",
"k  c #568C3E",
"l  c #5B8E3D",
"z  c #608D3D",
"x  c #60903B",
"c  c #60943D",
"v  c #629440",
"b  c #68AF49",
"n  c #6AB34B",
"m  c #6AB44B",
"M  c #6CB74C",
"N  c #6DB94D",
"B  c #6FBD4E",
"V  c #70BF4F",
"C  c #72C350",
"Z  c #74C651",
"A  c #74C751",
"S  c #75C851",
"D  c #76CA52",
"F  c #76CB52",
"G  c #7BD355",
"H  c #7BD455",
"J  c #7CD555",
"K  c #7DD756",
"L  c #7ED857",
"P  c #7ED957",
"I  c #9D951B",
"U  c #A19C1C",
"Y  c #A39D1C",
"T  c #A9A11B",
"R  c #BBB51C",
"E  c #DD8D1B",
"W  c #EC861B",
"Q  c #F3801B",
"!  c #F3821B",
"~  c #F4891B",
"^  c #F48A1B",
"/  c #F5901B",
"(  c #F5921B",
")  c #F5941B",
"_  c #F5951B",
"`  c #F6981B",
"'  c #F69A1B",
"]  c #F69B1B",
"[  c #F69C1B",
"{  c #C3BC1C",
"}  c #F7A61B",
"|  c #F7A81B",
" . c #F8AD1B",
".. c #F8B11B",
"X. c #F8B21B",
"o. c #F9B21B",
"O. c #F9B31B",
"+. c #F9B81B",
"@. c #FAB81B",
"#. c #F8BA1B",
"$. c #FABA1B",
"%. c #FABC1B",
"&. c #FABD1B",
"*. c #FABF1B",
"=. c #DED31B",
"-. c #EAC71B",
";. c #F7C41B",
":. c #FAC01B",
">. c #FAC31B",
",. c #FAC41B",
"<. c #FAC61B",
"1. c #FBC71B",
"2. c #FBC81B",
"3. c #FBC91B",
"4. c #FBCB1B",
"5. c #FBCD1B",
"6. c #FBCE1B",
"7. c #FCCE1B",
"8. c #FCCF1B",
"9. c #E7DB1B",
"0. c #FBD21B",
"q. c #FCD31B",
"w. c #FCD51B",
"e. c #FCD71B",
"r. c #F0D91B",
"t. c #FDDA1B",
"y. c #FDDD1B",
"u. c #FDDE1B",
"i. c #FDE01B",
"p. c #FDE11B",
"a. c #F5E81B",
"s. c #FEE81B",
"d. c #FEE91B",
"f. c #FEEB1B",
"g. c #FCEC1B",
/* pixels */
"P P P P P P P P P P P P P P P P P P P P P P P P P P P P P P P P P P P P P P P P P P P P P P P P P P P P P P P P P P P P P P P P ",
"P P P P P P P P P P P P P P P P P P P P P P P P P P P P P P P P P P P P P P P P P P P P P P P P P P P P P P P P P P P P P P P P ",
"P P P P P P P P P P P P P P P P P P P P P P P P P P P P P P P P P P P P P P P P P P P P P P P P P P P P P P P P P P P P P P P P ",
"P P P P P P P P P P P P P P P P P P P P P P P P P P P P P P P P P P P P P P P P P P P P P P P P P P P P P P P P P P P P P P P P ",
"P P P P P P P P P P P P P P P P P P P P P P P P P P P P P P P P P P P P P P P P P P P P P P P P P P P P P P P P P P P P P P P P ",
"P P P P P P P P P P P P P P P P P P P P P P P P P P P P P P P P P P P P P P P P P P P P P P P P P P P P P P P P P P P P P P P P ",
"P P P P P P P P P P P P P P P P P P P P P P P P P P P P P P P P P P P P P P P P P P P P P P P P P P P P P P P P P P P P P P P P ",
"P P P P P P P P P P P P P P P P P P P P P P P P P P P P P P P P P P P P P P P P P P P P P P P P P P P P P P P P P P P P P P P P ",
"P P P P P P P P P P P P P P P P P P P P P P P P P P P P P P P P P P P P P P P P P P P P P P P P P P P P P P P P P P P P P P P P ",
"P P P P P P P P P P P P P P P P P P P P P P P P P P P P P P P P P P P P P P P P P P P P P P P P P P P P P P P P P P P P P P P P ",
"P P P P P P P P P P P P P P P P P P P P P P P P P P P P P P P P P P P P P P P P P P P P P P P P P P P P P P P P P P P P P P P P ",
"P P P P P P P P P P P P P P P P P P P P P P P P P P P P P P P P P P P P P P P P P P P P P P P P P P P P P P P P P P P P P P P P ",
"P P P P P P P P P P P P P P P P P P P P P P P P P P P P P P P P P P P P P P P P P P P P P P P P P P P P P P P P P P P P P P P P ",
"P P P P P P P P P P P P P P P P P P P P P P P P P P P P P P P P P P P P P P P P P P P P P P P P P P P P P P P P P P P P P P P P ",
"P P P P P P P P P P P P P P P P P P P P P P P P P P P P P P P P P P P P P P P P P P P P P P P P P P P P P P P P P P P P P P P P ",
"P P P P P P P P P P P P P P P P P P P P P P P P P P P P P P P P P P P P P P P P P P P P P P P P P P P P P P P P P P P P P P P P ",
"P P P P P P P P P P P P P P P P P P P P P P P P P P P P P P P P P P P P P P P P P P P P P P P P P P P P P P P P P P P P P P P P ",
"P P P P P P P P P P P P P P P P P P P P P P P P P P P P P P P P P P P P P P P P P P P P P P P P P P P P P P P P P P P P P P P P ",
"P P P P P P P P P P P P P P P P P P P P P P P P P P P P P P P P P P P P P P P P P P P P P P P P P P P P P P P P P P P P P P P P ",
"P P P P P P P P P P P P P P P P P P P P P P P P P P P P P P P P P P P P P P P P P P P P P P P P P P P P P P P P P P P P P P P P ",
"P P P P P P P P P P P P P P P P P P P P P P P P P P P P P P P P P P P P P P P P P P P P P P P P P P P P P P P P P P P P P P P P ",
"P P P P P P P P P P P P P P P P P P P P P P P P P P P P P P P P P P P P P P P P P P P P P P P P P P P P P P P P P P P P P P P P ",
"P P P P P P P P P P P P P P P P P P P P P P P P P P P P P P P P P P P P P P P P P P P P P P P P P P P P P P P P P P P P P P P P ",
"P P P P P P P P P P P P P P P P P P P P P P P P P P P P M k f f f f j n L P P P P P P P P P P P P P P P P P P P P P P P P P P P ",
"P P P P P P P P P P P P P P P P P P P P P P P P P P J F l @ X X X X + g D H P P P P P P P P P P P P P P P P P P P P P P P P P P ",
"P P P P P P P P P P P P P P P P P P P P P P P P P P V 4 8 U T T T T Y 7 3 N P P P P P P P P P P P P P P P P P P P P P P P P P P ",
"P P P P P P P P P P P P P P P P P P P P P P P P J V v & y r.s.s.s.f.a.I = c B H P P P P P P P P P P P P P P P P P P P P P P P P ",
"P P P P P P P P P P P P P P P P P P P P P P P P F 4 & e E ;.5.5.5.t.g.9.R > 1 A P P P P P P P P P P P P P P P P P P P P P P P P ",
"P P P P P P P P P P P P P P P P P P P P P P P P S , O u ) *.8.q.2.7.u.d.=.$ # C P P P P P P P P P P P P P P P P P P P P P P P P ",
"P P P P P P P P P P P P P P P P P P P P P P P P S , O u ) :.e.i.6.1.3.u.=.$ # C P P P P P P P P P P P P P P P P P P P P P P P P ",
"P P P P P P P P P P P P P P P P P P P P P P P P S , O u ) %.O.X.0.w.3.y.=.$ # C P P P P P P P P P P P P P P P P P P P P P P P P ",
"P P P P P P P P P P P P P P P P P P P P P P P P S , O u ) @._ ^ w.p.4.y.=.$ # C P P P P P P P P P P P P P P P P P P P P P P P P ",
"P P P P P P P P P P P P P P P P P P P P P P P P S , O u ) @._ ^ w.p.4.y.=.$ # C P P P P P P P P P P P P P P P P P P P P P P P P ",
"P P P P P P P P P P P P P P P P P P P P P P P P S , O u ) $.} ' +.,.<.y.=.$ # C P P P P P P P P P P P P P P P P P P P P P P P P ",
"P P P P P P P P P P P P P P P P P P P P P P P P S , O u ( $.&.o./ ] :.y.=.$ # C P P P P P P P P P P P P P P P P P P P P P P P P ",
"P P P P P P P P P P P P P P P P P P P P P P P P S , O u ! ` ..&.|  .>.y.=.$ # C P P P P P P P P P P P P P P P P P P P P P P P P ",
"P P P P P P P P P P P P P P P P P P P P P P P P D 2 % r i a [ +.+.+.#.-.{ : < Z P P P P P P P P P P P P P P P P P P P P P P P P ",
"P P P P P P P P P P P P P P P P P P P P P P P P H N z * 9 p Q ~ ~ ~ W t : x M G P P P P P P P P P P P P P P P P P P P P P P P P ",
"P P P P P P P P P P P P P P P P P P P P P P P P P P B 1 - 0 w w w w q ; < M P P P P P P P P P P P P P P P P P P P P P P P P P P ",
"P P P P P P P P P P P P P P P P P P P P P P P P P P H A h o         . 6 Z G P P P P P P P P P P P P P P P P P P P P P P P P P P ",
"P P P P P P P P P P P P P P P P P P P P P P P P P P P P m d 5 5 5 5 s b L P P P P P P P P P P P P P P P P P P P P P P P P P P P ",
"P P P P P P P P P P P P P P P P P P P P P P P P P P P P K J J J J J J K P P P P P P P P P P P P P P P P P P P P P P P P P P P P ",
"P P P P P P P P P P P P P P P P P P P P P P P P P P P P P P P P P P P P P P P P P P P P P P P P P P P P P P P P P P P P P P P P ",
"P P P P P P P P P P P P P P P P P P P P P P P P P P P P P P P P P P P P P P P P P P P P P P P P P P P P P P P P P P P P P P P P ",
"P P P P P P P P P P P P P P P P P P P P P P P P P P P P P P P P P P P P P P P P P P P P P P P P P P P P P P P P P P P P P P P P ",
"P P P P P P P P P P P P P P P P P P P P P P P P P P P P P P P P P P P P P P P P P P P P P P P P P P P P P P P P P P P P P P P P ",
"P P P P P P P P P P P P P P P P P P P P P P P P P P P P P P P P P P P P P P P P P P P P P P P P P P P P P P P P P P P P P P P P ",
"P P P P P P P P P P P P P P P P P P P P P P P P P P P P P P P P P P P P P P P P P P P P P P P P P P P P P P P P P P P P P P P P ",
"P P P P P P P P P P P P P P P P P P P P P P P P P P P P P P P P P P P P P P P P P P P P P P P P P P P P P P P P P P P P P P P P ",
"P P P P P P P P P P P P P P P P P P P P P P P P P P P P P P P P P P P P P P P P P P P P P P P P P P P P P P P P P P P P P P P P ",
"P P P P P P P P P P P P P P P P P P P P P P P P P P P P P P P P P P P P P P P P P P P P P P P P P P P P P P P P P P P P P P P P ",
"P P P P P P P P P P P P P P P P P P P P P P P P P P P P P P P P P P P P P P P P P P P P P P P P P P P P P P P P P P P P P P P P ",
"P P P P P P P P P P P P P P P P P P P P P P P P P P P P P P P P P P P P P P P P P P P P P P P P P P P P P P P P P P P P P P P P ",
"P P P P P P P P P P P P P P P P P P P P P P P P P P P P P P P P P P P P P P P P P P P P P P P P P P P P P P P P P P P P P P P P ",
"P P P P P P P P P P P P P P P P P P P P P P P P P P P P P P P P P P P P P P P P P P P P P P P P P P P P P P P P P P P P P P P P ",
"P P P P P P P P P P P P P P P P P P P P P P P P P P P P P P P P P P P P P P P P P P P P P P P P P P P P P P P P P P P P P P P P ",
"P P P P P P P P P P P P P P P P P P P P P P P P P P P P P P P P P P P P P P P P P P P P P P P P P P P P P P P P P P P P P P P P ",
"P P P P P P P P P P P P P P P P P P P P P P P P P P P P P P P P P P P P P P P P P P P P P P P P P P P P P P P P P P P P P P P P ",
"P P P P P P P P P P P P P P P P P P P P P P P P P P P P P P P P P P P P P P P P P P P P P P P P P P P P P P P P P P P P P P P P ",
"P P P P P P P P P P P P P P P P P P P P P P P P P P P P P P P P P P P P P P P P P P P P P P P P P P P P P P P P P P P P P P P P ",
"P P P P P P P P P P P P P P P P P P P P P P P P P P P P P P P P P P P P P P P P P P P P P P P P P P P P P P P P P P P P P P P P ",
"P P P P P P P P P P P P P P P P P P P P P P P P P P P P P P P P P P P P P P P P P P P P P P P P P P P P P P P P P P P P P P P P ",
"P P P P P P P P P P P P P P P P P P P P P P P P P P P P P P P P P P P P P P P P P P P P P P P P P P P P P P P P P P P P P P P P ",
"P P P P P P P P P P P P P P P P P P P P P P P P P P P P P P P P P P P P P P P P P P P P P P P P P P P P P P P P P P P P P P P P "
};
