/* XPM */
static char *result[] = {
/* columns rows colors chars-per-pixel */
"64 64 132 2 ",
"   c #372B1D",
".  c #3A331F",
"X  c #35391E",
"o  c #3B3721",
"O  c #54321B",
"+  c #384021",
"@  c #3A4422",
"#  c #3B592E",
"$  c #4C491B",
"%  c #4E4121",
"&  c #564321",
"*  c #574321",
"=  c #574823",
"-  c #505821",
";  c #515D24",
":  c #685826",
">  c #6E5825",
",  c #5A6423",
"<  c #406232",
"1  c #456B34",
"2  c #487136",
"3  c #497337",
"4  c #497437",
"5  c #4C7938",
"6  c #4D7C3A",
"7  c #577E39",
"8  c #6F7E27",
"9  c #6A7B28",
"0  c #9B501B",
"q  c #A3571C",
"w  c #A6571C",
"e  c #AC571B",
"r  c #B25E1C",
"t  c #96691B",
"y  c #BA601C",
"u  c #D3671B",
"i  c #E16D1B",
"p  c #EA721B",
"a  c #F17A1B",
"s  c #50813B",
"d  c #51833C",
"f  c #52863D",
"g  c #58873A",
"h  c #5A863B",
"j  c #5F873B",
"k  c #548A3E",
"l  c #568C3E",
"z  c #5B8E3D",
"x  c #608D3D",
"c  c #60943D",
"v  c #629940",
"b  c #68AF49",
"n  c #6AB34B",
"m  c #6AB44B",
"M  c #6CB74C",
"N  c #6DB94D",
"B  c #6FBD4E",
"V  c #70BF4F",
"C  c #72C350",
"Z  c #74C651",
"A  c #74C751",
"S  c #75C851",
"D  c #76CA52",
"F  c #76CB52",
"G  c #7BD355",
"H  c #7BD455",
"J  c #7CD555",
"K  c #7DD756",
"L  c #7ED857",
"P  c #7ED957",
"I  c #9A821B",
"U  c #948D1B",
"Y  c #A19C1C",
"T  c #A39D1C",
"R  c #A9A11B",
"E  c #B3AE1D",
"W  c #BBB51C",
"Q  c #DF921B",
"!  c #E8851B",
"~  c #F3811B",
"^  c #F4841B",
"/  c #F4891B",
"(  c #F58E1B",
")  c #F5911B",
"_  c #F5961B",
"`  c #F6981B",
"'  c #F69A1B",
"]  c #F69D1B",
"[  c #F69E1B",
"{  c #F69F1B",
"}  c #F7A31B",
"|  c #F7A61B",
" . c #F8AE1B",
".. c #F8AF1B",
"X. c #F8B21B",
"o. c #F9B41B",
"O. c #F7BA1B",
"+. c #F9B81B",
"@. c #F9BB1B",
"#. c #FABB1B",
"$. c #FABD1B",
"%. c #D3C91B",
"&. c #E9C81B",
"*. c #FAC11B",
"=. c #FAC31B",
"-. c #FBC31B",
";. c #FAC41B",
":. c #FBC51B",
">. c #F9C71B",
",. c #FBC71B",
"<. c #FBC91B",
"1. c #FBCA1B",
"2. c #FCCB1B",
"3. c #FBCC1B",
"4. c #FBCD1B",
"5. c #FCCF1B",
"6. c #E5D91B",
"7. c #FCD21B",
"8. c #FCD41B",
"9. c #FCD51B",
"0. c #F4DE1B",
"q. c #FDD91B",
"w. c #FDDB1B",
"e. c #FDDC1B",
"r. c #FDDE1B",
"t. c #FDDF1B",
"y. c #F1E41B",
"u. c #FDE11B",
"i. c #FEE81B",
"p. c #FEEA1B",
"a. c #FBEC1B",
"s. c #FEEC1B",
/* pixels */
"P P P P P P P P P P P P P P P P P P P P P P P P P P P P P P P P P P P P P P P P P P P P P P P P P P P P P P P P P P P P P P P P ",
"P P P P P P P P P P P P P P P P P P P P P P P P P P P P P P P P P P P P P P P P P P P P P P P P P P P P P P P P P P P P P P P P ",
"P P P P P P P P P P P P P P P P P P P P P P P P P P P P P P P P P P P P P P P P P P P P P P P P P P P P P P P P P P P P P P P P ",
"P P P P P P P P P P P P P P P P P P P P P P P P P P P P P P P P P P P P P P P P P P P P P P P P P P P P P P P P P P P P P P P P ",
"P P P P P P P P P P P P P P P P P P P P P P P P P P P P P P P P P P P P P P P P P P P P P P P P P P P P P P P P P P P P P P P P ",
"P P P P P P P P P P P P P P P P P P P P P P P P P P P P P P P P P P P P P P P P P P P P P P P P P P P P P P P P P P P P P P P P ",
"P P P P P P P P P P P P P P P P P P P P P P P P P P P P P P P P P P P P P P P P P P P P P P P P P P P P P P P P P P P P P P P P ",
"P P P P P P P P P P P P P P P P P P P P P P P P P P P P P P P P P P P P P P P P P P P P P P P P P P P P P P P P P P P P P P P P ",
"P P P P P P P P P P P P P P P P P P P P P P P P P P P P P P P P P P P P P P P P P P P P P P P P P P P P P P P P P P P P P P P P ",
"P P P P P P P P P P P P P P P P P P P P P P P P P P P P P P P P P P P P P P P P P P P P P P P P P P P P P P P P P P P P P P P P ",
"P P P P P P P P P P P P P P P P P P P P P P P P P P P P P P P P P P P P P P P P P P P P P P P P P P P P P P P P P P P P P P P P ",
"P P P P P P P P P P P P P P P P P P P P P P P P P P P P P P P P P P P P P P P P P P P P P P P P P P P P P P P P P P P P P P P P ",
"P P P P P P P P P P P P P P P P P P P P P P P P P P P P P P P P P P P P P P P P P P P P P P P P P P P P P P P P P P P P P P P P ",
"P P P P P P P P P P P P P P P P P P P P P P P P P P P P P P P P P P P P P P P P P P P P P P P P P P P P P P P P P P P P P P P P ",
"P P P P P P P P P P P P P P P P P P P P P P P P P P P P P P P P P P P P P P P P P P P P P P P P P P P P P P P P P P P P P P P P ",
"P P P P P P P P P P P P P P P P P P P P P P P P P P P P P P P P P P P P P P P P P P P P P P P P P P P P P P P P P P P P P P P P ",
"P P P P P P P P P P P P P P P P P P P P P P P P P P P P P P P P P P P P P P P P P P P P P P P P P P P P P P P P P P P P P P P P ",
"P P P P P P P P P P P P P P P P P P P P P P P P P P P P P P P P P P P P P P P P P P P P P P P P P P P P P P P P P P P P P P P P ",
"P P P P P P P P P P P P P P P P P P P P P P P P P P P P P P P P P P P P P P P P P P P P P P P P P P P P P P P P P P P P P P P P ",
"P P P P P P P P P P P P P P P P P P P P P P P P P P P P P P P P P P P P P P P P P P P P P P P P P P P P P P P P P P P P P P P P ",
"P P P P P P P P P P P P P P P P P P P P P P P P P P P P P P P P P P P P P P P P P P P P P P P P P P P P P P P P P P P P P P P P ",
"P P P P P P P P P P P P P P P P P P P P P P P P P P P P P P P P P P P P P P P P P P P P P P P P P P P P P P P P P P P P P P P P ",
"P P P P P P P P P P P P P P P P P P P P P P P P P P P P P P P P P P P P P P P P P P P P P P P P P P P P P P P P P P P P P P P P ",
"P P P P P P P P P P P P P P P P P P P P P P P P P P P P M l f f f f k n L P P P P P P P P P P P P P P P P P P P P P P P P P P P ",
"P P P P P P P P P P P P P P P P P P P P P P P P P P J F z @ X X X X + g D H P P P P P P P P P P P P P P P P P P P P P P P P P P ",
"P P P P P P P P P P P P P P P P P P P P P P P P P P V 5 9 Y R R R R T 8 4 N P P P P P P P P P P P P P P P P P P P P P P P P P P ",
"P P P P P P P P P P P P P P P P P P P P P P P P J V v ; U y.s.i.i.i.0.I % x B H P P P P P P P P P P P P P P P P P P P P P P P P ",
"P P P P P P P P P P P P P P P P P P P P P P P P F 5 ; E 6.a.e.4.4.4.>.Q r = 2 A P P P P P P P P P P P P P P P P P P P P P P P P ",
"P P P P P P P P P P P P P P P P P P P P P P P P S < $ %.p.t.5.,.7.5.*.` u O # C P P P P P P P P P P P P P P P P P P P P P P P P ",
"P P P P P P P P P P P P P P P P P P P P P P P P S < $ %.u.1.,.3.r.q.=.` u O # C P P P P P P P P P P P P P P P P P P P P P P P P ",
"P P P P P P P P P P P P P P P P P P P P P P P P S < $ %.t.<.8.9.o.X.$.` u O # C P P P P P P P P P P P P P P P P P P P P P P P P ",
"P P P P P P P P P P P P P P P P P P P P P P P P S < $ %.t.2.t.w.) ) +.` u O # C P P P P P P P P P P P P P P P P P P P P P P P P ",
"P P P P P P P P P P P P P P P P P P P P P P P P S < $ %.t.2.t.w.) ) +.` u O # C P P P P P P P P P P P P P P P P P P P P P P P P ",
"P P P P P P P P P P P P P P P P P P P P P P P P S < $ %.t.,.;.@.] } #.` u O # C P P P P P P P P P P P P P P P P P P P P P P P P ",
"P P P P P P P P P P P P P P P P P P P P P P P P S < $ %.t.-.[ ( ..$.#._ u O # C P P P P P P P P P P P P P P P P P P P P P P P P ",
"P P P P P P P P P P P P P P P P P P P P P P P P S < $ %.t.:. .| #.o.' ^ u O # C P P P P P P P P P P P P P P P P P P P P P P P P ",
"P P P P P P P P P P P P P P P P P P P P P P P P D 3 - W &.O.+.+.+.{ a i y & 1 Z P P P P P P P P P P P P P P P P P P P P P P P P ",
"P P P P P P P P P P P P P P P P P P P P P P P P H N c , t ! / / / ~ p 0 * j M G P P P P P P P P P P P P P P P P P P P P P P P P ",
"P P P P P P P P P P P P P P P P P P P P P P P P P P B 2 : q e e e e w > 1 M P P P P P P P P P P P P P P P P P P P P P P P P P P ",
"P P P P P P P P P P P P P P P P P P P P P P P P P P H A h o         . 7 Z G P P P P P P P P P P P P P P P P P P P P P P P P P P ",
"P P P P P P P P P P P P P P P P P P P P P P P P P P P P m d 6 6 6 6 s b L P P P P P P P P P P P P P P P P P P P P P P P P P P P ",
"P P P P P P P P P P P P P P P P P P P P P P P P P P P P K J J J J J J K P P P P P P P P P P P P P P P P P P P P P P P P P P P P ",
"P P P P P P P P P P P P P P P P P P P P P P P P P P P P P P P P P P P P P P P P P P P P P P P P P P P P P P P P P P P P P P P P ",
"P P P P P P P P P P P P P P P P P P P P P P P P P P P P P P P P P P P P P P P P P P P P P P P P P P P P P P P P P P P P P P P P ",
"P P P P P P P P P P P P P P P P P P P P P P P P P P P P P P P P P P P P P P P P P P P P P P P P P P P P P P P P P P P P P P P P ",
"P P P P P P P P P P P P P P P P P P P P P P P P P P P P P P P P P P P P P P P P P P P P P P P P P P P P P P P P P P P P P P P P ",
"P P P P P P P P P P P P P P P P P P P P P P P P P P P P P P P P P P P P P P P P P P P P P P P P P P P P P P P P P P P P P P P P ",
"P P P P P P P P P P P P P P P P P P P P P P P P P P P P P P P P P P P P P P P P P P P P P P P P P P P P P P P P P P P P P P P P ",
"P P P P P P P P P P P P P P P P P P P P P P P P P P P P P P P P P P P P P P P P P P P P P P P P P P P P P P P P P P P P P P P P ",
"P P P P P P P P P P P P P P P P P P P P P P P P P P P P P P P P P P P P P P P P P P P P P P P P P P P P P P P P P P P P P P P P ",
"P P P P P P P P P P P P P P P P P P P P P P P P P P P P P P P P P P P P P P P P P P P P P P P P P P P P P P P P P P P P P P P P ",
"P P P P P P P P P P P P P P P P P P P P P P P P P P P P P P P P P P P P P P P P P P P P P P P P P P P P P P P P P P P P P P P P ",
"P P P P P P P P P P P P P P P P P P P P P P P P P P P P P P P P P P P P P P P P P P P P P P P P P P P P P P P P P P P P P P P P ",
"P P P P P P P P P P P P P P P P P P P P P P P P P P P P P P P P P P P P P P P P P P P P P P P P P P P P P P P P P P P P P P P P ",
"P P P P P P P P P P P P P P P P P P P P P P P P P P P P P P P P P P P P P P P P P P P P P P P P P P P P P P P P P P P P P P P P ",
"P P P P P P P P P P P P P P P P P P P P P P P P P P P P P P P P P P P P P P P P P P P P P P P P P P P P P P P P P P P P P P P P ",
"P P P P P P P P P P P P P P P P P P P P P P P P P P P P P P P P P P P P P P P P P P P P P P P P P P P P P P P P P P P P P P P P ",
"P P P P P P P P P P P P P P P P P P P P P P P P P P P P P P P P P P P P P P P P P P P P P P P P P P P P P P P P P P P P P P P P ",
"P P P P P P P P P P P P P P P P P P P P P P P P P P P P P P P P P P P P P P P P P P P P P P P P P P P P P P P P P P P P P P P P ",
"P P P P P P P P P P P P P P P P P P P P P P P P P P P P P P P P P P P P P P P P P P P P P P P P P P P P P P P P P P P P P P P P ",
"P P P P P P P P P P P P P P P P P P P P P P P P P P P P P P P P P P P P P P P P P P P P P P P P P P P P P P P P P P P P P P P P ",
"P P P P P P P P P P P P P P P P P P P P P P P P P P P P P P P P P P P P P P P P P P P P P P P P P P P P P P P P P P P P P P P P ",
"P P P P P P P P P P P P P P P P P P P P P P P P P P P P P P P P P P P P P P P P P P P P P P P P P P P P P P P P P P P P P P P P ",
"P P P P P P P P P P P P P P P P P P P P P P P P P P P P P P P P P P P P P P P P P P P P P P P P P P P P P P P P P P P P P P P P "
};
