/* XPM */
static char *result[] = {
/* columns rows colors chars-per-pixel */
"64 64 135 2 ",
"   c #372B1D",
".  c #342E1E",
"X  c #35391E",
"o  c #383A1D",
"O  c #3F4124",
"+  c #3D4425",
"@  c #3E4D25",
"#  c #76401B",
"$  c #70561B",
"%  c #7B761B",
"&  c #424826",
"*  c #404D24",
"=  c #404B28",
"-  c #435426",
";  c #415428",
":  c #53582A",
">  c #555F2C",
",  c #595829",
"<  c #5A5E2B",
"1  c #556B2A",
"2  c #5B6F29",
"3  c #56702C",
"4  c #5C732B",
"5  c #4D7C3A",
"6  c #8E551F",
"7  c #93541E",
"8  c #96571E",
"9  c #9B571D",
"0  c #A1521B",
"q  c #AC571B",
"w  c #81621B",
"e  c #D3671B",
"r  c #D96A1B",
"t  c #D3791B",
"y  c #EC711B",
"u  c #F27B1B",
"i  c #F37C1B",
"p  c #F37F1B",
"a  c #51833B",
"s  c #52863D",
"d  c #54893E",
"f  c #578D3F",
"g  c #578F3F",
"h  c #599240",
"j  c #5B9641",
"k  c #629B42",
"l  c #639E42",
"z  c #649F44",
"x  c #64A244",
"c  c #65A245",
"v  c #66A545",
"b  c #67A746",
"n  c #67A946",
"m  c #71C04F",
"M  c #72C350",
"N  c #73C550",
"B  c #74C751",
"V  c #76CA52",
"C  c #77CB52",
"Z  c #78CD53",
"A  c #78CE53",
"S  c #7CD555",
"D  c #7CD656",
"F  c #7DD756",
"G  c #7DD856",
"H  c #7ED957",
"J  c #95941F",
"K  c #99971E",
"L  c #9D9B1E",
"P  c #A39F1D",
"I  c #A9A11B",
"U  c #B4AC1B",
"Y  c #DD811B",
"T  c #F4841B",
"R  c #F4851B",
"E  c #F4871B",
"W  c #F4891B",
"Q  c #F58F1B",
"!  c #F5911B",
"~  c #F6961B",
"^  c #F6981B",
"/  c #F69A1B",
"(  c #F69D1B",
")  c #F69E1B",
"_  c #F7A01B",
"`  c #F7A31B",
"'  c #F7A41B",
"]  c #F7A71B",
"[  c #F7A91B",
"{  c #F8AD1B",
"}  c #F8AE1B",
"|  c #F8AF1B",
" . c #F8B11B",
".. c #F9B11B",
"X. c #F9B31B",
"o. c #F9B51B",
"O. c #F2B81B",
"+. c #F5BC1B",
"@. c #F9B81B",
"#. c #FABB1B",
"$. c #FABC1B",
"%. c #FABE1B",
"&. c #DBC41B",
"*. c #DFD31B",
"=. c #E5CC1B",
"-. c #FAC01B",
";. c #FAC11B",
":. c #FBC41B",
">. c #FBC51B",
",. c #FBC61B",
"<. c #FBC71B",
"1. c #FBCA1B",
"2. c #FBCD1B",
"3. c #FCCD1B",
"4. c #FCCF1B",
"5. c #E5D91B",
"6. c #FCD01B",
"7. c #FCD11B",
"8. c #FCD31B",
"9. c #FCD51B",
"0. c #FCD61B",
"q. c #FCD71B",
"w. c #FCD81B",
"e. c #FCD91B",
"r. c #FCDA1B",
"t. c #FDDA1B",
"y. c #FDDC1B",
"u. c #FDDE1B",
"i. c #FDE11B",
"p. c #FDE21B",
"a. c #FEE61B",
"s. c #FEE81B",
"d. c #FEEB1B",
"f. c #F8EC1B",
"g. c #FEED1B",
/* pixels */
"H H H H H H H H H H H H H H H H H H H H H H H H H H H H H H H H H H H H H H H H H H H H H H H H H H H H H H H H H H H H H H H H ",
"H H H H H H H H H H H H H H H H H H H H H H H H H H H H H H H H H H H H H H H H H H H H H H H H H H H H H H H H H H H H H H H H ",
"H H H H H H H H H H H H H H H H H H H H H H H H H H H H H H H H H H H H H H H H H H H H H H H H H H H H H H H H H H H H H H H H ",
"H H H H H H H H H H H H H H H H H H H H H H H H H H H H H H H H H H H H H H H H H H H H H H H H H H H H H H H H H H H H H H H H ",
"H H H H H H H H H H H H H H H H H H H H H H H H H H H H H H H H H H H H H H H H H H H H H H H H H H H H H H H H H H H H H H H H ",
"H H H H H H H H H H H H H H H H H H H H H H H H H H H H H H H H H H H H H H H H H H H H H H H H H H H H H H H H H H H H H H H H ",
"H H H H H H H H H H H H H H H H H H H H H H H H H H H H H H H H H H H H H H H H H H H H H H H H H H H H H H H H H H H H H H H H ",
"H H H H H H H H H H H H H H H H H H H H H H H H H H H H H H H H H H H H H H H H H H H H H H H H H H H H H H H H H H H H H H H H ",
"H H H H H H H H H H H H H H H H H H H H H H H H H H H H H H H H H H H H H H H H H H H H H H H H H H H H H H H H H H H H H H H H ",
"H H H H H H H H H H H H H H H H H H H H H H H H H H H H H H H H H H H H H H H H H H H H H H H H H H H H H H H H H H H H H H H H ",
"H H H H H H H H H H H H H H H H H H H H H H H H H H H H H H H H H H H H H H H H H H H H H H H H H H H H H H H H H H H H H H H H ",
"H H H H H H H H H H H H H H H H H H H H H H H H H H H H H H H H H H H H H H H H H H H H H H H H H H H H H H H H H H H H H H H H ",
"H H H H H H H H H H H H H H H H H H H H H H H H H H H H H H H H H H H H H H H H H H H H H H H H H H H H H H H H H H H H H H H H ",
"H H H H H H H H H H H H H H H H H H H H H H H H H H H H H H H H H H H H H H H H H H H H H H H H H H H H H H H H H H H H H H H H ",
"H H H H H H H H H H H H H H H H H H H H H H H H H H H H H H H H H H H H H H H H H H H H H H H H H H H H H H H H H H H H H H H H ",
"H H H H H H H H H H H H H H H H H H H H H H H H H H H H H H H H H H H H H H H H H H H H H H H H H H H H H H H H H H H H H H H H ",
"H H H H H H H H H H H H H H H H H H H H H H H H H H H H H H H H H H H H H H H H H H H H H H H H H H H H H H H H H H H H H H H H ",
"H H H H H H H H H H H H H H H H H H H H H H H H H H H H H H H H H H H H H H H H H H H H H H H H H H H H H H H H H H H H H H H H ",
"H H H H H H H H H H H H H H H H H H H H H H H H H H H H H H H H H H H H H H H H H H H H H H H H H H H H H H H H H H H H H H H H ",
"H H H H H H H H H H H H H H H H H H H H H H H H H H H H H H H H H H H H H H H H H H H H H H H H H H H H H H H H H H H H H H H H ",
"H H H H H H H H H H H H H H H H H H H H H H H H H H H H H H H H H H H H H H H H H H H H H H H H H H H H H H H H H H H H H H H H ",
"H H H H H H H H H H H H H H H H H H H H H H H H H H H H H H H H H H H H H H H H H H H H H H H H H H H H H H H H H H H H H H H H ",
"H H H H H H H H H H H H H H H H H H H H H H H H H H H H H H H H H H H H H H H H H H H H H H H H H H H H H H H H H H H H H H H H ",
"H H H H H H H H H H H H H H H H H H H H H H H H H H B j s s s s s s s s h M H H H H H H H H H H H H H H H H H H H H H H H H H H ",
"H H H H H H H H H H H H H H H H H H H H H H H H F A n ; X X X X X X X X @ x Z F H H H H H H H H H H H H H H H H H H H H H H H H ",
"H H H H H H H H H H H H H H H H H H H H H H H H A g 3 J I I I I I I I I K 4 d C H H H H H H H H H H H H H H H H H H H H H H H H ",
"H H H H H H H H H H H H H H H H H H H H H H H B b > $ &.s.s.s.s.s.s.s.g.5.% 1 v N G H H H H H H H H H H H H H H H H H H H H H H ",
"H H H H H H H H H H H H H H H H H H H H H H H j = 6 t O.2.2.2.2.2.2.4.i.f.*.L - f S H H H H H H H H H H H H H H H H H H H H H H ",
"H H H H H H H H H H H H H H H H H H H H H H H s . 0 R o.:.>.4.0.0.4.<.8.p.g.U o 5 S H H H H H H H H H H H H H H H H H H H H H H ",
"H H H H H H H H H H H H H H H H H H H H H H H s . 0 R o.;.;.w.d.d.u.1.<.3.a.U o 5 S H H H H H H H H H H H H H H H H H H H H H H ",
"H H H H H H H H H H H H H H H H H H H H H H H s . 0 R o. .( #.q.q.r.y.6.1.a.U o 5 S H H H H H H H H H H H H H H H H H H H H H H ",
"H H H H H H H H H H H H H H H H H H H H H H H s . 0 R o.' p ` :.:.9.d.e.1.a.U o 5 S H H H H H H H H H H H H H H H H H H H H H H ",
"H H H H H H H H H H H H H H H H H H H H H H H s . 0 R o.' p ` :.:.9.d.e.1.a.U o 5 S H H H H H H H H H H H H H H H H H H H H H H ",
"H H H H H H H H H H H H H H H H H H H H H H H s . 0 R o.| ~ ) ] ] $.t.7.1.a.U o 5 S H H H H H H H H H H H H H H H H H H H H H H ",
"H H H H H H H H H H H H H H H H H H H H H H H s . 0 T ..%.@.^ p p / ;.,.1.a.U o 5 S H H H H H H H H H H H H H H H H H H H H H H ",
"H H H H H H H H H H H H H H H H H H H H H H H s . 0 u ! [ %.} _ _ { -.:.1.a.U o 5 S H H H H H H H H H H H H H H H H H H H H H H ",
"H H H H H H H H H H H H H H H H H H H H H H H h + 7 r y Q X.@.@.@.@.@.@.+.=.P * d S H H H H H H H H H H H H H H H H H H H H H H ",
"H H H H H H H H H H H H H H H H H H H H H H H M z < # e i E W W W W W W Y w 2 l m G H H H H H H H H H H H H H H H H H H H H H H ",
"H H H H H H H H H H H H H H H H H H H H H H H H Z d : 8 q q q q q q q q 9 , a V H H H H H H H H H H H H H H H H H H H H H H H H ",
"H H H H H H H H H H H H H H H H H H H H H H H H F C c &                 O k V D H H H H H H H H H H H H H H H H H H H H H H H H ",
"H H H H H H H H H H H H H H H H H H H H H H H H H H N f 5 5 5 5 5 5 5 5 d m H H H H H H H H H H H H H H H H H H H H H H H H H H ",
"H H H H H H H H H H H H H H H H H H H H H H H H H H G S S S S S S S S S S G H H H H H H H H H H H H H H H H H H H H H H H H H H ",
"H H H H H H H H H H H H H H H H H H H H H H H H H H H H H H H H H H H H H H H H H H H H H H H H H H H H H H H H H H H H H H H H ",
"H H H H H H H H H H H H H H H H H H H H H H H H H H H H H H H H H H H H H H H H H H H H H H H H H H H H H H H H H H H H H H H H ",
"H H H H H H H H H H H H H H H H H H H H H H H H H H H H H H H H H H H H H H H H H H H H H H H H H H H H H H H H H H H H H H H H ",
"H H H H H H H H H H H H H H H H H H H H H H H H H H H H H H H H H H H H H H H H H H H H H H H H H H H H H H H H H H H H H H H H ",
"H H H H H H H H H H H H H H H H H H H H H H H H H H H H H H H H H H H H H H H H H H H H H H H H H H H H H H H H H H H H H H H H ",
"H H H H H H H H H H H H H H H H H H H H H H H H H H H H H H H H H H H H H H H H H H H H H H H H H H H H H H H H H H H H H H H H ",
"H H H H H H H H H H H H H H H H H H H H H H H H H H H H H H H H H H H H H H H H H H H H H H H H H H H H H H H H H H H H H H H H ",
"H H H H H H H H H H H H H H H H H H H H H H H H H H H H H H H H H H H H H H H H H H H H H H H H H H H H H H H H H H H H H H H H ",
"H H H H H H H H H H H H H H H H H H H H H H H H H H H H H H H H H H H H H H H H H H H H H H H H H H H H H H H H H H H H H H H H ",
"H H H H H H H H H H H H H H H H H H H H H H H H H H H H H H H H H H H H H H H H H H H H H H H H H H H H H H H H H H H H H H H H ",
"H H H H H H H H H H H H H H H H H H H H H H H H H H H H H H H H H H H H H H H H H H H H H H H H H H H H H H H H H H H H H H H H ",
"H H H H H H H H H H H H H H H H H H H H H H H H H H H H H H H H H H H H H H H H H H H H H H H H H H H H H H H H H H H H H H H H ",
"H H H H H H H H H H H H H H H H H H H H H H H H H H H H H H H H H H H H H H H H H H H H H H H H H H H H H H H H H H H H H H H H ",
"H H H H H H H H H H H H H H H H H H H H H H H H H H H H H H H H H H H H H H H H H H H H H H H H H H H H H H H H H H H H H H H H ",
"H H H H H H H H H H H H H H H H H H H H H H H H H H H H H H H H H H H H H H H H H H H H H H H H H H H H H H H H H H H H H H H H ",
"H H H H H H H H H H H H H H H H H H H H H H H H H H H H H H H H H H H H H H H H H H H H H H H H H H H H H H H H H H H H H H H H ",
"H H H H H H H H H H H H H H H H H H H H H H H H H H H H H H H H H H H H H H H H H H H H H H H H H H H H H H H H H H H H H H H H ",
"H H H H H H H H H H H H H H H H H H H H H H H H H H H H H H H H H H H H H H H H H H H H H H H H H H H H H H H H H H H H H H H H ",
"H H H H H H H H H H H H H H H H H H H H H H H H H H H H H H H H H H H H H H H H H H H H H H H H H H H H H H H H H H H H H H H H ",
"H H H H H H H H H H H H H H H H H H H H H H H H H H H H H H H H H H H H H H H H H H H H H H H H H H H H H H H H H H H H H H H H ",
"H H H H H H H H H H H H H H H H H H H H H H H H H H H H H H H H H H H H H H H H H H H H H H H H H H H H H H H H H H H H H H H H ",
"H H H H H H H H H H H H H H H H H H H H H H H H H H H H H H H H H H H H H H H H H H H H H H H H H H H H H H H H H H H H H H H H "
};
