/* XPM */
static char *_fecbc099c794c02cb8778e0998b914eZ4T6aJQcvtOGM1nC[] = {
/* columns rows colors chars-per-pixel */
"80 48 4 1 ",
"  c None",
". c #333C3A",
"X c #BBE9F1",
"o c #F4F4F4",
/* pixels */
"                                                oooooooooooooooooooooooooooooooo",
"                                                oooooooooooooooooooooooooooooooo",
"    ...   ....   .....   ....    ....   ...     oooooooooooooooooooooooooooooooo",
"   .ooX...XooX...XoooX...XooX....XooX...Xoo.    oooooooooooooooooooooooooooooooo",
"  .ooooXoXooooXoXoooooXoXooooXooXooooXoXoooo.   oooooooooooooooooooooooooooooooo",
"  .ooooooooooooooooooooooooooooooooooooooooo.   oooooooooooooooooooooooooooooooo",
"  .XoooooooooooooooooooooooooooooooooooooooX.   oooooooooooooooooooooooooooooooo",
"   .XoooooooooooooooooooooooooooooooooooooooX.  oooooooooooooooooooooooooooooooo",
"   .ooooooooooooooooooooooooooooooooooooooooo.  oooooooooooooooooooooooooooooooo",
"   .XoooooooooooooooooooooooooooooooooooooooX.  oooooooooooooooooooooooooooooooo",
"  .XoooooooooooooooooooooooooooooooooooooooX.   oooooooooooooooooooooooooooooooo",
"  .oooooooooooooooooooooooooooooooooooooooooX.  ooooooooooooooooXooXoooooooooooo",
"  .oooooooooooooooooooooooooooooooooooooooooo.  ooooooooooooXooX...ooooooooooooo",
"  .XooooooooooooooooooooooooooooooooooooooooX.  ooooooooooooo...  .ooooooooooooo",
"   .XooooooooooooooooooooooooooooooooooooooX.   ooooooooooooX.    .Xoooooooooooo",
"   .oooooooooooooooooooooooooooooooooooooooo.   oooooooooooX.      .Xooooooooooo",
"   .Xooooooooooooooooooooooooooooooooooooooo.   oooooooooooo.      .oooooooooooo",
"  .XoooooooooooooooooooooooooooooooooooooooX.   oooooooooooX.      .oooooooooooo",
"  .oooooooooooooooooooooooooooooooooooooooooX.  ooooooooooooX.   ...Xooooooooooo",
"  .oooooooooooooooooooooooooooooooooooooooooo.  oooooooooooooX...XoXoooooooooooo",
"  .Xooooooooooooooooooooooooooooooooooooooooo.  ooooooooooooooooXooooooooooooooo",
"   .XoooooooooooooooooooooooooooooooooooooooX.  oooooooooooooooooooooooooooooooo",
"   .oooooooooooooooooooooooooooooooooooooooX.   oooooooooooooooooooooooooooooooo",
"   .oooooooooooooooooooooooooooooooooooooooo.   oooooooooooooooooooooooooooooooo",
"   .oooooooooooooooooooooooooooooooooooooooo.   oooooooooooooooooooooooooooooooo",
"   .XooooooooooooooooooooooooooooooooooooooX.   oooooooooooooooooooooooooooooooo",
"  .XooooooooooooooooooooooooooooooooooooooooX.  oooooooooooooooooooooooooooooooo",
"  .oooooooooooooooooooooooooooooooooooooooooo.  oooooooooooooooooooooooooooooooo",
"  .oooooooooooooooooooooooooooooooooooooooooo.  oooooooooooooooooooooooooooooooo",
"  .oooooooooooooooooooooooooooooooooooooooooo.  oooooooooooooooooooooooooooooooo",
"  .XooooooooooooooooooooooooooooooooooooooooX.  oooooooooooooooooooooooooooooooo",
"   .XooooooooooooooooooooooooooooooooooooooX.   oooooooooooooooooooooooooooooooo",
"   .oooooooooooooooooooooooooooooooooooooooo.   oooooooooooo.      .oooooooooooo",
"   .XooooooooooooooooooooooooooooooooooooooX.   oooooooooooX.      .oooooooooooo",
"  .XooooooooooooooooooooooooooooooooooooooooX.  ooooooooooooX.   ...Xooooooooooo",
"  .oooooooooooooooooooooooooooooooooooooooooo.  oooooooooooooX...XoXoooooooooooo",
"  .oooooooooooooooooooooooooooooooooooooooooX.  ooooooooooooooooXooooooooooooooo",
"  .XoooooooooooooooooooooooooooooooooooooooX.   oooooooooooooooooooooooooooooooo",
"   .Xooooooooooooooooooooooooooooooooooooooo.   oooooooooooooooooooooooooooooooo",
"   .oooooooooooooooooooooooooooooooooooooooo.   oooooooooooooooooooooooooooooooo",
"   .XooooooooooooooooooooooooooooooooooooooX.   oooooooooooooooooooooooooooooooo",
"  .XooooooooooooooooooooooooooooooooooooooooX.  oooooooooooooooooooooooooooooooo",
"  .oooooooooooooooooooooooooooooooooooooooooo.  oooooooooooooooooooooooooooooooo",
"  .ooooXoXooooXooXoooooXooXooooXoXooooXoXoooo.  XooXoooooooooooooooooooooooooooo",
"   .ooX...XooX....XoooX....XooX...XooX...Xoo.   ...oooooooooooooooooooooooooXooX",
"    ...   ....    .....    ....   ....   ...      .oooooooooooooooooooooooooo...",
"                                                  .XooooooooooooooooooooooooX.  ",
"                                                   .XooooooooooooooooooooooX.   "
};
