/* XPM */
static char *result[] = {
/* columns rows colors chars-per-pixel */
"64 64 149 2 ",
"   c #170907",
".  c #190907",
"X  c #1E160C",
"o  c #240D0A",
"O  c #2A0E0B",
"+  c #27150D",
"@  c #32130D",
"#  c #3B140C",
"$  c #2B1F10",
"%  c #311F12",
"&  c #272411",
"*  c #2A3116",
"=  c #323418",
"-  c #393A1B",
";  c #45160B",
":  c #501609",
">  c #601E09",
",  c #7E1B04",
"<  c #4A2F13",
"1  c #552615",
"2  c #582715",
"3  c #443018",
"4  c #543119",
"5  c #6D2C0C",
"6  c #762209",
"7  c #662C13",
"8  c #702B11",
"9  c #683717",
"0  c #693B18",
"q  c #72361C",
"w  c #37481F",
"e  c #53411B",
"r  c #67401A",
"t  c #434F23",
"y  c #435424",
"u  c #485726",
"i  c #425C27",
"p  c #495927",
"a  c #4D5C29",
"s  c #5A5926",
"d  c #624C22",
"f  c #6D5623",
"g  c #587D35",
"h  c #68652B",
"j  c #67702F",
"k  c #717F34",
"l  c #841C05",
"z  c #8C2807",
"x  c #922C08",
"c  c #83330A",
"v  c #9D3106",
"b  c #A12F05",
"n  c #B03706",
"m  c #BB3904",
"M  c #C03502",
"N  c #C23B04",
"B  c #944D10",
"V  c #BD490A",
"C  c #AB5C18",
"Z  c #8F641E",
"A  c #A6681C",
"S  c #8C6621",
"D  c #9E723D",
"F  c #C34D0B",
"G  c #C75A0D",
"H  c #C44B16",
"J  c #D4610E",
"K  c #DA6C11",
"L  c #DD7515",
"P  c #E17914",
"I  c #558637",
"U  c #5C8436",
"Y  c #5D8F3B",
"T  c #6B8136",
"R  c #65993F",
"E  c #75993D",
"W  c #73A13E",
"Q  c #639C40",
"!  c #64A442",
"~  c #68A944",
"^  c #74AD46",
"/  c #6BB147",
"(  c #6FB84A",
")  c #74B54A",
"_  c #79B548",
"`  c #75BC4C",
"'  c #73C14E",
"]  c #7BC24E",
"[  c #7AC750",
"{  c #77CA51",
"}  c #7BCB52",
"|  c #7DD555",
" . c #7ED957",
".. c #91872F",
"X. c #9E8D2F",
"o. c #868936",
"O. c #BA8C28",
"+. c #94A83C",
"@. c #B9BE3F",
"#. c #E48119",
"$. c #E6891C",
"%. c #DE8E2C",
"&. c #D89025",
"*. c #E99421",
"=. c #E79927",
"-. c #EB9C25",
";. c #CDA730",
":. c #D9AA32",
">. c #EAA52B",
",. c #EEA52A",
"<. c #F1AD2E",
"1. c #E3A934",
"2. c #F1AF31",
"3. c #F2B333",
"4. c #F2B539",
"5. c #F8C73D",
"6. c #F7C93E",
"7. c #95B943",
"8. c #D7B651",
"9. c #F2B846",
"0. c #F3BD51",
"q. c #E5AB6C",
"w. c #EDBB70",
"e. c #86C74D",
"r. c #97CB4C",
"t. c #86CE50",
"y. c #84D455",
"u. c #A1C849",
"i. c #8ADC63",
"p. c #E9CB4F",
"a. c #F8CC4D",
"s. c #FCD74B",
"d. c #FBD552",
"f. c #FDDB53",
"g. c #FAD45C",
"h. c #FBD96A",
"j. c #F6CB72",
"k. c #FEE267",
"l. c #FEE67A",
"z. c #FBE58B",
"x. c #FEE993",
"c. c #F5E69A",
"v. c #FEED9D",
"b. c #FEEDA2",
"n. c #FEEEA8",
"m. c #FBEBB1",
"M. c #FEF2B6",
"N. c #FEF3BB",
"B. c #FEF6CF",
/* pixels */
" . . . . . . . . . . . . . . . . . . . . . . . . . . . . . . . . . . . . . . . . . . . . . . . . . . . . . . . . . . . . . . . .",
" . . . . . . . . . . . . . . . . . . . . . . . . . . . . . . . . . . . . . . . . . . . . . . . . . . . . . . . . . . . . . . . .",
" . . . . . . . . . . . . . . . . . . . . . . . . . . . . . . . . . . . . . . . . . . . . . . . . . . . . . . . . . . . . . . . .",
" . . . . . . . . . . . . . . . . . . . . . . . . . . . . . . . . . . . . . . . . . . . . . . . . . . . . . . . . . . . . . . . .",
" . . . . . . . . . . . . . . . . . . . . . . . . . . . . . . . . . . . . . . . . . . . . . . . . . . . . . . . . . . . . . . . .",
" . . . . . . . . . . . . . . . . . . . . . . . . . . . . . . . . . . . . . . . . . . . . . . . . . . . . . . . . . . . . . . . .",
" . . . . . . . . . . . . . . . . . . . . . . . . . . . . . . . . . . . . . . . . . . . . . . . . . . . . . . . . . . . . . . . .",
" . . . . . . . . . . . . . . . . . . . . . . . . . . . . . . . . . . . . . . . . . . . . . . . . . . . . . . . . . . . . . . . .",
" . . . . . . . . . . . . . . . . . . . . . . . . . . . . . . . . . . . . . . . . . . . . . . . . . . . . . . . . . . . . . . . .",
" . . . . . . . . . . . . . . . . . . . . . . . . . . . . . . . . . . . . . . . . . . . . . . . . . . . . . . . . . . . . . . . .",
" . . . . . . . . . . . . . . . . . . . . . . . . . . . . . . . . . . . . . . . . . . . . . . . . . . . . . . . . . . . . . . . .",
" . . . . . . . . . . . . . . . . . . . . . . . . . . . . . . . . . . . . . . . . . . . . . . . . . . . . . . . . . . . . . . . .",
" . . . . . . . . . . . . . . . . . . . . . . . . . . . . . . . . . . . . . . . . . . . . . . . . . . . . . . . . . . . . . . . .",
" . . . . . . . . . . . . . . . . . . . . . . . . . . . . . . . . . . . . . . . . . . . . . . . . . . . . . . . . . . . . . . . .",
" . . . . . . . . . . . . . . . . . . . . . . . . . . . . . . . . . . . . . . . . . . . . . . . . . . . . . . . . . . . . . . . .",
" . . . . . . . . . . . . . . . . . . . . . . . . . . . . . . . . . . . . . . . . . . . . . . . . . . . . . . . . . . . . . . . .",
" . . . . . . . . . . . . . . . . . . . . . . . . . . . . . . . . . . . . . . . . . . . . . . . . . . . . . . . . . . . . . . . .",
" . . . . . . . . . . . . . . . . . . . . . . . . . . . . . . . . . . . . . . . . . . . . . . . . . . . . . . . . . . . . . . . .",
" . . . . . . . . . . . . . . . . . . . . . . . . . . . . . . . . . . . . . . . . . . . . . . . . . . . . . . . . . . . . . . . .",
" . . . . . . . . . . . . . . . . . . . . . . . . . . . . . . . . . . . . . . . . . . . . . . . . . . . . . . . . . . . . . . . .",
" . . . . . . . . . . . . . . . . . . . . . . . . . . . . . . . . . . . . . . . . . . . . . . . . . . . . . . . . . . . . . . . .",
" . . . . . . . . . . . . . . . . . . . . . . . . . . . . . . . . . . . . . . . . . . . . . . . . . . . . . . . . . . . . . . . .",
" . . . . . . . . . . . . . . . . . . . . . . . . . . . . . . . . . . . . . . . . . . . . . . . . . . . . . . . . . . . . . . . .",
" . . . . . . . . . . . . . . . . . . . . . . . . . . . . . . . . . . . . . . . . . . . . . . . . . . . . . . . . . . . . . . . .",
" . . . . . . . . . . . . . . . . . . . . . . . . . . . . . . . . . . . . . . . . . . . . . . . . . . . . . . . . . . . . . . . .",
" . . . . . . . . . . . . . . . . . . . . . . . . . . . . . . . . . .| | | y. . . . . . . . . . . . . . . . . . . . . . . . . . .",
" . . . . . . . . . . . . . . . . . . . . . . . . . . . . . . . . . .` _ |  . . . . . . . . . . . . . . . . . . . . . . . . . . .",
" . . . . . . . . . . . . . . . . . . . . . . . . . . . . . . . . .} f 9 E  . . . . . . . . . . . . . . . . . . . . . . . . . . .",
" . . . . . . . . . . . . . . . . . . . . . . . . . . . . . . . .| [ f 0 ^ |  . . . . . . . . . . . . . . . . . . . . . . . . . .",
" . . . . . . . . . . . . . . . . . . . . . . . . . . . . . . . .| | _ ) | |  . . . . . . . . . . . . . . . . . . . . . . . . . .",
" . . . . . . . . . . . . . . . . . . . . . . . . . . . . .| |  .} { |  .|  . . . . . . . . . . . . . . . . . . . . . . . . . . .",
" . . . . . . . . . . . . . . . . . . . . . . . . . . . . .! ! / i a `  .y. . . . . . . . . . . . . . . . . . . . . . . . . . . .",
" . . . . . . . . . . . . . . . . . . . . . . . . . . .| | I * g = Y }  . . . . . . . . . . . . . . . . . . . . . . . . . . . . .",
" . . . . . . . . . . . . . . . . . . . . . . . . . . .| | I X - y {  . . . . . . . . . . . . . . . . . . . . . . . . . . . . . .",
" . . . . . . . . . . . . . . . . . . . . . . . . . . .| { w . o p }  . . . . . . . . . . . . . . . . . . . . . . . . . . . . . .",
" . . . . . . . . . . . . . . . . . . . . . . . . . .|  ./ &   o u } [ }  . . . . . . . . . . . . . . . . . . . . . . . . . . . .",
" . . . . . . . . . . . . . . . . . . . . . . . . . . . .~ +   O p ! r k } |  . . . . . . . . . . . . . . . . . . . . . . . . . .",
" . . . . . . . . . . . . . . . . . . . . . . . . . . .| R X X O - 3 2 h }  . . . . . . . . . . . . . . . . . . . . . . . . . . .",
" . . . . . . . . . . . . . . . . . . . . . . . . . . . .i . o @ < 5 S 7. . . . . .|  . . . . . . . . . . . . . . . . . . . . . .",
" . . . . . . . . . . . . . . . . . . . . . . . . . . .| y o o # b N V +.|  . . . .|  . . . . . . . . . . . . . . . . . . . . . .",
" . . . . . . . . . . . . . . . . . . . . . . . . . . .( = o O > m N N X.y.| |  .` h ^  . . . . . . . . . . . . . . . . . . . . .",
" . . . . . . . . . . . . . . . . . . . . . . . . .| { Y $ X O ; b N m ..[ |  . .) d W  . . . . . . . . . . . . . . . . . . . . .",
" . . . . . . . . . . . . . . . . . . . . . . . . .| ` - o o @ # x M b e R |  . . .{ |  . . . . . . . . . . . . . . . . . . . . .",
" . . . . . . . . . . . . . . . . . . . . . . . . . .R % : , l x F N n ; i {  . . . . . . . . . . . . . . . . . . . . . . . . . .",
" . . . . . . . . . . . . . . . . . . . . . . . . .| ' i 6 n V J P J F z 5 U  . . . . . . . . . . . . . . . . . . . . . . . . . .",
" . . . . . . . . . . . . . . . . . . . . . . . . .| ' w c K P K P #.*.K v s |  . . . . . . . . . . . . . . . . . . . . . . . . .",
" . . . . . . . . . . . . . . . . . . . . . . . . .| W B G #.*.*.-.,.2.<.&.S 7.y. . . . . . . . . . . . . . . . . . . . . . . . .",
" . . . . . . . . . . . . . . . . . . . . . . . .| E Z J J $.,.-.,.2.<.9.0.=.%.@.y. . . . . . . . . . . . . . . . . . . . . . . .",
" . . . . . . . . . . . . . . . . . . . . . . . .Q < 8 G L 3.a.s.f.5.4.j.9.<.>.1.u. . . . . . . . . . . . . . . . . . . . . . . .",
" . . . . . . . . . . . . . . . . . . . . . . . .g t t c 1.d.h.l.k.s.g.d.4.3.,.=.r. . . . . . . . . . . . . . . . . . . . . . . .",
" . . . . . . . . . . . . . . . . . . . . . . . .} ` ) o.p.z.v.v.l.s.f.s.6.6.=.O.y.|  . . . . . . . . . . . . . . . . . . . . . .",
" . . . . . . . . . . . . . . . . . . . . . . . .| | | o.8.v.v.b.b.x.n.x.a.6.:.7. .y. . . . . . . . . . . . . . . . . . . . . . .",
" . . . . . . . . . . . . . . . . . . . . . . . . .| ) d D c.b.b.b.M.N.N.h.3.;.e.|  . . . . . . . . . . . . . . . . . . . . . . .",
" . . . . . . . . . . . . . . . . . . . . . . . . .^ d 1 q q.b.v.M.M.M.M.g.>.A j ]  .|  . . . . . . . . . . . . . . . . . . . . .",
" . . . . . . . . . . . . . . . . . . . . . . . .| T 2 2 8 H q.B.B.B.m.w.=.C 7 4 ^  .|  . . . . . . . . . . . . . . . . . . . . .",
" . . . . . . . . . . . . . . . . . . . . . . . .| } [ [ [ e.y.i.i.i.i.y.t.} [ { |  . . . . . . . . . . . . . . . . . . . . . . .",
" . . . . . . . . . . . . . . . . . . . . . . . . . . . . . . . . . . . . . . . . . . . . . . . . . . . . . . . . . . . . . . . .",
" . . . . . . . . . . . . . . . . . . . . . . . . . . . . . . . . . . . . . . . . . . . . . . . . . . . . . . . . . . . . . . . .",
" . . . . . . . . . . . . . . . . . . . . . . . . . . . . . . . . . . . . . . . . . . . . . . . . . . . . . . . . . . . . . . . .",
" . . . . . . . . . . . . . . . . . . . . . . . . . . . . . . . . . . . . . . . . . . . . . . . . . . . . . . . . . . . . . . . .",
" . . . . . . . . . . . . . . . . . . . . . . . . . . . . . . . . . . . . . . . . . . . . . . . . . . . . . . . . . . . . . . . .",
" . . . . . . . . . . . . . . . . . . . . . . . . . . . . . . . . . . . . . . . . . . . . . . . . . . . . . . . . . . . . . . . .",
" . . . . . . . . . . . . . . . . . . . . . . . . . . . . . . . . . . . . . . . . . . . . . . . . . . . . . . . . . . . . . . . .",
" . . . . . . . . . . . . . . . . . . . . . . . . . . . .y. . . . . . . . . . . . . . . . . . . . . . . . . . . . . . . . . . . ."
};
