/* XPM */
static char *_1a926dcef644682cde1fc59b0782470q5KhEQylhZQWqXDi[] = {
/* columns rows colors chars-per-pixel */
"64 64 67 1 ",
"  c #FFB502",
". c #FFB607",
"X c #FFB709",
"o c #FFB80E",
"O c #FFB910",
"+ c #FFBA15",
"@ c #FFBB18",
"# c #FFBC19",
"$ c #FFBD1E",
"% c #FFBE20",
"& c #FFBF25",
"* c #FFC027",
"= c #FFC029",
"- c #FFC22F",
"; c #FFC331",
": c #FFC434",
"> c #FFC63B",
", c #FFC73E",
"< c #FFC741",
"1 c #FFC843",
"2 c #FFC947",
"3 c #FFCA4A",
"4 c #FFCB4D",
"5 c #FFCC4F",
"6 c #FFCC52",
"7 c #FFCD55",
"8 c #FFCF5B",
"9 c #FFD05E",
"0 c #FFD161",
"q c #FFD369",
"w c #FFD56F",
"e c #FFD570",
"r c #FFD777",
"t c #FFD778",
"y c #FFD87B",
"u c #FFD97E",
"i c #FFDB83",
"p c #FFDB84",
"a c #FFDC87",
"s c #FFDC89",
"d c #FFDE8E",
"f c #FFDF92",
"g c #FFE096",
"h c #FFE198",
"j c #FFE39E",
"k c #FFE4A3",
"l c #FFE5A7",
"z c #FFE6A8",
"x c #FFE7AE",
"c c #FFE8AF",
"v c #FFE8B1",
"b c #FFEAB6",
"n c #FFEBB9",
"m c #FFECBC",
"M c #FFEEC3",
"N c #FFEEC5",
"B c #FFEFC9",
"V c #FFF0CA",
"C c #FFF1CE",
"Z c #FFF2D3",
"A c #FFF3D6",
"S c #FFF4DA",
"D c #FFF5DE",
"F c #FFF7E2",
"G c #FFF7E5",
"H c #FFF8E5",
"J c #FFF9E9",
/* pixels */
"JJJJJJJJJJJJJJJJJJJJJJJJJJJJJJJJJJJJJJJJJJJJJJJJJJJJJJJJJJJJJJJJ",
"JJJJJJJJJJJJJJJJJJJJJJJJJJJJJJJJJJJJJJJJJJJJJJJJJJJJJJJJJJJJJJJJ",
"JJJJJJJJJJJJJJJJJJJJJJJJJJJJJJJJJJJJJJJJJJJJJJJJJJJJJJJJJJJJJJJJ",
"JJJJJJJJJJJJJJJJJJJJJJJJJJJJJJJJJJJJJJJJJJJJJJJJJJJJJJJJJJJJJJJJ",
"JJJJJJJJJJJJJJJJJJJJJJJJJJJJJJJJJJJJJJJJJJJJJJJJJJJJJJJJJJJJJJJJ",
"JJJJJJJJJJJJJJJJJJJJJJJJJJJJJJJJJJJJJJJJJJJJJJJJJJJJJJJJJJJJJJJJ",
"JJJJJJJJJJJJJJJJJJJJJJJJJJJJJJJJJJJJJJJJJJJJJJJJJJJJJJJJJJJJJJJJ",
"JJJJJJJJJJJJJJJJJJJJJJJJJJJJJJJJJJJJJJJJJJJJJJJJJJJJJJJJJJJJJJJJ",
"JJJJJJJJJJJJJJJJJJJJJJJJJJJJJJJJJJJJJJJJJJJJJJJJJJJJJJJJJJJJJJJJ",
"JJJJJJJJJJJJJJJJJJJJJJJJJJJJJJJJJJJJJJJJJJJJJJJJJJJJJJJJJJJJJJJJ",
"JJJJJJJJJJJJJJJJJJJJJJJJJJJJJJJJJJJJJJJJJJJJJJJJJJJJJJJJJJJJJJJJ",
"JJJJJJJJJJJJJJJJJJJJJJJJJJJJJJJJJJJJJJJJJJJJJJJJJJJJJJJJJJJJJJJJ",
"JJJJJJJJJJJJJJJJJJJJJJJJJJJJJJJJJJJJJJJJJJJJJJJJJJJJJJJJJJJJJJJJ",
"JJJJJJJJJJJJJJJJJJJJJJJJJJJJJJJJJJJJJJJJJJJJJJJJJJJJJJJJJJJJJJJJ",
"JJJJJJJJJJJJJJJJJJJJJHFFFFFFFFHJJJJJJJJJJJJJJJJJJJJJJJJJJJJJJJJJ",
"JJJJJJJJJJJJJJJJJJJJJg        qJJJJJJJJJJJJJJJJJJJJJJJJJJJJJJJJJ",
"JJJJJJJJJJJJJJJJJJJJy >JJJJ;   5JJJJJ>     +JJJJJJJJJJJJJJJJJJJJ",
"JJJJJJJJJJJJJJJJJJJJy3ZJJJJZ1  5JJJ$$XpCCCl.$FJJJJJJJJJJJJJJJJJJ",
"JJJJJJJJJJJJJJJJJJJi$7JJJJJJ4  +0A> hcAJJJm  >CJJJJJJJJJJJJJJJJJ",
"JJJJJJJJJJJJJJJJJJJ02vJJJJJJ4   +4 fDJJJJJSa  NJJJJJJJJJJJJJJJJJ",
"JJJJJJJJJJJJJJJJJJJ0eJJJJJJJx<   OfJJJJJJJC6  NJJJJJJJJJJJJJJJJJ",
"JJJJJJJJJJJJJJJJJJh;eJJJJJJJJq   #JJJJJJJJm   NJJJJJJJJJJJJJJJJJ",
"JJJJJJJJJJJJJJJJJJ2 eJJJJJJJJq  +qJJJJJJJCr  7ZJJJJJJJJJJJJJJJJJ",
"JJJJJJJJJJJJJJJJJJw#eJJJJJJJJq  :JJJJJJJZy   FJJJJJJJJJJJJJJJJJJ",
"JJJJJJJJJJJJJJJJJJJ0eJJJJJJJJq +0JJJJJJJs    FJJJJJJJJJJJJJJJJJJ",
"JJJJJJJJJJJJJJJJJJJ00AJJJJJJJq 5JJJJJJJSr  .$FJJJJJJJJJJJJJJJJJJ",
"JJJJJJJJJJJJJJJJJJJ0 7JJJJJJJq 5JJJJJJJw   +JJJJJJJJJJJJJJJJJJJJ",
"JJJJJJJJJJJJJJJJJJJJy  %JJJJJJJJJJJJJJ6         fJJJJJJJJJJJJJJJ",
"JJJJJJJJJJJJJJF$$$$$O  %JJJ3$$$0JJJJ:$owCCCCCCC:O$wJJJJJJJJJJJJJ",
"JJJJJJJJJJJJJC> kccccccbJJ4o   +0JJJbccCJJJJJJJm1 9JJJJJJJJJJJJJ",
"JJJJJJJJJJJJJNXcGJJJJJJJJJ@     o4JJJJJJJJJJJJJJ8 @iJJJJJJJJJJJJ",
"JJJJJJJJJJJJZ3oJJJJJJJJJJJ@      #JJJJJJJJJJJJJu%  9JJJJJJJJJJJJ",
"JJJJJJJJJJJJN+yJJJJJJJJJJJi#    #iJJJJJJJJJJJJa%   9JJJJJJJJJJJJ",
"JJJJJJJJJJJJN@gJJJJJJBfjJJJr$ =8tJJJjfVJJJJJJg+    9JJJJJJJJJJJJ",
"JJJJJJJJJJJJZ3.fFJJJM9 %JJJJa8hJJJJJ$ 9ffffff.    &fJJJJJJJJJJJJ",
"JJJJJJJJJJJJJC> kDMc8 O6JJJJJJJJJJJJ6o           $iJJJJJJJJJJJJJ",
"JJJJJJJJJJJJJJF$ l,OO >JJJJJJSSJJJJJJ4o        +$pJJJJJJJJJJJJJJ",
"JJJJJJJJJJJJJJJJO  sy >JJJJJJqqJJJJJJJ6        xJJJJJJJJJJJJJJJJ",
"JJJJJJJJJJJJJJJJJJJJy7JJJJJJJq 5JJJJJJJw 3JJJJJJJJJJJJJJJJJJJJJJ",
"JJJJJJJJJJJJJJJJJJJJy7JJJJJJJq 5JJJJJJJJs -JJJJJJJJJJJJJJJJJJJJJ",
"JJJJJJJJJJJJJJJJJJJeO7JJJJJJ0o 5JJJJJJJJDd.-JJJJJJJJJJJJJJJJJJJJ",
"JJJJJJJJJJJJJJJJJJJ07MJJJJJJ4  +0JJJJJJJJk OJJJJJJJJJJJJJJJJJJJJ",
"JJJJJJJJJJJJJJJJJJJ0=dJJJJJJ4   :JJJJJJJx, OJJJJJJJJJJJJJJJJJJJJ",
"JJJJJJJJJJJJJJJJJJJ0 7JJJJJd* :4#rrJJJJz2  +JJJJJJJJJJJJJJJJJJJJ",
"JJJJJJJJJJJJJJJJJJJ0 =fJJJJ;  qj   rrrr>  @uJJJJJJJJJJJJJJJJJJJJ",
"JJJJJJJJJJJJJJJJJJJg- &jJff% ;hn2        $rJJJJJJJJJJJJJJJJJJJJJ",
"JJJJJJJJJJJJJJJJJJJJy  @x   =jJJb       #eJJJJJJJJJJJJJJJJJJJJJJ",
"JJJJJJJJJJJJJJJJJJJJs+      jJJJm$$$$$$$rJJJJJJJJJJJJJJJJJJJJJJJ",
"JJJJJJJJJJJJJJJJJJJJJz::::::xJJJJJJJJJJJJJJJJJJJJJJJJJJJJJJJJJJJ",
"JJJJJJJJJJJJJJJJJJJJJJJJJJJJJJJJJJJJJJJJJJJJJJJJJJJJJJJJJJJJJJJJ",
"JJJJJJJJJJJJJJJJJJJJJJJJJJJJJJJJJJJJJJJJJJJJJJJJJJJJJJJJJJJJJJJJ",
"JJJJJJJJJJJJJJJJJJJJJJJJJJJJJJJJJJJJJJJJJJJJJJJJJJJJJJJJJJJJJJJJ",
"JJJJJJJJJJJJJJJJJJJJJJJJJJJJJJJJJJJJJJJJJJJJJJJJJJJJJJJJJJJJJJJJ",
"JJJJJJJJJJJJJJJJJJJJJJJJJJJJJJJJJJJJJJJJJJJJJJJJJJJJJJJJJJJJJJJJ",
"JJJJJJJJJJJJJJJJJJJJJJJJJJJJJJJJJJJJJJJJJJJJJJJJJJJJJJJJJJJJJJJJ",
"JJJJJJJJJJJJJJJJJJJJJJJJJJJJJJJJJJJJJJJJJJJJJJJJJJJJJJJJJJJJJJJJ",
"JJJJJJJJJJJJJJJJJJJJJJJJJJJJJJJJJJJJJJJJJJJJJJJJJJJJJJJJJJJJJJJJ",
"JJJJJJJJJJJJJJJJJJJJJJJJJJJJJJJJJJJJJJJJJJJJJJJJJJJJJJJJJJJJJJJJ",
"JJJJJJJJJJJJJJJJJJJJJJJJJJJJJJJJJJJJJJJJJJJJJJJJJJJJJJJJJJJJJJJJ",
"JJJJJJJJJJJJJJJJJJJJJJJJJJJJJJJJJJJJJJJJJJJJJJJJJJJJJJJJJJJJJJJJ",
"JJJJJJJJJJJJJJJJJJJJJJJJJJJJJJJJJJJJJJJJJJJJJJJJJJJJJJJJJJJJJJJJ",
"JJJJJJJJJJJJJJJJJJJJJJJJJJJJJJJJJJJJJJJJJJJJJJJJJJJJJJJJJJJJJJJJ",
"JJJJJJJJJJJJJJJJJJJJJJJJJJJJJJJJJJJJJJJJJJJJJJJJJJJJJJJJJJJJJJJJ",
"JJJJJJJJJJJJJJJJJJJJJJJJJJJJJJJJJJJJJJJJJJJJJJJJJJJJJJJJJJJJJJJJ"
};
