/* XPM */
static char *_7792d9cec3b47b3dcdeccd805fe29caDply7hmlXFDhShED[] = {
/* columns rows colors chars-per-pixel */
"64 64 171 2 ",
"   c #0E5E39",
".  c #12553D",
"X  c #11583C",
"o  c #03752D",
"O  c #007D2A",
"+  c #0B6536",
"@  c #076E31",
"#  c #096934",
"$  c #126E3B",
"%  c #067030",
"&  c #0D7D35",
"*  c #027E39",
"=  c #127D3A",
"-  c #2E1B5B",
";  c #1E3D49",
":  c #272A54",
">  c #233150",
",  c #1B4347",
"<  c #164D41",
"1  c #184943",
"2  c #145040",
"3  c #087744",
"4  c #2D7E50",
"5  c #3A7F5C",
"6  c #0E7269",
"7  c #487F67",
"8  c #517F6E",
"9  c #547F71",
"0  c #587F74",
"q  c #00802F",
"w  c #008334",
"e  c #00863A",
"r  c #00893D",
"t  c #17883B",
"y  c #028444",
"u  c #0D8441",
"i  c #008D43",
"p  c #088449",
"a  c #018D4B",
"s  c #1E8B41",
"d  c #00934D",
"f  c #068455",
"g  c #1E8D54",
"h  c #138559",
"j  c #009753",
"k  c #009957",
"l  c #029059",
"z  c #009B5B",
"x  c #228D44",
"c  c #25814F",
"v  c #299149",
"b  c #26885A",
"n  c #399956",
"m  c #068768",
"M  c #168D6B",
"N  c #009F60",
"B  c #04946D",
"V  c #1F9265",
"C  c #088874",
"Z  c #09887C",
"A  c #1C887B",
"S  c #029E75",
"D  c #1A9D72",
"F  c #2B886E",
"G  c #28916B",
"H  c #229277",
"J  c #00A165",
"K  c #00A56A",
"L  c #00A971",
"P  c #00AD78",
"I  c #00B07C",
"U  c #458C62",
"Y  c #52806F",
"T  c #4B8370",
"R  c #59847D",
"E  c #65807F",
"W  c #609178",
"Q  c #48A062",
"!  c #64AE76",
"~  c #FFB502",
"^  c #FFB70B",
"/  c #FFB80F",
"(  c #FFBA13",
")  c #FFBC1D",
"_  c #FFBE24",
"`  c #FFC12B",
"'  c #FFC436",
"]  c #FFC63C",
"[  c #FFC741",
"{  c #FFC845",
"}  c #FFCA4C",
"|  c #FFCC52",
" . c #FFCE5A",
".. c #FFD05F",
"X. c #FFD164",
"o. c #FFD36C",
"O. c #FFD673",
"+. c #FFD778",
"@. c #FFD87C",
"#. c #0C8D96",
"$. c #178E92",
"%. c #30888A",
"&. c #32928B",
"*. c #00B98A",
"=. c #25A88D",
"-. c #3CA093",
";. c #0E90AF",
":. c #3891A2",
">. c #4A8A8B",
",. c #73848C",
"<. c #7E859B",
"1. c #51A99A",
"2. c #6DA480",
"3. c #71B381",
"4. c #7EBA8B",
"5. c #4089A2",
"6. c #408DB9",
"7. c #5F89B9",
"8. c #65B3A9",
"9. c #0E9CC2",
"0. c #1295CF",
"q. c #1498E7",
"w. c #179CFF",
"e. c #8A819E",
"r. c #86BE91",
"t. c #88BF93",
"y. c #8A88AA",
"u. c #9181A4",
"i. c #9D82AF",
"p. c #9885B5",
"a. c #948EBD",
"s. c #B188BF",
"d. c #92A2A0",
"f. c #ADB2B4",
"g. c #B0B4B6",
"h. c #8DC196",
"j. c #95C59D",
"k. c #9FCAA4",
"l. c #94C7AA",
"z. c #97C9BA",
"x. c #A7CEAB",
"c. c #B9D7BA",
"v. c #FFDA82",
"b. c #FFDD8D",
"n. c #FFDF94",
"m. c #FFE29D",
"M. c #FFE4A4",
"N. c #FFE5AA",
"B. c #FFE7B1",
"V. c #FFE8B4",
"C. c #FFEABB",
"Z. c #A68BC4",
"A. c #BD88C9",
"S. c #C1B1C5",
"D. c #E0B3DF",
"F. c #91C9D5",
"G. c #ACD5D8",
"H. c #C8DEC4",
"J. c #CCE0C7",
"K. c #CEE1C8",
"L. c #D5E4CE",
"P. c #D9E6D1",
"I. c #FFEDC4",
"U. c #FFEFCB",
"Y. c #E1EBD7",
"T. c #FFF1D3",
"R. c #FFF3DB",
"E. c #F5F4E7",
"W. c #FFF6E4",
"Q. c #FFF7E9",
"!. c #FFF9EE",
/* pixels */
"!.!.!.!.!.!.!.!.!.!.!.!.!.!.!.!.!.!.!.!.!.!.!.!.!.!.!.!.!.!.!.!.!.!.!.!.!.!.!.!.!.!.!.!.!.!.!.!.!.!.!.!.!.!.!.!.!.!.!.!.!.!.!.!.",
"!.!.!.!.!.!.!.!.!.!.!.!.!.!.!.!.!.!.!.!.!.!.!.!.!.!.!.!.!.!.!.!.!.!.!.!.!.!.!.!.!.!.!.!.!.!.!.!.!.!.!.!.!.!.!.!.!.!.!.!.!.!.!.!.",
"!.!.!.!.!.!.!.!.!.!.!.!.!.!.!.!.!.!.!.!.!.!.!.!.!.!.!.!.!.!.!.!.!.!.!.!.!.!.!.!.!.!.!.!.!.!.!.!.!.!.!.!.!.!.!.!.!.!.!.!.!.!.!.!.",
"!.!.!.!.!.!.!.!.!.!.!.!.!.!.!.!.!.!.!.!.!.!.!.!.!.!.!.!.!.!.!.!.!.!.!.!.!.!.!.!.!.!.!.!.!.!.!.!.!.!.!.!.!.!.!.!.!.!.!.!.!.!.!.!.",
"!.!.!.!.!.!.!.!.!.!.!.!.!.!.!.!.!.!.!.!.!.!.!.!.!.!.!.!.!.!.!.!.!.!.!.!.!.!.!.!.!.!.!.!.!.!.!.!.!.!.!.!.!.!.!.!.!.!.!.!.!.!.!.!.",
"!.!.!.!.!.!.!.!.!.!.!.!.!.!.!.!.!.!.!.!.!.!.!.!.!.!.!.!.!.!.!.!.!.!.!.!.!.!.!.!.!.!.!.!.!.!.!.!.!.!.!.!.!.!.!.!.!.!.!.!.!.!.!.!.",
"!.!.!.!.!.!.!.!.!.!.!.!.!.!.!.!.!.!.!.!.!.!.!.!.!.!.!.!.!.!.!.!.!.!.!.!.!.!.!.!.!.!.!.!.!.!.!.!.!.!.!.!.!.!.!.!.!.!.!.!.!.!.!.!.",
"!.!.!.!.!.!.!.!.!.!.!.!.!.!.!.!.!.!.!.!.!.!.!.!.!.!.!.!.!.!.!.!.!.!.!.!.!.!.!.!.!.!.!.!.!.!.!.!.!.!.!.!.!.!.!.!.!.!.!.!.!.!.!.!.",
"!.!.!.!.!.!.!.!.!.!.!.!.!.!.!.!.!.!.!.!.!.!.!.!.!.!.!.!.!.!.!.!.!.!.!.!.!.!.!.!.!.!.!.!.!.!.!.!.!.!.!.!.!.!.!.!.!.!.!.!.!.!.!.!.",
"!.!.!.!.!.!.!.!.!.!.!.!.!.!.!.!.!.!.!.!.!.!.!.!.!.!.!.!.!.!.!.!.!.!.!.!.!.!.!.!.!.!.!.!.!.!.!.!.!.!.!.!.!.!.!.!.!.!.!.!.!.!.!.!.",
"!.!.!.!.!.!.!.!.!.!.!.!.!.!.!.!.!.!.!.!.!.!.!.!.!.!.!.!.!.!.!.!.!.!.!.!.!.!.!.!.!.!.!.!.!.!.!.!.!.!.!.!.!.!.!.!.!.!.!.!.!.!.!.!.",
"!.!.!.!.!.!.!.!.!.!.!.!.!.!.!.!.!.!.!.!.!.!.!.!.!.!.!.!.!.!.!.!.!.!.!.!.!.!.!.!.!.!.!.!.!.!.!.!.!.!.!.!.!.!.!.!.!.!.!.!.!.!.!.!.",
"!.!.!.!.!.!.!.!.!.!.!.!.!.!.!.!.!.!.!.!.!.!.!.!.!.!.!.!.!.!.!.!.!.!.!.!.!.!.!.!.!.!.!.!.!.!.!.!.!.!.!.!.!.!.!.!.!.!.!.!.!.!.!.!.",
"!.!.!.!.!.!.!.!.!.!.!.!.!.!.!.!.!.!.!.!.!.!.!.!.!.!.!.!.!.!.!.!.!.!.!.!.!.!.!.!.!.!.!.!.!.!.!.!.!.!.!.!.!.!.!.!.!.!.!.!.!.!.!.!.",
"!.!.!.!.!.!.!.!.!.!.!.!.!.!.!.!.!.!.!.!.!.!.!.!.!.!.!.!.!.!.!.!.!.!.!.!.!.!.!.!.!.!.!.!.!.!.!.!.!.!.!.!.!.!.!.!.!.!.!.!.!.!.!.!.",
"!.!.!.!.!.!.!.!.!.!.!.!.!.!.!.!.!.!.!.!.!.!.!.!.!.!.!.!.!.!.!.!.!.!.!.!.!.!.!.!.!.!.!.!.!.!.!.!.!.!.!.!.!.!.!.!.!.!.!.!.!.!.!.!.",
"!.!.!.!.!.!.!.!.!.!.!.!.!.!.!.!.!.!.!.!.!.!.!.!.!.!.!.!.!.!.!.!.!.!.!.!.!.!.!.!.!.!.!.!.!.!.!.!.!.!.!.!.!.!.!.!.!.!.!.!.!.!.!.!.",
"!.!.!.!.!.!.!.!.!.!.!.!.!.!.!.!.!.!.!.!.!.!.!.Q.+.+.+.+.+.+.N.!.!.!.!.!.!.!.!.!.!.!.!.!.!.!.!.!.!.!.!.!.!.!.!.!.!.!.!.!.!.!.!.!.",
"!.!.!.!.!.!.!.!.!.!.!.!.!.!.!.!.!.!.!.!.!.!.!.} ` V.V.V.( ~ ) N.!.!.!.m.] ] ] ] n.!.!.!.!.!.!.!.!.!.!.!.!.!.!.!.!.!.!.!.!.!.!.!.",
"!.!.!.!.!.!.!.!.!.!.!.!.!.!.!.!.!.!.!.!.!.!.!.` T.!.!.!.I.~ ~ n.!.T.) ( v.T.T.b.( N.!.!.!.!.!.!.!.!.!.!.!.!.!.!.!.!.!.!.!.!.!.!.",
"!.!.!.!.!.!.!.!.!.!.!.!.!.!.!.!.!.!.!.!.!.!.{ [ !.!.!.!.R.~ ~ ~ b.( O.!.!.!.!.V.) ~ I.!.!.!.!.!.!.!.!.!.!.!.!.!.!.!.!.!.!.!.!.!.",
"!.!.!.!.!.!.!.!.!.!.!.!.!.!.!.!.!.!.!.!.!.!.{ T.!.!.!.!.W.[ ~ ~ ~ X.!.!.!.!.!.T.} ~ I.!.!.!.!.!.!.!.!.!.!.!.!.!.!.!.!.!.!.!.!.!.",
"!.!.!.!.!.!.!.!.!.!.!.!.!.!.!.!.!.!.!.!.!.N._ T.!.!.!.!.!.B.~ ~ ~ W.!.!.!.!.!.M.~ ~ I.!.!.!.!.!.!.!.!.!.!.!.!.!.!.!.!.!.!.!.!.!.",
"!.!.!.!.!.!.!.!.!.!.!.!.!.!.!.!.!.!.!.!.!.o.~ T.!.!.!.!.!.B.~ ~ O.Q.!.!.!.!.R.] ~ X.R.!.!.!.!.!.!.!.!.!.!.!.!.!.!.!.!.!.!.!.!.!.",
"!.!.!.!.!.!.!.!.!.!.!.!.!.!.!.!.!.!.!.!.!.R.] T.!.!.!.!.!.B.~ ~ C.!.!.!.!.!.) ~ ~ m.!.!.!.!.!.!.!.!.!.!.!.!.!.!.!.!.!.!.!.!.!.!.",
"!.!.!.!.!.!.!.!.!.!.!.!.!.!.!.!.!.!.!.!.!.!.{ C.!.!.!.!.!.B.~ n.!.!.!.!.!.T.~ ~ ( N.!.!.!.!.!.!.!.!.!.!.!.!.!.!.!.!.!.!.!.!.!.!.",
"!.!.!.!.!.!.!.!.!.!.!.!.!.!.!.!.!.!.!.!.!.!.v.( n.C.!.!.!.I. .V.!.!.!.!.V.) ~ ~ } n.n.M.!.!.!.!.!.!.!.!.!.!.!.!.!.!.!.!.!.!.!.!.",
"!.!.!.!.!.!.!.!.!.!.!.!.!.!.!.!.!.!.Q.+.+.+.+./ ~ X.!.!.v.+.+.C.!.!.U.+.` X.+.+.+.+.+.( +.V.!.!.!.!.!.!.!.!.!.!.!.!.!.!.!.!.!.!.",
"!.!.!.!.!.!.!.!.!.!.!.!.!.!.!.!.!.!.o.) n.n.n.n.n.C.!.v.^ ~ ~ ' U.!.T.n.n.R.!.!.!.!.!.@.~ @.!.!.!.!.!.!.!.!.!.!.!.!.!.!.!.!.!.!.",
"!.!.!.!.!.!.!.!.!.!.!.!.!.!.!.!.!.!._ C.!.!.!.!.!.!.!.] ~ ~ ~ ~ ` Q.!.!.!.!.!.!.!.!.!.I.~ ) U.!.!.!.!.!.!.!.!.!.!.!.!.!.!.!.!.!.",
"!.!.!.!.!.!.!.!.!.!.!.!.!.!.!.!.!.X._ !.!.!.!.!.!.!.!.| ~ ~ ~ ~ ( W.!.!.!.!.!.!.!.!.T.~ ~ ~ I.!.!.!.!.!.!.!.!.!.!.!.!.!.!.!.!.!.",
"!.!.!.!.!.!.!.!.!.!.!.!.!.!.!.!.!.X.m.!.!.!.!.Q.V.U.!.!.{ ~ ) ] I.!.R.V.R.!.!.!.!.I.) ~ ~ ~ I.!.!.!.!.!.!.!.!.!.!.!.!.!.!.!.!.!.",
"!.!.!.!.!.!.!.!.!.!.!.!.!.!.!.!.!.N.( b.!.!.!.@.~ X.!.!.W.+.N.!.!.!.N.~ } +.+.+.+.` ~ ~ ~ ] T.!.!.!.!.!.!.!.!.!.!.!.!.!.!.!.!.!.",
"!.!.!.!.!.!.!.!.!.!.!.!.!.!.!.!.!.!.m.( n.m. .^ _ C.!.!.!.!.!.!.!.!.T.| ~ ~ ~ ~ ~ ~ ~ ~ ' I.!.!.!.!.!.!.!.!.!.!.!.!.!.!.!.!.!.!.",
"!.!.!.!.!.!.!.!.!.!.!.!.!.!.!.!.!.!.!.b.( ) v.( ' !.!.!.!.I.b.!.!.!.!.T.[ ~ ~ ~ ~ ~ ~ V.I.!.!.!.!.!.!.!.!.!.!.!.!.!.!.!.!.!.!.!.",
"!.!.!.!.!.!.!.!.!.!.!.!.!.!.!.!.!.!.!.Q.T.T.Q.` T.!.!.!.!.B./ m.!.!.!.!.R.[ ) C.T.T.T.!.!.!.!.!.!.!.!.!.!.!.!.!.!.!.!.!.!.!.!.!.",
"!.!.!.!.!.!.!.!.!.!.!.!.!.!.!.!.!.!.!.!.!.!.I._ !.!.!.!.Q.v.~ n.!.!.!.!.!.!.' ' T.!.!.!.!.!.!.!.!.!.!.!.!.!.!.!.!.!.!.!.!.!.!.!.",
"!.!.!.!.!.!.!.!.!.!.!.!.!.!.!.!.!.!.!.!.!.!.{  .!.!.!.!.R.~ ~  .R.!.!.!.!.!.U.~ +.!.!.!.!.!.!.!.!.!.!.!.!.!.!.!.!.!.!.!.!.!.!.!.",
"!.!.!.!.!.!.!.!.!.!.!.!.!.!.!.!.!.!.!.!.!.!.{  .!.!.!.!.R.~ ~ ~ C.!.!.!.!.!.| ~ +.!.!.!.!.!.!.!.!.!.!.!.!.!.!.!.!.!.!.!.!.!.!.!.",
"!.!.!.!.!.!.!.!.!.!.!.!.!.!.!.!.!.!.!.!.!.!.{ / !.!.!.!.{ ~ } } ` | !.!.!...~ ~ +.!.!.!.!.!.!.!.!.!.!.!.!.!.!.!.!.!.!.!.!.!.!.!.",
"!.!.!.!.!.!.!.!.!.!.!.!.!.!.!.!.!.!.!.!.!.!.{ ~ } !.!.!.( ~ o.X.~ ~ ) ) ) ~ ~ { R.!.!.!.!.!.!.!.!.!.!.!.!.!.!.!.!.!.!.!.!.!.!.!.",
"!.!.!.!.!.!.!.!.!.!.!.!.!.!.!.!.!.!.!.!.!.!.!.) ~ } } ~ ~ o.!.!.' ~ ~ ~ ~ ~ | !.!.!.!.!.!.!.!.!.!.!.!.!.!.!.!.!.!.!.!.!.!.!.!.!.",
"!.!.!.!.!.!.!.!.!.!.!.!.!.!.!.!.!.!.!.!.!.!.!.X.~ ~ ~ ~ ( !.!.!.@. . . . . .Q.!.!.!.!.!.!.!.!.!.!.!.!.!.!.!.!.!.!.!.!.!.!.!.!.!.",
"!.!.!.!.!.!.!.!.!.!.!.!.!.!.!.!.!.!.!.!.!.!.!.Q.+.+.+.+.v.!.!.!.!.!.!.!.!.!.!.!.!.!.!.!.!.!.!.!.!.!.!.!.!.!.!.!.!.!.!.!.!.!.!.!.",
"!.!.!.!.!.!.!.!.!.!.!.!.!.!.!.!.!.!.!.!.!.!.!.!.!.!.!.!.!.!.!.!.!.!.!.!.!.!.!.!.!.!.!.!.!.!.!.!.!.!.!.!.!.!.!.!.!.!.!.!.!.!.!.!.",
"!.!.!.!.!.!.!.!.!.!.!.!.!.!.!.!.!.!.!.!.!.!.!.!.!.!.!.!.!.!.!.!.!.!.!.!.!.!.!.!.!.!.!.!.!.!.!.!.!.!.!.!.!.!.!.!.!.!.!.!.!.!.!.!.",
"!.!.!.!.!.!.!.!.!.!.!.!.!.!.!.!.!.!.!.!.!.!.!.!.!.!.!.!.!.!.!.!.!.!.!.!.!.!.!.!.!.!.!.!.!.!.!.!.!.!.!.!.!.!.!.!.!.!.!.!.!.!.!.!.",
"!.!.!.!.!.!.!.!.!.!.!.!.!.!.!.!.!.!.!.!.!.!.!.!.!.!.!.!.!.!.!.!.!.!.!.!.!.!.!.!.!.!.!.!.!.!.!.!.!.!.!.!.!.!.!.!.!.!.!.!.!.!.!.!.",
"!.!.!.!.!.!.!.!.!.!.!.!.!.!.!.!.!.!.!.!.!.!.!.!.!.!.!.!.!.!.!.!.!.!.!.!.!.!.!.!.!.!.!.!.!.!.!.!.!.!.!.!.!.!.!.!.!.!.!.!.!.!.!.!.",
"!.!.!.!.!.!.!.!.!.!.!.!.!.!.!.!.!.!.!.!.!.!.!.!.!.!.!.!.!.!.!.!.!.!.!.!.!.!.!.!.!.!.!.!.!.!.!.!.!.!.!.!.!.!.!.!.!.!.!.!.!.!.!.!.",
"!.!.!.!.!.!.!.!.!.!.!.!.!.!.!.!.!.!.!.!.!.!.!.!.!.!.!.!.!.!.!.!.!.!.!.!.!.!.!.!.!.!.!.!.!.!.!.!.!.!.!.!.!.!.!.!.!.!.!.!.!.!.!.!.",
"!.!.!.!.!.!.!.!.!.!.!.!.!.!.!.!.!.!.!.!.!.!.!.!.!.!.!.!.!.!.!.!.!.!.!.!.!.!.!.!.!.!.!.!.!.!.!.!.!.!.!.!.!.!.!.!.!.!.!.!.!.!.!.!.",
"!.!.!.!.!.!.!.!.!.!.!.!.!.!.!.!.!.!.!.!.!.!.!.!.!.!.!.!.!.!.!.!.!.!.!.!.!.!.!.!.!.!.!.!.!.!.!.!.!.!.!.!.!.!.!.!.!.!.!.!.!.!.!.!.",
"!.!.!.!.!.!.!.!.!.!.!.!.!.!.!.!.!.!.!.!.!.!.!.!.!.!.!.!.!.!.!.!.!.!.!.!.!.!.!.!.!.!.!.!.!.!.!.!.!.!.!.!.!.!.!.!.!.!.!.!.!.!.!.!.",
"!.!.!.!.!.J.3.E.!.!.!.!.!.!.!.!.!.h.!.!.!.!.!.!.!.!.Y.f.D.x.t.!.!.!.!.!.!.J.3.E.!.!.!.c.4.!.H.S.j.!.!.!.!.!.k.h.!.!.!.!.r.!.3.c.",
"t 1.F.h C Z.T x x Q k.k.n L.Y.v p ! L.L.k.L.k.x K.s 8.z.f #.6.A.k.n H.g.2.L.n H g ! 0.#.x.n $.d.G.c.1.l.k.#.O j.P.z.F.4.b 9 t.P.",
"x m Z * d k e E O A.e.O s x v O f ,.,.g ;.g j O v Q A >.F 7 k O ;.G t Y 4 U i.Z p s.%.f s j D R M u w.M C a L O $.Z q.&.l O u.W ",
"i p 9 *.N 9 %.z O k *.B f 7.,.k i I K & 4 w e w r p.c j e r O E E O r <.7 N k O a 9.h 8 Z j K e k O i k 8 = O i O &.y.r 5 j m w.",
"O q >.V r R =.z O J d f y Z z O L d i u G w J J w O q j e r r i O z J w d k e k P K k O k 0 u e O O i O O k O a.c k e r -.d p.5.",
"e w O y :.& O r L i O O E O O O i r d e 8 i.>.m O O N f o j z O e K J K d w e O O O O O w r O i 5 a.@ * L w Z O z i Z O S m r i ",
"e r C w F $ + O O i w d % + O E O O O O O O f 6 # j O # o O O k e w r w d 3 3 O O O O d K r O i O i @ o d w O . O i k O . O . O ",
"+ # # . O O + O . O o # O O . + O . # + O o @ O O @ > X   # O + O 2   + O o @ , . O o   % < O O 2 # # O O o @ O + X o X   O + O ",
"+ , # <   O , ; # + , # % ; ; . . O < X O ; . # # @ X ; . # # 2 ; , + :   < @ , 2 ; @   ; : < . 2 + : 1   , @ , : X o X ;   . + ",
"- - - - - - - - - - - - - - - - - - - - - - - - - - - - - - - - - - - - - - - - - - - - - - - - - - - - - - - - - - - - - - - - "
};
