/* XPM */
static char *_294b44341274c15dc5545c5d7b813f7dRTFRDrlyUWeBX0Y[] = {
/* columns rows colors chars-per-pixel */
"15 16 5 1 ",
"  c None",
". c #1B1B1B",
"X c #F2741B",
"o c #FBC41B",
"O c #FFF21B",
/* pixels */
"               ",
"               ",
"               ",
"     ......    ",
"    .OOOOOO.   ",
"   .OOoooooX.  ",
"   .OooOOooX.  ",
"   .OoOooXoX.  ",
"   .OoOooXoX.  ",
"   .OooXXooX.  ",
"   .OoooooXX.  ",
"    .XXXXXX.   ",
"     ......    ",
"               ",
"               ",
"               "
};
