/* XPM */
static char *_bd1d8360405435d848cec09489bf122GtgbaqTidN0DGK3s[] = {
/* columns rows colors chars-per-pixel */
"64 64 186 2 ",
"   c #000000",
".  c #0B0B0B",
"X  c gray8",
"o  c #1C1C1B",
"O  c #232323",
"+  c #292827",
"@  c #2B2B2A",
"#  c #302F2D",
"$  c #33322F",
"%  c #353534",
"&  c #3B3A37",
"*  c #3D3D3B",
"=  c #0E5E39",
"-  c #12553D",
";  c #11583C",
":  c #03752D",
">  c #007D2A",
",  c #0B6536",
"<  c #076E31",
"1  c #096934",
"2  c #067030",
"3  c #087E37",
"4  c #12763B",
"5  c #2E1B5B",
"6  c #1E3D49",
"7  c #272A54",
"8  c #233150",
"9  c #1B4347",
"0  c #164D41",
"q  c #184943",
"w  c #145040",
"e  c #087744",
"r  c #2D7E50",
"t  c #377F5A",
"y  c #0E7269",
"u  c #454442",
"i  c #484643",
"p  c #4B4B4B",
"a  c #545454",
"s  c #5A5854",
"d  c #5B5B59",
"f  c #477C54",
"g  c #65635E",
"h  c #487F67",
"j  c #517F6E",
"k  c #547F71",
"l  c #587F74",
"z  c #626262",
"x  c #6C6A65",
"c  c #6C6C6B",
"v  c #77746F",
"b  c gray46",
"n  c #797771",
"m  c #7D7A75",
"M  c #7E7E7E",
"N  c #807D78",
"B  c #00802F",
"V  c #008334",
"C  c #00863A",
"Z  c #00893D",
"A  c #17883B",
"S  c #028444",
"D  c #0D8441",
"F  c #008D43",
"G  c #05874A",
"H  c #1E8B41",
"J  c #00934D",
"K  c #068455",
"L  c #1E8D54",
"P  c #138559",
"I  c #009753",
"U  c #009957",
"Y  c #029059",
"T  c #009B5B",
"R  c #228D44",
"E  c #25814F",
"W  c #299149",
"Q  c #26885A",
"!  c #399956",
"~  c #068768",
"^  c #168D6B",
"/  c #009F60",
"(  c #04946D",
")  c #088874",
"_  c #09887C",
"`  c #169572",
"'  c #28916B",
"]  c #288B71",
"[  c #00A165",
"{  c #00A56A",
"}  c #00A971",
"|  c #00AD78",
" . c #00B07C",
".. c #488869",
"X. c #52806F",
"o. c #59847D",
"O. c #65807F",
"+. c #609178",
"@. c #48A062",
"#. c #64AE76",
"$. c #86837D",
"%. c #88857F",
"&. c #0C8D96",
"*. c #178E92",
"=. c #32908B",
"-. c #00B98A",
";. c #31A490",
":. c #0E90AF",
">. c #3891A2",
",. c #4A8A8B",
"<. c #73848C",
"1. c #7E859B",
"2. c #51A99A",
"3. c #6DA480",
"4. c #71B381",
"5. c #7EBA8B",
"6. c #5089AE",
"7. c #408DB9",
"8. c #65B3A9",
"9. c #0E9CC2",
"0. c #1295CF",
"q. c #1498E7",
"w. c #179CFF",
"e. c #818181",
"r. c #8B8882",
"t. c #8C8C8C",
"y. c #8A819E",
"u. c #949494",
"i. c #9A9690",
"p. c #9F9B94",
"a. c #9C9C9C",
"s. c #A29E97",
"d. c #87BF92",
"f. c #8A88AA",
"g. c #9982AB",
"h. c #9885B5",
"j. c #948EBD",
"k. c #B188BF",
"l. c #92A2A0",
"z. c gray64",
"x. c #AEAAA2",
"c. c #ABABAB",
"v. c #B7B2AB",
"b. c #BAB5AD",
"n. c #ADB2B4",
"m. c #B3B4B4",
"M. c #BEB9B1",
"N. c #BDBDBD",
"B. c #C1BCB4",
"V. c #8DC196",
"C. c #95C59D",
"Z. c #9FCAA4",
"A. c #94C7AA",
"S. c #97C9BA",
"D. c #A4CAA7",
"F. c #B7C0AF",
"G. c #B9D7BA",
"H. c #C8C3BA",
"J. c #A68BC4",
"K. c #BD88C9",
"L. c #C1B1C5",
"P. c #E0B3DF",
"I. c #91C9D5",
"U. c #ACD5D8",
"Y. c #C6C6C6",
"T. c #CFCAC1",
"R. c #D1CCC3",
"E. c #C8DEC4",
"W. c #D4D4D4",
"Q. c #DFDAD0",
"!. c #DDDDDD",
"~. c #E1DCD2",
"^. c #CCE0C7",
"/. c #CEE1C8",
"(. c #D5E4CE",
"). c #D9E6D1",
"_. c #E6E1D7",
"`. c #EBE6DC",
"'. c #E8EADB",
"]. c #E7E7E7",
"[. c #F0EAE0",
"{. c #F6F3E7",
"}. c #F9F3E9",
"|. c #FFF9EE",
" X c #F3F3F3",
".X c white",
/* pixels */
"|.|.|.|.|.|.|.|.|.|.|.|.|.|.|.|.|.|.|.|.|.|.|.|.|.|.|.|.|.|.|.|.|.|.|.|.|.|.|.|.|.|.|.|.|.|.|.|.|.|.|.|.|.|.|.|.|.|.|.|.|.|.|.|.",
"|.|.|.|.|.|.|.|.|.|.|.|.|.|.|.|.|.|.|.|.|.|.|.|.|.|.|.|.|.|.|.|.|.|.|.|.|.|.|.|.|.|.|.|.|.|.|.|.|.|.|.|.|.|.|.|.|.|.|.|.|.|.|.|.",
"|.|.|.|.|.|.|.|.|.|.|.|.|.|.|.|.|.|.|.|.|.|.|.|.|.|.|.|.|.|.|.|.|.|.|.|.|.|.|.|.|.|.|.|.|.|.|.|.|.|.|.|.|.|.|.|.|.|.|.|.|.|.|.|.",
"|.|.|.|.|.|.|.|.|.|.|.|.|.|.|.|.|.|.|.|.|.|.|.|.|.|.|.|.|.|.|.|.|.|.|.|.|.|.|.|.|.|.|.|.|.|.|.|.|.|.|.|.|.|.|.|.|.|.|.|.|.|.|.|.",
"|.|.|.|.|.|.|.|.|.|.|.|.|.|.|.|.|.|.|.|.|.|.|.|.|.|.|.|.|.|.|.|.|.|.|.|.|.|.|.|.|.|.|.|.|.|.|.|.|.|.|.|.|.|.|.|.|.|.|.|.|.|.|.|.",
"|.|.|.|.|.|.|.|.|.|.|.|.|.|.|.|.|.|.|.|.|.|.|.|.|.|.|.|.|.|.|.|.|.|.|.|.|.|.|.|.|.|.|.|.|.|.|.|.|.|.|.|.|.|.|.|.|.|.|.|.|.|.|.|.",
"|.|.|.|.|.|.|.|.|.|.|.|.|.|.|.|.|.|.|.|.|.|.|.|.|.|.|.|.|.|.|.|.|.|.|.|.|.|.|.|.|.|.|.|.|.|.|.|.|.|.|.|.|.|.|.|.|.|.|.|.|.|.|.|.",
"|.|.|.|.|.|.|.|.|.|.|.|.|.|.|.|.|.|.|.|.|.|.|.|.|.|.|.|.|.|.|.|.|.|.|.|.|.|.|.|.|.|.|.|.|.|.|.|.|.|.|.|.|.|.|.|.|.|.|.|.|.|.|.|.",
"|.|.|.|.|.|.|.|.|.|.|.|.|.|.|.|.|.|.|.|.|.|.|.|.|.|.|.|.|.|.|.|.|.|.|.|.|.|.|.|.|.|.|.|.|.|.|.|.|.|.|.|.|.|.|.|.|.|.|.|.|.|.|.|.",
"|.|.|.|.|.|.|.|.|.|.|.|.|.|.|.|.|.|.|.|.|.|.|.|.|.|.|.|.|.|.|.|.|.|.|.|.|.|.|.|.|.|.|.|.|.|.|.|.|.|.|.|.|.|.|.|.|.|.|.|.|.|.|.|.",
"|.|.|.|.|.|.|.|.|.|.|.|.|.|.|.|.|.|.|.|.|.|.|.|.|.|.|.|.|.|.|.|.|.|.|.|.|.|.|.|.|.|.|.|.|.|.|.|.|.|.|.|.|.|.|.|.|.|.|.|.|.|.|.|.",
"|.|.|.|.|.|.|.|.|.|.|.|.|.|.|.|.|.|.|.|.|.|.|.|.|.|.|.|.|.|.|.|.|.|.|.|.|.|.|.|.|.|.|.|.|.|.|.|.|.|.|.|.|.|.|.|.|.|.|.|.|.|.|.|.",
"|.|.|.|.|.|.|.|.|.|.|.|.|.|.|.|.|.|.|.|.|.|.|.|.|.|.|.|.|.|.|.|.|.|.|.|.|.|.|.|.|.|.|.|.|.|.|.|.|.|.|.|.|.|.|.|.|.|.|.|.|.|.|.|.",
"|.|.|.|.|.|.|.|.|.|.|.|.|.|.|.|.|.|.|.|.|.|.|.|.|.|.|.|.|.|.|.|.|.|.|.|.|.|.|.|.|.|.|.|.|.|.|.|.|.|.|.|.|.|.|.|.|.|.|.|.|.|.|.|.",
"|.|.|.|.|.|.|.|.|.|.|.|.|.|.|.|.|.|.|.|.|.|.|.|.|.|.|.|.|.|.|.|.|.|.|.|.|.|.|.|.|.|.|.|.|.|.|.|.|.|.|.|.|.|.|.|.|.|.|.|.|.|.|.|.",
"|.|.|.|.|.|.|.|.|.|.|.|.|.|.|.|.|.|.|.|.|.|.|.|.|.|.|.|.|.|.|.|.|.|.|.|.|.|.|.|.|.|.|.|.|.|.|.|.|.|.|.|.|.|.|.|.|.|.|.|.|.|.|.|.",
"|.|.|.|.|.|.|.|.|.|.|.|.|.|.|.|.|.|.|.|.|.|.|.|.|.|.|.|.|.|.|.|.|.|.|.|.|.|.|.|.|.|.|.|.|.|.|.|.|.|.|.|.|.|.|.|.|.|.|.|.|.|.|.|.",
"|.|.|.|.|.|.|.|.|.|.|.|.|.|.|.|.|.|.|.|.|.|.|.|.|.|.|.|.|.|.|.|.|.|.i.v v v v v v v v v v v v v B.|.|.|.|.|.|.|.|.|.|.|.|.|.|.|.",
"|.|.|.|.|.|.|.|.|.|.|.|.|.|.|.|.|.|.|.|.|.|.|.|.|.|.|.|.|.|.|.|.|.n t.% a a & b                 $ x.|.|.|.|.|.|.|.|.|.|.|.|.|.|.",
"|.|.|.|.|.|.|.|.|.|.|.|.|.|.|.|.|.|.|.|.|.|.|.|.|.|.|.|.|.|.|.|.%.M M M M u @ d                   m |.|.|.|.|.|.|.|.|.|.|.|.|.|.",
"|.|.|.|.|.|.|.|.|.|.|.|.|.|.|.|.|.|.|.|.|.|.|.|.|.|.|.|.|.|.|.p.z u.c t.M z *                     m |.|.|.|.|.|.|.|.|.|.|.|.|.|.",
"|.|.|.|.|.|.|.|.|.|.|.|.|.|.|.|.|.|.|.|.|.|.|.|.|.|.|.|.|.|.}.  u.c t.% t..Xa.                    m |.|.|.|.|.|.|.|.|.|.|.|.|.|.",
"|.|.|.|.|.|.|.|.|.|.|.|.|.|.|.|.|.|.|.|.|.|.|.|.|.|.|.|.|.|.}.  & c.z X c N.b                     m |.|.|.|.|.|.|.|.|.|.|.|.|.|.",
"|.|.|.|.|.|.|.|.|.|.|.|.|.|.|.|.|.|.|.|.|.|.|.|.|.|.|.|.|.|.}.  W.* c.p                           m |.|.|.|.|.|.|.|.|.|.|.|.|.|.",
"|.|.|.|.|.|.|.|.|.|.|.|.|.|.|.|.|.|.|.|.|.|.|.|.|.|.|.|.|.|.}.    W.u                             m |.|.|.|.|.|.|.|.|.|.|.|.|.|.",
"|.|.|.|.|.|.|.|.|.|.|.|.|.|.|.|.|.|.|.|.|.|.|.|.|.|.|.|.|.|.}.  ].+ N.d                           m |.|.|.|.|.|.|.|.|.|.|.|.|.|.",
"|.|.|.|.|.|.|.|.|.|.|.|.|.|.|.|.|.|.|.|.|.|.|.|.|.|.|.|.|.|.}.    W.u                           %.|.|.|.|.|.|.|.|.|.|.|.|.|.|.|.",
"|.|.|.|.|.|.|.|.|.|.|.|.|.|.|.|.|.|.|.|.|.|.|.|.|.|.|.|.|.|.}.  W.* .           + Q.Q.Q.Q.Q.Q.Q.[.|.|.|.|.|.|.|.|.|.|.|.|.|.|.|.",
"|.|.|.|.|.|.|.|.|.|.|.|.|.|.|.|.|.|.|.|.|.|.|.|.|.|.|.|.|.|.}.  & c.%           . * * * * * * v.|.|.|.|.|.|.|.|.|.|.|.|.|.|.|.|.",
"|.|.|.|.|.|.|.|.|.|.|.|.|.|.|.|.|.|.|.|.|.|.|.|.|.|.|.|.|.|.}.  m.a X                       r._.|.|.|.|.|.|.|.|.|.|.|.|.|.|.|.|.",
"|.|.|.|.|.|.|.|.|.|.|.|.|.|.|.|.|.|.|.|.|.|.|.|.|.|.|.|.|.|.}.  d u.+           o p.p.p.p.p.~.|.|.|.|.|.|.|.|.|.|.|.|.|.|.|.|.|.",
"|.|.|.|.|.|.|.|.|.|.|.|.|.|.|.|.|.|.|.|.|.|.|.|.|.|.|.|.|.[.m   b M O           # |.|.|.|.|.|.|.|.|.|.|.|.|.|.|.|.|.|.|.|.|.|.|.",
"|.|.|.|.|.|.|.|.|.|.|.|.|.|.|.~.v.|.|.|.|.|.|.|.|.|.|.|.`.r.  z a.c o           @ |.|.|.|.|.|.|.|.|.|.|.|.|.|.|.|.|.|.|.|.|.|.|.",
"|.|.|.|.|.|.|.|.|.|.|.|.|.|.Q.x O x.|.|.|.|.|.|.|.|.|.~.m . z a.z u.+         o m |.|.|.|.|.|.|.|.|.|.|.|.|.|.|.|.|.|.|.|.|.|.|.",
"|.|.|.|.|.|.|.|.|.|.|.|.|.|.s.X % o B.|.|.|.|.|.|.|._.$.. p N.u m.o           i |.|.|.|.|.|.|.|.|.|.|.|.|.|.|.|.|.|.|.|.|.|.|.|.",
"|.|.|.|.|.|.|.|.|.|.|.|.|.|.s.i m.o . Q.|.|.|.|.|.`.$.. i Y.+ !..             * Q.Q.Q.|.|.|.|.|.|.|.|.|.|.|.|.|.|.|.|.|.|.|.|.|.",
"|.|.|.|.|.|.|.|.|.|.|.|.|.|.s.. p Y.o   R.}.|.|.`.c . d m.% !.                        |.|.|.|.|.|.|.|.|.|.|.|.|.|.|.|.|.|.|.|.|.",
"|.|.|.|.|.|.|.|.|.|.|.|.|.|.s.a Y.O  X    Q.|.|.x   z m.% ].                          |.|.|.|.|.|.|.|.|.|.|.|.|.|.|.|.|.|.|.|.|.",
"|.|.|.|.|.|.|.|.|.|.|.|.|.|.s.  & !.. .X.         M a.p Y.                    i T.    |.|.|.|.|.|.|.|.|.|.|.|.|.|.|.|.|.|.|.|.|.",
"|.|.|.|.|.|.|.|.|.|.|.|.|.|.s.    & W.O W.o c.i e.e.c z.o                     i T.    |.|.|.|.|.|.|.|.|.|.|.|.|.|.|.|.|.|.|.|.|.",
"|.|.|.|.|.|.|.|.|.|.|.|.|.|.s.      + !.+ Y.p z.c M u.X                       i }.Q.Q.|.|.|.|.|.|.|.|.|.|.|.|.|.|.|.|.|.|.|.|.|.",
"|.|.|.|.|.|.|.|.|.|.|.|.|.|._.N       u   % . + o o +                       i R.|.|.|.|.|.|.|.|.|.|.|.|.|.|.|.|.|.|.|.|.|.|.|.|.",
"|.|.|.|.|.|.|.|.|.|.|.|.|.|.|.~.n                                           d |.|.|.|.|.|.|.|.|.|.|.|.|.|.|.|.|.|.|.|.|.|.|.|.|.",
"|.|.|.|.|.|.|.|.|.|.|.|.|.|.|.|.~.x                                       & x.|.|.|.|.|.|.|.|.|.|.|.|.|.|.|.|.|.|.|.|.|.|.|.|.|.",
"|.|.|.|.|.|.|.|.|.|.|.|.|.|.|.|.|.`.n                                   i b.|.|.|.|.|.|.|.|.|.|.|.|.|.|.|.|.|.|.|.|.|.|.|.|.|.|.",
"|.|.|.|.|.|.|.|.|.|.|.|.|.|.|.|.|.|.}.d                               * b.|.|.|.|.|.|.|.|.|.|.|.|.|.|.|.|.|.|.|.|.|.|.|.|.|.|.|.",
"|.|.|.|.|.|.|.|.|.|.|.|.|.|.|.|.|.|.|.|.i .                         @ M.|.|.|.|.|.|.|.|.|.|.|.|.|.|.|.|.|.|.|.|.|.|.|.|.|.|.|.|.",
"|.|.|.|.|.|.|.|.|.|.|.|.|.|.|.|.|.|.|.|.|.s .                       M.|.|.|.|.|.|.|.|.|.|.|.|.|.|.|.|.|.|.|.|.|.|.|.|.|.|.|.|.|.",
"|.|.|.|.|.|.|.|.|.|.|.|.|.|.|.|.|.|.|.|.|.|.&                       M.|.|.|.|.|.|.|.|.|.|.|.|.|.|.|.|.|.|.|.|.|.|.|.|.|.|.|.|.|.",
"|.|.|.|.|.|.|.|.|.|.|.|.|.|.|.|.|.|.|.|.|.|.&                       M.|.|.|.|.|.|.|.|.|.|.|.|.|.|.|.|.|.|.|.|.|.|.|.|.|.|.|.|.|.",
"|.|.|.|.|.|.|.|.|.|.|.|.|.|.|.|.|.|.|.|.|.|.&       g |.|.~.        M.|.|.|.|.|.|.|.|.|.|.|.|.|.|.|.|.|.|.|.|.|.|.|.|.|.|.|.|.|.",
"|.|.|.|.|.|.|.|.|.|.|.|.|.|.|.|.|.|.|.|.|.|.&     x `.|.|.~.      b.{.|.|.|.|.|.|.|.|.|.|.|.|.|.|.|.|.|.|.|.|.|.|.|.|.|.|.|.|.|.",
"|.|.|.|.|.|.|.|.|.|.|.|.|.|.|.|.|.|.|.|.|.|.&     m |.|.|.~.      R.|.|.|.|.|.|.|.|.|.|.|.|.|.|.|.|.|.|.|.|.|.|.|.|.|.|.|.|.|.|.",
"|.|.|.|.|.|.|.|.|.|.|.|.|.|.|.|.|.|.|.|.|.|.&     o r.|.|.~.      % T.|.|.|.|.|.|.|.|.|.|.|.|.|.|.|.|.|.|.|.|.|.|.|.|.|.|.|.|.|.",
"|.|.|.|.|.^.4.{.|.|.|.|.|.|.|.|.|.V.|.|.|.|.H.v.v.v.F.n.P.D.f v.v.v.`.|.|.^.4.{.|.|.|.G.5.|.E.L.C.|.|.|.|.|.Z.V.|.|.|.|.d.|.4.G.",
"A 2.I.P ) J.X.R R @.Z.Z.! (.'.W G #.(.(.Z.(.Z.R /.H 8.S.K &.7.K.Z.! E.m.3.(.! ] L #.0.&.D.! *.l.U.G.2.A.Z.&.> C.).S.I.5.Q k d.).",
"R ~ _ 3 J U C O.> K.y.> H R W > K <.<.L :.L I > W @.] ,.] h U > :.' A X.r ..g._ G k.=.K H I ` o.^ D w.^ ) G } > *._ q.=.Y > g.+.",
"F G k -./ k =.T > U -.( K 6.<.U F  .{ 3 r V C V Z h.E I C Z > O.O.> Z 1.h / U > J 9.P j _ I { C U > F U j 4 > F > =.f.Z t I ~ w.",
"> B ,.' Z o.;.T > [ J K S _ T > } J F D ' V [ [ C > B I C Z Z F > T [ V J U C U | { U > U l D C > > F > > U > j.Q U C Z ;.J h.6.",
"C V > S >.3 > F } F > > O.> > > F Z J C j g.,.~ > > / K : I T > C { [ { J V C > > > > > V Z > F t j.< 3 } V _ > T F _ > } ~ Z F ",
"C Z ) V ' 4 , > > F V J 2 , > O.> > > > > > K y 1 I > 1 : > > U C V Z V J e e > > > > J { Z > F > F < : J V > - > F U > - > - > ",
", 1 1 - > > , > - > : 1 > > - , > - 1 , > : < > > < 8 ; = 1 > , > w = , > : < 9 - > : = 2 0 > > w 1 1 > > : < > , ; : ; = > , > ",
", 9 1 0 = > 9 6 1 , 9 1 2 6 6 - - > 0 ; > 6 - 1 1 < ; 6 - 1 1 w 6 9 , 7 = 0 < 9 w 6 < = 6 7 0 - w , 7 q = 9 < 9 7 ; : ; 6 = - , ",
"5 5 5 5 5 5 5 5 5 5 5 5 5 5 5 5 5 5 5 5 5 5 5 5 5 5 5 5 5 5 5 5 5 5 5 5 5 5 5 5 5 5 5 5 5 5 5 5 5 5 5 5 5 5 5 5 5 5 5 5 5 5 5 5 "
};
