/* XPM */
static char *result[] = {
/* columns rows colors chars-per-pixel */
"64 64 207 2 ",
"   c #2B2A2E",
".  c #322F2D",
"X  c #37322B",
"o  c #393530",
"O  c #423A2B",
"+  c #4B3D2A",
"@  c #553F29",
"#  c #493D30",
"$  c #772F23",
"%  c #792F23",
"&  c #773023",
"*  c #7A3224",
"=  c #7C3824",
"-  c #7B352A",
";  c #7C392C",
":  c #7E3C31",
">  c #48412D",
",  c #57492C",
"<  c #6E4F2A",
"1  c #823425",
"2  c #8B3725",
"3  c #853D22",
"4  c #8B3B26",
"5  c #813729",
"6  c #823C2C",
"7  c #8B3D29",
"8  c #933B27",
"9  c #993B27",
"0  c #963D2A",
"q  c #9A3E29",
"w  c #944F1E",
"e  c #93511F",
"r  c #A7521D",
"t  c #AA531D",
"y  c #B35B1C",
"u  c #A4621F",
"i  c #A8661A",
"p  c #BA631B",
"a  c #B57417",
"s  c #B5751B",
"d  c #854124",
"f  c #8A462B",
"g  c #8C412D",
"h  c #934521",
"j  c #924D23",
"k  c #9F4D20",
"l  c #95412C",
"z  c #9B422C",
"x  c #944B2B",
"c  c #9D492C",
"v  c #8F5128",
"b  c #935625",
"n  c #955429",
"m  c #995429",
"M  c #945A2C",
"N  c #864537",
"B  c #954531",
"V  c #994431",
"C  c #9D4B33",
"Z  c #9B5832",
"A  c #A54E25",
"S  c #A0452A",
"D  c #A44C2C",
"F  c #A55426",
"G  c #AB5924",
"H  c #AE522F",
"J  c #B25E23",
"K  c #A24D32",
"L  c #A35133",
"P  c #AD5532",
"I  c #A65A33",
"U  c #AC5B3A",
"Y  c #B05731",
"T  c #B55B33",
"R  c #B95C33",
"E  c #B45F39",
"W  c #B95F38",
"Q  c #9A6532",
"!  c #B46622",
"~  c #BE672F",
"^  c #A77126",
"/  c #A87327",
"(  c #A5762B",
")  c #B47423",
"_  c #BC6331",
"`  c #BA6636",
"'  c #BD6A33",
"]  c #B5623C",
"[  c #B8613A",
"{  c #AA7A31",
"}  c #D47317",
"|  c #D27218",
" . c #DE7B18",
".. c #E07915",
"X. c #CA6F22",
"o. c #D47123",
"O. c #92594D",
"+. c #A45847",
"@. c #B66643",
"#. c #BC6844",
"$. c #AC6555",
"%. c #BF7150",
"&. c #A5766A",
"*. c #BA7E6B",
"=. c #C27E5F",
"-. c #7B9242",
";. c #7F9949",
":. c #7ED957",
">. c #869A3F",
",. c #AD842B",
"<. c #AD8231",
"1. c #94A33D",
"2. c #BBAE33",
"3. c #B4AF3D",
"4. c #A8BC3E",
"5. c #BAB034",
"6. c #B1B53A",
"7. c #D18F19",
"8. c #D59811",
"9. c #D79219",
"0. c #EF8516",
"q. c #ED8619",
"w. c #EE891D",
"e. c #F58712",
"r. c #F48813",
"t. c #F08718",
"y. c #F28919",
"u. c #F09F15",
"i. c #D7A50F",
"p. c #DAA50F",
"a. c #DEAA0E",
"s. c #DFA414",
"d. c #DDAB1D",
"f. c #E3A50D",
"g. c #F6A20E",
"h. c #F6AF0C",
"j. c #E6B00D",
"k. c #EFB50B",
"l. c #F4B60C",
"z. c #F8B30B",
"x. c #F5BA0D",
"c. c #F9BC09",
"v. c #E5A914",
"b. c #F2AE13",
"n. c #F0A41C",
"m. c #EFB514",
"M. c #EDB618",
"N. c #F2B412",
"B. c #F3BA13",
"V. c #F0BB1B",
"C. c #D38B26",
"Z. c #D89B22",
"A. c #CE9938",
"S. c #D59B31",
"D. c #D09938",
"F. c #EC8921",
"G. c #C7A72C",
"H. c #CCA329",
"J. c #C3A92E",
"K. c #C5A732",
"L. c #DBBE33",
"P. c #E8B733",
"I. c #BECA2E",
"U. c #A9C73A",
"Y. c #A5CF3E",
"T. c #BAC532",
"R. c #B4CC37",
"E. c #BCCB32",
"W. c #F5C314",
"Q. c #F9C21F",
"!. c #C7DB3D",
"~. c #C9DC3D",
"^. c #DADD37",
"/. c #D8D93E",
"(. c #E1C22B",
"). c #F6C22A",
"_. c #EFD32D",
"`. c #F6D422",
"'. c #F6DE2D",
"]. c #F8DF2D",
"[. c #F3C134",
"{. c #ECD333",
"}. c #E4DE33",
"|. c #EED833",
" X c #F0D834",
".X c #F2DB34",
"XX c #809840",
"oX c #9FBF47",
"OX c #A4BF41",
"+X c #B6B241",
"@X c #BD8477",
"#X c #DAB35D",
"$X c #E1B85C",
"%X c #C48164",
"&X c #8ECE4D",
"*X c #9BC546",
"=X c #A9D946",
"-X c #A4DB49",
";X c #BBDC42",
":X c #B5D949",
">X c #C8DB42",
",X c #EEC64F",
"<X c #F6CA48",
"1X c #EEC450",
"2X c #F2CB58",
"3X c #F4CE62",
"4X c #F4D26D",
/* pixels */
":.:.:.:.:.:.:.:.:.:.:.:.:.:.:.:.:.:.=X;X;X;X;X;X;X:X;X;X;X;X;X;X;X;X;X;X;X;XR.E.!.5.2.2.2.4.:.:.:.:.:.:.:.:.:.:.:.:.:.:.:.:.:.:.",
":.:.:.:.:.:.:.:.:.:.:.:.:.:.:.:.:.:.}.].].].'.'..X.X.X'.].'.'.'.'.'.].]..X|.l.B.c.h.r.r.r.H.:.:.:.:.:.:.:.:.:.:.:.:.:.:.:.:.:.:.",
":.:.:.:.:.:.:.:.:.:.:.:.:.:.:.:.:.:.}.].].].]..X.X].'.}.'.'.'.].].].'.]..X`.c.x.B.h.e.e.r.H.:.:.:.:.:.:.:.:.:.:.:.:.:.:.:.:.:.:.",
":.:.:.:.:.:.:.:.:.:.:.:.:.:.:.:.:.&X}.].].]..X'.].].].]..X.X].].].'.]..X].`.c.c.l.b.e.e.e.Z.:.:.:.:.:.:.:.:.:.:.:.:.:.:.:.:.:.:.",
":.:.:.:.:.:.:.:.:.:.:.:.:.:.;X~.!.>X,./ / { ^ / ( / / / / <..X'.'.{.( / / ^ i i i u G r r ! K.H.G.4.:.:.:.:.:.:.:.:.:.:.:.:.:.:.",
":.:.:.:.:.:.:.:.:.:.:.:.:.:.}.].]..Xf & ; * $ % & & % % $ 3 {.].'.L.= & * * % % % * - - * k t.e.r.G.:.:.:.:.:.:.:.:.:.:.:.:.:.:.",
":.:.:.:.:.:.:.:.:.:.:.:.:.:.}.'.]..Xf : % & $ % & % $ % $ d _. X XL.* & % * % % % * % % < S e.e.r.J.:.:.:.:.:.:.:.:.:.:.:.:.:.:.",
":.:.:.:.:.:.:.:.:.:.:.:.:.:.}.'.].].v - - * $ $ * * % % % d '.{..X(.* % % % % % % * % - - A e.e.r.G.:.:.:.:.:.:.:.:.:.:.:.:.:.:.",
":.:.:.:.:.:.:.:.:.:.;X~.~.>X,./ / { D D C Z 8 2 2 4 c S D I {.].'.L.1 $ % 1 2 2 2 8 C K K D G t t ) G.G.G.*X:.:.:.:.:.:.:.:.:.:.",
":.:.:.:.:.:.:.:.:.:.^.'.].].v & 5 * P R R T V 9 9 9 R R [ ' _.].].(.6 $ % % 9 9 9 K T W R D % - * t e.e.e.5.:.:.:.:.:.:.:.:.:.:.",
":.:.:.:.:.:.:.:.:.:./.'.].].v ; & % Y R R T z z 9 9 T W [ ' _.].].(.* ; % 1 q q q V R R R D % % ; t e.e.e.3.:.:.:.:.:.:.:.:.:.:.",
":.:.:.:.:.:.:.&X:.:.^. X].].M & $ $ Y R R T q 0 q S T [ R ' '.].].(.* $ : 5 q 0 q S R R R K % % * J e.e.w.5.:.&X:.:.:.:.:.:.:.:.",
":.:.:.:.:.:.=X^.^.^.( M Q Q f 8 8 8 Y T T T z q z C ] T R ' W.W.W.j.3 * * < C 0 q S R R R P 8 7 8 g m x w ! Z.Z.Z.*X:.:.:.:.:.:.",
":.:.:.:.:.:.;X].].'.b * ; : 8 9 9 9 T R R T z 9 q V W W W _ l.c.c.f.* & 1 5 0 9 q S R R R H 9 9 9 7 ; ; $ y e.e.e.U.:.:.:.:.:.:.",
":.:.:.:.:.:.;X].].'.n ; $ $ B 9 9 9 T R R R q q q q T W T _ c.c.c.f.* & - 5 9 0 q S W R R H 9 9 q g % * - y e.e.e.4.:.:.:.:.:.:.",
":.:.:.:.:.:.;X].].].M % % $ 8 z 9 9 Y R R T z z 9 q T T E X.l.c.c.f.* 5 % 1 9 9 0 S W R R H 9 9 V 7 % % % ! e.e.r.OX:.:.:.:.:.:.",
":.:.:.:.:.:.;X].'..Xb % % $ 8 9 B 9 Y R R W z q 9 9 R R R ' l.c.c.f.6 & % * 9 9 9 K R R R H q V 9 2 % % % y y.e.e.OX:.:.:.:.:.:.",
":.:.:.:.:.:.;X]..X'.b $ % % 8 9 9 V Y R R E q 9 9 z R R R ' B.c.c.v.* % % 1 9 9 9 S W R R P V 9 9 7 % % % y t.y.e.OX:.:.:.:.:.:.",
":.:.:.:.:.:.;X.X'.'.b & % $ 8 9 9 0 E W E R q 9 9 9 R R R ~ l.B.B.f.* * % 1 9 9 9 z T E R U 8 9 9 2 % % % y e.t.y.OX:.:.:.:.:.:.",
":.:.:.:.:.:.:X.X].].b & % % 8 9 9 9 U @.R R z 9 9 9 T R R ~ l.m.B.f.* $ $ 1 8 9 9 S R R @.P 9 9 9 7 % % % y e.e.y.OX:.:.:.:.:.:.",
":.:.:.:.:.:.;X}..X'.M * * & 8 q 9 z E T [ T z 0 9 z R R [ ' m.l.B.s.= & & 1 q q q D T @.T U 9 q q 7 * * * a l.N.l.*X:.:.:.:.:.:.",
":.:.:.:.:.:.;X].|.].b & & $ 8 9 q l Y R T [ z 9 9 9 R R T ' k.c.c.s.= & $ 1 9 9 9 S ] T R H z q 9 4 % % % a B.x.c.=X:.:.:.:.:.:.",
":.:.:.:.:.:.;X].'.|.n % * $ 8 9 z 9 T R W T c 9 9 z T T [ ~ c.c.c.f.= ; $ 1 9 9 9 K R R R H 9 V 9 4 % % % s N.c.c.Y.:.:.:.:.:.:.",
":.:.:.:.:.&X;X].'.'.M - % & 0 B 9 9 Y R R T q V 9 9 T [ T ~ z.c.c.f.* - ; * 9 9 V c T R R H 9 9 V 4 % % ; s c.c.c.Y.:.:.:.:.:.:.",
":.:.:.:.:.:.;X].].].b ; - & g 9 9 9 Y T R T 9 9 z z T T R ~ l.c.c.f.= % * 5 9 V 9 S R R R H 9 8 q 7 % * * a c.c.c.Y.:.:.:.:.:.:.",
":.:.:.:.:.:.;X].].].b & - : 8 9 9 9 T R R T z 9 9 C T W R ~ x.c.c.f.* % % 3 V 8 9 S R R R H 9 9 9 7 : - $ a c.c.c.Y.:.:.:.:.:.:.",
":.:.:.:.:.:.R.'.].].b * - - 0 9 9 9 Y R R T q 9 z z T R R ~ x.c.c.f.* * $ 1 q z 9 S R R R H 9 9 9 7 - ; $ a c.c.c.Y.:.:.:.:.:.:.",
":.:.:.:.:.:.!.'.].].M - $ $ l q 9 9 T R R T z z q 9 T R R ~ l.c.c.f.* * $ - 9 0 q c R R R H 9 9 V 7 % * ; a c.c.c.Y.:.:.:.:.:.:.",
":.:.:.:.:.:.I.c.c.W.b * & & 8 z q 9 Y R R R z z 9 z %X=.#.' x.c.c.f.* * $ 1 9 8 q K W R R P q z q D Y T Y D.'.'.'.-X:.:.:.:.:.:.",
":.:.:.:.:.:.!.c.c.m.w $ $ $ 8 9 l z T R R [ z 9 q *.] #.%X' z.c.c.f.* * % 1 9 9 q z W R R P q 0 q K R R R S..X'.'.-X:.:.:.:.:.:.",
":.:.:.:.:.:.R.W.k.c.e $ $ $ 8 9 8 z T R T T z 9 $.$.Y %.@._ l.c.c.f.; * 6 1 9 9 9 S E W R P q 9 9 D R R R S.'..X].=X:.:.:.:.:.:.",
":.:.:.:.:.:.R.W.c.c.e & * $ 8 9 9 9 U [ T T z 9 %X+.T R X.=.[.Q.[.P.x O.&.N +.+.9 c R W ] P 9 9 9 D R R R S.'..X X-X:.:.:.:.:.:.",
":.:.:.:.:.:.T.x.c.c.w $ % $ 8 9 9 q E T W R q q @XA l.c.2XV.<X<X1X,X[.[.4X#X< O.& 4 T [ ] P 9 9 9 D W R R S.'.'..X-X:.:.:.:.:.:.",
":.:.:.:.:.:.E.x.B.c.w $ % $ 8 9 9 z Y T T W q 8 @XU l.).3X<X2X2X[.2X2X,X).$X$.O.& 4 [ T R P q 9 9 D R R R S.]..X'.-X:.:.:.:.:.:.",
":.:.:.:.:.:.I.c.x.B.j & % $ 8 9 z 0 T R R E z q V @X1XP.c.B.x.x.W.B.x.x.c.s.: : $ g W R R H 0 z 9 D R R R S..X'.'.-X:.:.:.:.:.:.",
":.:.:.:.:.:.I.c.c.x.n * % % 8 V 0 9 T T R T F D r t i.a.a.j.c.c.c.x.f.a.a.7.2 5 4 x Y Y P H 9 l z D R R T A.'.].'.-X:.:.:.:.:.:.",
":.:.:.:.:.:.I.c.c.c.e ; $ $ 0 0 9 9 Y W R R l.l.x.j.X     O k.c.c.i..     @ r.t.t.} % % $ 1 9 9 q K R R ] S.].].'.-X:.:.:.:.:.:.",
":.:.:.:.:.:.I.c.c.c.w * - - 0 0 9 9 Y R T ~ l.x.l.j.X     O k.W.c.s..     @ y.0.e.} % % % 1 9 9 9 K [ ] R S.].].].-X:.:.:.:.:.:.",
":.:.:.:.:.:.I.c.c.c.w $ - ; 8 9 9 9 R R R _ l.c.c.d.o     X k.c.c.i..     , F.e.e.} % % % 1 9 9 9 D @.[ R S.].].].-X:.:.:.:.:.:.",
":.:.:.:.:.:.I.x.c.c.w ; - % x 0 9 9 Y R T _ m.c.m.j., # > , k.c.x.p.+ O # < 0.w.e.} * % % 1 q 9 q L T T [ S.'.'.'.-X:.:.:.:.:.:.",
":.:.:.:.:.:.I.c.c.c.b * $ $ 8 z 9 9 T R R R l.N.c.c.c.l.c.c.c.c.c.z.r.r.0.e.e.r.w.| & & % 1 9 9 z D R R E S.].].].-X:.:.:.:.:.:.",
":.:.:.:.:.:.I.c.c.B.w $ % $ 8 0 z 9 Y R R ~ M.x.c.c.c.c.B.x.c.c.c.z.r.t.e.e.e.e.r.o.& * % 1 9 V 8 D R R R D.'.].].-X:.:.:.:.:.:.",
":.:.:.:.:.:.I.c.B.x.w % % $ 8 9 q z Y R T ` b.c.c.c.c.c.c.B.x.c.c.N.y.e.e.e.e.e.r.| ; % % 1 V 8 9 D R R R S..X.X].-X:.:.:.:.:.:.",
":.:.:.:.:.&XT.b.b.h.j * * * 8 q 9 z E [ ] _ 7.8.8.8.8.8.8.8.b.b.b.v.| | } } } } | p * : * 6 0 q q D _ T W S.'..X.X-X:.:.:.:.:.:.",
":.:.:.:.:.:.+Xw.e.e.h % % $ 8 9 9 9 E @.T T = & % % % % % 3 t.w.y...1 $ $ % % % * * % & N 1 9 9 9 D R R R S.].]. X-X:.:.:.:.:.:.",
":.:.:.:.:.:.5.w.e.e.h % % $ 8 9 9 0 E T [ T * & % % % % % 1 q.y.y...% $ % % % % $ * $ ; % 6 9 9 9 D R R R S.].].|.-X:.:.:.:.:.:.",
":.:.:.:.:.:.5.r.w.e.h $ % % 8 9 9 V Y R T ] 1 & * % % & % 7 ..e.e. .- $ % & % % % & ; $ % 1 V 9 9 D R R W S.'..X.X-X:.:.:.:.:.:.",
":.:.:.:.:.:.5.r.r.w.h & & * 8 q B 9 Y _ T T g 1 1 1 7 7 g x 0.e.e. .; - * * 1 1 1 g 6 g 7 8 0 C 9 D R R T S.|.'.].-X:.:.:.:.:.:.",
":.:.:.:.:.:.2.e.e.e.x $ % $ 8 V 9 9 Y R R R z z 9 q R R T R t.e.e...% ; - 1 9 9 z c R R R H 9 9 V K R R [ S.'.].].-X:.:.:.:.:.:.",
":.:.:.:.:.:.2.e.e.r.8 - % * B 9 9 9 Y R R R 9 9 z q W W R R e.e.e...1 $ - 5 9 V 9 S R R R P 9 9 9 I R R T S.'.'.].-X:.:.:.:.:.:.",
":.:.:.:.:.:.2.e.e.e.w % ; : 8 9 9 9 T R R T 9 9 0 C T R R X.t.e.e...* $ $ ; V 9 9 S R R R H 9 9 9 D #.E R S.].].].=X:.:.:.:.:.:.",
":.:.:.:.:.:.2.r.r.r.w % : ; 0 9 z 9 Y R R T z h z z E W R R t.e.e...* * * 6 B z 9 c T R R H q q 9 L [ ] T Z.`.Q.`.=X:.:.:.:.:.:.",
":.:.:.:.:.:.2.e.e.e.h ; $ $ l q 9 9 Y R R T q q 0 q T W R _ e.e.e...* % ; = 9 q q z R R R H 9 9 q L R T ] C.c.c.c.Y.:.:.:.:.:.:.",
":.:.:.:.:.:.2.e.e.e.x $ $ $ 8 V q 9 T R R W z 0 9 q T T @.X.t.e.e...* ; & 1 9 9 z D R R R H 9 q 0 D R R R C.c.c.c.Y.:.:.:.:.:.:.",
":.:.:.:.:.:.2.e.e.w.h $ $ $ 8 8 V q Y R R W z 9 q q R R P ` e.e.e...1 & & * 9 9 9 C W R W H q 0 9 D R R R C.N.c.c.Y.:.:.:.:.:.:.",
":.:.:.:.:.:.2.r.F.e.h * * % 8 9 9 V T R [ T z q q q R R R [ u.g.g.9.= & * 1 9 9 9 S E W T P z 9 0 D R R R C.g.n.g.Y.:.:.:.:.:.:.",
":.:.:.:.:.:.5.w.e.e.h $ % $ 8 9 9 9 E W W T q 9 9 9 T R R ~ l.B.B.f.* * $ 1 9 9 9 S R T [ P 9 9 9 D R R R o.e.e.w.OX:.:.:.:.:.:.",
":.:.:.:.:.&X3.y.e.e.h % % $ 8 9 9 q U @.R T q 9 9 9 R R R ~ l.m.B.f.* % % 1 9 9 9 S R R @.P 9 9 9 D R R R o.e.e.w.oX:.:.:.:.:.:.",
":.:.:.:.:.:.2.t.y.e.h % $ $ 8 9 9 q T R W T q q 9 9 R R R _ m.c.B.v.* % $ 1 9 9 9 c W E R U 9 9 9 D T R R o.e.y.0.OX:.:.:.:.:.:.",
":.:.:.:.:.:.2.e.q.y.h % % $ 2 2 7 7 x z z C 7 2 4 4 c c x I l.c.c.f.; * $ * 2 2 2 g C c z l 7 7 2 h c z z X.y.t.r.OX:.:.:.:.:.:.",
":.:.:.:.:.:.5.e.e.y.l % % % * - - % % % % $ ; % % % % % - d l.c.c.f.* ; $ & % % * - % % % % $ - - % % % $ J e.e.e.OX:.:.:.:.:.:.",
":.:.:.:.:.:.2.e.e.r.h 5 % $ ; * % % % % % % $ - % % & 5 $ 3 k.c.c.f.* * ; $ % * - % % % % $ % $ - * % % ; y e.e.e.OX:.:.:.:.:.:.",
":.:.:.:.:.:.5.e.e.e.h % - ; - $ % % % % % % % % ; - ; % $ 3 l.c.c.f.* % % ; * ; $ % % % % $ % % % - * ; $ y e.e.e.OX:.:.:.:.:.:.",
":.:.:.:.:.:.*X6.6.6.XX-.XX-.-.-.-.-.-.-.-.-.-.-.-.XX-.-.-.>.R.R.R.U.-.-.-.-.XX-.-.-.-.-.-.-.-.-.-.-.;.-.-.1.6.6.6.&X:.:.:.:.:.:."
};
