/* XPM */
static char *e5ecf59cfea84803ad7d747f8bbfdaferyOkIC5dOvuylym9[] = {
/* columns rows colors chars-per-pixel */
"64 64 167 2 ",
"   c #0E5E39",
".  c #12553D",
"X  c #11583C",
"o  c #03752D",
"O  c #007D2A",
"+  c #0B6536",
"@  c #076E31",
"#  c #096934",
"$  c #126E3B",
"%  c #067030",
"&  c #097B36",
"*  c #0D7D35",
"=  c #027E39",
"-  c #127D3A",
";  c #2E1B5B",
":  c #1E3D49",
">  c #272A54",
",  c #233150",
"<  c #1B4347",
"1  c #164D41",
"2  c #184943",
"3  c #145040",
"4  c #087744",
"5  c #137845",
"6  c #0A7455",
"7  c #2D7E50",
"8  c #23745B",
"9  c #327F56",
"0  c #3A7F5C",
"q  c #195567",
"w  c #22477E",
"e  c #0E7269",
"r  c #167E68",
"t  c #287362",
"y  c #396F7B",
"u  c #457F64",
"i  c #4D7F6C",
"p  c #517F6E",
"a  c #547F71",
"s  c #587F74",
"d  c #00802F",
"f  c #008334",
"g  c #00863A",
"h  c #00893D",
"j  c #028444",
"k  c #0E8441",
"l  c #008D43",
"z  c #088148",
"x  c #08864A",
"c  c #018D4B",
"v  c #12844C",
"b  c #1D834B",
"n  c #00934D",
"m  c #048251",
"M  c #088257",
"N  c #038851",
"B  c #05845C",
"V  c #16825A",
"C  c #009753",
"Z  c #009957",
"A  c #029059",
"S  c #009B5B",
"D  c #25814F",
"F  c #228451",
"G  c #278952",
"H  c #268A5D",
"J  c #29885A",
"K  c #369659",
"L  c #068562",
"P  c #07876E",
"I  c #068A6C",
"U  c #198B67",
"Y  c #009F60",
"T  c #04946D",
"R  c #1F9265",
"E  c #088772",
"W  c #088876",
"Q  c #09887C",
"!  c #15827E",
"~  c #029E75",
"^  c #1A9D72",
"/  c #208661",
"(  c #388C69",
")  c #2D906D",
"_  c #248975",
"`  c #238B7E",
"'  c #00A165",
"]  c #00A56A",
"[  c #00A971",
"{  c #00AD78",
"}  c #00B07C",
"|  c #43846C",
" . c #498876",
".. c #498D7E",
"X. c #59847D",
"o. c #499476",
"O. c #65807F",
"+. c #38738B",
"@. c #3777A0",
"#. c #446C8A",
"$. c #4D6A97",
"%. c #5F7394",
"&. c #AA7FC1",
"*. c #098A83",
"=. c #0C8D98",
"-. c #178B97",
";. c #32888B",
":. c #3F9685",
">. c #2E8998",
",. c #3C9698",
"<. c #00B98A",
"1. c #25A88D",
"2. c #3CA093",
"3. c #0E90AF",
"4. c #3891A2",
"5. c #44858D",
"6. c #55898C",
"7. c #459588",
"8. c #5A9182",
"9. c #6B848B",
"0. c #73818E",
"q. c #6C9787",
"w. c #78889B",
"e. c #689E95",
"r. c #62929A",
"t. c #6AAE87",
"y. c #73B38F",
"u. c #4089A2",
"i. c #5A9EAB",
"p. c #408DB9",
"a. c #5F89B9",
"s. c #6D94A8",
"d. c #7296AD",
"f. c #7596B1",
"g. c #7897B3",
"h. c #74A3AB",
"j. c #6EA3B4",
"k. c #7FA6B2",
"l. c #0E9CC2",
"z. c #1595D0",
"x. c #1598E6",
"c. c #179CFF",
"v. c #79A7C6",
"b. c #8A819E",
"n. c #8A88AA",
"m. c #9181A4",
"M. c #9D82AF",
"N. c #8796AA",
"B. c #9587B5",
"V. c #948EBD",
"C. c #8199BE",
"Z. c #AC85BF",
"A. c #8CBEA4",
"S. c #8CA9BB",
"D. c #93C2AA",
"F. c #9CC6B3",
"G. c #A6CBBB",
"H. c #A68BC4",
"J. c #BD83CA",
"K. c #93ABC2",
"L. c #9DAFCD",
"P. c #DAB4E5",
"I. c #B6D2CA",
"U. c #C0CBDF",
"Y. c #C9DBDA",
"T. c #DDE5EC",
"R. c #E2E7F0",
/* pixels */
"; ; ; ; R.R.R.R.R.R.R.R.R.R.R.R.R.R.R.R.R.R.R.R.R.R.R.R.R.R.R.R.R.R.R.R.R.R.R.R.R.R.R.R.R.R.R.R.R.R.R.R.R.R.R.R.R.R.R.R.R.R.R.R.",
"; ; ; ; R.R.R.R.R.R.R.R.R.R.R.R.R.R.R.R.R.R.R.R.R.R.R.R.R.R.R.R.R.R.R.R.R.R.R.R.R.R.R.R.R.R.R.R.R.R.R.R.R.R.R.R.R.R.R.R.R.R.R.R.",
"; ; ; ; R.R.R.R.R.R.R.R.R.R.R.R.R.R.R.R.R.R.R.R.R.R.R.R.R.R.R.R.R.R.R.R.R.R.R.R.R.R.R.R.R.R.R.R.R.R.R.R.R.R.R.R.R.R.R.R.R.R.R.R.",
"; ; ; ; R.R.R.R.R.R.R.R.R.R.R.R.R.R.R.R.R.R.R.R.R.R.R.R.R.R.R.R.R.R.R.R.R.R.R.R.R.R.R.R.R.R.R.R.R.R.R.R.R.R.R.R.R.R.R.R.R.R.R.R.",
"; ; ; ; R.R.R.R.$.$.$.$.L.L.L.L.L.L.L.L.L.L.L.L.U.U.U.U.R.R.R.R.$.$.$.$.L.L.L.L.C.C.C.C.C.C.C.C.C.C.C.C.R.R.R.R.$.$.$.$.R.R.R.R.",
"; ; ; ; R.R.R.R.$.$.$.$.L.L.L.L.L.L.L.L.L.L.L.L.U.U.U.U.R.R.R.R.$.$.$.$.L.L.L.L.C.C.C.C.C.C.C.C.C.C.C.C.R.R.R.R.$.$.$.$.R.R.R.R.",
"; ; ; ; R.R.R.R.$.$.$.$.L.L.L.L.L.L.L.L.L.L.L.L.U.U.U.U.R.R.R.R.$.$.$.$.L.L.L.L.C.C.C.C.C.C.C.C.C.C.C.C.R.R.R.R.$.$.$.$.R.R.R.R.",
"; ; ; ; R.R.R.R.$.$.$.$.L.L.L.L.L.L.L.L.L.L.L.L.U.U.U.U.R.R.R.R.$.$.$.$.L.L.L.L.C.C.C.C.C.C.C.C.C.C.C.C.R.R.R.R.$.$.$.$.R.R.R.R.",
"; ; ; ; $.$.$.$.$.$.$.$.L.L.L.L.L.L.L.L.U.U.U.U.U.U.U.U.$.$.$.$.$.$.$.$.C.C.C.C.C.C.C.C.C.C.C.C.L.L.L.L.$.$.$.$.$.$.$.$.R.R.R.R.",
"; ; ; ; $.$.$.$.$.$.$.$.L.L.L.L.L.L.L.L.U.U.U.U.U.U.U.U.$.$.$.$.$.$.$.$.C.C.C.C.C.C.C.C.C.C.C.C.L.L.L.L.$.$.$.$.$.$.$.$.R.R.R.R.",
"; ; ; ; $.$.$.$.$.$.$.$.L.L.L.L.L.L.L.L.U.U.U.U.U.U.U.U.$.$.$.$.$.$.$.$.C.C.C.C.C.C.C.C.C.C.C.C.L.L.L.L.$.$.$.$.$.$.$.$.R.R.R.R.",
"; ; ; ; $.$.$.$.$.$.$.$.L.L.L.L.L.L.L.L.U.U.U.U.U.U.U.U.$.$.$.$.$.$.$.$.C.C.C.C.C.C.C.C.C.C.C.C.L.L.L.L.$.$.$.$.$.$.$.$.R.R.R.R.",
"; ; ; ; L.L.L.L.L.L.L.L.R.R.R.R.R.R.R.R.R.R.R.R.R.R.R.R.R.R.R.R.R.R.R.R.R.R.R.R.R.R.R.R.R.R.R.R.R.R.R.R.C.C.C.C.C.C.C.C.R.R.R.R.",
"; ; ; ; L.L.L.L.L.L.L.L.R.R.R.R.R.R.R.R.R.R.R.R.R.R.R.R.R.R.R.R.R.R.R.R.R.R.R.R.R.R.R.R.R.R.R.R.R.R.R.R.C.C.C.C.C.C.C.C.R.R.R.R.",
"; ; ; ; L.L.L.L.L.L.L.L.R.R.R.R.R.R.R.R.R.R.R.R.R.R.R.R.R.R.R.R.R.R.R.R.R.R.R.R.R.R.R.R.R.R.R.R.R.R.R.R.C.C.C.C.C.C.C.C.R.R.R.R.",
"; ; ; ; L.L.L.L.L.L.L.L.R.R.R.R.R.R.R.R.R.R.R.R.R.R.R.R.R.R.R.R.R.R.R.R.R.R.R.R.R.R.R.R.R.R.R.R.R.R.R.R.C.C.C.C.C.C.C.C.R.R.R.R.",
"; ; ; ; L.L.L.L.L.L.L.L.R.R.R.R.U.U.U.U.L.L.L.L.L.L.L.L.C.C.C.C.C.C.C.C.C.C.C.C.L.L.L.L.L.L.L.L.$.$.$.$.C.C.C.C.C.C.C.C.R.R.R.R.",
"; ; ; ; L.L.L.L.L.L.L.L.R.R.R.R.U.U.U.U.L.L.L.L.L.L.L.L.C.C.C.C.C.C.C.C.C.C.C.C.L.L.L.L.L.L.L.L.$.$.$.$.C.C.C.C.C.C.C.C.R.R.R.R.",
"; ; ; ; L.L.L.L.L.L.L.L.R.R.R.R.U.U.U.U.L.L.L.L.L.L.L.L.C.C.C.C.C.C.C.C.C.C.C.C.L.L.L.L.L.L.L.L.$.$.$.$.C.C.C.C.C.C.C.C.R.R.R.R.",
"; ; ; ; L.L.L.L.L.L.L.L.R.R.R.R.U.U.U.U.L.L.L.L.L.L.L.L.C.C.C.C.C.C.C.C.C.C.C.C.L.L.L.L.L.L.L.L.$.$.$.$.C.C.C.C.C.C.C.C.R.R.R.R.",
"; ; ; ; L.L.L.L.U.U.U.U.R.R.R.R.L.L.L.L.L.L.L.L.C.C.C.C.C.C.C.C.C.C.C.C.L.L.L.L.L.L.L.L.C.C.C.C.$.$.$.$.C.C.C.C.L.L.L.L.R.R.R.R.",
"; ; ; ; L.L.L.L.U.U.U.U.R.R.R.R.L.L.L.L.L.L.L.L.C.C.C.C.C.C.C.C.C.C.C.C.L.L.L.L.L.L.L.L.C.C.C.C.$.$.$.$.C.C.C.C.L.L.L.L.R.R.R.R.",
"; ; ; ; L.L.L.L.U.U.U.U.R.R.R.R.L.L.L.L.L.L.L.L.C.C.C.C.C.C.C.C.C.C.C.C.L.L.L.L.L.L.L.L.C.C.C.C.$.$.$.$.C.C.C.C.L.L.L.L.R.R.R.R.",
"; ; ; ; L.L.L.L.U.U.U.U.R.R.R.R.L.L.L.L.L.L.L.L.C.C.C.C.C.C.C.C.C.C.C.C.L.L.L.L.L.L.L.L.C.C.C.C.$.$.$.$.C.C.C.C.L.L.L.L.R.R.R.R.",
"; ; ; ; U.U.U.U.U.U.U.U.R.R.R.R.L.L.L.L.C.C.C.C.C.C.C.C.C.C.C.C.L.L.L.L.L.L.L.L.C.C.C.C.C.C.C.C.$.$.$.$.L.L.L.L.L.L.L.L.R.R.R.R.",
"; ; ; ; U.U.U.U.U.U.U.U.R.R.R.R.L.L.L.L.C.C.C.C.C.C.C.C.C.C.C.C.L.L.L.L.L.L.L.L.C.C.C.C.C.C.C.C.$.$.$.$.L.L.L.L.L.L.L.L.R.R.R.R.",
"; ; ; ; U.U.U.U.U.U.U.U.R.R.R.R.L.L.L.L.C.C.C.C.C.C.C.C.C.C.C.C.L.L.L.L.L.L.L.L.C.C.C.C.C.C.C.C.$.$.$.$.L.L.L.L.L.L.L.L.R.R.R.R.",
"; ; ; ; U.U.U.U.U.U.U.U.R.R.R.R.L.L.L.L.C.C.C.C.C.C.C.C.C.C.C.C.L.L.L.L.L.L.L.L.C.C.C.C.C.C.C.C.$.$.$.$.L.L.L.L.L.L.L.L.R.R.R.R.",
"; ; ; ; R.R.R.R.$.$.$.$.R.R.R.R.C.C.C.C.C.C.C.C.C.C.C.C.L.L.L.L.L.L.L.L.C.C.C.C.C.C.C.C.C.C.C.C.$.$.$.$.R.R.R.R.$.$.$.$.R.R.R.R.",
"; ; ; ; R.R.R.R.$.$.$.$.R.R.R.R.C.C.C.C.C.C.C.C.C.C.C.C.L.L.L.L.L.L.L.L.C.C.C.C.C.C.C.C.C.C.C.C.$.$.$.$.R.R.R.R.$.$.$.$.R.R.R.R.",
"; ; ; ; R.R.R.R.$.$.$.$.R.R.R.R.C.C.C.C.C.C.C.C.C.C.C.C.L.L.L.L.L.L.L.L.C.C.C.C.C.C.C.C.C.C.C.C.$.$.$.$.R.R.R.R.$.$.$.$.R.R.R.R.",
"; ; ; ; R.R.R.R.$.$.$.$.R.R.R.R.C.C.C.C.C.C.C.C.C.C.C.C.L.L.L.L.L.L.L.L.C.C.C.C.C.C.C.C.C.C.C.C.$.$.$.$.R.R.R.R.$.$.$.$.R.R.R.R.",
"; ; ; ; $.$.$.$.$.$.$.$.R.R.R.R.C.C.C.C.C.C.C.C.L.L.L.L.L.L.L.L.C.C.C.C.C.C.C.C.C.C.C.C.L.L.L.L.$.$.$.$.$.$.$.$.$.$.$.$.R.R.R.R.",
"; ; ; ; $.$.$.$.$.$.$.$.R.R.R.R.C.C.C.C.C.C.C.C.L.L.L.L.L.L.L.L.C.C.C.C.C.C.C.C.C.C.C.C.L.L.L.L.$.$.$.$.$.$.$.$.$.$.$.$.R.R.R.R.",
"; ; ; ; $.$.$.$.$.$.$.$.R.R.R.R.C.C.C.C.C.C.C.C.L.L.L.L.L.L.L.L.C.C.C.C.C.C.C.C.C.C.C.C.L.L.L.L.$.$.$.$.$.$.$.$.$.$.$.$.R.R.R.R.",
"; ; ; ; $.$.$.$.$.$.$.$.R.R.R.R.C.C.C.C.C.C.C.C.L.L.L.L.L.L.L.L.C.C.C.C.C.C.C.C.C.C.C.C.L.L.L.L.$.$.$.$.$.$.$.$.$.$.$.$.R.R.R.R.",
"; ; ; ; L.L.L.L.C.C.C.C.R.R.R.R.C.C.C.C.L.L.L.L.L.L.L.L.C.C.C.C.C.C.C.C.C.C.C.C.L.L.L.L.L.L.L.L.$.$.$.$.L.L.L.L.C.C.C.C.R.R.R.R.",
"; ; ; ; L.L.L.L.C.C.C.C.R.R.R.R.C.C.C.C.L.L.L.L.L.L.L.L.C.C.C.C.C.C.C.C.C.C.C.C.L.L.L.L.L.L.L.L.$.$.$.$.L.L.L.L.C.C.C.C.R.R.R.R.",
"; ; ; ; L.L.L.L.C.C.C.C.R.R.R.R.C.C.C.C.L.L.L.L.L.L.L.L.C.C.C.C.C.C.C.C.C.C.C.C.L.L.L.L.L.L.L.L.$.$.$.$.L.L.L.L.C.C.C.C.R.R.R.R.",
"; ; ; ; L.L.L.L.C.C.C.C.R.R.R.R.C.C.C.C.L.L.L.L.L.L.L.L.C.C.C.C.C.C.C.C.C.C.C.C.L.L.L.L.L.L.L.L.$.$.$.$.L.L.L.L.C.C.C.C.R.R.R.R.",
"; ; ; ; C.C.C.C.C.C.C.C.R.R.R.R.L.L.L.L.L.L.L.L.C.C.C.C.C.C.C.C.C.C.C.C.L.L.L.L.L.L.L.L.C.C.C.C.$.$.$.$.C.C.C.C.C.C.C.C.R.R.R.R.",
"; ; ; ; C.C.C.C.C.C.C.C.R.R.R.R.L.L.L.L.L.L.L.L.C.C.C.C.C.C.C.C.C.C.C.C.L.L.L.L.L.L.L.L.C.C.C.C.$.$.$.$.C.C.C.C.C.C.C.C.R.R.R.R.",
"; ; ; ; C.C.C.C.C.C.C.C.R.R.R.R.L.L.L.L.L.L.L.L.C.C.C.C.C.C.C.C.C.C.C.C.L.L.L.L.L.L.L.L.C.C.C.C.$.$.$.$.C.C.C.C.C.C.C.C.R.R.R.R.",
"; ; ; ; C.C.C.C.C.C.C.C.R.R.R.R.L.L.L.L.L.L.L.L.C.C.C.C.C.C.C.C.C.C.C.C.L.L.L.L.L.L.L.L.C.C.C.C.$.$.$.$.C.C.C.C.C.C.C.C.R.R.R.R.",
"; ; ; ; C.C.C.C.C.C.C.C.R.R.R.R.L.L.L.L.C.C.C.C.C.C.C.C.C.C.C.C.L.L.L.L.L.L.L.L.C.C.C.C.L.L.L.L.$.$.$.$.C.C.C.C.L.L.L.L.R.R.R.R.",
"; ; ; ; C.C.C.C.C.C.C.C.R.R.R.R.L.L.L.L.C.C.C.C.C.C.C.C.C.C.C.C.L.L.L.L.L.L.L.L.C.C.C.C.L.L.L.L.$.$.$.$.C.C.C.C.L.L.L.L.R.R.R.R.",
"; ; ; ; C.C.C.C.C.C.C.C.R.R.R.R.L.L.L.L.C.C.C.C.C.C.C.C.C.C.C.C.L.L.L.L.L.L.L.L.C.C.C.C.L.L.L.L.$.$.$.$.C.C.C.C.L.L.L.L.R.R.R.R.",
"; ; ; ; C.C.C.C.C.C.C.C.R.R.R.R.L.L.L.L.C.C.C.C.C.C.C.C.C.C.C.C.L.L.L.L.L.L.L.L.C.C.C.C.L.L.L.L.$.$.$.$.C.C.C.C.L.L.L.L.R.R.R.R.",
"; ; ; ; C.C.C.C.L.L.L.L.R.R.R.R.$.$.$.$.$.$.$.$.$.$.$.$.$.$.$.$.$.$.$.$.$.$.$.$.$.$.$.$.$.$.$.$.$.$.$.$.L.L.L.L.L.L.L.L.R.R.R.R.",
"; ; ; ; C.C.C.C.L.L.L.L.R.R.R.R.$.$.$.$.$.$.$.$.$.$.$.$.$.$.$.$.$.$.$.$.$.$.$.$.$.$.$.$.$.$.$.$.$.$.$.$.L.L.L.L.L.L.L.L.R.R.R.R.",
"; ; ; ; C.C.C.C.L.L.L.L.R.R.R.R.$.$.$.$.$.$.$.$.$.$.$.$.$.$.$.$.$.$.$.$.$.$.$.$.$.$.$.$.$.$.$.$.$.$.$.$.L.L.L.L.L.L.L.L.R.R.R.R.",
"; ; ; ; C.C.C.C.L.L.L.L.R.R.R.R.$.$.$.$.$.$.$.$.$.$.$.$.$.$.$.$.$.$.$.$.$.$.$.$.$.$.$.$.$.$.$.$.$.$.$.$.L.L.L.L.L.L.L.L.R.R.R.R.",
"; ; ; ; R.R.R.R.$.$.$.$.C.C.C.C.C.C.C.C.C.C.C.C.L.L.L.L.R.R.R.R.$.$.$.$.L.L.L.L.C.C.C.C.C.C.C.C.L.L.L.L.R.R.R.R.$.$.$.$.R.R.R.R.",
"; ; ; ; R.R.R.R.$.$.$.$.C.C.C.C.C.C.C.C.C.C.C.C.L.L.L.L.R.R.R.R.$.$.$.$.L.L.L.L.C.C.C.C.C.C.C.C.L.L.L.L.R.R.R.R.$.$.$.$.R.R.R.R.",
"; ; ; ; R.Y.t.T.$.$.$.$.C.C.C.C.C.6.C.C.C.C.C.C.L.L.K.N.P.F.A.R.$.$.$.$.L.S.o.L.C.C.C.r...C.s.B.e.L.L.L.R.R.F.D.$.$.$.$.D.R.y.I.",
"@ q w 6 W H. .K 5 8 y y ( d.g.F m ..d.f.r.f.r.F S.G i.j.U *.p.J.y 8 #.%.8.S.J ` H ..z.=.r.J -.w.v.k.,.h.G.=.O G.#.+.@.t J a F.Y.",
"+ L Q = n Z g O.& &.b.O b b F O B 0.9./ 3.H C O G ( ` 6._ u Z O 3.r & i 7 | M.Q z Z.;.m G C ^ X.U v c._ P c [ O -.Q x.! A O m.q.",
"l x a <.Y a >.S O Z <.T N a.0.Z l } ] * 7 f g f h M.D C g h O O.O.O h w.i Y Z O c l.V p Q C ] g Z O l Z p - O l O :.n.h 0 C I c.",
"O d 7.R h X.1.S O ' n m j Q S O [ n l k ) f ' ' g O d C g h h l O S ' f n Z g Z { ] Z O Z s k g O O l O O Z O V.9 C g h 2.n B.u.",
"g f O j 4.* O l [ l O O O.O O O l h n g p M.5.L O O Y M o C S O g ] ' ] n f g O O O O O f h O l 0 V.@ = [ f Q O S l Q O ~ I h l ",
"g j E f ( $ + O O l f n % + O O.O O O O O O B e # C O # o O O Z g f h f n 4 4 O O O O n ] h O l O l @ o n f O . O l Z O . O . O ",
"+ # # . O O + O . O o # O O . + O . # + O o @ O O @ , X   # O + O 3   + O o @ < . O o   % 1 O O 3 # # O O o @ O + X o X   O + O ",
"+ < # 1   O < : # + < # % : : . . O 1 X O : . # # @ X : . # # 3 : < + >   1 @ < 3 : @   : > 1 . 3 + > 2   < @ < > X o X :   . + ",
"; ; ; ; ; ; ; ; ; ; ; ; ; ; ; ; ; ; ; ; ; ; ; ; ; ; ; ; ; ; ; ; ; ; ; ; ; ; ; ; ; ; ; ; ; ; ; ; ; ; ; ; ; ; ; ; ; ; ; ; ; ; ; ; "
};
