/* XPM */
static char *_371fbed97924d09a93256350d2bc84bmphZ9lfM3HZ7oInR[] = {
/* columns rows colors chars-per-pixel */
"47 48 4 1 ",
"  c None",
". c #363E3D",
"X c #65A492",
"o c #85BB8D",
/* pixels */
"                                               ",
"                                               ",
"    ..      ..     ..        ..   ..    ..     ",
"   .oo.. ...oo... .oo. .. ...oo...oo. ..oo...  ",
"  .oooXo.ooXooXoo.ooo..oo.ooXooXoXooo.oXooXoo. ",
"  .oooooXooooooooXoooXoooXoooooooooooXooooooo. ",
"   .XooooooooooooooooooooooooooooooooooooooX.  ",
"  .ooooooooooooooooooooooooooooooooooooooooo.  ",
"   .ooooooooooooooooooooooooooooooooooooooooo. ",
"   ..Xooooooooooooooooooooooooooooooooooooooo. ",
"  .oooooooooooooooooooooooooooooooooooooooX..  ",
"  .ooooooooooooooooooooooooooooooooooooooooo.  ",
"   .oooooooooooooooooooooooooooooooooooooooX.  ",
"    .Xooooooooooooooooooooooooooooooooooooooo. ",
"   .ooooooooooooooooooooooooooooooooooooooooo. ",
"   .oooooooooooooooooooooooooooooooooooooooX.  ",
"   .Xooooooooooooooooooooooooooooooooooooooo.  ",
"  .oooooooooooooooooooooooooooooooooooooooX.   ",
"  .ooooooooooooooooooooooooooooooooooooooooo.  ",
"   .Xooooooooooooooooooooooooooooooooooooooo.  ",
"  .oooooooooooooooooooooooooooooooooooooooX..  ",
"  .oooooooooooooooooooooooooooooooooooooooooo. ",
"   .ooooooooooooooooooooooooooooooooooooooooo. ",
"    .Xoooooooooooooooooooooooooooooooooooooo.  ",
"    .oooooooooooooooooooooooooooooooooooooX.   ",
"   .oooooooooooooooooooooooooooooooooooooooo.  ",
"   .XoooooooooooooooooooooooooooooooooooooX.   ",
"  .ooooooooooooooooooooooooooooooooooooooooo.  ",
"  .ooooooooooooooooooooooooooooooooooooooooX.  ",
"   .ooooooooooooooooooooooooooooooooooooooooo. ",
"    .Xooooooooooooooooooooooooooooooooooooooo. ",
"   .oooooooooooooooooooooooooooooooooooooooX.  ",
"   .Xooooooooooooooooooooooooooooooooooooooo.  ",
"  .oooooooooooooooooooooooooooooooooooooooX.   ",
"  .ooooooooooooooooooooooooooooooooooooooooo.  ",
"   .Xoooooooooooooooooooooooooooooooooooooooo. ",
"   .ooooooooooooooooooooooooooooooooooooooooo. ",
"    .XooooooooooooooooooooooooooooooooooooX..  ",
"   .oooooooooooooooooooooooooooooooooooooooo.  ",
"  .oooooooooooooooooooooooooooooooooooooooooo. ",
"  .oooooooooooooooooooooooooooooooooooooooooo. ",
"   .XooooooooooooooooooooooooooooooooooooooX.  ",
"  .oooooooXoooooooooXooXoooXooXooooXooXoooooo. ",
"  .ooXooXo.oooXoXooo.oo.ooo.oo.oXoo.oo.oooXoo. ",
"   ...oo.. .oo...oo. .. .oo... ..oo... .oo...  ",
"      ..    ..   ..      ..      ..     ..     ",
"                                               ",
"                                               "
};
