/* XPM */
static char *_9789e9468fd4a84b8c19b945ab2505c3miMSbAIphCCI7G1[] = {
/* columns rows colors chars-per-pixel */
"63 62 107 2 ",
"   c #032659",
".  c #052B65",
"X  c #6F2C77",
"o  c #702C77",
"O  c #762D7A",
"+  c #782E7A",
"@  c #7F2F7D",
"#  c #6E3479",
"$  c #D55377",
"%  c #DB5772",
"&  c #E65F69",
"*  c #E05A6E",
"=  c #DF6975",
"-  c #E6616A",
";  c #E7636C",
":  c #E7666D",
">  c #EA7275",
",  c #EB7477",
"<  c #EB7678",
"1  c #EC797A",
"2  c #ED7E7E",
"3  c #F99C0B",
"4  c #F99F0D",
"5  c #F09511",
"6  c #F59C18",
"7  c #F9A20F",
"8  c #F9A210",
"9  c #FAA512",
"0  c #FDC82B",
"q  c #FECB2E",
"w  c #FECF30",
"e  c #FECF37",
"r  c #FBC938",
"t  c #FECE38",
"y  c #FFD233",
"u  c #FED134",
"i  c #FABD4C",
"p  c #F7A974",
"a  c #F6A778",
"s  c #FCC34A",
"d  c #FCC448",
"f  c #FBC14E",
"g  c #793980",
"h  c #164AB3",
"j  c #636B85",
"k  c #676F89",
"l  c #69718B",
"z  c #6B738E",
"x  c #6C748F",
"c  c #1950C0",
"v  c #1762C7",
"b  c #A6398D",
"n  c #AF3B90",
"m  c #B53C93",
"M  c #B73D94",
"N  c #B83E92",
"B  c #BB408F",
"V  c #BC418E",
"C  c #B04696",
"Z  c #B14897",
"A  c #C54786",
"S  c #C74885",
"D  c #C24589",
"F  c #C05391",
"G  c #79819E",
"H  c #7D85A3",
"J  c #7F87A4",
"K  c #1586D5",
"L  c #1498DC",
"P  c #6CBEE9",
"I  c #838BA9",
"U  c #858CAA",
"Y  c #8B92AF",
"T  c #8B93B0",
"R  c #8D95B2",
"E  c #939BB7",
"W  c #9DA3BF",
"Q  c #F2918B",
"!  c #F3958D",
"~  c #F49B8B",
"^  c #F49C8A",
"/  c #F4998E",
"(  c #F49A90",
")  c #F49C92",
"_  c #F6AE9D",
"`  c #F6B19E",
"'  c #F7BAA4",
"]  c #F9CFB0",
"[  c #FAD3B3",
"{  c #A3A9C4",
"}  c #A5ABC6",
"|  c #A5ACC7",
" . c #A7AEC8",
".. c #ABB2CC",
"X. c #AEB4CE",
"o. c #B0B6CF",
"O. c #B2B8D1",
"+. c #B5BBD2",
"@. c #BAC0D5",
"#. c #BDC3D7",
"$. c #BFC5D8",
"%. c #A6D8F1",
"&. c #C2C8DA",
"*. c #CFD6E3",
"=. c #D2D9E4",
"-. c #D7DEE8",
";. c white",
/* pixels */
"L ;.;.;.;.;.;.L ;.;.;.;.;.;.;.L ) [ [ [ [ [ ] ) [ [ [ [ [ [ ] ! : ( ( ( ( ( Q : ( ( ( ( ( ( Q = +.-.-.-.-.-.*.+.-.-.-.-.-.-.*.",
"L ;.;.;.;.;.;.L P ;.;.;.;.;.P L ) [ [ [ [ [ ] ( ` [ [ [ [ [ _ ! : ( ( ( ( ( Q - 1 ( ( ( ( ! > = +.-.-.-.-.-.*.o.&.-.-.-.-.=.@.",
"L ;.;.;.;.;.;.L L P ;.;.;.P %.L ) [ [ [ [ [ ] ( ( ` [ [ [ _ ' ! : ( ( ( ( ( Q & - 1 ( ( ! < 2 = +.-.-.-.-.-.*.X.o.&.-.-.=.$.&.",
"L P ;.;.;.;.P L %.L P P P L P L ( ` [ [ [ [ _ ( ' ( _ _ _ ( _ ! - 1 ( ( ( ! > ; 2 - , , > - > = o.&.-.-.-.=.@.O.&.o.#.#.@.o.@.",
"L L P P P P L L P L L L L L L L ( ( _ _ _ _ ( ( _ ( ( ( ( ( ( ! & - , , , > & - > & & & & & & = X.o.#.#.#.@.X.o.@.X.X.X.X.X.X.",
"L L L L L L L L L L L L L L L L ( ( ( ( ( ( ( ( ( ( ( ( ( ( ( ! & & & & & & & & & & & & & & & = X.X.X.X.X.X.X.X.X.X.X.X.X.X.X.",
"L L L L L L L L L L L L L L L L ( ( ( ( ( ( ( ( ( ( ( ( ( ( ( ! & & & & & & & & & & & & & & & = X.X.X.X.X.X.X.X.X.X.X.X.X.X.X.",
"L L L L L L L L L L L L L L L L ( ( ( ( ( ( ( ( ( ( ( ( ( ( ( ! & & & & & & & & & & & & & & & = X.X.X.X.X.X.X.X.X.X.X.X.X.X.X.",
"L L L L L L L L L L L L L L L L ( ( ( ( ( ( ( ( ( ( ( ( ( ( ( ! & & & & & & & & & & & & & & & = X.X.X.X.X.X.X.X.X.X.X.X.X.X.X.",
"L L L L L L L L L L L L L L L L ( ( ( ( ( ( ( ( ( ( ( ( ( ( ( ! & & & & & & & & & & & & & & & = X.X.X.X.X.X.X.X.X.X.X.X.X.X.X.",
"L L L L L L L L L L L L L L L L ( ( ( ( ( ( ( ( ( ( ( ( ( ( ( ! & & & & & & & & & & & & & & & = X.X.X.X.X.X.X.X.X.X.X.X.X.X.X.",
"L L L L L L L L L L L L L L L L ( ( ( ( ( ( ( ( ( ( ( ( ( ( ( ! & & & & & & & & & & & & & & & = X.X.X.X.X.X.X.X.X.X.X.X.X.X.X.",
"L L L L L L L L L L L L L L L L ( ( ( ( ( ( ( ( ( ( ( ( ( ( ( ! & & & & & & & & & & & & & & & = X.X.X.X.X.X.X.X.X.X.X.X.X.X.X.",
"L L L L L L L L L L L L L L L L ( ( ( ( ( ( ( ( ( ( ( ( ( ( ( ! & & & & & & & & & & & & & & & = X.X.X.X.X.X.X.X.X.X.X.X.X.X.X.",
"L L L L L L L L L L L L L L L L ( ( ( ( ( ( ( ( ( ( ( ( ( ( ( ! & & & & & & & & & & & & & & & = X.X.X.X.X.X.X.X.X.X.X.X.X.X.X.",
"L L L L L L L L L L L L L L L L ( ( ( ( ( ( ( ( ( ( ( ( ( ( ( ! & & & & & & & & & & & & & & & = X.X.X.X.X.X.X.X.X.X.X.X.X.X.X.",
"L L L L L L L L L L L L L L L L ( ( ( ( ( ( ( ( ( ( ( ( ( ( ( ! & & & & & & & & & & & & & & & = X.X.X.X.X.X.X.X.X.X.X.X.X.X.X.",
"L L L L L L L L L L L L L L L L ( ( ( ( ( ( ( ( ( ( ( ( ( ( ( ! & & & & & & & & & & & & & & & = X.X.X.X.X.X.X.X.X.X.X.X.X.X.X.",
"L L L L L L L L L L L L L L L L ( ( ( ( ( ( ( ( ( ( ( ( ( ( ( ! & & & & & & & & & & & & & & & = X.X.X.X.X.X.X.X.X.X.X.X.X.X.X.",
"L L L L L L L L L L L L L L L L ( ( ( ( ( ( ( ( ( ( ( ( ( ( ( ! & & & & & & & & & & & & & & & = X.X.X.X.X.X.X.X.X.X.X.X.X.X.X.",
"L L L L L L L L L L L L L L L L ( ( ( ( ( ( ( ( ( ( ( ( ( ( ( ! & & & & & & & & & & & & & & & = X.X.X.X.X.X.X.X.X.X.X.X.X.X.X.",
"L L L L L L L L L L L L L L L L ( ( ( ( ( ( ( ( ( ( ( ( ( ( ( ! & & & & & & & & & & & & & & & = X.X.X.X.X.X.X.X.X.X.X.X.X.X.X.",
"L L L L L L L L L L L L L L L L ( ( ( ( ( ( ( ( ( ( ( ( ( ( ( ! & & & & & & & & & & & & & & & = X.X.X.X.X.X.X.X.X.X.X.X.X.X.X.",
"L L L L L L v L L L L L v L L L ( ( ( ( ( ~ f ( ( ( ( ~ f ( ( ! & & & & & * S & & & & * S & & = X.X.X.X.X. .E X.X.X.X. .E X.X.",
"L L L L L L c L L L L L c L L L ( ( ( ( ( ^ t ( ( ( ( ^ t ( ( ! & & & & & * V & & & & * V & & = X.X.X.X.X.| Y X.X.X.X.| Y X.X.",
"L L L L L L c v L L L v c L L L ( ( ( ( ( ^ u f ( ( ~ d t ( ( ! & & & & & * N S & & * D V & & = X.X.X.X.X.| U E X.X. .T Y X.X.",
"L L L L L L c c v v v c c L L L ( ( ( ( ( ^ y u s s d y t ( ( ! & & & & & * M N D D D M V & & = X.X.X.X.X.| I U R R T I Y X.X.",
"L L L L L v K K c c c c c v L L ( ( ( ( ~ f a p y y y y u f ( ! & & & & * A % $ M M M M N S & = X.X.X.X. .E { W I I I I U E X.",
"L L L L v c L L c c K K K c v v ( ( ( ~ d t ( ^ y e a a p u s i & & & * D V & * M B % % $ N D F X.X.X. .T Y X.| I Y { { W U R ",
"v v v v c c v v c K L L L K c c s s s d y u s d e a ( ( / p y r D D D D M N D D B % & & & $ M Z R R R T I U R T Y } X.X...W I ",
"c c K K K K c c K L L L L L K c y e a a a p y e a ( ( ( ( / p r M B % % % $ M B % & & & & & $ C I Y { { { W I Y } X.X.X.X...W ",
"c K L L L L K c L L L L L L L c e a ( ( ( / p t ( ( ( ( ( ( ^ r B % & & & & $ V & & & & & & * C Y } X.X.X...W Y X.X.X.X.X.X.| ",
"c L L L L L L c L L L L L L L c t ( ( ( ( ( ^ t ( ( ( ( ( ( ^ r V & & & & & * V & & & & & & * C Y X.X.X.X.X.| Y X.X.X.X.X.X.| ",
"c L L L L L L c v L L L L L v c t ( ( ( ( ( ^ u f ( ( ( ( ~ d r V & & & & & * N S & & & & * D C Y X.X.X.X.X.| U E X.X.X.X. .T ",
"c L L L L L L c c v L L L v K c t ( ( ( ( ( ^ y u f ( ( ~ f p r V & & & & & * M N S & & * A $ C Y X.X.X.X.X.| I U E X.X. .E W ",
"c v L L L L v c K c v v v c v c u f ( ( ( ~ d e p u s s d u d r N S & & & * D B $ N D D D N D C U E X.X.X. .T Y W U R R T U T ",
"c c v v v v c c v c c c c c c c y u s s s d y u d y y y y y y r M N D D D D M N D M M M M M M C I U R R R T I U T I I I I I I ",
"c c c c c c c c c c c c c c c c y y y y y y y y y y y y y y y r M M M M M M M M M M M M M M M C I I I I I I I I I I I I I I I ",
"c c c c c c c c c c c c c c c c y y y y y y y y y y y y y y y r M M M M M M M M M M M M M M M C I I I I I I I I I I I I I I I ",
"c c c c c c c c c c c c c c c c y y y y y y y y y y y y y y y r M M M M M M M M M M M M M M M C I I I I I I I I I I I I I I I ",
"c c c c c c c c c c c c c c c c y y y y y y y y y y y y y y y r M M M M M M M M M M M M M M M C I I I I I I I I I I I I I I I ",
"c c c c c c c c c c c c c c c c y y y y y y y y y y y y y y y r M M M M M M M M M M M M M M M C I I I I I I I I I I I I I I I ",
"c c c c c c c c c c c c c c c c y y y y y y y y y y y y y y y r M M M M M M M M M M M M M M M C I I I I I I I I I I I I I I I ",
"c c c c c c c c c c c c c c c c y y y y y y y y y y y y y y y r M M M M M M M M M M M M M M M C I I I I I I I I I I I I I I I ",
"c c c c c c c c c c c c c c c c y y y y y y y y y y y y y y y r M M M M M M M M M M M M M M M C I I I I I I I I I I I I I I I ",
"c c c c c c c c c c c c c c c c y y y y y y y y y y y y y y y r M M M M M M M M M M M M M M M C I I I I I I I I I I I I I I I ",
"c c c c c c c c c c c c c c c c y y y y y y y y y y y y y y y r M M M M M M M M M M M M M M M C I I I I I I I I I I I I I I I ",
"c c c c c c c c c c c c c c c c y y y y y y y y y y y y y y y r M M M M M M M M M M M M M M M C I I I I I I I I I I I I I I I ",
"c c c c c c c c c c c c c c c c y y y y y y y y y y y y y y y r M M M M M M M M M M M M M M M C I I I I I I I I I I I I I I I ",
"c c c c c c c c c c c c c c c c y y y y y y y y y y y y y y y r M M M M M M M M M M M M M M M C I I I I I I I I I I I I I I I ",
"c c c c c c c c c c c c c c c c y y y y y y y y y y y y y y y r M M M M M M M M M M M M M M M C I I I I I I I I I I I I I I I ",
"c c c c c c c c c c c c c c c c y y y y y y y y y y y y y y y r M M M M M M M M M M M M M M M C I I I I I I I I I I I I I I I ",
"c c c c c c c c c c c c c c c c y y y y y y y y y y y y y y y r M M M M M M M M M M M M M M M C I I I I I I I I I I I I I I I ",
"c c c c c c c c c c c c c c c c y y y y y y y y y y y y y y y r M M M M M M M M M M M M M M M C I I I I I I I I I I I I I I I ",
"c c c c c c c c c c c c c c c c y y y y y y y y y y y y y y y r M M M M M M M M M M M M M M M C I I I I I I I I I I I I I I I ",
"c c c c c c . c c c c c . c c c y y y y y w 9 y y y y w 9 y y r M M M M M n @ M M M M n @ M M C I I I I I H x I I I I H x I I ",
"c c c c c c   c c c c c   c c c y y y y y w 4 y y y y w 4 y y r M M M M M n + M M M M n + M M C I I I I I H l I I I I H l I I ",
"c c c c c c   . c c c .   c c c y y y y y w 3 9 y y w 7 4 y y r M M M M M n o @ M M n O + M M C I I I I I H j x I I H k l I I ",
"c c c c c c     . . .     c c c y y y y y w 3 3 8 8 7 3 4 y y r M M M M M n X o + + O X + M M C I I I I I H j j k k k j l I I ",
"c c c c c . h h           . c c y y y y w 9 q 0 3 3 3 3 3 9 y r M M M M n @ n b X X X X o @ M C I I I I H z J G j j j j j x I ",
"c c c c .   c c     h h h   . . y y y w 7 4 y w 3 4 q q 0 3 8 6 M M M n O + M n X O n n b o + g I I I H k l I H j l J J G j k ",
". . . .     . .   h c c c h     8 8 8 7 3 3 8 7 4 q y y y 0 3 5 + + + O X o + O O n M M m b X # k k k k j j k k l J I I I G j "
};
