/* XPM */
static char *_809332085fd4a408599de5368e5bd91FkEOXYDBnkM5iBrt[] = {
/* columns rows colors chars-per-pixel */
"64 64 228 2 ",
"   c #5A003E",
".  c #57133B",
"X  c #7B1E2B",
"o  c #6D0037",
"O  c #64003B",
"+  c #6B0038",
"@  c #740034",
"#  c #7C0031",
"$  c #7E0C3C",
"%  c #671834",
"&  c #732339",
"*  c #1D423E",
"=  c #0E5E39",
"-  c #12553D",
";  c #11583C",
":  c #03752D",
">  c #007D2A",
",  c #0B6536",
"<  c #076E31",
"1  c #096934",
"2  c #077834",
"3  c #12763B",
"4  c #160059",
"5  c #1C0258",
"6  c #33004D",
"7  c #3C044B",
"8  c #270555",
"9  c #340752",
"0  c #2E1B5B",
"q  c #3A185D",
"w  c #1E3D49",
"e  c #262B53",
"r  c #1E0C61",
"t  c #200C61",
"y  c #291565",
"u  c #331E68",
"i  c #33266C",
"p  c #352C72",
"a  c #470345",
"s  c #510042",
"d  c #520B4D",
"f  c #461A59",
"g  c #501650",
"h  c #552355",
"j  c #6C3352",
"k  c #4B2D6E",
"l  c #512C65",
"z  c #47377A",
"x  c #663C69",
"c  c #194744",
"v  c #145040",
"b  c #0D784A",
"n  c #287956",
"m  c #377F5A",
"M  c #18636E",
"N  c #337073",
"B  c #4E4A7D",
"V  c #6D4B6F",
"C  c #76456A",
"Z  c #4E7F6C",
"A  c #557F72",
"S  c #AF001E",
"D  c #BB0019",
"F  c #9A271D",
"G  c #BD310C",
"H  c #AC2C14",
"J  c #B32E11",
"K  c #85002E",
"L  c #8B002B",
"P  c #9A0026",
"I  c #930029",
"U  c #801F28",
"Y  c #800030",
"T  c #A40022",
"R  c #A90020",
"E  c #872226",
"W  c #902421",
"Q  c #A93B2D",
"!  c #DE000C",
"~  c #C60014",
"^  c #D10010",
"/  c #E2000A",
"(  c #F40003",
")  c #F50C0E",
"_  c #C93507",
"`  c #C2330A",
"'  c #D13703",
"]  c #D33802",
"[  c #D93A00",
"{  c #F8221B",
"}  c #F13333",
"|  c #D84E30",
" . c #8D3856",
".. c #D13240",
"X. c #8A556D",
"o. c #90566A",
"O. c #A45C61",
"+. c #A76A72",
"@. c #B17275",
"#. c #EA5553",
"$. c #D86A6B",
"%. c #00802F",
"&. c #008334",
"*. c #00863A",
"=. c #00893D",
"-. c #068646",
";. c #008D43",
":. c #00934D",
">. c #058456",
",. c #168453",
"<. c #009753",
"1. c #009957",
"2. c #00995B",
"3. c #2B8B4E",
"4. c #278856",
"5. c #068768",
"6. c #019C63",
"7. c #09887A",
"8. c #149272",
"9. c #2A8A6E",
"0. c #00A368",
"q. c #00AA73",
"w. c #00B07C",
"e. c #4D8779",
"r. c #65807F",
"t. c #F3895B",
"y. c #C88378",
"u. c #D18A7A",
"i. c #D98F7B",
"p. c #F39974",
"a. c #F1A17F",
"s. c #413E82",
"d. c #387596",
"f. c #4A4686",
"g. c #524E87",
"h. c #565993",
"j. c #65568E",
"k. c #6C588B",
"l. c #745C8B",
"z. c #51708E",
"x. c #4F6090",
"c. c #4D6A97",
"v. c #586B9B",
"b. c #606897",
"n. c #6A6398",
"m. c #7A6692",
"M. c #7A719F",
"N. c #6A6DA1",
"B. c #6B74A6",
"V. c #627DA7",
"C. c #7977A5",
"Z. c #885895",
"A. c #AE7A93",
"S. c #837AA4",
"D. c #AA7FC1",
"F. c #128B93",
"G. c #378F90",
"H. c #00B98A",
"J. c #31A490",
"K. c #1C90AB",
"L. c #4F8C89",
"P. c #738990",
"I. c #629498",
"U. c #71AE90",
"Y. c #4E8FB0",
"T. c #6B85AD",
"R. c #7880A9",
"E. c #7295AB",
"W. c #6F88B0",
"Q. c #7888B1",
"!. c #7596B1",
"~. c #7B92B6",
"^. c #7E94B8",
"/. c #76A4B0",
"(. c #1299C9",
"). c #169BF7",
"_. c #72A2C2",
"`. c #8A819E",
"'. c #91859E",
"]. c #9A829E",
"[. c #AE8491",
"{. c #8E86AD",
"}. c #948CB5",
"|. c #8D95BA",
" X c #8199BE",
".X c #9897B7",
"XX c #AA98B6",
"oX c #8BB0B2",
"OX c #A4A2BD",
"+X c #EAA98F",
"@X c #F6A480",
"#X c #FEAA82",
"$X c #F4AD8D",
"%X c #E9B8B7",
"&X c #97C4AF",
"*X c #A3C9B8",
"=X c #909FC2",
"-X c #B287C7",
";X c #8CA1C4",
":X c #92A6C7",
">X c #9DAFCD",
",X c #AAACC6",
"<X c #ACADC6",
"1X c #B1AFC6",
"2X c #A3B4CE",
"3X c #ACB6CD",
"4X c #BBBCCD",
"5X c #A7B7D1",
"6X c #ACBBD2",
"7X c #B4BDD4",
"8X c #C7B5C1",
"9X c #B6D2CA",
"0X c #BDC1D3",
"qX c #B3C1D8",
"wX c #B9C6DB",
"eX c #BDC9DC",
"rX c #C5C7D4",
"tX c #C0CBDF",
"yX c #CCD6DB",
"uX c #D3D6DE",
"iX c #E9CAC8",
"pX c #C7D1E2",
"aX c #CBD4E4",
"sX c #D3DBE8",
"dX c #DDE3E7",
"fX c #E8E2E0",
"gX c #E7EDEC",
"hX c #E2E7F0",
/* pixels */
"'.0 0 0 .XhXhXhXhXhXhXhXhXhXhXhXhXhXhXhXhXhXhXhXhXhXhXhXhXhXhXhXhXhXhXhXhXhXhXhXhXhXhXhXhXhXhXhXhXhXhXhXhXhXhXhXhXhXhXhXhXhXhXhX",
"'.0 0 0 .XhXhXhXhXhXhXhXhXhXhXhXhXhXhXhXhXhXhXhXhXhXhXhXhXhXhXhXhXhXhXhXhXhXhXhXhXhXhXhXhXhXhXhXhXhXhXhXhXhXhXhXhXhXhXhXhXhXhXhX",
"'.0 0 0 .XhXhXhXhXhXhXhXhXhXhXhXhXhXhXhXhXhXhXhXhXhXhXhXhXhXhXhXhXhXhXhXhXhXhXhXhXhXhXhXhXhXhXhXhXhXhXhXhXhXhXhXhXhXhXhXhXhXhXhX",
"'.0 0 0 .XhXhXhXhXhXhXhXhXhXhXhXhXhXhXhXhXhXhXhXhXhXhXhXhXhXhXhXhXhXhXhXhXhXhXhXhXhXhXhXhXhXhXhXhXhXhXhXhXhXhXhXhXhXhXhXhXhXhXhX",
"'.0 0 0 ,XhXhXhX Xc.c.c.^.>X>X>X>X>X>X>X>X>X>X>XqXtXtXtXaXhXhXhX Xc.c.c.^.>X>X>X;X X X X X X X X X X X XwXhXhXhX Xc.c.c.6XhXhXhX",
"'.0 0 0 ,XhXhXhX Xc.c.c.^.>X>X>X>X>X>X>X>X>X>X>XqXtXtXtXaXhXhXhX Xc.c.c.^.>X>X>X;X X X X X X X X X X X XwXhXhXhX Xc.c.c.6XhXhXhX",
"'.0 0 0 ,XhXhXhX Xc.c.c.^.>X>X>X>X>X>X>X>X>X>X>XqXtXtXtXaXhXhXhX Xc.c.c.^.>X>X>X;X X X X X X X X X X X XwXhXhXhX Xc.c.c.6XhXhXhX",
"'.0 0 0 ,XhXhXhX Xc.c.c.^.>X>X>X>X>X>X>X>X>X>X>XqXtXtXtXaXhXhXhX Xc.c.c.^.>X>X>X;X X X X X X X X X X X XwXhXhXhX Xc.c.c.6XhXhXhX",
"'.0 0 0 x.c.c.c.c.c.c.c.^.>X>X>X>X>X>X>XqXtXtXtXtXtXtXtXQ.c.c.c.c.c.c.c.W. X X X X X X X X X X X:X>X>X>XT.c.c.c.c.c.c.c.3XhXhXhX",
"'.0 0 0 x.c.c.c.c.c.c.c.^.>X>X>X>X>X>X>XqXtXtXtXtXtXtXtXQ.c.c.c.c.c.c.c.W. X X X X X X X X X X X:X>X>X>XT.c.c.c.c.c.c.c.3XhXhXhX",
"'.0 0 0 x.c.c.c.c.c.c.c.^.>X>X>X>X>X>X>XqXtXtXtXtXtXtXtXQ.B p p j j B c.W. X X X X X X X X X X X:X>X>X>XT.c.c.c.c.c.c.c.3XhXhXhX",
"'.0 0 0 x.c.c.c.c.c.c.c.^.>X>X>X>X>X>X>XqXtXtXtXtXtX0Xm.B h . % F F j V V  X X X X X X X X X X X:X>X>X>XT.c.c.c.c.c.c.c.3XhXhXhX",
"'.0 0 0 R.>X>X>X>X>X>X>XpXhXhXhXhXhXhXhXhXhXhXhXhXuXXX9 8 X ' ] ] [ H U E 8XsXhXhXhXhXhXhXhXhXhXhXhXhXhX2X X X X X X X X7XhXhXhX",
"'.0 0 0 R.>X>X>X>X>X>X>XpXhXhXhXhXhXhXhXhXhXhXhXhX].5 J . % W J J ] [ [ ] X XXhXhXhXhXhXhXhXhXhXhXhXhXhX2X X X X X X X X7XhXhXhX",
"'.0 0 0 R.>X>X>X>X>X>X>XpXhXhXhXhXhXhXhXhXhXhXhXl.. ` ' E W J ' ' G G ` [ _ E [.hXhXhXhXhXhXhXhXhXhXhXhX2X X X X X X X X7XhXhXhX",
"'.0 0 0 R.>X>X>X>X>X>X>XpXhXhXhXhXhXhXhXhXhXhXhXk.. [ ` . . . % ` J ` _ ` ` E [.hXhXhXhXhXhXhXhXhXhXhXhX2X X X X X X X X7XhXhXhX",
"'.0 0 0 R.>X>X>X>X>X>X>XaXhXhXhXaXtXtXtX6X>X>X>XB . ] X g f f f X X E F J ` F j m.>X>X>X>X>X>X>XT.c.c.c.T. X X X X X X X7XhXhXhX",
"'.0 0 0 R.>X>X>X>X>X>X>XaXhXhXhXaXtXtXtX6X>X>X|.z a G 9 X.o.o.o.9 9 9 . H [ ` % f >X>X>X>X>X>X>XT.c.c.c.T. X X X X X X X7XhXhXhX",
"'.0 0 0 R.>X>X>X>X>X>X>XaXhXhXhXaXtXtXtX6X>X>Xt 4 4 8 +.y.u.u.u.u.u.@.X.8 [ 7 g.:X>X>X>X>X>X>X>XT.c.c.c.T. X X X X X X X7XhXhXhX",
"'.0 0 0 R.>X>X>X>X>X>X>XaXhXhXhXaXtXtXtX6X>X>XB.p q O.a.@X@X@X@X@Xa.a.o.4 7 5 g.:X>X>X>X>X>X>X>XT.c.c.c.T. X X X X X X X7XhXhXhX",
"'.0 0 0 R.>X>X>XqXtXtXtXsXhXhXhXeX>X>X>X>X>X>X>Xf.q u.#X+.X.@.#X#X+.X.C X.C 5 h.>X>X>X>X;X X X XV.c.c.c.T. X X X:X>X>X>XtXhXhXhX",
"'.0 0 0 R.>X>X>XqXtXtXtXsXhXhXhXeX>X>X>X>X>X>X>Xf.q u.#XC h  .#X#X .h X.#Xu.8 h.>X>X>X>X;X X X XV.c.c.c.T. X X X:X>X>X>XtXhXhXhX",
"'.0 0 0 R.>X>X>XqXtXtXtXsXhXhXhXeX>X>X>X>X>X>X>Xf.q u.#X#X} } #X#X{ #.#X#Xu.8 h.>X>X>X>X;X X X XV.c.c.c.T. X X X:X>X>X>XtXhXhXhX",
"'.0 0 0 R.>X>X>XqXtXtXtXsXhXhXhXeX>X>X>X>X>X>X>X;Xh.4 u.@X#Xt.[ [ p.#X@X@.4 B.>X>X>X>X>X;X X X XV.c.c.c.T. X X X:X>X>X>XtXhXhXhX",
"'.0 0 0 |.tXtXtXtXtXtXtXsXhXhXhXwX>X>X>X;X X X X XQ.h.8 +.O.Q Q Q Q O.o.8 N.=X>X;X X X X X X X XV.c.c.c.~.>X>X>X>X>X>X>XtXhXhXhX",
"'.0 0 0 |.tXtXtXtXtXtXtXsXhXhXhXwX>X>X>X;X X X X X XQ.4 l h & G G & j l 4 >X>X>X;X X X X X X X XV.c.c.c.~.>X>X>X>X>X>X>XtXhXhXhX",
"'.0 0 0 |.tXtXtXtXtXtXtXsXhXhXhXwX>X>X>X;X X X X XQ.h.4 y y j | | & d 9 4 |.:X>X;X X X X X X X XV.c.c.c.~.>X>X>X>X>X>X>XtXhXhXhX",
"'.0 0 0 |.tXtXtXtXtXtXtXsXhXhXhXwX>X>X>X;X X X X Xh.4 4 j.S.}.4X4X} D $ 5 S.|.>X;X X X X X X X XV.c.c.c.~.>X>X>X>X>X>X>XtXhXhXhX",
"'.0 0 0 3XhXhXhX Xc.c.c.6XhXhXhX5X X X X X X X Xs.u C.C.uXgXgXfX( P ~ ..S.gX{.Q. X X X X X X X XV.c.c.c.6XhXhXhX Xc.c.c.3XhXhXhX",
"'.0 0 0 3XhXhXhX Xc.c.c.6XhXhXhX5X X X X X X Xi j.,XyXyXgXgX%X} T ^ $.%XyXgXrXOXC. X X X X X X XV.c.c.c.6XhXhXhX Xc.c.c.3XhXhXhX",
"'.0 0 0 3XhXhXhX Xc.c.c.6XhXhXhX5X X X X X X Xr C.rXS.gXgX%X#.D D $.%XgXgXC.rX<XC. X X X X X X XV.c.c.c.6XhXhXhX Xc.c.c.3XhXhXhX",
"'.0 0 0 3XhXhXhX Xc.c.c.6XhXhXhX5X X X X X^.h.i S..Xt gX%X#.~ T } iXgXgXdX4 OX1X{.Q. X X X X X XV.c.c.c.6XhXhXhX Xc.c.c.3XhXhXhX",
"'.0 0 0 x.c.c.c.c.c.c.c.6XhXhXhX5X X X X XQ.4 OX<Xn.t gX} D T ) gXgXgXgXdX4 n.4XrXC. X X:X>X>X>XT.c.c.c.v.c.c.c.c.c.c.c.6XhXhXhX",
"'.0 0 0 x.c.c.c.c.c.c.c.6XhXhXhX5X X X X XQ.4 OX<Xg.4 K   o @ s K   o @ a 4 j.4XrXC. X X:X>X>X>XT.c.c.c.v.c.c.c.c.c.c.c.6XhXhXhX",
"'.0 0 0 x.c.c.c.c.c.c.c.6XhXhXhX5X X X Xv.y .XuX<Xf.4 K   o @ s K   o @ a 4 j.4XdX4Xy B.:X>X>X>XT.c.c.c.v.c.c.c.c.c.c.c.6XhXhXhX",
"'.0 0 0 x.c.c.c.c.c.c.c.6XhXhXhX5X X X Xh.4 gX0XM.k s D @ P T o D @ P T + K k S.rXuX4 v.:X>X>X>XT.c.c.c.v.c.c.c.c.c.c.c.6XhXhXhX",
"'.0 0 0 R.>X>X>X;X X X XeXhXhXhX5X X X Xh.4 gX}.z 6 # ! L S D # ! L S D # ! 8 z .XuX4 B.>X>X>X>XT.c.c.c.~.>X>X>X;X X X X7XhXhXhX",
"'.0 0 0 R.>X>X>X;X X X XeXhXhXhX5X X X Xh.4 gX}.z 8 s K   o @ s K   o @ s K 5 z .XuX4 B.>X>X>X>XT.c.c.c.~.>X>X>X;X X X X7XhXhXhX",
"'.0 0 0 R.>X>X>X;X X X XeXhXhXhX5X X X Xh.4 gX}.z a K ( P ~ ^ K ( P ~ ^ K ( 6 z .XuX4 B.>X>X>X>XT.c.c.c.~.>X>X>X;X X X X7XhXhXhX",
"'.0 0 0 R.>X>X>X;X X X XeXhXhXhX5X X Xh.u C $X+XV 6 O T o K I O T o K I O T 8 C +X$Xx u n.>X>X>XT.c.c.c.~.>X>X>X;X X X X7XhXhXhX",
"'.0 0 0 b. X X X X X X XeXhXhXhXqX>X>XR.z l #Xu.x 7 + D @ I T + D @ I T + D 8 C i.@Xl f.B. X X XV.c.c.c.W. X X X X X X X7XhXhXhX",
"'.0 0 0 b. X X X X X X XeXhXhXhXqX>X>X>XB.y @.C h   Y ! L S ~ Y ! L S ~ Y ! a f C @.y Q.;X X X XV.c.c.c.W. X X X X X X X7XhXhXhX",
"'.0 0 0 b. X X X X X X XeXhXhXhXqX>X>X>X>X=X4 4 s @ s K   o @ s K   o @ s K   6 4 4 >X>X;X X X XV.c.c.c.W. X X X X X X X7XhXhXhX",
"'.0 0 0 b. X X X X X X XeXhXhXhXqX>X>X>X>X>X>X9 L ^ K ( P D ^ K ( P D ^ K ( P a f >X>X>X;X X X XV.c.c.c.W. X X X X X X X7XhXhXhX",
"'.0 0 0 b. X X X X X X XeXhXhXhXwX>X>X>X;X X X8 O L   T + K L   T + K L   T + 7 9  X X X:X>X>X>XT.c.c.c.T. X X X:X>X>X>XtXhXhXhX",
"'.0 0 0 b. X X X X X X XeXhXhXhXwX>X>X>X;X X Xk d   a S @ L P O S @ L P O O a f k  X X X:X>X>X>XT.c.c.c.T. X X X:X>X>X>XtXhXhXhX",
"'.0 0 0 b. X X X X X X XeXhXhXhXwX>X>X>X;X X X Xz 8 5 ~ K S ~ K / I R S @ 4 8 j.;X X X X:X>X>X>XT.c.c.c.T. X X X:X>X>X>XtXhXhXhX",
"'.0 0 0 b. X X X X X X XeXhXhXhXwX>X>X>X;X X X X Xv.4 4 4 s @ s K   6 4 4 4 C.>X;X X X X:X>X>X>XT.c.c.c.T. X X X:X>X>X>XtXhXhXhX",
"'.0 0 0 b. X X X:X>X>X>XtXhXhXhX Xc.c.c.c.c.c.c.c.g.5 m.l.m.l.y y m.m.l.l.4 h.c.c.c.c.c.c.c.c.c.c.c.c.c.~.>X>X>X>X>X>X>XtXhXhXhX",
"'.0 0 0 b. X X X:X>X>X>XtXhXhXhX Xc.c.c.c.c.c.c.c.g.t rXrXrX}.4 4 OXrXrX4X4 h.c.c.c.c.c.c.c.c.c.c.c.c.c.~.>X>X>X>X>X>X>XtXhXhXhX",
"'.0 0 0 b. X X X:X>X>X>XtXhXhXhX Xc.c.c.c.c.c.c.B l a A.A.A.l.p p Z.A.A.A.7 k g.c.c.c.c.c.c.c.c.c.c.c.c.~.>X>X>X>X>X>X>XtXhXhXhX",
"'.0 0 0 b. X X X:X>X>X>XtXhXhXhX Xc.c.c.c.c.c.c.i a L L # s f c.c.7   # K K 6 p c.c.c.c.c.c.c.c.c.c.c.c.~.>X>X>X>X>X>X>XtXhXhXhX",
"'.0 0 0 ,XhXhXhX Xc.c.c.W. X X X X X X X X X X Xz   ( ( a S.hXhX Xc.i   ( ( a j.;X X X X X X X X:X>X>X>XtXhXhXhX Xc.c.c.7XhXhXhX",
"'.0 0 0 ,XhXhXhX Xc.c.c.T. X X X X X X X X X X Xz 5 6 6 5 C.hXhX Xc.i 5 6 6 5 h.;X X X;X X X X X:X>X>X>XtXhXhXhX Xc.c.c.7XhXhXhX",
"'.0 0 0 ,XyXU.dX Xc.c.c.W. X X X XL. X X X X X XC.k.l.V Z.P.oXhX Xc.f.z k.V * {.;X X XI.e. XE.}.I.>X>X>XtXhX&X&X Xc.c.c.U.hXU.9X",
"3.M M b 7.-Xe.3.3.n N N 9.E.!.4.-.e.E.!.I.!.I.4. X4.Y./.,.F.Y.-XI.n z.b.L.oX4.9.4.e.(.F.I.4.F.P._./.G./.oXF.> *XE.d.d.n 4.e.&XyX",
"3.5.7.2 :.1.*.r.2 D.`.> b ,.4.> >.P.P.4.K.4.<.> 4.9.9.L.9.Z 1.> K.n 3 Z n e.}.7.-.XXG.>.4.<.8.r.8.,.).9.5.-.q.> F.7.).7.<.> '.P.",
";.-.A H.6.A G.2.> 2.H.6.>.T.P.1.;.w.0.2 n &.*.*.=.}.4.1.*.=.> r.r.> =.P.Z 6.1.> :.(.,.Z 7.<.0.*.1.> ;.1.Z 3 > ;.> G.{.=.m <.5.).",
"> > L.9.=.e.J.2.> 0.:.>.-.7.2.> q.:.;.-.9.&.0.0.*.> %.<.*.=.=.;.> 2.0.&.:.1.*.1.q.q.1.> 1.A -.*.> > ;.> > 1.> }.m <.*.;.J.:.}.Y.",
"*.&.> -.G.2 > =.q.;.> > r.> > > ;.=.:.*.Z }.L.5.> > 6.>.: <.2.> *.0.0.0.:.&.*.> > > > > &.=.> ;.m }.< 2 q.&.7.> 2.;.7.> q.5.=.;.",
"*.;.7.&.9.3 , > > ;.&.:.< , > r.> > > > > > >.M 1 <.> 1 : > > 1.*.*.=.&.:.b b > > > > :.0.=.> ;.> ;.< : :.&.> - > ;.1.> - > - > ",
", 1 1 - > > , > - > : 1 > > - , > - 1 , > : < > > < e ; = 1 > , > v = , > : < c - > : = < v > > v 1 1 > > : < > , ; : ; = > , > ",
", c 1 c = > c w 1 , c 1 < w w - - > v ; > w - 1 1 < ; w - 1 1 v w c , e = v < c v w < = w e v - v , e c = c < c e ; : ; w = - , ",
"0 0 0 0 0 0 0 0 0 0 0 0 0 0 0 0 0 0 0 0 0 0 0 0 0 0 0 0 0 0 0 0 0 0 0 0 0 0 0 0 0 0 0 0 0 0 0 0 0 0 0 0 0 0 0 0 0 0 0 0 0 0 0 0 "
};
