/* XPM */
static char *_6610ca560df471efeca261a5dfb4502DfK9BxEca5okPbss[] = {
/* columns rows colors chars-per-pixel */
"60 64 137 2 ",
"   c None",
".  c black",
"X  c #0B0401",
"o  c #0B0304",
"O  c #0D0505",
"+  c #000A02",
"@  c #020B05",
"#  c #040C04",
"$  c #0A0802",
"%  c #0B0D02",
"&  c #0A0A06",
"*  c #000209",
"=  c #00030B",
"-  c #04000B",
";  c #000409",
":  c #03060A",
">  c #04050A",
",  c #00000C",
"<  c #02010D",
"1  c #03020C",
"2  c #05030F",
"3  c #05050C",
"4  c #08030A",
"5  c #0A0608",
"6  c #0A050B",
"7  c #08060B",
"8  c #0D0508",
"9  c #0D050B",
"0  c #00080A",
"q  c #020A0B",
"w  c #05080B",
"e  c #060E0B",
"r  c gray4",
"t  c #0B0B0B",
"y  c #080D08",
"u  c #0D0E0A",
"i  c #0A080D",
"p  c #0B080D",
"a  c #080B0E",
"s  c #0B0C0E",
"d  c gray5",
"f  c #0E0E0E",
"g  c #150A01",
"h  c #100C0D",
"j  c #0E1008",
"k  c #0C150A",
"l  c #0E130D",
"z  c #10110D",
"x  c #13100D",
"c  c #13130D",
"v  c #0C0E10",
"b  c #0E0D16",
"n  c #101010",
"m  c #131313",
"M  c #121612",
"N  c #131816",
"B  c #1E1D16",
"V  c #18171F",
"C  c #1C1D19",
"Z  c #21211F",
"A  c #976764",
"S  c #D0C3BE",
"D  c #F1EEE5",
"F  c #F4F2E4",
"G  c #FCF5E1",
"H  c #F8F2E7",
"J  c #F9F4E4",
"K  c #FAF5E6",
"L  c #FCF7E5",
"P  c #FDF6E7",
"I  c #FCF7E7",
"U  c #FEF9E7",
"Y  c #F7F7E8",
"T  c #F9F3E8",
"R  c #F8F2E9",
"E  c #FAF5E8",
"W  c #FAF7E9",
"Q  c #F9F5EA",
"!  c #FDF5E9",
"~  c #FCF6E9",
"^  c #FEF7E8",
"/  c #FCF5EA",
"(  c #FCF7EB",
")  c #FEF7EA",
"_  c #FAF7EF",
"`  c #FEF7EE",
"'  c #FAF9E8",
"]  c #FBF9E8",
"[  c #FAF9EA",
"{  c #FBF9EA",
"}  c #FAF8EB",
"|  c #FBFBEB",
" . c #FDF8E8",
".. c #FCFAE9",
"X. c #FEFAE9",
"o. c #FDF8EA",
"O. c #FEF9EB",
"+. c #FCFAEB",
"@. c #FEFCEA",
"#. c #F8F8ED",
"$. c #FBF9EC",
"%. c #FAFAEC",
"&. c #FBFBED",
"*. c #F8F8EF",
"=. c #FBF8EE",
"-. c #FAF9EE",
";. c #FBFAEF",
":. c #FDF8EC",
">. c #FEF9ED",
",. c #FCFAED",
"<. c #FEFBEC",
"1. c #FFFBEC",
"2. c #FCF9EF",
"3. c #FFFAEE",
"4. c #FEFBEE",
"5. c #FAFDEC",
"6. c #FCFCEC",
"7. c #FDFDED",
"8. c #FCFCEE",
"9. c #FDFDEF",
"0. c #FBFAF1",
"q. c #FBFAF3",
"w. c #FCF9F1",
"e. c #FCFBF0",
"r. c #FEFBF0",
"t. c #FCF9F3",
"y. c #FEF8F3",
"u. c #FEFAF2",
"i. c #FAFCF0",
"p. c #FFFFF3",
"a. c #FAFCF4",
"s. c #FAFDF5",
"d. c #FFFDF5",
"f. c #FEFCFB",
"g. c #FBFDFD",
"h. c #FFFFFE",
"j. c white",
/* pixels */
"                                                                                                                        ",
"                                      . . . . .                 .                                                       ",
"                                    . . . . . . .             . I . . >                   . . . . . e                   ",
"                                  . . . . . . . . .         . I I I I I .               . . . . . . . .                 ",
"                                . . . . . . . . . . * * 3 - I I I I I I I . . .       . . . . . . . . . .               ",
"                                . . . . . . . . . . . I I F J J I o.I I I I I I g . . . . . . . . . . . .               ",
"                                . . . . . . . . . I I I I I J I I o.I o.o.o.o.o.o.~ I . . . . . . . . . . .             ",
"                                . . . . . . . I I I I I I I J I I I I o.o.o.o.o.o.o.2.o.. . . . . . . . . .             ",
"                                . . . . . $.I } ~ E E I I I I I I I I I o.o.o.U o.o.o.I I . . . . . . . . .             ",
"                                . . . . I I I $.~ ~ E E J I I o.I I I I o.o.o.o.o.o.o.o.I u.. . . . . . .               ",
"                                  N . I I I u.2.~ ~ ~ ~ I I I o.I I I I o.o.o.o.o.o.o.o.I I I . . . . . &               ",
"                                    . I I I I . . # . 2.$.I I o.I o.~ I I I I I I } $.2.2.2.I I . . . .                 ",
"                                  . I I I I . . . . . . 7.$.o.o.o.o.o.I v . . . . x p.$.$.$.I I I I .                   ",
"                                l I I I . . j.j.j.j.j.. . $.o.o.o.J 2.. u j.j.j.. . . . u.2.$.7.u.u.I .                 ",
"                                . I I $ . j.j.j.. . . j.. 2.o.o.2.I . . j.j.j.j.j.. . . I u.$.7.u.7.7.x                 ",
"                                . I I x . j.j.. . . . . i 2.o.o.o.I . 7 j.. . . j.j.. . . I 7.7.u.u.7..                 ",
"                              . I I I . . j.j.. . . . . . o.o.o.o.I . . . . . . j.j.$ . . I 2.2.7.7.7..                 ",
"                            B I I I I . . j.f.. . . . . . I o.o.o.I . . . . . . j.j.j.. . I o.o.2.2.$..                 ",
"                            . I I I I . . j.j.j.j.j.j.. o.7.7.7.7.~ . n . . . . j.j.. 9 . I } o.$.$.2..                 ",
"                            . I I I I . . . j.j.j.j.. o.o.C < < < @.I . j.g.j.j.j.j.. . . I } } o.o.~ . B               ",
"              . . . :       . I I I I . . . . . . . 2.@.o.U < < U @.} j k j.j.j.j . . . . $.} } ~ ~ ~ I .               ",
"          % . . . A A . . + . I I I 7.I . . . . . d.2.o.o.~ ~ ~ o.7.o.o.. . . . . . . . u.$.o.~ ~ ~ ~ .                 ",
"          . A A O . A . . . . . I I I I I I I I I I o.} o.~ ~ ~ o.o.o.o.I I . . . . . $.$.} ~ ~ ~ ~ G .                 ",
"        . . 9 A V < . . . . . . I I I } 2.2.I I 2.o.2.. ~ ~ ~ ~ ~ X o.o.2.2.} o.o.o.o.} o.o.~ ~ I o.o..                 ",
"        . A . . . A A . . . . . I I I } 2.2.I I I I 2.~ . . . . . ~ ~ 2.o.o.} } o.2.o.} o.o.~ ~ o.o..                   ",
"        . A A . A A A A . . . . . I I I } I I I o.o.~ ~ ~ ~ ~ ~ o.o.2.o.o.o.o.o.o.o.o.o.o.I I I o.o..                   ",
"        . . A . A A A A . . . . . . I I $.I } } I } o.o.o.o.o.o.o.o.o.o.o.o.o.o.o.o.o.I I o.o.o.. .                     ",
"        . . . . . A A . . . . . . . . I $.I } } } I o.o.o.o.o.o.o.o.o.o.o.o.o.o.o.o.o.I o.o.o..                         ",
"          . . . . . . . . . . . . . > . . I I I I $.I o.o.o.o.o.o.o.o.o.o.o.o.o.} o.o.o.o.. .                           ",
"          Z . . . . . . . . . . . . . . . . . I I $.} I o.o.o.o.o.o.o.o.o.o.o.o.o.o.o.. . d . i                         ",
"            . . . . . . . . . . . . . . . r . . o I I I o.o.o.o.o.o.o.o.o.o.o.o.. . . . . . . . .                       ",
"              . . . . . . . . . . . . . . . . . . . . o.o.o.o.o.o.o.o.o.o.. . . . . . . . . . . .                       ",
"                . . . . . . . . . . . . . . . . . . . . . . . . . . . . . . . . . . . . . . . . .                       ",
"                  . . . . . . . . . . . . . . . . . . . . . . . . . . . . . . . . . . . . . . . . d                     ",
"                    . . . . . . . . . . . . . . . . . . . . . . . . . . . . . . . . . . . . . . . .                     ",
"                      . . . . . . . . . . . . . . . . . . . . . . . . . . . . . . . . . . . . . . .                     ",
"                        . . . . . r . . . . . . . . 2.2.2.2.7.Y 2.. . . . . . . . . . . . . . . . .                     ",
"                              . . . . . . . . . a.a.i.7.5.} | 7.} 7.} 2.7.. . . . . . . . . . . . .                     ",
"                                . . . . . . u.2.2.2.2.u.2.2.2.2.2.2.2.2.2.. 9 . . . . . . . . . . .                     ",
"                                  . . . 7.2.2.2.o.o.2.2.2.2.2.2.2.2.2.2.q . . . . . . . . . . . . .                     ",
"                                . . . $.2.$.$.2.o.o.2.2.7.7.7.7.2.2.2.: . . . . . . . . . . . . . .                     ",
"                                . @ u.$.} } } o.o.o.o.o.2.7.7.2.2.2.< . . . . . . . . . . . . . . .                     ",
"                                . M u.$.} } } o.o.o.o.o.o.o.7.2.E . . . . . . . . . . . . . . . . .                     ",
"                                . y u.} o.o.o.o.o.o.o.o.o.o.7.7.. . . . . . . . . . . . . . . . . .                     ",
"                                . . $.} o.o.o.o.o.o.o.o.o.o.2.2.. r . . . . . . . . . . . . . . . . .                   ",
"                                . d $.} o.o.o.o.o.o.o.o.o.o.2.2.. . . . . . . . . . . . . . . . . S .                   ",
"                                  . $.} o.o.o.o.o.o.o.o.o.o.2.2.. . . . . . . . . . . . . . . . S S .                   ",
"                                  . $.} I I U U o.o.o.o.I o.o.} . . . . . . . . . . . . d . . S S S .                   ",
"                                  . . E ~ ~ I I o.o.o.o.I o.o.o._ . . . . . . . . . . . . . S S S . . .                 ",
"                                  w q S } ~ I I o.o.o.o.o.o.o.o.2.. . . . . . . . . . S S S S S . . . . .               ",
"                                  r . . S } ~ ~ o.o.o.o.o.o.o.o.2.o.. . . . . . . . S S S S S . . . n . .               ",
"                                  . . . . S ~ ~ o.o.o.o.o.o.o.o.o.o.2.` T H a.q.D S S S S . . . . . . . .               ",
"                                    . . 4 i S S $.$.2.2.2.2.2.2.2.$.$.$.$.q.S S S S S S . . . . . . . . >               ",
"                                    . . . . . S S S S T 2.2.2.2.$.$.E S S S S S S S S . . . . . 7 . i . .               ",
"                                    . . . . . . . . S S S S S S S S S S S S S S S . . . . . . . . . . .                 ",
"                                    2 . . . . . . 7 . . . . . . . . . . . . . . . . . . . . . . .                       ",
"                                    b s . . . . . . . . . . . . .   . h . . . . . . . . . . . . .                       ",
"                                    . . . . . . . . . . . . . .       . . . . . . . . . . . . . .                       ",
"                                      . . . . . . . . . . . . .       . . . . . . . . . . . . . .                       ",
"                                      . . . . . . . . . . . . .       . . . . . . . . . . . . .                         ",
"                                      r . . . . . . . . . . . .       . . . . . . . . . . . . .                         ",
"                                        . . . . . . . . . . . .       . r . . . . . . . . . . .                         ",
"                                        . . . . . . . . . . 7           . . . . . . . . . . .                           ",
"                                            . . . . . . .                   . . . . . . .                               "
};
