/* XPM */
static char *_37351401fd14ff4ef7a6ddf280af027Aj0Njj7Or0yBkPJk[] = {
/* columns rows colors chars-per-pixel */
"64 64 220 2 ",
"   c #5D003E",
".  c #55133C",
"X  c #791D2B",
"o  c #6E0037",
"O  c #66003A",
"+  c #6A0039",
"@  c #730035",
"#  c #7B0032",
"$  c #661936",
"%  c #7B202D",
"&  c #0E5E39",
"*  c #12553D",
"=  c #11583C",
"-  c #03752D",
";  c #007D2A",
":  c #0B6536",
">  c #076E31",
",  c #096934",
"<  c #077934",
"1  c #12763B",
"2  c #1C0056",
"3  c #160059",
"4  c #1B055B",
"5  c #2F004F",
"6  c #36044D",
"7  c #280453",
"8  c #350A57",
"9  c #2E135F",
"0  c #2E1B5B",
"q  c #38195F",
"w  c #1E3D49",
"e  c #272A54",
"r  c #233150",
"t  c #251164",
"y  c #2A1565",
"u  c #351C66",
"i  c #36236E",
"p  c #3A2972",
"a  c #450447",
"s  c #4E0044",
"d  c #540041",
"f  c #551849",
"g  c #451858",
"h  c #5D2650",
"j  c #502B63",
"k  c #54336C",
"l  c #433378",
"z  c #4C3D7E",
"x  c #6B3C6A",
"c  c #1B4347",
"v  c #174D42",
"b  c #145040",
"n  c #087744",
"m  c #226458",
"M  c #2D7E50",
"N  c #377F5A",
"B  c #5A417D",
"V  c #754569",
"C  c #744C77",
"Z  c #487F67",
"A  c #517F6E",
"S  c #557F72",
"D  c #AC001F",
"F  c #BF0017",
"G  c #B2001C",
"H  c #BB0119",
"J  c #9B271C",
"K  c #BB310D",
"L  c #A52A17",
"P  c #B32E11",
"I  c #85002E",
"U  c #8C002B",
"Y  c #990026",
"T  c #920029",
"R  c #850D3B",
"E  c #A40022",
"W  c #B81028",
"Q  c #8C2424",
"!  c #933232",
"~  c #B3293B",
"^  c #D7000E",
"/  c #DE000B",
"(  c #C30016",
")  c #D10010",
"_  c #EB0006",
"`  c #F40003",
"'  c #C63409",
"]  c #D23703",
"[  c #D93A00",
"{  c #D72935",
"}  c #D6420F",
"|  c #F94233",
" . c #8A3148",
".. c #963C61",
"X. c #B25C5E",
"o. c #8A566E",
"O. c #945A6B",
"+. c #8B4C75",
"@. c #9E6372",
"#. c #A66972",
"$. c #B27475",
"%. c #CE5354",
"&. c #F45044",
"*. c #C97D6F",
"=. c #C17E77",
"-. c #E67661",
";. c #00802F",
":. c #008334",
">. c #00863A",
",. c #00893D",
"<. c #068646",
"1. c #008D43",
"2. c #00934D",
"3. c #058456",
"4. c #198755",
"5. c #009753",
"6. c #009957",
"7. c #029059",
"8. c #009B5B",
"9. c #278B4F",
"0. c #3C9A59",
"q. c #068768",
"w. c #019C63",
"e. c #16976B",
"r. c #088874",
"t. c #09887C",
"y. c #309371",
"u. c #00A165",
"i. c #00A56A",
"p. c #00AA73",
"a. c #00B07C",
"s. c #439E5E",
"d. c #46906D",
"f. c #588479",
"g. c #65807F",
"h. c #6B8E7B",
"j. c #55A66B",
"k. c #BE817E",
"l. c #F18051",
"z. c #D28A7A",
"x. c #EC9B7C",
"c. c #F29372",
"v. c #594A86",
"b. c #5F538C",
"n. c #66558C",
"m. c #745C8B",
"M. c #796795",
"N. c #746A9A",
"B. c #7E76A2",
"V. c #935D93",
"C. c #8D6F95",
"Z. c #A5798C",
"A. c #B57B92",
"S. c #837BA4",
"D. c #8B7DA4",
"F. c #D77882",
"G. c #118D93",
"H. c #3A9B88",
"J. c #338B93",
"K. c #00B98A",
"L. c #31A490",
"P. c #2495A9",
"I. c #4A8A8B",
"U. c #788B90",
"Y. c #75B684",
"T. c #4A8AB1",
"R. c #6DB6A7",
"E. c #139ACA",
"W. c #179BF7",
"Q. c #8A819E",
"!. c #BA8B8F",
"~. c #AB8B9D",
"^. c #B89499",
"/. c #82B78F",
"(. c #8B83A8",
"). c #9783A7",
"_. c #958AB7",
"`. c #9B96B6",
"'. c #AD8CA5",
"]. c #B390A3",
"[. c #A199B6",
"{. c #A8A2BC",
"}. c #B0A7B3",
"|. c #C18D8A",
" X c #EB8D8D",
".X c #F5A380",
"XX c #FFAB82",
"oX c #C9A5AB",
"OX c #EBAFAE",
"+X c #8FC298",
"@X c #96C8B0",
"#X c #A7CEAA",
"$X c #ADD1AF",
"%X c #B4D4B4",
"&X c #BFDABD",
"*X c #F2CEBA",
"=X c #B48AC6",
"-X c #B3AEC3",
";X c #B8B8CA",
":X c #C896D0",
">X c #C5BBCB",
",X c #D1BDC1",
"<X c #B1D6CF",
"1X c #BFC0D0",
"2X c gray78",
"3X c #CDC4CE",
"4X c #C8CAD6",
"5X c #D0D4D5",
"6X c #E5CFCA",
"7X c #E5D5D6",
"8X c #D6E5CF",
"9X c #E6EBDB",
"0X c #F0E4DE",
"qX c #D9DEE2",
"wX c #E5E6E5",
"eX c #E7EEEC",
"rX c #F1EAE5",
"tX c #EDF0E0",
"yX c #FAF4EA",
"uX c #FFF9EE",
/* pixels */
"uXuXuXuXuXuXuXuXuXuXuXuXuXuXuXuXuXuXuXuXuXuXuXuXuXuXuXuXuXuXuXuXuXuXuXuXuXuXuXuXuXuXuXuXuXuXuXuXuXuXuXuXuXuXuXuXuXuXuXuXuXuXuXuX",
"uXuXuXuXuXuXuXuXuXuXuXuXuXuXuXuXuXuXuXuXuXuXuXuXuXuXuXuXuXuXuXuXuXuXuXuXuXuXuXuXuXuXuXuXuXuXuXuXuXuXuXuXuXuXuXuXuXuXuXuXuXuXuXuX",
"uXuXuXuXuXuXuXuXuXuXuXuXuXuXuXuXuXuXuXuXuXuXuXuXuXuXuXuXuXuXuXuXuXuXuXuXuXuXuXuXuXuXuXuXuXuXuXuXuXuXuXuXuXuXuXuXuXuXuXuXuXuXuXuX",
"uXuXuXuXuXuXuXuXuXuXuXuXuXuXuXuXuXuXuXuXuXuXuXuXuXuXuXuXuXuXuXuXuXuXuXuXuXuXuXuXuXuXuXuXuXuXuXuXuXuXuXuXuXuXuXuXuXuXuXuXuXuXuXuX",
"uXuXuXuXuXuXuXuXuXuXuXuXuXuXuXuXuXuXuXuXuXuXuXuXuXuXuXuXuXuXuXuXuXuXuXuXuXuXuXuXuXuXuXuXuXuXuXuXuXuXuXuXuXuXuXuXuXuXuXuXuXuXuXuX",
"uXuXuXuXuXuXuXuXuXuXuXuXuXuXuXuXuXuXuXuXuXuXuXuXuXuXuXuXuXuXuXuXuXuXuXuXuXuXuXuXuXuXuXuXuXuXuXuXuXuXuXuXuXuXuXuXuXuXuXuXuXuXuXuX",
"uXuXuXuXuXuXuXuXuXuXuXuXuXuXuXuXuXuXuXuXuXuXuXuXuXuXuXuXuXuXuXuXuXuXuXuXuXuXuXuXuXuXuXuXuXuXuXuXuXuXuXuXuXuXuXuXuXuXuXuXuXuXuXuX",
"uXuXuXuXuXuXuXuXuXuXuXuXuXuXuXuXuXuXuXuXuXuXuXuXuXuXuXuXuXuXuXuXuXuXuXuXuXuXuXuXuXuXuXuXuXuXuXuXuXuXuXuXuXuXuXuXuXuXuXuXuXuXuXuX",
"uXuXuXuXuXuXuXuXuXuXuXuXuXuXuXuXuXuXuXuXuXuXuXuXuXuXuXuXuXuXuXuXuXuXuXuXuXuXuXuXuXuXuXuXuXuXuXuXuXuXuXuXuXuXuXuXuXuXuXuXuXuXuXuX",
"uXuXuXuXuXuXuXuXuXuXuXuXuXuXuXuXuXuXuXuXuXuXuXuXuXuXuXuXuXuXuXuXuXuXuXuXuXuXuXuXuXuXuXuXuXuXuXuXuXuXuXuXuXuXuXuXuXuXuXuXuXuXuXuX",
"uXuXuXuXuXuXuXuXuXuXuXuXuXuXuXuXuXuXuXuXuXuXuXuXuXuXuXuXuXuXuXuXuXuXuXuXuXuXuXuXuXuXuXuXuXuXuXuXuXuXuXuXuXuXuXuXuXuXuXuXuXuXuXuX",
"uXuXuXuXuXuXuXuXuXuXuXuXuXuXuXuXuXuXuXuXuXuXuXuXuXuXuXuXuX,XM.M.Z.$.!.uXuXuXuXuXuXuXuXuXuXuXuXuXuXuXuXuXuXuXuXuXuXuXuXuXuXuXuXuX",
"uXuXuXuXuXuXuXuXuXuXuXuXuXuXuXuXuXuXuXuXuXuXuXuXuXuXuX).D.C X X J L ! |.|.6XuXuXuXuXuXuXuXuXuXuXuXuXuXuXuXuXuXuXuXuXuXuXuXuXuXuX",
"uXuXuXuXuXuXuXuXuXuXuXuXuXuXuXuXuXuXuXuXuXuXuXuXuXyX].f 6 f ' ] ] ] ' Q Q $.6XuXuXuXuXuXuXuXuXuXuXuXuXuXuXuXuXuXuXuXuXuXuXuXuXuX",
"uXuXuXuXuXuXuXuXuXuXuXuXuXuXuXuXuXuXuXuXuXuXuXuXuX0X3 J X . X P P ' [ [ [ Q !.uXuXuXuXuXuXuXuXuXuXuXuXuXuXuXuXuXuXuXuXuXuXuXuXuX",
"uXuXuXuXuXuXuXuXuXuXuXuXuXuXuXuXuXuXuXuXuXuXuXuX~.2 [ [ L Q P [ [ ' P P [ [ L  .uXuXuXuXuXuXuXuXuXuXuXuXuXuXuXuXuXuXuXuXuXuXuXuX",
"uXuXuXuXuXuXuXuXuXuXuXuXuXuXuXuXuXuXuXuXuXuXuXuX~.2 [ ' X 6 a a L P K ] K K J  .uXuXuXuXuXuXuXuXuXuXuXuXuXuXuXuXuXuXuXuXuXuXuXuX",
"uXuXuXuXuXuXuXuXuXuXuXuXuXuXuXuXuXuXuXuXuXuXuXuX~.2 [ X h j j j $ $ $ X P ' K ! D.uXuXuXuXuXuXuXuXuXuXuXuXuXuXuXuXuXuXuXuXuXuXuX",
"uXuXuXuXuXuXuXuXuXuXuXuXuXuXuXuXuXuXuXuXuXuXuX3Xm.2 L f V #.#.#.h g g g Q ' K Q g uXuXuXuXuXuXuXuXuXuXuXuXuXuXuXuXuXuXuXuXuXuXuX",
"uXuXuXuXuXuXuXuXuXuXuXuXuXuXuXuXuXuXuXuXuXuXuXS.4 3 8 O.=.z.z.z.z.z.z.$.3 J $ q uXuXuXuXuXuXuXuXuXuXuXuXuXuXuXuXuXuXuXuXuXuXuXuX",
"uXuXuXuXuXuXuXuXuXuXuXuXuXuXuXuXuXuXuXuXuXuXuXuX[.3 z..XXXXXXXXXXXXXXXx.3 3 3 y uXuXuXuXuXuXuXuXuXuXuXuXuXuXuXuXuXuXuXuXuXuXuXuX",
"uXuXuXuXuXuXuXuXuXuXuXuXuXuXuXuXuXuXuXuXuXuXuXuX[.3 z..XO.q q XXXXO.q q *.$.k i uXuXuXuXuXuXuXuXuXuXuXuXuXuXuXuXuXuXuXuXuXuXuXuX",
"uXuXuXuXuXuXuXuXuXuXuXuXuXuXuXuXuXuXuXuXuXuXuXuX[.3 z..Xz.X.W XXXX%.~ #.XXz.x p uXuXuXuXuXuXuXuXuXuXuXuXuXuXuXuXuXuXuXuXuXuXuXuX",
"uXuXuXuXuXuXuXuXuXuXuXuXuXuXuXuXuXuXuXuXuXuXuXuX>Xv.V z..Xc.| l.l.&.&.XXx.o.B M.uXuXuXuXuXuXuXuXuXuXuXuXuXuXuXuXuXuXuXuXuXuXuXuX",
"uXuXuXuXuXuXuXuXuXuXuXuXuXuXuXuXuXuXuXuXuXuXuXuXuXrX4 V z.x.c.} } -.x..X@.9 (.uXuXuXuXuXuXuXuXuXuXuXuXuXuXuXuXuXuXuXuXuXuXuXuXuX",
"uXuXuXuXuXuXuXuXuXuXuXuXuXuXuXuXuXuXuXuXuXuXuXuXuXuXuX4 V X.% J J Q ! $.3 `.uXuXuXuXuXuXuXuXuXuXuXuXuXuXuXuXuXuXuXuXuXuXuXuXuXuX",
"uXuXuXuXuXuXuXuXuXuXuXuXuXuXuXuXuXuXuXuXuXuXuXuXuXuXuXy 4 7 6 } } Q 8 4 3 {.uXuXuXuXuXuXuXuXuXuXuXuXuXuXuXuXuXuXuXuXuXuXuXuXuXuX",
"uXuXuXuXuXuXuXuXuXuXuXuXuXuXuXuXuXuXuXuXuXuXuXuXuXrXu 4 p b.n.!.!.%.W R 3 N.>XuXuXuXuXuXuXuXuXuXuXuXuXuXuXuXuXuXuXuXuXuXuXuXuXuX",
"uXuXuXuXuXuXuXuXuXuXuXuXuXuXuXuXuXuXuXuXuXuXuXuX3XS.z z S.-X-X5XF.{ ( H z `.;X>XuXuXuXuXuXuXuXuXuXuXuXuXuXuXuXuXuXuXuXuXuXuXuXuX",
"uXuXuXuXuXuXuXuXuXuXuXuXuXuXuXuXuXuXuXuXuXuXuX3XM.u `.`.4XeXeXOX{ H W &.`.qX;X`.3XuXuXuXuXuXuXuXuXuXuXuXuXuXuXuXuXuXuXuXuXuXuXuX",
"uXuXuXuXuXuXuXuXuXuXuXuXuXuXuXuXuXuXuXuXuXuXuXM.i eXeXeXeXeXwX` E ( &.eXeXeXeX4XB.uXuXuXuXuXuXuXuXuXuXuXuXuXuXuXuXuXuXuXuXuXuXuX",
"uXuXuXuXuXuXuXuXuXuXuXuXuXuXuXuXuXuXuXuXuXuXuXM.i wX3 ;XeXOX` I / -.eXeXeXl S.4XB.uXuXuXuXuXuXuXuXuXuXuXuXuXuXuXuXuXuXuXuXuXuXuX",
"uXuXuXuXuXuXuXuXuXuXuXuXuXuXuXuXuXuXuXuXuXuXz n.`._.3 ;X X{ E /  X7XeXeXeXl v.{.5XS.5XuXuXuXuXuXuXuXuXuXuXuXuXuXuXuXuXuXuXuXuXuX",
"uXuXuXuXuXuXuXuXuXuXuXuXuXuXuXuXuXuXuXuXuXuXy B.4XB.3 x  .U I U ..+.+.+.C y z `.eXB.3XuXuXuXuXuXuXuXuXuXuXuXuXuXuXuXuXuXuXuXuXuX",
"uXuXuXuXuXuXuXuXuXuXuXuXuXuXuXuXuXuXuXuXyX).z `.4XN.3   +   I s # +   I s 2 z `.eX{.S.3XuXuXuXuXuXuXuXuXuXuXuXuXuXuXuXuXuXuXuXuX",
"uXuXuXuXuXuXuXuXuXuXuXuXuXuXuXuXuXuXuXuXrX3 [.wX;Xn.4 + @ O T d I @ O T d 7 l (.qXeXy D.uXuXuXuXuXuXuXuXuXuXuXuXuXuXuXuXuXuXuXuX",
"uXuXuXuXuXuXuXuXuXuXuXuXuXuXuXuXuXuXuXuXrX3 [.-Xv.3 I / H E ` I / H E ` I / @ y S.eXy D.uXuXuXuXuXuXuXuXuXuXuXuXuXuXuXuXuXuXuXuX",
"uXuXuXuXuXuXuXuXuXuXuXuXuXuXuXuXuXuXuXuXrX3 [.-Xv.3 d I @ O T d I @ O T d I s t S.eXy D.uXuXuXuXuXuXuXuXuXuXuXuXuXuXuXuXuXuXuXuX",
"uXuXuXuXuXuXuXuXuXuXuXuXuXuXuXuXuXuXuXuXrX3 [.-Xv.2 o G T I F o G Y I ( o G O y S.eXy D.uXuXuXuXuXuXuXuXuXuXuXuXuXuXuXuXuXuXuXuX",
"uXuXuXuXuXuXuXuXuXuXuXuXuXuXuXuXuXuXuX7XD.u ^.oXV.2 o G T I ( o G T I ( o G O u ^.*Xk n.-XuXuXuXuXuXuXuXuXuXuXuXuXuXuXuXuXuXuXuX",
"uXuXuXuXuXuXuXuXuXuXuXuXuXuXuXuXuXuXuX3Xu x z..X@.2   U # o Y   U # o Y   U d u x.XXo.j M.uXuXuXuXuXuXuXuXuXuXuXuXuXuXuXuXuXuXuX",
"uXuXuXuXuXuXuXuXuXuXuXuXuXuXuXuXuXuXuXuXrX3 k.=.V 2 I / H E ` I / H E ` I / # u o.XXu D.uXuXuXuXuXuXuXuXuXuXuXuXuXuXuXuXuXuXuXuX",
"uXuXuXuXuXuXuXuXuXuXuXuXuXuXuXuXuXuXuXuXuXuXy 3 5 I s # +   I s # +   I s # + a 3 3 }.uXuXuXuXuXuXuXuXuXuXuXuXuXuXuXuXuXuXuXuXuX",
"uXuXuXuXuXuXuXuXuXuXuXuXuXuXuXuXuXuXuXuXuXuX-Xz s ^ # ( E Y ^ # ( E Y ^ # ( E O 2 [.0XuXuXuXuXuXuXuXuXuXuXuXuXuXuXuXuXuXuXuXuXuX",
"uXuXuXuXuXuXuXuXuXuXuXuXuXuXuXuXuXuXuXuXuXuXuXM.a H + D T I H + D T I H + D T   2 uXuXuXuXuXuXuXuXuXuXuXuXuXuXuXuXuXuXuXuXuXuXuX",
"uXuXuXuXuXuXuXuXuXuXuXuXuXuXuXuXuXuXuXuXuXuXuXC.a @ a U # @ E   T # @ E   @   a 8 uXuXuXuXuXuXuXuXuXuXuXuXuXuXuXuXuXuXuXuXuXuXuX",
"uXuXuXuXuXuXuXuXuXuXuXuXuXuXuXuXuXuXuXuXuXuXuXuX].7 3 E E Y _ I ^ G Y ) @ 6 2 g uXuXuXuXuXuXuXuXuXuXuXuXuXuXuXuXuXuXuXuXuXuXuXuX",
"uXuXuXuXuXuXuXuXuXuXuXuXuXuXuXuXuXuXuXuXuXuXuXuXuXrX3 3 3 5 I s # + a 3 3 3 (.uXuXuXuXuXuXuXuXuXuXuXuXuXuXuXuXuXuXuXuXuXuXuXuXuX",
"uXuXuXuXuXuXuXuXuXuXuXuXuXuXuXuXuXuXuXuXuXuXuXuXuXrX3 n.m.m.C.y y B M.M.m.i (.uXuXuXuXuXuXuXuXuXuXuXuXuXuXuXuXuXuXuXuXuXuXuXuXuX",
"uXuXuXuXuXuXuXuXuXuXuXuXuXuXuXuXuXuXuXuXuXuXuXuXuXrX3 [.;X;X;X3 3 N.1X1X1Xp ).uXuXuXuXuXuXuXuXuXuXuXuXuXuXuXuXuXuXuXuXuXuXuXuXuX",
"uXuXuXuXuXuXuXuXuXuXuXuXuXuXuXuXuXuXuXuXuXuXuXuX6XZ.6 V.A.A.C.v.v.M.Z.A.A.h C ].uXuXuXuXuXuXuXuXuXuXuXuXuXuXuXuXuXuXuXuXuXuXuXuX",
"uXuXuXuXuXuXuXuXuXuXuXuXuXuXuXuXuXuXuXuXuXuXuXuX'.2 U U I o 5 uXuXC.s # U U s g uXuXuXuXuXuXuXuXuXuXuXuXuXuXuXuXuXuXuXuXuXuXuXuX",
"uXuXuXuXuXuXuXuXuXuXuXuXuXuXuXuXuXuXuXuXuXuXuXuX~.2 ` ` # g uXuXuXuX~.2 ` ` # g uXuXuXuXuXuXuXuXuXuXuXuXuXuXuXuXuXuXuXuXuXuXuXuX",
"uXuXuXuXuXuXuXuXuXuXuXuXuXuXuXuXuXuXuXuXuXuXuXuX).4 5 5 7 8 uXuXuXuX).4 5 5 7 8 uXuXuXuXuXuXuXuXuXuXuXuXuXuXuXuXuXuXuXuXuXuXuXuX",
"uXuXuXuXuX8XY.yXuXuXuXuXuXuXuXuXuX#XuXuXuXuXuXuX7X'.^.C V.g.#XuXuXuX7X'.oX~.m }.uXuXuX&X+XuX8X>X#XuXuXuXuXuX$X#XuXuXuXuX#XuX/.8X",
"9.R.<Xy.r.=Xd.0.0.Y.&X&XY.9XtXs.<.+X9X9X&X9X&Xs.9X0.@X<X4.G.T.=X&XY.8X2X/.9Xs.H.s.+XE.G.8Xj.G.}.5X8XR.<X&XG.; %X9X<X<X/.9.f.$X9X",
"0.q.t.< 2.6.>.g.;.:XQ.; 0.0.s.; 3.U.U.y.P.0.6.; s.j.J.I.y.Z 6.; P.y.9.f.M h.).t.<.=XJ.3.0.5.e.f.e.4.W.y.r.<.p.; L.t.W.H.7.; (.U.",
"1.<.S K.w.S J.8.; 6.K.w.3.T.U.6.1.a.i.1 M :.,.>.,._.9.6.>.,.; g.g.; ,.U.Z w.6.; 2.E.4.A t.5.i.>.6.; 1.6.A 1 ; 1.; H.(.,.N 5.q.W.",
"; ;.I.e.,.f.L.8.; u.2.3.<.t.8.; p.2.1.<.y.:.u.u.:.; :.6.>.,.,.1.; 8.u.:.2.6.>.6.a.i.6.; 6.S <.>.; ; 1.; ; 6.; _.N 6.>.,.H.2._.T.",
">.:.; <.J.< ; ,.p.1.; ; g.; ; ; 1.,.2.>.A ).I.q.; ; w.3.- 5.8.; >.i.u.i.2.:.>.; ; ; ; ; :.,.; 1.N _.> < p.:.t.; 8.1.G.; p.q.,.1.",
">.1.r.:.y.1 : ; ; 1.:.2.> : ; g.; ; ; ; ; ; 3.m , 6.; , - ; ; 6.>.:.,.:.2.n n ; ; ; ; 2.i.,.; 1.; 1.> - 2.:.; * ; 1.6.; * ; * ; ",
": , , * ; ; : ; * ; - , ; ; * : ; * , : ; - > ; ; > r = & , ; : ; b & : ; - > c * ; - & > v ; ; b , , ; ; - > ; : = - = & ; : ; ",
": c , v & ; c w , : c , > w w * * ; v = ; w * , , > = w * , , b w c : e & v > c b w > & w e v * b : e v & c > c e = ; = w & * : ",
"0 0 0 0 0 0 0 0 0 0 0 0 0 0 0 0 0 0 0 0 0 0 0 0 0 0 0 0 0 0 0 0 0 0 0 0 0 0 0 0 0 0 0 0 0 0 0 0 0 0 0 0 0 0 0 0 0 0 0 0 0 0 0 0 "
};
