/* XPM */
static char *_5391e0268e74d0ccad2ec20bb6a4cccRU68pI28wxTPi2S0[] = {
/* columns rows colors chars-per-pixel */
"64 64 177 2 ",
"   c #63482D",
".  c #64513E",
"X  c #795430",
"o  c #7A5937",
"O  c #685440",
"+  c #6E5A44",
"@  c #745C43",
"#  c #735E49",
"$  c #7D6244",
"%  c #74634D",
"&  c #7D674E",
"*  c #7B6752",
"=  c #7D6952",
"-  c #825A33",
";  c #89673D",
":  c #846645",
">  c #8A6742",
",  c #8C6C43",
"<  c #836748",
"1  c #856A4B",
"2  c #8B6E4C",
"3  c #916F4C",
"4  c #8D714E",
"5  c #94724E",
"6  c #846D52",
"7  c #896F51",
"8  c #836D58",
"9  c #857155",
"0  c #8C7253",
"q  c #85725A",
"w  c #8D765A",
"e  c #8E795D",
"r  c #927554",
"t  c #9B7553",
"y  c #967955",
"u  c #9A7A55",
"i  c #927759",
"p  c #947B5C",
"a  c #9C7D5B",
"s  c #A47D53",
"d  c #A27E5B",
"f  c #8F7861",
"g  c #947D62",
"h  c #9A7E61",
"j  c #9D815E",
"k  c #B9864E",
"l  c #A98355",
"z  c #A4835D",
"x  c #AB865C",
"c  c #AE8A5E",
"v  c #B38653",
"b  c #BB8C55",
"n  c #B48C5E",
"m  c #BB8F5A",
"M  c #BF9057",
"N  c #B5905F",
"B  c #BD915D",
"V  c #968163",
"C  c #9C8263",
"Z  c #9E8966",
"A  c #9C856A",
"S  c #9D896A",
"D  c #A38562",
"F  c #A98662",
"G  c #A68966",
"H  c #AC8B64",
"J  c #A18769",
"K  c #A38C6D",
"L  c #AC8E6B",
"P  c #B38D63",
"I  c #B98F62",
"U  c #B18F69",
"Y  c #AE916D",
"T  c #B49165",
"R  c #BB9364",
"E  c #B4936C",
"W  c #BA966B",
"Q  c #B6986F",
"!  c #BD996D",
"~  c #A48D72",
"^  c #A88F71",
"/  c #AD9273",
"(  c #B39573",
")  c #B99771",
"_  c #B69874",
"`  c #BC9B73",
"'  c #B29779",
"]  c #B59A7B",
"[  c #BB9D7A",
"{  c #BFA074",
"}  c #BEA07C",
"|  c #C18F54",
" . c #C49156",
".. c #C3945C",
"X. c #C9965C",
"o. c #C9985D",
"O. c #D09C5E",
"+. c #C29664",
"@. c #C49965",
"#. c #CB9C64",
"$. c #C09769",
"%. c #C49C6C",
"&. c #CA9E6B",
"*. c #D09F65",
"=. c #C29E73",
"-. c #C99F70",
";. c #C09F78",
":. c #CCA067",
">. c #C7A16D",
",. c #CCA16C",
"<. c #D2A46D",
"1. c #C5A175",
"2. c #CCA474",
"3. c #CFA876",
"4. c #C4A37B",
"5. c #CAA67B",
"6. c #CCA77D",
"7. c #C7A97F",
"8. c #CDA878",
"9. c #CFA979",
"0. c #CDA97C",
"q. c #CDA97D",
"w. c #D1A673",
"e. c #D1A775",
"r. c #D2A975",
"t. c #D3A975",
"y. c #D1A977",
"u. c #D5AB75",
"i. c #D8AC75",
"p. c #D1A679",
"a. c #D2AB7B",
"s. c #D3AD7B",
"d. c #D5AC7A",
"f. c #D0AB7D",
"g. c #D0AC7F",
"h. c #D4AF7C",
"j. c #D9AE79",
"k. c #D6B07E",
"l. c #D8B27E",
"z. c #DCB17E",
"x. c #B99F80",
"c. c #BEA282",
"v. c #C5A781",
"b. c #C4A682",
"n. c #C8A781",
"m. c #C5A883",
"M. c #C5A884",
"N. c #C9AA82",
"B. c #CCAB83",
"V. c #C9AA85",
"C. c #C2A688",
"Z. c #C6AA89",
"A. c #CBAD8A",
"S. c #D1AD80",
"D. c #D4AE80",
"F. c #D2AF85",
"G. c #D0AF88",
"H. c #CEB18D",
"J. c #D3B083",
"K. c #D7B180",
"L. c #D6B082",
"P. c #D2B086",
"I. c #D5B286",
"U. c #DAB384",
"Y. c #DBB584",
"T. c #D9B486",
"R. c #D4B38B",
"E. c #D7B588",
"W. c #D6B48B",
"Q. c #D4B48C",
"!. c #D7B78E",
"~. c #D9B68B",
"^. c #DCB98D",
"/. c #CFB190",
"(. c #D4B591",
"). c #D9B790",
"_. c #DBBB92",
/* pixels */
"T Y T W ` ` ! =.W ! ` =.1.=.` ` $.R R R I m n x n m R R R T %.%.@.&.#.R n H U E W W T E W T T L ` ` ` H ` 1.5.6.=.%.%.=.%.%.4.W ",
"/ 4.7.4.` ` ` ` _ ` ` E ! d ! R I n I R R R R R R R P P n n z F R W @.&.%.%.2.2.2.2.5.9.5.1.1.1.a I.N.1.5.&.#...1.%.+.%.0.5.S.0.",
"/ V.v.N.v.` } 4._ ` ;.` =.F R R +.R R R R R $.$.@.$.R R P n r T %.1.>.2.y.e.y.9.s.y.y.y.3.5.=.%.i L.u.2.L.I.g.9.J.S.9.S.I.R.T.5.",
"~ M.M.M.} 4.4.} } ( E E U z $.$.@.@.$.$.$.R $.$.@.R R R I n r E =.5.5.2.u.s.s.k.k.s.9.>.1.1.1.` 0 T.l.E.Q.E.E.Q.I.S.E.E.S.S.D.1.",
"~ m.m.m.4.4.4.N.v.4.4.[ T z %.@.&.2.@.&.@.+.R R R R n n n x 0 ` 1.2.5.5.9.I.S.f.k.s.1.3.y.3.5.1.g Q.F.9.0.E.I.R.I.R.I.F.R.I.2.2.",
"/ V.4.} 4.v.4.4.` 4.4.4.T d %.%.%.2.2.@.R I I R R I P c c x 0 ( 4.1.g.0.4.S.I.T.y.y.g.y.y.y.9.! w 0.9.y.9.9.1.D.S.9.f.S.0.9.5.1.",
"Y N.V.v.} m.} 4.v.M.M.4.E r R W %.%.%.=.R W E W W W P P H c 7 / [ ` 5.2.%.2.2.y.2.2.2.9.2.2.>.R 0 0.2.2.&.0.5.5.5.1.5.2.2.1.1.! ",
"V C A A V A A S A A A C F $ 4 r y r 0 r 0 y i i y y 0 1 2 a y 6 0 w y u u a a a a a a j a a j R 1 h C a a 5 y y V V a a C h p c ",
"! W T R %.%.%.&.+.=.` _ x H F H P P P P H E E m n R %.R R c H ! ! ! W W R E L L G H G L L W W F H T R %.4.;.1.! =.1.! ! ;.` W W ",
"n R R B B m m m  .[ 4.v.5.v.B.N.B.N.4.5.! W W W u P x x x c x L L E L E W w ;.` ! ! ! R n R %.R R R W %.g ` ` =.! %.=.%.! %.=.N.",
">.,.,.,.#.*.O.#...[ E.~.~._.).~.~.I.B.0.B.A.P.1.r T T E ( ( ( E E ( ( ! P 0 2.2.&.#.&.>.>.2.0.4.5.1.` W C 5.5.2.2.2.5.2.9.9.2.~.",
"1.9.5.2.1.5.9.9.2.` ^._._.(.(.Q.(.(.Q.A.Q.A.N.1.g [ [ [ ] ] ] c.c.] v.v.! < B +.+.+.&.5.2.5.%.%.1.5.2.W p 9.2.e.2.2.9.2.2.=.2.Q.",
"&.9.5.5.5.5.5.4.=.~ A.A.A.Z.A.A.A.A.Z.Z.A.A.} 4.g c.x.[ ] ] ' c.] x.C.Z.` : m B @.2.9.&.&.&.#.@.,.,.&.@.y >.&.&.@.&.,.@.&.w.2.v.",
"y.5.0.0.N.4.B.0.=.~ Z.A.Z.M.Z.Z.A.H.(.H.(.A.M.[ e / ' ] ` ] ] ( ( ] } [ T 6 2.0.B.I.B.g.2.#.+.+.#.>.9.%.g 9.9.g.R.I.D.2.5.S.S.A.",
"[ 0.0.0.n.5.0.4.! ~ A.H.Z.M.A.A.V.H.Z.A.Z.C._ ` g [ ] _ ( ] ] ] ' ] } [ Y 6 v.M.V.A.A.} v.[ 4.4.4.v.v.` e v.A.H.Q.4.4.0.2.4.v.Z.",
"/ / ^ L K ( _ E %.e S ~ S ~ ~ ~ ~ K S ~ K ~ A P * J C p e q g A g A S g G 6 / ( ] ] ] / / ~ K D a G L ` * g ~ ~ A A A J D A A ~ ",
";.4.4.4.1.4.%.1.=.W E E L E ) E W ;.` =.W ` 1.W H n R c H F z D H L L E H E ` 5.5.4.` ` ;.` ) T 1.4.4.` E E E ( ` ` E E ` ( Y E ",
"T N.1.=.v.=.5.4.[ ` ` ;.=.x =.%.=.;.` ;.1.1.5.=.=.W ) E U ! a L Y ( ( ( Y ( E E T E L T F H F %.p ( ( ( ( L L L L / Y L / E _ ` ",
"/ I.S.h.B.I.Q.Q.N.B.V.1.=.d S.9.2.y.2.9.p.p.p.9.9.6.6.6.4.2.1 ( [ [ 4.4.;.5.` ;.4.` ` ! W T T =.8 4.4.4.4.4.4.4.1.%.4.1.%.1.4.4.",
"H 9.A.H.V.A.N.N.0.S.S.B.2.F y.a.S.0.=.f.f.f.6.f.f.S.0.9.1.=.< ( _ [ ` ;.4.4.;.;.;.W ! E T T P %.7 %.&.$.$.$...m m B B ..B %.=.1.",
"/ S.S.0.5.9.9.9.y.S.B.0.4.D 6.6.6.f.9.9.B.B.N.F.B.n.n.4.[ ;.< ! ` ] ` ` 4.=.=.` W ) ` E P T P @.: +.@.....X.+.......#.@.+...&.2.",
"/ S.h.9.g.y.9.f.y.y.s.B.1.j 9.0.6.n.V.v.n.N.4.5.n.V.v.v.4.4.$ W _ [ ` ` ` ` T ! W E E P W W E R o v b b m m B @.=.1.1.1.5.1.5.0.",
"L 9.9.5.f.0.5.2.5.G.(.A.` z 9.&.e.w.-.&.w.w.w.e.e.p.5.=.;.! $ L ( _ ` ` ` ` W E E T T L P H P R 6 B.5.4.4.4.4.4.4.v.4.4.4.v.4.5.",
"K / _ ( W P P ` P W [ ] E g ` =.` =.;.W ` ` [ [ [ ( ( / / E 2 = g p C G C p F D D C z a a a F ! # [ _ [ ( _ ( / L K / / K ^ ( v.",
"` C K Y ( ` ` L H T ( ` L E P P E P E W E ` E P ` E z z z T P z F W L W E W E E ( L z D a D G T ( L E E E L T I P T E E P E E ` ",
"/ ( ] _ E T W l v ( ] ] ( ] ' ] ' ] ] _ ( / Y 5.V L G H H D J L L L L E 1.C / / / / L / / / / L Y / L 5.C L F z x H L H P L L L ",
"4.4.%.$...b @.%.m / M.M.C.Z.c.M.C.Z.A.C.v.C.( g.6 E ( E T E Y ( _ ( ` 1.2.A A.V.H.B.4.v.[ ` 1.1.4.4.4.9.D 9.=.%.=.%.%.=.%.! L E ",
"@.R m B +.B %.` %.( V.A.Z.M.C.Z.A.A.A.M.v.M.[ S.6 E ( ( E ` ( ` ` ` ` 9.e.C V.Q.P.B.B.;.5.` 4.4.B.v.4.1.C 5.2.2.5.%.%.5.=.W K ` ",
"..! R ! 1.4.N.4.` T &.2.9.D.F.R.Q.B.P.S.5.9.} L.7 ( Y Y T E E ` ` ` ` 2.2.j g.L.L.h.y.f.1.2.5.5.9.0.4.1.D 9.9.4.` L L E L H K ` ",
"..R ! E ( [ 4.} ` ( A.V.0.D.L.D.T.T.I.B.2.9.=.2.0 W P L L H L W ! W W %.%.A S.0.9.L.9.9.9.L.D.g.L.u.w.5.J 9.5.W Y H L L H L D ! ",
"1.4.4.[ ` ` ` ` E L M.M.c.v.} 4.M.v.c.M.4.V.( &.4 R ` ! P P T R W R W ` R p V.A.B.Q.B.N.P.B.A.B.0.s.2.%.z %.>.! E T P ` T P L R ",
"4.v.[ ` E L ` ( L D ( [ ( ( _ ( ( ] ( ] ( ( J R @ Y / / / J A E L h K ( W & L _ [ [ 4.} c.v.4.4.B.5.1.R z n W ( / / ( / / ( ( / ",
"F E E _ H F Y Y 5.E H F a L Y x F Y L G u D T %.R T L G j z y a L %.x z W T x F F H F F G j u F H L T 2.T >.R H G L L H F L Y W ",
"E 5.9.S.N.B.F.B.B.B.I.B.! x 9.w.#. .m &.9.F.>.2.&.@.2.%.P P a C E W ` ` ` %.%.1.=.1.! =.! W P W , +.b m v v b +.@.B B @.R B +.W ",
"_ g.T.k.g.y.y.h.y.h.%.;.W x ,.h.s.s.#.<.<.y.#.@.&.>.,.&.2.R 2 L ` ` %.=.=.` ! =.1.=.1.4.1.1.=.R - o.M #.B m &.,.#.,.<.#.,.y.9.! ",
"T s.k.h.s.d.w.i.s.z.i.2.R s X.<.&.,.#. .#.<.<.2.s.9.9.2.1.%.5 Y E W ` 4.4.4.4.1.0.4.0.B.4.` ` P X 2.,.&.#.,.#.i.e.#.u.w.e.y.y.! ",
"T l.s.e.s.y.y.2.e.y.u.&.n H w.,.u.j.z.u.<.i.<.#. .X.&.@.%.n 5 [ [ ` 4.4.4.4.5.9.4.` 1.4.[ ` ` c > |  .|  .X.k <.u.#.<.<.u.,.#.R ",
"( B.P.I.I.I.g.T.T.L.U.f.%.x #.*.<.,.s.y.#.j.g.g.#.#.y.S.5.R y _ [ 4.4.4.4.1.;.` ` ` 4.4.[ ( ` H > @.o.<.w.y.#.#.X. .X.*. . .#.%.",
"Y 5.0.B.0.S.S.S.F.S.I.B.v.U j.j.y.p.S.Q.I.I.I.E.I.L.T.S.1.%.r _ ` [ 4.4.` 4.` } ( ;.4.` ` _ _ L 0 w.,.#...o. .#.<.o.#.<.#.o.,.( ",
"0 0 4 2 4 0 0 r 0 r r y F 6 w w e w 9 0 9 6 1 0 2 2 1 $ 1 P y % % 6 6 6 9 9 9 9 9 q 6 9 9 = q z   ; , , , y y K K K Z K K Z S F ",
"` P E W W R ! W R R P P F ` ` W W ! ! W E R W =.%.2.9.>.! l n ! ! ` ;.` E E L G h C D h a D D a d a F d x x x d z d t r r u r T ",
"L ( ` ` _ E E Y L D W E E E E W T U L H L H F T u n n c x z F G H H ` ` ( w G E L E E T E ( ) ( ` ` ;.) Y ;.1.! @.%.W $.$.R R z ",
"` ` ` ` W W E E T y ` ! W W ! ! ;.;.1.1.4.4.` R 5 @.%.&.%.T R %.1.%.! 1.1.@ B.4.5.4.5.0.0.0.0.0.5.0.0.H T L.f.9.9.f.0.3.5.y.9.1.",
"0.n.4.;.=.` ;.` T C 9.5.5.D.I.E.E.E.I.F.R.I.4.@.t ,.` T =.! =.=.%.@.>.@.+.# 5.4.5.5.1.5.5.5.N.0.;.1.1.D W 9.y.9.f.L.9.y.L.u.y.I.",
"5.B.N.5.5.5.1.` E a 4.4.1.5.S.I.F.B.0.B.I.B.` @.V N.} 4.4.} [ 4.5.9.y.L.,.@ 1.1.1.1.4.4.4.4.4.` ` 1.1.F P 2.1.2.y.y.5.9.y.u.f.F.",
"5.N.4.5.B.5.4.! H a 4.5.4.4.B.F.F.5.N.N.S.0.W R h N.=.W E ` ` ;.5.5.0.9.W + 4.4.1.1.4.` ;.` ( Y _ ` ` y c #.,.&.,.#.#.,.,.&.2.B.",
"N.4.` 4.4.1.! T z a 4.4.4.B.F.I.B.B.F.I.P.B.( R a w.1.%.%.=.=.=.;.4.5.5.E O 4._ 4.;.=.1.1.` ` ` Q ` ` r x &.#.@.#.&.@.#.>.2.9.S.",
"e w w w 0 6 1 1 z 6 e p p p p g p p V V V p p T % S C g w 1 $ $ 4 4 4 2 z . Z V V V p p p p p w w w w r w D D Y / K / / K / ] ] ",
"F F L U W W E W T E H E U H G L H F d F d s I I n x W %.%.R R %.$.+.@.$.n D 0 a a F D F z a a a U H U G C E ( _ F a a C d u h i ",
"T ` ` ! Q W E ` T E E T =.x W P n n I n I n n x P n n R n I R L I @.&.@.W ! ! ! ! ! R =.{ T ` ` K ` _ Y ! ! %.%.! 1.! %.=.` 5.4.",
"/ 4.v.4.4._ ` ` _ ` ` ` ! F W I R n R $.R R R R $.W R P I n r E %.%.&.,.e.2.y.y.9.3.9.9.9.0.5.%.i E.I.2.S.y.&.@.0.S.L.9.S.I.E.9.",
"/ M.v.m.4.} 4.4.( ( ` E W z $.$.@.@.+.$.R R $.@.@.$.R I I P y L 1.2.2.2.<.y.y.h.y.s.y.w.2.%.;.%.0 s.i.h.E.I.E.E.I.~.E.E.E.E.L.4.",
"~ M.Z.A.m.N.N.4.4.4.` ` L d %.$.@.&.@.&.@.$.$.R $.R R I n n 0 ` 1.2.9.y.j.L.9.9.L.9.5.2.2.2.4.` g _.E.P.B.E.I.P.R.I.Q.~.D.L.h.2.",
"/ m.4.4.4.4.4.4.[ 4.4.4.T d %.@.&.2.&.@.$.R I R R I P n x x 0 ( ;.=.0.0.4.I.I.L.h.s.S.s.u.s.9.%.i S.5.2.9.I.1.9.S.B.f.y.I.g.9.%.",
"/ V.v.4.[ m.4.4.[ 4.v.4.L d %.W %.-.2.%.R R R W W I P P c H r ] 4.;.0.5.=.9.g.h.w.y.9.9.2.5.%.R w 0.9.9.&.2.0.y.=.0.S.9.5.1.4.1.",
"/ V.M.M.v.V.v.A.V.A.H.V.Y 1 P W %.W W W W ! ` ` ;.E x z x z 7 ^ ` =.9.>.2.y.9.y.y.y.9.9.9.9.>.N 7 0.0.0.1.%.1.4.4.1.4.4.5.;.;.R ",
"z 0 r y r p p p r w 0 w x 3 : 2 2 2 2 2 1 2 2 2 2 2 5 2 5 x x r r r r y y y i 0 2 7 2 6 4 0 r H p w 0 0 0 r r 0 i i i 0 0 p w c ",
"c n n B m ........` 4.4.) 4.;.} 4.4.;.=.` ! ! W x n R I n x z L T T L E P j Y L L L G H x P T P T R R &.( ` ` 1.=.%.=.%.! =.=.;.",
"@.&.:.#.#.X.X.X. .[ R.R.R.R.~.E.~.R.4.5.1.4.5.1.r n n P P T P T T ( E ` R 7 0.1.2.5.1.&.+.&.9.1.%.%.%.W V 5.0.9.1.e.9.9.2.h.2.E.",
"9.9.2.2.>.,.<.>.#.) ^.^._._._.Q._.Q.P.B.Q.A.V.=.y _ ( ( ( ] ] ] ] ] [ =.R 1 @.&.+...&.5.9.5.=.` 1.5.5.` g 5.9.p.9.2.9.9.2.2.2.).",
"%.9.5.5.5.5.5.5.2./ Q.Q.A.A.H.A.H.Q.A.Z.A.Z.v.;.g c.c.] ( E ] C.c.[ C.A.` < b ..+.&.2.%.,.,.,.#.&.,.%.R y &.%.,.&.&.>.&.&.&.2.V.",
",.9.f.0.5.5.0.4.` ^ H.A.Z.Z.Z.C.Z./.A.A.Q.H.v.[ f ' ] ] ` ( / _ ( ] [ 4.T 1 @.@.5.9.5.y.,.........#.,.@.y >.>.>.2.9.2.&.9.g.9.M.",
"4.5.5.5.4.4.N.4.=.K M.A.M.C.H.A.A.A.A.A.H.Z.v.[ g [ [ ] _ / ] ] ( ] c.[ E 6 n.V.P.P.V.N.N.1.1.1.9.S.B.1.e 4.N.Q._.7.n.5.0.B.v.Z.",
"4.B.F.N.B.B.S.4.! K Z.A.M.M.Z.Z.M.Z.C.C.C.c./ E e ] _ ( ( / ] ] ] ] [ ] L = 4.N.A.A.H.v.V.M.4.v.4.4.4.( g V.A.H.C.} v.v.v.v.v.M."
};
