/* XPM */
static char *result[] = {
/* columns rows colors chars-per-pixel */
"64 64 89 1 ",
"  c #010100",
". c #050A04",
"X c #080E06",
"o c #0D0E0B",
"O c #0A1006",
"+ c #12120E",
"@ c #161611",
"# c #1B1A14",
"$ c #1F1F18",
"% c #201F18",
"& c #13210E",
"* c #172910",
"= c #192B12",
"- c #1E3315",
"; c #22221A",
": c #28281F",
"> c #2E2E23",
", c #323226",
"< c #353629",
"1 c #38372A",
"2 c #3A3A2C",
"3 c #3F3F30",
"4 c #2B4B1E",
"5 c #365E25",
"6 c #396227",
"7 c #3E6A2A",
"8 c #454535",
"9 c #494837",
"0 c #4C4C3A",
"q c #4B503A",
"w c #51513E",
"e c #467830",
"r c #555540",
"t c #585742",
"y c #5A5943",
"u c #5F5F48",
"i c #64644C",
"p c #69684F",
"a c #6E6D52",
"s c #6C7B51",
"d c #757457",
"f c #717A57",
"g c #76765A",
"h c #7B7B5D",
"j c #7F7F61",
"k c #4C8434",
"l c #548D3A",
"z c #57953C",
"x c #59993D",
"c c #6EBE4C",
"v c #71C34E",
"b c #76CC51",
"n c #7BD555",
"m c #7ED957",
"M c #828163",
"N c #878867",
"B c #8D8D6B",
"V c #93936E",
"C c #969570",
"Z c #989772",
"A c #9C9C76",
"S c #A09F77",
"D c #A4A47C",
"F c #A8A77E",
"G c #ACAB81",
"H c #B1B086",
"J c #B6B589",
"K c #B8B789",
"L c #BBB98C",
"P c #C3C293",
"I c #C8C796",
"U c #CAC997",
"Y c #CCCB9A",
"T c #D0CF9C",
"R c #D3D19D",
"E c #D8D6A1",
"W c #DDDCA5",
"Q c #E0DEA7",
"! c #E2DFA8",
"~ c #E5E3AA",
"^ c #E9E7AD",
"/ c #EAE8AE",
"( c #EDEBB1",
") c #F1EFB5",
"_ c #F2F1B7",
"` c #F5F4BA",
"' c #F8F7BE",
"] c #FAF9BF",
"[ c #FBFAC1",
/* pixels */
"mmmmmmmmmmmmmmmmmmmmmmmmmmmmmmmmmmmmmmmmmmmmmmmmmmmmmmmmmmmmmmmm",
"mmmmmmmmmmmmmmmmmmmmmmmmmmmmmmmmmmmmmmmmmmmmmmmmmmmmmmmmmmmmmmmm",
"mmmmmmmmmmmmmmmmmmmmmmmmmmmmmmmmmmmmmmmmmmmmmmmmmmmmmmmmmmmmmmmm",
"mmmmmmmmmmmmmmmmmmmmmmml44444444444444xmmmmmmmmmmmmmmmmmmmmmmmmm",
"mmmmmmmmmmmmmmmmmmmmmmm6              emmmmmmmmmmmmmmmmmmmmmmmmm",
"mm644444444444444444444sAAAAAAAAAAAS, =44444444444444444444445mm",
"mm*                    M^^^^^~^^^^^(8                        &mn",
"77fhhhjhjjhhjhjjg+ ujjjL^^^^^(^^^^//Ahhjgjjgjjjjjjjgjjhjjjhy X77",
"  P^^^^^~~^^^^^^W% K^^~/^^///^/^^(^^^^^^^^^^^^^^^^^^^^^^~^~G    ",
"  P^^/^/^^^(^^^^Q% K^///^/))))))^^^^//^^^/^^//^^^/^/^/^/^^~G    ",
"  P^//^/^^(^^^^^!% K^////)]]][]]^^(^//^^//////////////////^G    ",
"  P^//^((^^^(^(^!; K~///()`'''''^^(^^^((//////////////////^J<>  ",
"  P^///^//(^^^^^Q$ K^/^`[`^^^^^^^(^(^^^^///////////^//////^//Y  ",
"  P^/////^^^^^^EY$ K^^^_]_^/////^^^((^^(///////^///////////^^I  ",
"  P^//////(^^^T@.  K^^/^^^^/////(^(^^/^^////////////////////^U  ",
"  P^//////^^(^Y@   K^/^^^^//////^^^^^/(^////////////////////^I  ",
"  P^(^(^/////^R+   L^//^/////////////////////////////////////I  ",
"  P^^^^^///^//R+   K^/^(//////////////////^//////////////////Y  ",
"  P^^^(^////I1>    L^/^///////////////////////////////////^J<>  ",
"  I^^^(^/^//P.     L(/^////////////////////////^^//(/)///(/F    ",
"  9tL^^^/^Pt9 @BV+ 8tL^^////////////^//////////^~pyyyttyttr8    ",
"    G~//^^F   #EW$   D^^///////////^/^//////////W$              ",
"    rhjghhy   #WQ%   rhhhhhhhhhhhhhhhhhhhhhhhhhhdo yaaaaaaaaau  ",
"              #WW;                                 L//(//////U  ",
"  299999999999yW~u9999999999999999o     ;9999989999I^////////I  ",
"  I(((((((/((((^^/(/(((/((/(((/)/):     p(/((((((((/^////////I  ",
"  P^^^^(/(/^^(^^//////^//////////(8;o +;g//^^(/(//^/^////////I  ",
"  P^(^_[[['^^^(^//////////////////^)8 M(////([[[[/^//////////U  ",
"  P^/^_[[[`^^(^(//////////////////^(8 M^///^(][[]///////////^I  ",
"  P^/^_[`^^^^^^(///////////////////(8 M^([[['////^^/////////^I  ",
"  P^^^_[_^^^(^(^//////////////////^(8 M^)[[['////^///////////I  ",
"  P^`'[[`^^(^^^^//////////////////((8 M^/((//^^//////////////U  ",
"  P^']]]_^/////////////////////////(9 M^^//^^^//////////////^I  ",
"  P^(())(^/////////////////////////(8 M^/////////////^//////^I  ",
"  P^^^^^///////////////////////////(8 M^/////////////////////U  ",
"  I^^^^(///////////////////////^///(8 M^/////////////////////I  ",
"  P^^^(^////////^^^^^^^^^/^^^^^^^^//8 j^^^^///////^^^^^^^^^^^I  ",
"  P^^^^^////^^/^^SCVVZVP^/^RVZCCVZVZ> wVL^/////^//^^^HCZVCVCVM  ",
"  P^^^^^^^^^^^^^W%     M^^^F            i^^^^^^^^^^^^0          ",
"  CJJJJJJKKKKKKKG#     pJKKC2221        0KKKKKKKKKKKK2          ",
"                           3)//^X                               ",
"    +##################o X#w)^^^;##########################+    ",
"    A~~~~~~~~~~~~~~~~~~p u^~^^^^~~~~~~~~~~~~~~~~~~~~~~~~~~~D    ",
"  ooD^^^^^^^^^^^^^^^^^^a uQQ^^/^^^^^^^^^^^^^^^^^^^^^^^/^^^^Foo  ",
"  HR~^/////////^////^//a o@w////^///////^///////^/////////^~RJ  ",
"  P^^^////////////////^aX  3)/////////////////////////////^^^I  ",
"  P///////////////////^TLa 2)^///^///////////////////^/^/////I  ",
"  P^/////////////////^^^^N 8(^//////////////////////^^^^^///^I  ",
"  P^(^^^^(^//////////////N 2(///////////////////////^_`(////^U  ",
"  P^^^^(^^^(////////////^N 8(/////////////////////^^^`[)^///^U  ",
"  P^(^^^^^(^(^//////////^N 3(////////////////////^^)_][)^///^U  ",
"  P^^^(^(^^^^////////////N 3(/////////////////////^'[[[)//^^^I  ",
"  P(^^^(////^////////////N 8/////^^(/////////////^^_```(^/^YVj  ",
"  P^^^^^/////////////////N 2(///^(^^///////^//////^^^^^^^/^G    ",
"  CGE^^(////^(//////////^N 2(///^^^(////^(/////////////////F .--",
"    D^^^^^^^^^^^^/^^^^^/^N 8(///^^^^^^^^^^^^///^^^^/^^^^^^^D &nm",
"&&  BUUUYUYUUUUUUUYIYUIYYg 2YUUUUUUUUUUYYUR^^^/^^YYIUUYIYIIV &mm",
"bb* ooooo+oooooooOooooooo.  oooooooOoooooor^^^//W:oooooooooo &nm",
"mm-XXXOX.XXXXXOXXXXXOXOXoXXXOOXXOoXXXXOXOOqWWWWWR#   XOXOXOXX=mm",
"mmvccccvcccccccccccvcccccccccccvccccvcccccl#$####.   kcccccccvmm",
"mmmmmmmmmmmmmmmmmmmmmmmmmmmmmmmmmmmmmmmmmmz          zmmmmmmmmmm",
"mmmmmmmmmmmmmmmmmmmmmmmmmmmmmmmmmmmmmmmmmmnvvvvvvvvvvnmmmmmmmmmm",
"mmmmmmmmmmmmmmmmmmmmmmmmmmmmmmmmmmmmmmmmmmmmmmmmmmmmmmmmmmmmmmmm",
"mmmmmmmmmmmmmmmmmmmmmmmmmmmmmmmmmmmmmmmmmmmmmmmmmmmmmmmmmmmmmmmm"
};
