/* XPM */
static char *_5ee9e6bb2fe4b5382331340971577e5WWmXTQYD3YwtOgyq[] = {
/* columns rows colors chars-per-pixel */
"47 48 4 1 ",
"  c None",
". c #363E3D",
"X c #BBE8F0",
"o c #F4F4F4",
/* pixels */
"                                               ",
"                                               ",
"    ...   ....   .....   ....    ....   ...    ",
"   .ooX...XooX...XoooX...XooX....XooX...Xoo.   ",
"  .ooooXoXooooXoXoooooXoXooooXooXooooXoXoooo.  ",
"  .ooooooooooooooooooooooooooooooooooooooooo.  ",
"  .XoooooooooooooooooooooooooooooooooooooooX.  ",
"   .XoooooooooooooooooooooooooooooooooooooooX. ",
"   .ooooooooooooooooooooooooooooooooooooooooo. ",
"   .XoooooooooooooooooooooooooooooooooooooooX. ",
"  .XoooooooooooooooooooooooooooooooooooooooX.  ",
"  .oooooooooooooooooooooooooooooooooooooooooX. ",
"  .oooooooooooooooooooooooooooooooooooooooooo. ",
"  .XooooooooooooooooooooooooooooooooooooooooX. ",
"   .XooooooooooooooooooooooooooooooooooooooX.  ",
"   .oooooooooooooooooooooooooooooooooooooooo.  ",
"   .Xooooooooooooooooooooooooooooooooooooooo.  ",
"  .XoooooooooooooooooooooooooooooooooooooooX.  ",
"  .oooooooooooooooooooooooooooooooooooooooooX. ",
"  .oooooooooooooooooooooooooooooooooooooooooo. ",
"  .Xooooooooooooooooooooooooooooooooooooooooo. ",
"   .XoooooooooooooooooooooooooooooooooooooooX. ",
"   .oooooooooooooooooooooooooooooooooooooooX.  ",
"   .oooooooooooooooooooooooooooooooooooooooo.  ",
"   .oooooooooooooooooooooooooooooooooooooooo.  ",
"   .XooooooooooooooooooooooooooooooooooooooX.  ",
"  .XooooooooooooooooooooooooooooooooooooooooX. ",
"  .oooooooooooooooooooooooooooooooooooooooooo. ",
"  .oooooooooooooooooooooooooooooooooooooooooo. ",
"  .oooooooooooooooooooooooooooooooooooooooooo. ",
"  .XooooooooooooooooooooooooooooooooooooooooX. ",
"   .XooooooooooooooooooooooooooooooooooooooX.  ",
"   .oooooooooooooooooooooooooooooooooooooooo.  ",
"   .XooooooooooooooooooooooooooooooooooooooX.  ",
"  .XooooooooooooooooooooooooooooooooooooooooX. ",
"  .oooooooooooooooooooooooooooooooooooooooooo. ",
"  .oooooooooooooooooooooooooooooooooooooooooX. ",
"  .XoooooooooooooooooooooooooooooooooooooooX.  ",
"   .Xooooooooooooooooooooooooooooooooooooooo.  ",
"   .oooooooooooooooooooooooooooooooooooooooo.  ",
"   .XooooooooooooooooooooooooooooooooooooooX.  ",
"  .XooooooooooooooooooooooooooooooooooooooooX. ",
"  .oooooooooooooooooooooooooooooooooooooooooo. ",
"  .ooooXoXooooXooXoooooXooXooooXoXooooXoXoooo. ",
"   .ooX...XooX....XoooX....XooX...XooX...Xoo.  ",
"    ...   ....    .....    ....   ....   ...   ",
"                                               ",
"                                               "
};
