/* XPM */
static char *_d489bdf7a9a4d82bab30f8ed9593da28UDDnnjJwQkIyM0T[] = {
/* columns rows colors chars-per-pixel */
"64 64 224 2 ",
"   c #0E5E39",
".  c #12553D",
"X  c #11583C",
"o  c #03752D",
"O  c #007D2A",
"+  c #0B6536",
"@  c #076E31",
"#  c #096934",
"$  c #077834",
"%  c #127335",
"&  c #167B34",
"*  c #237637",
"=  c #2E1B5B",
"-  c #1E3D49",
";  c #272A54",
":  c #233150",
">  c #1B4347",
",  c #164D41",
"<  c #184943",
"1  c #145040",
"2  c #097943",
"3  c #197E4E",
"4  c #2D7E50",
"5  c #397E58",
"6  c #0E7269",
"7  c #616D49",
"8  c #4A7F68",
"9  c #517F6E",
"0  c #557F72",
"q  c #707D6B",
"w  c #00802F",
"e  c #008334",
"r  c #00863A",
"t  c #00893D",
"y  c #1A843C",
"u  c #21823D",
"i  c #068646",
"p  c #008D43",
"a  c #00934D",
"s  c #058456",
"d  c #198459",
"f  c #009753",
"g  c #009957",
"h  c #029059",
"j  c #009B5B",
"k  c #2F8C4E",
"l  c #389455",
"z  c #088667",
"x  c #019C63",
"c  c #088874",
"v  c #09887C",
"b  c #179171",
"n  c #2B8E6E",
"m  c #00A165",
"M  c #00A56A",
"N  c #00A971",
"B  c #00AD78",
"V  c #00B07C",
"C  c #469857",
"Z  c #549069",
"A  c #59847D",
"S  c #668D72",
"D  c #65807F",
"F  c #7E8772",
"G  c #66A773",
"H  c #70AA74",
"J  c #75A979",
"K  c #888556",
"L  c #858A69",
"P  c #8D916C",
"I  c #92956F",
"U  c #999968",
"Y  c #848D76",
"T  c #8C9372",
"R  c #85937B",
"E  c #8B957D",
"W  c #929776",
"Q  c #949A7B",
"!  c #9B9C7C",
"~  c #A49F6B",
"^  c #A39F7B",
"/  c #9AAA7F",
"(  c #A4A278",
")  c #AC7FB7",
"_  c #118A8C",
"`  c #178D98",
"'  c #348C8C",
"]  c #00B98A",
"[  c #31A490",
"{  c #0E90AF",
"}  c #3891A2",
"|  c #4A8A8B",
" . c #73818D",
".. c #7C9198",
"X. c #53A494",
"o. c #70AC97",
"O. c #4A8AB1",
"+. c #139AC9",
"@. c #1598E5",
"#. c #179CFF",
"$. c #8C9582",
"%. c #8C9981",
"&. c #919782",
"*. c #959B83",
"=. c #9A9E83",
"-. c #999D8A",
";. c #A19E83",
":. c #9CA185",
">. c #9DA28C",
",. c #8EB789",
"<. c #94B88C",
"1. c #97B898",
"2. c #A4A384",
"3. c #AAA782",
"4. c #A4A58B",
"5. c #A9A78B",
"6. c #A7A98B",
"7. c #ACAA8C",
"8. c #B3A687",
"9. c #B3AB8B",
"0. c #A2BB8F",
"q. c #B3B38D",
"w. c #A4A693",
"e. c #A6A994",
"r. c #ACAC94",
"t. c #A1A298",
"y. c #A6AB99",
"u. c #ACAE9A",
"i. c #B3AE94",
"p. c #B7AE95",
"a. c #AEB19C",
"s. c #A5BB98",
"d. c #B3B295",
"f. c #BBB395",
"g. c #BAB897",
"h. c #B3B39B",
"j. c #BCB59B",
"k. c #BDBA9C",
"l. c #8A88AA",
"z. c #9982AB",
"x. c #968AB9",
"c. c #A880B3",
"v. c #99BEB0",
"b. c #B5A2A7",
"n. c #AFB3A1",
"m. c #B4B5A3",
"M. c #BBB5A3",
"N. c #B6B8A5",
"B. c #BCBBA4",
"V. c #B9B7A9",
"C. c #BDBBAB",
"Z. c #CDBE89",
"A. c #C1B494",
"S. c #C6BA9B",
"D. c #C3BC9D",
"F. c #C2BDA4",
"G. c #C9BEA4",
"H. c #C1BEAB",
"J. c #D2A5BF",
"K. c #AAC099",
"L. c #B8C49F",
"P. c #ADC5A9",
"I. c #B9C7A6",
"U. c #D7C58A",
"Y. c #D5C48D",
"T. c #C8C399",
"R. c #CCC39C",
"E. c #D2C695",
"W. c #D5C896",
"Q. c #DACC95",
"!. c #D1C69D",
"~. c #D5CA9D",
"^. c #DACD9B",
"/. c #DED09E",
"(. c #C5C1A5",
"). c #CBC4A4",
"_. c #C5C2AB",
"`. c #CBC5AB",
"'. c #C8C9A8",
"]. c #CEC9AC",
"[. c #D1C6A3",
"{. c #D4CAA4",
"}. c #DACEA3",
"|. c #D1C7AB",
" X c #D4CCAC",
".X c #D9CEAB",
"XX c #DCD1A4",
"oX c #D7D0AE",
"OX c #DCD2AD",
"+X c #C4C3B3",
"@X c #CBC6B2",
"#X c #C7CDB3",
"$X c #CDC9B4",
"%X c #CDCAB9",
"&X c #D4CDB3",
"*X c #D8CFB2",
"=X c #D3CEBB",
"-X c #CCD0B2",
";X c #D6D0B5",
":X c #DBD3B4",
">X c #D6D1BC",
",X c #DED6B9",
"<X c #DBD4BC",
"1X c #DAD4BE",
"2X c #DED6BD",
"3X c #DFD8BE",
"4X c #E0D4A9",
"5X c #E0D6B4",
"6X c #E0D6BD",
"7X c #E1D8BD",
"8X c #B287C7",
"9X c #8EBDC2",
"0X c #D6D2C2",
"qX c #DBD6C3",
"wX c #DAD6C5",
"eX c #DED8C4",
"rX c #DBD7C9",
"tX c #DED9CA",
"yX c #DFDBD0",
"uX c #E0D7C1",
"iX c #E1D9C4",
"pX c #E1DBCA",
"aX c #E1DBCC",
"sX c #E2DDD0",
/* pixels */
"].].|. X&X&X X;X|.&X&XOX:X&X&X;X.X{. X{.{.~.~.E.{.{.{.{.{.{.OX;X}.OXOX{.[.{.|.{. X X|. X&X X X|.&X&X&X).&X*X,X:X*X.X.X*X.X.X:X X",
"C.qXqX1X>X>X>X>X;X>X>X&X&Xf.&X.X{.{.{.{..X X X X.X X{.{.[.{.g.F. X.XOX;X;X;X1X:X:X,X,XqX1X1X1X:Xr.tXeX1XqX:XOX~.1X;X^.;XwX1XqX2X",
"C.rXwXrXwX>X>X1X&X>X1X>X Xj.OX}..X}.}.OXOX.XOXOXOXOX.X X{.{.6._.1X1X:X,X3X2X2X,X3X2X,X:X,X,X:X X-.iX7X:XiXpXeX2XpXeX,XtXpXaXiX:X",
"V.wXwXwX>XqX0X>X>X&X&X X).A.OXOXOXOX.X.XOX}.OX.XOX.X.X.X{.{.2.`.:X2X2X:X7X7X7X7XuX2X:X.X:X:X1X&X*.pXuXpXaXaXaXsXiXqXpXaXqXeXuX;X",
"V.wXwXwXqXwXqXeXwXqXqX>X].j.:XOX:X5XOX:XOXOX.X.X.X.X{.{.~.~.2.$X:X:X,X:X:XiXeX2XuX2X:X,X,X,X1X:X-.aXtX,X1XpXiXpXpXaXpXiXaXpX:X;X",
"C.tXqX0XqXwXqXqX>XqXwX>X).f.:X:X:X,X,X:X.X}.{..X.X{.{.[.[.[.2.$XwX:XeX2X&XeXiXaX6X,XeX2X2X2X,X X-.2X:X3X2X,X:XuXiX2X2XiXeX,X,X:X",
"C.wXrXqX>XwX=XwXwXwXrX0X).5. XOX:X:X,X:X.X.X&X X;X X X{.{.[.2.%X1X:X2X:X;X,X:X2X,X2X,X2X:X,X:X{.*.qX,X,XOXqXqX2X2X1XqX,X,X1X1X X",
"4.e.e.r.w.u.y.y.e.y.y.e.T.I 2.5.7.2.2.4.4.4.4.4.5.7.3.! ( g.7.Q =.2.4.2.2.4.4.4.4.4.4.5.4.4.7.{.Y 7.e.e.5.( 5.4.r.r.r.r.r.r.7.T.",
" X X[.}..X.XOXOX}.&X&X XR.).D.D.).).).).R.).).{.~.{.OX X{.[.).&X].].`.`.).).`.).).`.).].).].].).R.[.[. X=X&X&X X&X&X X|.&X X].|.",
"~.{.{.{.~.^.^.^.^.+X0XwXwXwXwXqXeXqX1X,X&X X X X7.[.R.R.!.).R. X].&X]. X|.>.>X&X&X&X X{.~.{.;X{.{. X X Xr.&X&X:X;X;X:X:X&X:X:XwX",
":X:X:X:XOX4X4XXX^.+XaXaXsXsXsXsXaXpXeXeXeXtXeX;X2.{. X&X&X=X&X&X&X$X&X&X!.*.1X,XOXOX;X:X:X:XeX1X:X;X;X Xw.1X2X,X:X,X2X2X,X2X,XsX",
":XeX2X2X1X2X2X2X:XH.sXsXsXaXsXyXaXsXtXtXaXtXqX:Xw.=X>X>X>X0X0XwXwX=X0XqX*XI ^.}.}.}.OX:X:X1X;X;X,X,X1X|.w.2X,X,X,X,X2X,X:X,X,XaX",
"OXqX2XqXqX2XqX1X:XV.tXtXtXrXtXtXtXtXrXrXtXtX>X1Xw.0X0X0X0X0X=XwX>X0XwXtX&XI Q.^.OX:X,X;XOXOXOXXX:X:XOX{.2.:X:XOXOXOX:XOXOX:X:XwX",
"3X2XeXeXwX1XqXqX&XV.rXrXrXrXrXwXrXtXtXtXtXrXqX>X>.$X=X>X>X>X>X=X=X0XqX1X|.&.,XqXeXtXeXiX,XOX}.XXOX:X,X*X4.,XeXuXiXeXiX:X,XiXeXrX",
"%XqXqXqXwXqXeXqX XV.rXtXtXrXtXtXrXtXwXrXwX0X&X&Xe.0X>X>X>X>X>X=X=X0X0X>X].&.qXwXwXtXtX=XwX=X1XqX>XwX0X&X>.wXrXtXeX1XqXeX1XqXwXrX",
"B.C.N.N.N.C.C.C.&X>.m.N.m.N.N.N.N.m.m.N.N.N.M.{.R m.h.r.r.>.u.N.u.h.N.u.).E C.B.C.C.C.B.B.M.m.h.r.h.B.&XY u.N.N.u.a.h.h.h.h.m.N.",
"@X@X`.@X`.@X`.@X;X].(.(.k.(._.F.(.`.`.`._.`.&X.XD.D.D.k.D.D.g.j.B.F.F.`.).`.`.&X&X`.`.`.`.)._.R.@X+X$X&X`.H.F._.`.@XG.F.@X(.F.F.",
"G.qX1X:XwX:XqX1X>X>X>X1X;Xj.:X.X;X:X*X:X:X:X,X:X:X X&X X|.&Xi.`.`.&X&X&X].&X@X@X].].].|.).).).;Xw.$X$X&X&X@X`.@X@X@X@X`.@X@X=X&X",
"V.pXtXiXtXtXaXtXeXeXtX1X;Xr.iXqX2XuX,X6X2X6X6X2X2XqXqXqXqX,XQ $X0X0XqX1X1XqX&X>X:X;X;X;X X{. X:X$.qXqXqXqXqX1XqX:X:XqX1X:X1XqX1X",
"M.eXtXtXrXtXtXtXeXeXeXeX:Xi.6X6XeXqX,XiXeXuXqXuXuXeXqXqX2X:XW &X>X>X>X1X1X:X:X;X:X&X&X X X X{.;X&.:X;X.X.XXXXXQ.Q.{.^.}.^.OX:X:X",
"C.eXpXeXqX2X2X2XuXiXeXqX:Xu.qXqXqXuX2XqXeXeXeXeXqXqXeXqXqX>XW ;X>X>X>X:X1X:X:X&X&X&X&X X{.{.|.}.T }.OXXX^./.XX}.}.^.XXXX}.}.OX:X",
"V.eXiXeXeX3XeXeXeX7XuXqX&Xr.2XqXqXeXeXqXqXeXqXqXeXtXeXwXqX1XT &X=X>X>X>X;X:X).&X X X|.{. X X X{.K U.U.U.Q.Q.~.OX:X,X:X1X2X1X2XqX",
"B.2XeX2XeXeXeX2X2XtXsXrX&Xi.,X:X6X:X5X:X6X,X6X6X6X6XqX2X1X;XP `.&X>X>X;X>X&X&X X X|.|.{.{.{.|. X$.qX1X1XqX1X1X0XqXqXqXqXqXqX1XqX",
"u.H.+X+X_.(.(.@X(._.+X+X|.w.@X@X`.@X`.`.@X@X@X@X@X+X+X+X+X@X2.*.h.r.h.B.j.i.k.k.j.j.k.f.f.g.D. XF +X+X+X_.+X+X_.H.B.H.H.B.H.+X0X",
"_.h.h.B.C.B.B.h.g.k.M._.).F.M.j.k.g.k.B.B.C.B.k.B.k.q.d.d.|.[.k.g.`.B._._.).F.B._.k.d.h.r.h.B.].`.M.B.F.F.k.B.k.k.k.B.F.k.B.B. X",
"$X%X=X=X&X X|.Z.Y.+X=X=X=X=X=X=X=X=X=X=X%X$X`.2Xh.].).).).`.`.@X@X`.]. X:Xu.@X@X@X@X`.@X`.@X@X_.@X@X`.1Xa.`.).T.T.).`.).{.`.`.@X",
"1X1X*XOX^.U.}.oXW.C.rXrXrXrX0XrXwXrXtXwXwXwX$XeX*.&X&X&X&X&X&X>X>X&X;X1X:Xy.tXwXtXtXqXqX>X;X1X:XqXqX1X=Xa.2X1X;X1XOX:X,X;X&X].&X",
"OX}.^.^.}.~.OX>X{.C.rXtXtXwXrXrXtXrXtX0X0XqX=XeX*.&X&X>X&X>X&X>X>X>X>X2X,Xe.wXaXpXqXeX=XqX>XqXqXeXwX1X&Xh.2X,X2XqX:X1XqX<X&X@X>X",
"XX;X X;X1XqXeXqX XF.:X,XeXiXeXaXaXqXtXeX:X:X&XiX=.&X&X&X X&X&X>X1X>X1X1X,Xe.qXuXuXuX2XuX:X,X1X2X,XqX:X&Xh.2XeX1X>X@X X&X&X].`.>X",
"^.}.&X X&X>XqX1X XH.tXtXqXuXiXiXpXpXtXtX,X2X&X,X=.&X|. X].].|. X;X;X;X;X.Xy.eXqXqXiX2X2X:XiXeXqXiX5X:X&Xh.qX,X X X]. X X]. X).;X",
":X1X1X>X>X>X=X>X].M.rXwX0X>X>X1XwX0X>XwX1XqX XOX=. X;X&X{.{.{.{..X X X;X X>.wXtXeXaXeX1XtXeXtXeX2XuX:X|.h.:X:X;X&X{.[.;X{.[.{. X",
"=X>X=X$X].`.$X$X].a.$X%X%X$X$X$X$X%X$X%X@X@XF.{.L `.@X@X$XH.B.].).h.B.$X XQ (.$X%X=X>X=X0X0X>X>XwX>X&X).d.D.`.$X@X$X$X@X$X$X@X`.",
"d.m.N.N.a.r.n.m.1X_.h.h.7.h.h.9.d.m.h.h.3.r.B.OX).M.m.h.d.k.q.r.k. Xd.d. X(.d.d.h.h.h.h.h.d.6.h.k.M.F.:XB.;XF.g.k.m.B.D.h.B.F.).",
"`.2XqXtXrXtXtXeXeXtXtXqX Xd.2X6XXX^.Q.:XeXtXOX,XOXOX,X:X{.{.f.D.&X&X:X;X:X:X:X1X:X1X:X:X:X X[.|.U }.U.^.Y.Y.E.}..X}.~.OX}.}.}.|.",
"C.qXaXuX2X2XuXiX2XuX.X&X|.r.:XiX7X7XOXOX5X:X}.}.OX:X:X:X,X~.^ `.:X;X:X:X:X;X&X:X1X;X1X1X1X1X:X[.K }.Q.OX^.^.:X:XOX:X5X:X:XeXqX X",
"B.uXuXiX6X2X:X7XuXpX7X:X{.9.Q.5XOXOX}.^.}.5X5X:XuXeX2X,X:X.X2.@X&X&X:X1XqXqX1X1XeX1XqXeX>X1X:XR.K 6X:X:XOX:XOX7X6XOX7X5X2XeX3X|.",
"B.uX2X,X7X6X,X:X6X6X7X;X!.i.7X:X7XuXuX5X5X7X5XOXQ./.OXOXOXW.2.>X>X>XqXqXqXqXqXqX1X>XqX1X>X>X:XT.P Q.Q.Q.Q.XXU.5X7XOX:X5X7X:XOX[.",
"C.eXtXpXpXiXeXpXpXiXiXqX X9.4X4X5XOXuXuXOXuXeXeXOXOXuXeXqX~.2.&X>X1XqXqX1X1X:X&X>X>XqXqX>X&X>XR.P }./.5X:X6X}.XX/.^.XX4XQ.^.XX X",
"C.eXeXeXeXtXtXtXpXiXpXeX1Xm.uXuXqX,XeXaXtXaXtXaXpXpXaXiX2X;X2.%X>X>X0X>X&X1X&X1X@X1X1X=X>X>X>X).E 5X5XOXXXXX^.OX:X/.XX5XOX/.:X].",
"&.Q ! W Q Q ! ! ! ! =.2.D.Y %.E %.%.R R R R Y R R T T L W R.9.R Y Q E E E E &.%.=.=.=.=.:.Q >.S.7 U U ( ~ 3.2.h.N.m.a.m.m.a.h.(.",
"&X].|. X|.|.{. X[.[.S.[.R.&X&X X X X&X X X|.|.;X X;X:X:X;XE.[.;X&X=X&X&X|.`.).G.j.D.F.j.j.F.F.D.A.f.A.p.A.A.A.f.f.9.8.8.8.9.8.|.",
"].&X>X&X&X&X&X X).j.&X&X X X X&X X X|.).|.].).[.7.~.E.!.R.).).).].).&X&X&X4.). X X&X&X X&X&X&X&X>X>X:X`.C.:X1X;XOX;X XOXOX.X XR.",
";X>X>X;X;X&X&X&X).r.;X;X;X&X;X;X:X:X:X1XqXqX&X.X^ XXOX;X;X{. X;X:X*X&X:X:XF eX1XeXqXqXeXeXeXeXeXeXeXqXk.B.iXqXeX2XeXeXeX2X2X2X:X",
"eXeXqX:X:X1X1X>X|.a.eXqXqXiXpXaXaXaXtXtXaXtX>XOX3.OX:X[.,X;X:X:X;X.X:XOX{.Y qX2XqX2X1XqXeXeXeXeX1X1X1Xg.B.2X2X2XeXiX2XuXiX6XuXpX",
"qXtXtXqXqXqX1X:X].r.qX1X1X1XeXpXiXeXqXtXtXeX&XOXw.eX0XqXqXqX>XqX2XqX7XiX:XF 1X1X2XqXqXqXqXqXqX>X>X1X1Xj.B.2X:X,XeX3X2XeXeX7XeXtX",
"qXeXqXqXeXeX1X;X).i.qXqXqX1XeXeXtXqXeXqXeXeX&X{.w.eX:X&X&X:X>X1XwXqXeXqX{.F qX1X1X1X1X1X1X>X=X&X>X>X>Xp.k.OX:XOX:XOXOX5X:X:X,XeX",
"eXqX>XqX1X1X;X XS.d.qXwXqXeXeXpXeXtXtXtXtXtX&X X>.5X:X:X;X1X1X:X1XqXqXqX|.q qX&X1X1X:XqX1X>X>X>X>X>X1X9.g.:XXXOXOX:XOXOX,X,XqXeX",
">.=.:.2.:.! Q Q S.*.>.4.6.7.5.r.4.4.r.r.e.e.r.].F n.u.r.6.^ P I ! ! ! Q g.q m.h.h.a.r.r.r.r.r.4.>.>.>.7.:.k.k._._.C.+X+XC.+X%X%X",
"D.k.F.G.`.`.G.|.].].D.G.G.D.j.F.D.A.p.f.p.9.).{.S.A.|. X X X X*X{.{.{.{.{.j.;.r.9.i.i.f.f.i.i.p.F.F.).D.i.B.M.M.r.5.4.w.5.2.w.>.",
"`.;X&X X X&X&X&X]. X X{.*XD.&X{.{.[.{.{.{.{.!.!.[.{.[.{.{.{. X).[.OXOXOX XoX X;X;X:X X:X>X`.>X;XC.=X&X].&X X;X{. X;X X X;X&X2X1X",
"C.wXwXqXqX>X>X:X&X>X>X&X Xj. X}..X{..X.XOX.X.X.X.XOX X X{.{.6.`.:X:X:X,X2X,XuX,X,X,X,X,X,XeXqX:X-.aXtX,XeX6XOX}.eXiXiXqXeXpXiX,X",
"C.rXwXwX>X>XqXqX&X&X&X X|.j.OX.XOX:X.X.X.X}.OXOX:XOXOX{.{.{.6._.,X2X:X:X:X,X3X3X2X6X6X:X:XOX:X.X*.7X7X7XpXpXaXaXaXaXaXaXaXaX7X:X",
"V.wXwXtXqXeXwXqXqX1X>X;X).f.;XOXOX:XOX:XOXOX.X.XOX}. X}.{.~.2.$X1X,X2X,X7XiX,X,XuX1X1X;X,X1X1X>X-.sXaXaXeXaXpXtXtXpXaXaXiXiXuX:X",
"C.wX0X0XwXqXqXqX>XqXqX>X).f.;X;X:X2X:XOX.X}.{..X.X}.{.[.[.R.:.@X:X*XeX2X&XtXpXiXuX3XeX3X,X2X,X;X-.eX:X:X,XpX:X,XqXqXuX6XtXiX:X.X",
"C.tXwX0X=XI.G >X1XqXqX1X).f.;X;X:X,.,X:X.X.X.XOX;X XR.t.J./ Z %XqX:XqX,X:X'.G eX,X,X2XK.J ,XL.b.H qX,X,XOX,X<.,.:XqXiX2X<.,XH s.",
"y o.9Xn c 8XZ l l G P.s.Z I T.l i J L.'.0.'.0.l '.k o.1.d _ O.8Xs.G I.m.J -XC n l J +.` L.C ` -...I.X.P.s.` O 1.#Xv.v.H d 9 <.T.",
"u z v $ a g r D O ) l.O k & & O s  .q 3 { 3 f O & * b | n 8 g O { d & 9 4 5 z.v i c.' s & f b A z 2 #.3 c i N O _ v @.b h O z.S ",
"p i 0 ] x 9 ' j O g ] x s O. .g p V M & 4 e r e t x.k f r t O D D O t ..8 x g O a +.d 9 v f M r g O p g 9 & O p O ' l.t 5 f z #.",
"O w | b t A [ j O m a s i v j O N a p i n e m m e O w f r t t p O j m e a g r g B M g O g 0 i r O w p O O g O x.5 f r t [ a x.O.",
"r e O i } $ O p N p O O D O O O p t a r 9 z.| z O O x s o f j O r M m M a e r O O O O O e t O p 5 x.@ $ N e v O j p v O N z t p ",
"r p c e n % + O O p e a @ + O D O O O O O O s 6 # f O # o O O g r e t e a 2 2 O O O O a M t O p O p @ o a e O . O p g O . O . O ",
"+ # # . O O + O . O o # O O . + O . # + O o @ O O @ : X   # O + O ,   + O o @ > . O o   @ , O O 1 # # O O o @ O + X o X   O + O ",
"+ > # <   O > - # + > # @ - - . . O , X O - . # # @ X - . # # 1 - > + ;   , @ > . - @   - ; , . 1 + ; <   > @ > ; X o X -   . + ",
"= = = = = = = = = = = = = = = = = = = = = = = = = = = = = = = = = = = = = = = = = = = = = = = = = = = = = = = = = = = = = = = = "
};
